<?xml version="1.0" encoding="utf-8"?>
<!-- Generator: Adobe Illustrator 28.0.0, SVG Export Plug-In . SVG Version: 6.00 Build 0)  -->
<svg version="1.1" id="Ebene_1" xmlns="http://www.w3.org/2000/svg" xmlns:xlink="http://www.w3.org/1999/xlink" x="0px" y="0px"
	 viewBox="0 0 64.7 66.2" style="enable-background:new 0 0 64.7 66.2;" xml:space="preserve">
<style type="text/css">
	.st0{fill:#232021;}
	.st1{fill:#EFC462;}
</style>
<path class="st0" d="M32.6,23.2c-0.2,0.3-0.4,0.4-0.7,0.4c-0.4,0-0.6-0.1-0.6-0.5l-0.2-1.5c0-4.7-0.2-9.3-0.7-14
	c-0.2-1.8,0.3-3.2,1.6-4.3c0.6-0.5,1.5-0.5,2,0c1,0.9,1.4,2,1.2,3.2c-0.9,4.5-1.7,9-2.4,13.5C32.6,21.2,32.5,22.2,32.6,23.2z"/>
<path class="st0" d="M36.5,23.8c0,0.6-0.3,0.9-0.9,0.8c-1.5-0.1-2.2-0.6-2.1-1.4l3.9-15.3l0,0c1.7-4,3.1-5.5,4.2-4.7
	c0.9,0.7,1.2,1.3,1.1,1.8C40.8,11.8,38.8,18.1,36.5,23.8z"/>
<path class="st0" d="M30.7,23c0.2,0.2,0.2,0.5,0,0.8c-0.1,0.2-0.4,0.3-0.6,0.4c-0.7,0.1-1-0.2-1.1-1c-2.5-5.5-4.2-11.3-5.2-17.2
	c-0.2-1,0-1.8,0.5-2.2C25,3.1,26,3.3,26.6,4c0.1,0.1,0.1,0.2,0.2,0.2c0.8,1.5,1.4,3.1,1.7,4.9C29.2,13.8,30,18.4,30.7,23L30.7,23z"
	/>
<path class="st0" d="M27.9,23.7c0.4,1-0.1,1.7-1.3,2c-0.3,0.1-0.6,0-0.9-0.3c-0.1-0.1-0.2-0.3-0.3-0.5c-3.8-5.1-6.6-10.6-8.3-16.8
	c-0.4-1.3-0.5-2-0.5-2.1c0.9-3.4,2-3.5,3.5-0.3C22.7,11.1,25.3,17.1,27.9,23.7L27.9,23.7z"/>
<path class="st0" d="M42.8,30.5c-0.1,0-0.2,0-0.3-0.1c-0.3-0.1-0.5-0.3-0.6-0.5c-1-2.2-2.5-3.8-4.8-4.7c-0.3-0.1-0.5-0.4-0.4-0.7
	c0-0.2,0.1-0.4,0.4-0.5c2-5.6,5.4-10.9,10.1-16C48,7.1,49,6.8,50.1,7.3c0.5,0.2,0.8,0.6,0.9,1.4c0.1,0.5,0,1-0.4,1.5
	c-4.2,5.3-7.8,10.1-10.8,14.4c-0.1,0.1-0.1,0.2-0.1,0.3c0,0.1,0.1,0.2,0.2,0.2c0.1,0,0.1,0,0.2-0.1c3.5-3.4,9.4-9.2,14.2-10.2
	c0.7-0.1,1.4,0.3,1.5,1c0,0.1,0,0.2,0,0.2c0,0.9-0.3,1.7-1,2.3c-2.8,2.5-5.8,4.7-9,6.5c-0.1,0.1-0.1,0.1-0.1,0.3l0,0
	c0.1,0.1,0.1,0.1,0.3,0.1c3.8-1.8,8-3.5,12.3-3.3c1.1,0.1,1.9,1,1.9,2.1c0,0.2,0,0.3-0.1,0.5c-0.2,0.7-0.8,1.2-1.8,1.5
	C53.2,27.6,48,29.1,42.8,30.5z"/>
<path class="st0" d="M24.6,25.5c0.2,0.2,0.4,0.4,0.5,0.6c0.1,0.3,0.1,0.6-0.1,0.9l-1.1,1.6c-0.1,0.2-0.4,0.3-0.6,0.3l-0.5-0.1
	c-4-2.8-8-5.7-11.8-8.7c-1.1-0.9-2-1.9-3-3c-0.4-0.5-0.3-1.1,0.2-1.5c0,0,0.1-0.1,0.2-0.1c0.4-0.2,0.9-0.2,1.5,0.1
	C15.1,18.3,20,21.6,24.6,25.5L24.6,25.5z"/>
<path class="st1" d="M31.1,21.7l0.2,1.5c0,0.4,0.2,0.5,0.6,0.5c0.2,0,0.4-0.2,0.7-0.4c0.2,0.1,0.5,0.1,0.9,0
	c-0.1,0.8,0.6,1.3,2.1,1.4c0.6,0,0.9-0.2,0.9-0.8c0.2,0.1,0.4,0.2,0.6,0.1c-0.2,0.1-0.3,0.3-0.4,0.5c0,0.3,0.1,0.6,0.4,0.7
	c2.2,1,3.8,2.6,4.8,4.7c0.1,0.3,0.3,0.4,0.6,0.5c0.1,0,0.2,0,0.3,0.1c0.2,0.2,0.2,0.4,0,0.7c-0.3,0.6-0.4,1.3-0.2,2.1
	c0.1,0.3,0,0.6-0.2,0.9c-0.3,0.5-0.6,0.9-0.8,1.4c-0.1,0.2-0.2,0.4-0.1,0.6c0.1,0.4,0.2,0.5,0.6,0.4c-0.4,0.5-0.5,0.8-0.2,1.1
	c-0.8-0.4-1.3-0.5-1.5-0.2c-2.4,3.2-5.6,4.6-9.6,4.2c-0.3,0-0.5,0-0.6,0.2S30,42.3,30,42.6c-0.2-0.2-0.5-0.2-0.8-0.2
	c0-0.1,0.1-0.2,0.1-0.3c0.1-0.3,0-0.5-0.3-0.7c-1.2-0.8-2.2-0.5-2.7,0.8c-0.3-0.3-0.5-0.3-0.5-0.1c0.3-0.4,0.5-0.8,0.6-1.2
	c0.1-0.3,0-0.6-0.3-0.8c-1.2-0.8-2.1-1.9-2.6-3.3c-0.4-1.2-0.1-2.7-0.3-4.1c0-0.4-0.2-0.6-0.6-0.6c-0.4-0.1-0.8-0.2-1.2-0.1l0,0l0,0
	c0.4-0.1,0.8-0.1,1-0.1c0.7,0.1,1.4-0.4,1.4-1.1c0-0.3,0-0.6-0.2-0.9c-0.3-0.4-0.6-0.5-0.9-0.5c0.5-0.5,0.5-0.8,0.2-0.7l0.5,0.1
	c0.3,0,0.5,0,0.6-0.3l1.1-1.6c0.2-0.3,0.2-0.6,0.1-0.9c-0.1-0.2-0.2-0.5-0.5-0.6c0.2,0,0.4,0,0.6,0c0.1,0,0.2-0.1,0.2-0.2
	s0.1-0.2,0.1-0.4c0,0.2,0.1,0.4,0.3,0.5c0.2,0.3,0.5,0.4,0.9,0.3c1.2-0.3,1.6-1,1.3-2c0.7,0.2,1,0,1.1-0.6c0.1,0.8,0.5,1.1,1.1,1
	c0.2,0,0.5-0.2,0.6-0.4c0.2-0.3,0.2-0.5,0-0.8C31.2,22.9,31.3,22.5,31.1,21.7L31.1,21.7z"/>
<path class="st0" d="M22.5,29.5c0.3-0.1,0.6,0.1,0.9,0.5c0.4,0.6,0.2,1.4-0.3,1.8c-0.3,0.2-0.6,0.3-0.9,0.2c-0.2,0-0.5,0-1,0.1l0,0
	l0,0c0.4,0,0.8,0,1.2,0.1c0.3,0.1,0.5,0.3,0.6,0.6c0.1,1.4-0.1,2.9,0.3,4.1c0.5,1.4,1.4,2.5,2.6,3.3c0.3,0.2,0.4,0.5,0.3,0.8
	c-0.1,0.4-0.3,0.8-0.6,1.2c-3,4.9-6.2,9.7-9.7,14.4c-0.3,0.4-0.5,0.6-0.6,0.6c-0.8,0.2-1.6-0.3-1.8-1.1c-0.1-0.3,0-0.7,0.1-1
	c2.4-4.9,6.4-9.8,9.7-13.7c1.4-1.6,1.2-1.7-0.4-0.5c-3.5,2.7-7.4,6-11.6,9.8c-0.3,0.3-0.8,0.5-1.2,0.4c-1-0.1-1.5-0.6-1.6-1.4
	c0-0.4,0.1-0.8,0.4-1.1c3.2-3.3,6.6-6.2,10-8.5c1.2-0.8,1.1-0.9-0.2-0.4c-2.7,1-5.7,1.9-8.9,2.6c-0.9,0.2-1.6,0-2.3-0.6
	c-0.5-0.3-0.5-1-0.1-1.4c0.1-0.1,0.1-0.1,0.2-0.2c3.8-2.5,7.6-3.2,11.9-4.4c0.1,0,0.2-0.1,0.2-0.2l0,0c0-0.1-0.1-0.2-0.2-0.2
	c-3.6,0.7-7.2,0.5-10.9-0.4c-1-0.2-1.6-1.2-1.5-2.2c0.1-0.8,0.8-1.2,2-1.2c3.4,0,6.7,0.1,9.8,0.4c1.4,0.1,1.5-0.1,0.1-0.6
	c-3.3-1.2-6.8-2.6-10.7-4.2c-1.7-0.7-1.9-1.6-0.5-2.7c0.2-0.2,0.5-0.2,0.8-0.2c3.4,0.5,6,1.3,9.4,3C19.4,28,21,28.8,22.5,29.5
	L22.5,29.5z"/>
<path class="st0" d="M42,36.7c-0.3,0.1-0.5-0.1-0.6-0.4c0-0.2,0-0.4,0.1-0.6c0.2-0.5,0.5-0.9,0.8-1.4c0.2-0.3,0.2-0.6,0.2-0.9
	c-0.2-0.8-0.1-1.5,0.2-2.1c4.5-1.1,10.2-2.4,14.6-0.5c0.6,0.3,1,1,0.7,1.7c-0.1,0.3-0.3,0.5-0.6,0.6c-0.8,0.4-1.7,0.6-2.7,0.5
	c-3.6-0.3-7.1-0.4-10.7-0.3c-0.1,0-0.2,0.1-0.2,0.2l0,0c0,0.1,0,0.2,0.2,0.2c4,0.4,8.3,1.2,12.9,2.5c0.3,0.1,0.6,0.3,0.8,0.5
	c1.3,1.6,1,2.4-0.9,2.4C51.8,38.8,46.9,38,42,36.7z"/>
<path class="st0" d="M41.8,37.8c4.7,2.4,8.8,5.4,12.2,9c0.3,0.3,0.4,0.9,0.3,1.3c-0.1,0.3-0.3,0.6-0.6,0.8c-1,0.6-2.1,0.6-3.1-0.2
	l-11.3-8.6h-0.1L39,40.4c-0.2,0.2-0.2,0.4,0,0.6c2.7,2.5,11.8,12.4,10.6,16.2c-0.2,0.6-0.8,0.9-1.4,0.7c-0.1,0-0.2-0.1-0.4-0.2
	c-1-0.8-2-1.9-2.9-3.2c-2-3-3.9-6-5.8-9.1c0-0.1-0.1-0.1-0.2-0.1l0,0c-0.1,0-0.1,0.1-0.1,0.2c2.1,5,3.8,10.2,4.8,15.6
	c0.1,0.6,0,1.2-0.5,1.6c-0.4,0.4-1.1,0.3-2-0.3c-0.3-0.2-0.5-0.4-0.6-0.7c-1.4-3.4-2.5-7-3.4-10.5c0-0.1-0.1-0.2-0.3-0.2l0,0
	c-0.1,0-0.2,0.1-0.2,0.3c0.5,4.2,0.4,8.4-0.3,12.6c-0.1,1-0.7,1.4-1.8,1c-0.3-0.1-0.6-0.3-0.7-0.6c-0.5-0.9-0.7-1.9-0.8-2.9
	c-0.4-5.9-0.4-11.6-0.7-17.3c0,0,0-0.1-0.1-0.1s-0.2,0-0.3,0c0,0-0.1,0-0.1,0.1c-0.4,4.3-0.9,8.7-1.5,13c-0.3,2.1-0.8,4.2-1.6,6.1
	c-0.3,0.7-1.1,1.1-1.8,0.8c-0.3-0.1-0.6-0.3-0.7-0.6c-0.6-1.2-0.9-2.5-0.7-3.9c0.7-5.8,2.1-11.3,4-16.8c0-0.3,0.1-0.5,0.2-0.7
	s0.3-0.2,0.6-0.2c4,0.4,7.2-1,9.6-4.2C40.6,37.3,41.1,37.4,41.8,37.8L41.8,37.8z"/>
<path class="st0" d="M29.1,42.4c-2.4,7-4.3,12.9-8.9,17.5c-0.4,0.4-0.9,0.4-1.3,0c-0.1-0.1-0.2-0.3-0.3-0.5c-0.1-0.8,0-1.6,0.4-2.6
	c2.1-5,4.5-9.9,7.1-14.6c0.6-1.4,1.5-1.6,2.7-0.8c0.2,0.2,0.3,0.4,0.3,0.7C29.1,42.2,29.1,42.3,29.1,42.4L29.1,42.4z"/>
</svg>
