<?xml version="1.0" encoding="utf-8"?>
<!-- Generator: Adobe Illustrator 28.0.0, SVG Export Plug-In . SVG Version: 6.00 Build 0)  -->
<svg version="1.1" id="Ebene_1" xmlns="http://www.w3.org/2000/svg" xmlns:xlink="http://www.w3.org/1999/xlink" x="0px" y="0px"
	 viewBox="0 0 64.7 66.2" style="enable-background:new 0 0 64.7 66.2;" xml:space="preserve">
<style type="text/css">
	.st0{fill:#174288;}
	.st1{fill:#DE4E6C;}
	.st2{fill:#E8413E;}
</style>
<path class="st0" d="M42,3.7c-0.2,1.1-0.5,2.2-0.8,3.4c-0.1,0.4,0,0.6,0.3,0.7s0.6,0,0.7-0.3c0.4-0.7,1-2.1,1.8-2.5
	c0.5-0.2,0.7-0.3,0.8-0.2c1,0.6,1.4,1.9,0.8,3c-0.1,0.1-0.2,0.3-0.3,0.4c-0.5,0.6-0.8,1.4-0.8,2.3c0,0.3,0.1,0.4,0.4,0.1L47.8,8
	c2.2-0.1,3,0.9,2.2,2.9c-1.4,3.4-8.5,14.6-13.4,12.9c-1.3-0.4-1.9-1.5-1.8-3.2c0.3-4.7,1.2-9.3,2.6-13.9c0.5-1.5,1.3-2.8,2.4-3.9
	c0.2-0.2,0.5-0.3,0.9-0.3C41.1,2.7,41.6,3.1,42,3.7z"/>
<path class="st1" d="M47.8,8L45,10.7c-0.2,0.2-0.4,0.2-0.4-0.1c0-1,0.2-1.8,0.8-2.3c0.8-0.9,0.8-2.2-0.1-3.1C45.2,5,45,4.9,44.9,4.8
	s-0.4,0-0.8,0.2c-0.8,0.4-1.4,1.7-1.8,2.5c-0.1,0.2-0.5,0.4-0.7,0.3c-0.3-0.1-0.4-0.3-0.3-0.7C41.5,6,41.8,4.8,42,3.7
	c1.8-0.7,3-2.5,5-0.5C47.9,4,48.2,5.7,47.8,8L47.8,8z"/>
<path class="st2" d="M25.1,15.1c-0.3,0.7-0.5,1.4-0.4,2.2c0,0.1,0,0.1-0.1,0.2h-0.3c-0.2,0-0.4-0.1-0.4-0.3
	c-0.3-1.6-0.9-2.6-1.9-3.1c-0.9-0.5-1.6-0.2-1.9,0.8c-0.8,2.5-1,4.5-0.6,6.1c0.3,1.1,0.1,1.2-0.5,0.2c-0.6-0.9-1-1.9-1.3-2.8
	c-0.5-3.3-0.4-5.9,0.4-8c0.8-2,3-2.3,4.5-0.9C23.8,10.7,24.7,12.6,25.1,15.1L25.1,15.1z"/>
<path class="st0" d="M17.6,18.3c0.3,0.9,0.7,1.8,1.3,2.8c0.6,1,0.8,0.9,0.5-0.2c-0.4-1.6-0.2-3.6,0.6-6.1c0.3-1,0.9-1.3,1.9-0.8
	s1.6,1.6,1.9,3.1c0,0.2,0.2,0.4,0.4,0.3h0.3c0.1,0,0.1-0.1,0.1-0.2c0-0.8,0.1-1.5,0.4-2.2c0.9-1.3,2.1-2.9,3.8-2.1
	c0.9,0.4,1.2,1.2,1.2,2.4c-0.3,6.4-1.6,12.5-4.1,18.4c-1.3,3.1-3.7,2.5-5.5,0.4c-3.8-4.5-6.4-9.6-7.7-15.4c-0.3-1.5-0.3-2.7,0.2-3.7
	c0.3-0.7,1.1-0.9,1.8-0.6c0.2,0.1,0.4,0.2,0.5,0.4L17.6,18.3L17.6,18.3z"/>
<path class="st2" d="M45.3,33.5l-2.9,2.4c-0.8,0.7-1,0.5-0.5-0.4c1.1-2.3,1.4-4.2,0.8-5.5c-0.2-0.5-0.8-0.7-1.3-0.5h-0.1
	c-1.4,0.8-2.3,1.6-2.6,2.5c-0.8,1.8-1.2,1.8-1.2-0.3c0-0.5,0.1-1.2,0.2-2.1c0.9-1.2,1.7-2.2,2.7-2.9c1.2-0.9,2.4-1.1,3.6-0.4
	C45.7,27.4,46.1,29.8,45.3,33.5z"/>
<path class="st0" d="M37.7,29.7c-0.2,0.9-0.2,1.6-0.2,2.1c0,2,0.4,2.1,1.2,0.3c0.4-0.9,1.3-1.7,2.6-2.5c0.5-0.3,1.1-0.1,1.4,0.4
	c0,0,0,0,0,0.1c0.6,1.3,0.4,3.1-0.8,5.5c-0.5,0.9-0.3,1.1,0.5,0.4l2.9-2.4l0.7-0.3c0.7-0.4,1.6-0.1,2,0.7c0.2,0.5,0.2,1-0.1,1.4
	c-2.6,4.3-6.1,8.1-10.7,11.3c-1.9,1.3-5,1.2-5.2-1.7c-0.3-3.7,0.1-14.6,3.6-17.2c0.3-0.2,0.6-0.2,0.9,0C36.9,28,37.4,28.7,37.7,29.7
	L37.7,29.7z"/>
<path class="st2" d="M28.2,44.6c-0.8,0.6-1.7,1-2.6,1.2c-0.3,0.1-0.5,0-0.4-0.4c0.1-0.8,0.2-1.7,0.2-2.5c0-1.7-1.2-2.5-3.7-2.3
	c1.5-1.8,4.6-4,6.3-1.2C28.5,40.3,28.6,42,28.2,44.6L28.2,44.6z"/>
<path class="st0" d="M21.6,40.6c2.5-0.2,3.8,0.6,3.7,2.3c0,0.8-0.1,1.7-0.2,2.5c0,0.3,0.1,0.5,0.4,0.4c1-0.2,1.8-0.6,2.6-1.2
	c1.4,1,1.6,2.3,0.7,3.9c-2.5,4.4-8,10.3-13.3,10.7c-0.3,0-0.6-0.1-0.8-0.3c-0.8-0.9-1.2-1.9-1.2-3.2c0-5.5,0.9-11,2.5-16.4
	c0.2-0.8,1.1-1.2,1.8-1c0.2,0.1,0.5,0.2,0.6,0.4c0.5,0.5,0.7,1.2,0.7,2.1c0,1.7,0,3.3,0,4.9c0,0,0,0,0.1,0.1l0,0l0,0
	C19.5,43.4,20.3,41.7,21.6,40.6z"/>
<path class="st0" d="M48.2,50.3L45.8,53c-0.2,0.3-0.2,0.4,0.2,0.3c0.6-0.1,1.1-0.4,1.6-0.9c0.3-0.3,0.6-0.5,1-0.6
	c2.3-0.7,3.4,0,3.3,1.9c0,0.3-0.2,0.6-0.4,0.8l-3.8,3.3c-0.4,0.3-0.3,0.5,0.2,0.4l4.5-0.5L54,58c0.6,0.1,1.1,0.7,0.9,1.4
	c0,0.3-0.2,0.5-0.4,0.7C50.9,63,38,66.1,35,63.4c-0.3-0.2-0.4-0.5-0.4-0.9c0-1,0.3-2,0.9-3c3.2-4.9,7-8.9,11.3-12.2
	c0.7-0.5,1.4-0.6,2.1-0.1c0.2,0.2,0.3,0.5,0.2,0.8L48.2,50.3L48.2,50.3z"/>
<path class="st1" d="M52.4,57.7l-4.5,0.5c-0.5,0.1-0.5-0.1-0.2-0.4l3.8-3.3c0.2-0.2,0.4-0.5,0.4-0.8c0.1-2-1-2.6-3.3-1.9
	c-0.4,0.1-0.7,0.3-1,0.6c-0.5,0.5-1,0.8-1.6,0.9c-0.4,0.1-0.4,0-0.2-0.3l2.4-2.7c0.5,0,1-0.1,1.6-0.3c2.1-0.9,4.3-0.1,5,2.1
	c0.3,1,0.1,2-0.5,3C53.8,56,53.1,56.9,52.4,57.7L52.4,57.7z"/>
</svg>
