<?xml version="1.0" encoding="utf-8"?>
<!-- Generator: Adobe Illustrator 28.0.0, SVG Export Plug-In . SVG Version: 6.00 Build 0)  -->
<svg version="1.1" id="Ebene_1" xmlns="http://www.w3.org/2000/svg" xmlns:xlink="http://www.w3.org/1999/xlink" x="0px" y="0px"
	 viewBox="0 0 64.7 66.2" style="enable-background:new 0 0 64.7 66.2;" xml:space="preserve">
<style type="text/css">
	.st0{fill:#E94E1F;}
	.st1{fill:#F1952F;}
</style>
<path class="st0" d="M43.2,17.7c-1.7,4.6-5.1,6.2-10.1,4.6c-1.4-0.4-2.2-1.1-2.5-2c-0.4-1.3-0.8-2.1-1.3-2.6
	c-0.1-5.4,1.3-10.5,4.3-15.1c0.6-0.9,1.6-1.2,2.6-0.9C42.5,4.1,43.6,12,43.2,17.7z"/>
<path class="st1" d="M29.4,17.8c0.5,0.4,0.9,1.3,1.3,2.6c0.2,0.9,1.1,1.5,2.5,2c5,1.6,8.3,0.1,10.1-4.6c5.3,1,9.4,3.4,12.2,7.4
	c5.8,8.1,7.8,17.1,6.1,27c-0.2,1-0.8,1.8-1.9,2.2c-0.3,0.1-0.7,0.1-1-0.1c-1.3-0.8-2.1-1.9-2.4-3.5c-1.2-6.9-2.1-11.9-7.3-17.4
	c-0.5-0.5-0.7-0.5-0.5,0.3c0.8,3.7,1.9,7.3,2.2,11.2c0.3,4.7,0,9.4-0.8,14.1c-0.2,1.3-0.6,2.3-1.2,3.1c-0.5,0.8-1.7,1-2.5,0.4l0,0
	c-3.3-2.4-3.4-6.1-4.3-9.6c-0.4-1.6-1-3.4-1.8-5.5c-1.6-4-2.9-8.2-3.8-12.5c-0.3-1.7-0.6-1.7-0.9,0c-0.2,1.3,0.3,3.3,0.3,4.8
	c0,3.7-0.3,24.3-6.2,24.2c-2.6-0.1-3.6-3.9-3.9-6c-0.9-5.9-1.9-11.4-0.9-17c0.1-0.8,0.9-3.1,2.2-7c0.9-2.5,1.5-5,2-7.7
	c0-0.2-0.1-0.3-0.2-0.4c-0.1,0-0.2,0-0.2,0c-4.5,2.8-7.7,6.3-9.7,11.3c-1,2.3-1.8,5-3.4,6.8c-2.8,3.2-6.5,5.1-11.1,5.7
	c-1.9,0.2-2.9-0.6-3-2.4c0-1.9,0.6-4,2-6.2c3.1-4.9,6.4-9.5,10.1-14C17.4,21.9,22.8,18.8,29.4,17.8z"/>
</svg>
