<?xml version="1.0" encoding="utf-8"?>
<!-- Generator: Adobe Illustrator 28.0.0, SVG Export Plug-In . SVG Version: 6.00 Build 0)  -->
<svg version="1.1" id="Ebene_1" xmlns="http://www.w3.org/2000/svg" xmlns:xlink="http://www.w3.org/1999/xlink" x="0px" y="0px"
	 viewBox="0 0 64.7 66.2" style="enable-background:new 0 0 64.7 66.2;" xml:space="preserve">
<style type="text/css">
	.st0{fill:#436CA3;}
	.st1{fill:#232021;}
	.st2{fill:#F195B6;}
</style>
<path class="st0" d="M32.1,21.4c-1-0.3-1.8-0.2-2.6,0.1c-0.7-2.3-1.4-4.6-2.1-6.9c-0.8-2.5-1.1-4.5-1-6c0.2-2.1,0.9-4.1,2.1-5.9
	C29,2,29.9,1.8,30.6,2.3c0.1,0.1,0.3,0.2,0.4,0.3c2.3,2.8,3.2,6.2,2.9,10.1c-0.2,2.3-0.7,4.6-1.4,6.9C32.3,20.2,32.1,20.8,32.1,21.4
	L32.1,21.4z"/>
<path class="st0" d="M27.1,22.9l-2.3,2.6c-0.4-0.8-0.9-1.5-1.7-2c-2.8-1.9-6.5-3.6-8.6-5.8C11.3,14.2,10,10,10.6,5
	c0.1-0.5,0.5-0.9,1.1-0.8h0.1C21.3,6.4,26.4,12.7,27.1,22.9z"/>
<path class="st0" d="M38.1,24.2c-0.1-0.3-0.4-0.5-1-0.5c-0.3,0-0.7,0.1-0.9,0.4l-0.7,0.8c0-0.4-0.3-0.6-0.9-0.6
	c1.1-1.8,0.9-2.9-0.4-3.2c2-8.4,4.9-15.8,14.4-16.3c0.3,0,0.5,0.2,0.5,0.4c0.5,4.1,0.2,8.8-3.4,11.5c-2.5,1.9-4.9,4.1-7.1,6.4
	C38.5,23.1,38.3,23.6,38.1,24.2z"/>
<path class="st1" d="M34.2,20.9c1.4,0.4,1.5,1.4,0.4,3.2c-0.2,0.1-0.4,0.4-0.5,0.7c-0.1,0.3-0.3,0.5-0.6,0.5S33,25.2,32.8,25
	c-0.2-0.2-0.2-0.4-0.2-0.7c0.1-0.6,0.3-1.2,0.7-1.8C33.5,22,33.8,21.5,34.2,20.9z"/>
<path class="st1" d="M32.1,21.4c0.2,0.5,0.3,0.9,0.3,1.3c-0.7,1.3-1.7,2.3-3,2.8c-0.3,0.1-0.6,0.3-0.8,0.6L27.9,27
	c-0.1,0.1-0.2,0.1-0.3,0c-0.1-0.1-0.1-0.2-0.2-0.3c0-0.3-0.2-0.4-0.5-0.2c-0.2,0.1-0.3,0.3-0.3,0.5c0,0.1,0,0.2,0,0.2
	c0.1,0.1,0.1,0.2,0.2,0.2c0.2,0.1,0.2,0.3,0.1,0.5c-0.4,0.7-1.2,0.8-2.4,0.4c-1-0.2-1.5-1.2-1.5-2.7c0.5,0.1,1.1,0,1.8-0.2l2.3-2.6
	c0.7-0.8,1.5-1.2,2.3-1.4C30.3,21.2,31.1,21.2,32.1,21.4z"/>
<path class="st2" d="M33.4,22.5c-0.4,0.6-0.6,1.2-0.7,1.8c0,0.3,0,0.5,0.2,0.7s0.4,0.3,0.7,0.3s0.5-0.2,0.6-0.5s0.2-0.5,0.5-0.7
	c0.5,0,0.8,0.2,0.9,0.6L35,25.6c-0.2,0.3-0.2,0.5-0.1,0.8c0.3,0.8,0.5,1.6,0.5,2.4c0,0.3,0.2,0.6,0.5,0.7c0.2,0.1,0.5,0.1,0.8,0.1
	l0.9,0.1c-0.5,0-0.8,0.2-1.1,0.5c-0.7,0.2-1.2,0-1.5-0.4c-0.2-0.2-0.5-0.3-0.8-0.2c-0.4,0.1-0.7,0.4-0.7,1c0.1,0.4-0.2,0.5-0.9,0.5
	c-0.1-0.1-0.2-0.2-0.3-0.2c-0.3-0.1-0.6,0.1-0.7,0.3c-0.1,0.3-0.2,0.7-0.1,1.1c-1.1,0.2-1.6,0.5-1.5,0.9c-0.3-0.5-0.7-0.7-1.1-0.7
	s-0.7,0.2-0.8,0.7c-0.1,0.4-0.1,0.8,0,1.3c-0.2-0.3-0.3-0.4-0.6-0.4c-0.8-1.6-2.1-2.1-3.8-1.6c0.1-0.2,0.1-0.5,0-0.7
	c0-0.2-0.2-0.3-0.3-0.3l-0.3-0.1l1.8-0.1c0.3,0,0.6-0.2,0.6-0.6c0-0.2,0-0.4-0.1-0.6s-0.2-0.3-0.5-0.4c-0.2-0.1-0.4-0.2-0.6-0.2
	c-0.4-0.2-0.5-0.7-0.2-1.3c1.2,0.4,2,0.2,2.4-0.4c0.1-0.2,0.1-0.3-0.1-0.5c-0.1,0-0.2-0.1-0.2-0.2s-0.1-0.1,0-0.2
	c0-0.2,0.1-0.4,0.3-0.5c0.3-0.1,0.4-0.1,0.5,0.2c0,0.1,0.1,0.2,0.2,0.3c0.1,0.1,0.2,0.1,0.3,0l0.7-0.9c0.2-0.3,0.5-0.5,0.8-0.6
	c1.3-0.5,2.4-1.5,3-2.8C32.8,22.9,33.1,22.8,33.4,22.5L33.4,22.5z"/>
<path class="st1" d="M38.1,24.2c0.1,0.4,0.1,1-0.1,1.7c-0.4,0.3-1,0.6-1.8,0.8c-0.3,0.1-0.4,0.3-0.2,0.6c0.2,0.3,0.6,0.5,1.1,0.4
	c0.3,0,0.4,0.1,0.4,0.4c-0.2,0.8-0.4,1.3-0.7,1.6c-0.3,0-0.5,0-0.8-0.1s-0.5-0.4-0.5-0.7c0-0.8-0.2-1.7-0.5-2.4
	c-0.1-0.3-0.1-0.6,0.1-0.8l0.5-0.9l0.7-0.8c0.2-0.3,0.5-0.4,0.9-0.4C37.7,23.7,38,23.8,38.1,24.2L38.1,24.2z"/>
<path class="st0" d="M23.1,25.7c0,1.6,0.5,2.5,1.5,2.7c-0.3,0.6-0.3,1,0.2,1.3c-1.8-0.1-2.7,0.3-2.6,1.2c-2.7-0.1-5.2,0.7-7.9,0.3
	c-2.4-0.3-4.6-1.8-6.6-4.5C7.2,26,7.3,25,8,24.5c0.2-0.2,0.5-0.3,0.7-0.3C12.6,23.6,19.6,23.5,23.1,25.7L23.1,25.7z"/>
<path class="st0" d="M38,25.9c4.8,0,9,0.5,12.4,1.3c4.8,1.2,10.6,6.3,10.8,11.3c0,0.7-0.3,1.1-1,1.2c-3.8,0.4-7.2,0-10-1.3
	c-1-0.4-2.3-1.6-4.1-3.4c-2.3-2.4-5.1-4.2-8.4-5.2l-0.9-0.1c0.3-0.3,0.5-0.9,0.7-1.6c0-0.3-0.1-0.4-0.4-0.4
	c-0.5,0.1-0.8-0.1-1.1-0.4c-0.2-0.3-0.1-0.5,0.2-0.6C37,26.4,37.6,26.2,38,25.9z"/>
<path class="st1" d="M24.7,29.7c0.2,0,0.4,0.1,0.6,0.2s0.4,0.2,0.5,0.4c0.1,0.2,0.1,0.4,0.1,0.6c-0.1,0.3-0.3,0.5-0.6,0.6l-1.8,0.1
	c-0.5-0.1-0.9-0.3-1.3-0.7C22,30,22.9,29.6,24.7,29.7L24.7,29.7z"/>
<path class="st1" d="M36.7,30.4c0.2,0.7,0.2,1.4,0.2,2.1c-0.2,0.3-0.7,0.4-1.4,0.3c-0.3,0-0.5,0.1-0.7,0.4l-0.9,1.9
	c-1.1,0.2-1.8-0.6-2.2-2.5c-0.1-0.4,0-0.8,0.1-1.1c0.1-0.3,0.4-0.4,0.7-0.3c0.1,0,0.2,0.1,0.3,0.2l0.9,1.2c0.2,0.3,0.4,0.3,0.6,0
	c0.3-0.4,0.1-1-0.6-1.8c0-0.5,0.3-0.9,0.7-1c0.3-0.1,0.6,0,0.8,0.2C35.5,30.4,36,30.5,36.7,30.4L36.7,30.4z"/>
<path class="st1" d="M27.8,34.3l-1.5,1.8l-4.1-2.2l1.8-1.2C25.7,32.2,26.9,32.8,27.8,34.3z"/>
<path class="st0" d="M36.8,32.5c0,0.3,0.1,0.6,0.3,0.8c3.8,3,8.4,5.9,10.7,9.9c2,3.4,3.1,7,3.3,11c0,0.8-0.5,1.4-1.3,1.5
	c-0.2,0-0.4,0-0.5-0.1c-1.7-0.5-3.1-1.4-4.2-2.6c-2.6-2.8-5.2-5.5-7.7-8.3c-1.7-1.8-3-5-3.7-9.6l0.9-1.9c0.1-0.3,0.4-0.4,0.7-0.4
	C36.1,32.9,36.6,32.8,36.8,32.5L36.8,32.5z"/>
<path class="st1" d="M30.2,33.4l1.6,2.8c-1.2-0.5-2.2-0.4-3,0.3c-0.3-0.6-0.4-1.2-0.4-1.8c-0.1-0.5-0.1-1,0-1.3
	c0.1-0.4,0.4-0.7,0.8-0.7C29.5,32.7,29.8,32.9,30.2,33.4L30.2,33.4z"/>
<path class="st0" d="M22.2,33.9l4.1,2.2c0.1,2.5-0.3,4.5-1.2,6c-1.9,3.2-3.7,6.9-6.1,9.4c-1.4,1.4-4.1,4.1-6.2,4
	c-0.7,0-1.2-0.3-1.4-0.9c-0.2-0.5-0.3-1-0.5-1.8c-0.8-4.7-0.2-12.4,4.3-15C17.7,36.3,20,35.1,22.2,33.9L22.2,33.9z"/>
<path class="st0" d="M31.8,36.2c1,2.2,1.9,4.4,2.9,6.7c1.2,2.8,2,5.1,2.2,6.9c0.8,4.8,0.1,9.4-2.1,13.7c-0.3,0.7-1.2,1-1.8,0.6
	c-0.3-0.1-0.5-0.3-0.6-0.6c-2.5-4.8-5.5-9.2-5.6-15c0-3.8,1.3-8,1.9-12C29.6,35.8,30.6,35.7,31.8,36.2L31.8,36.2z"/>
</svg>
