<?xml version="1.0" encoding="utf-8"?>
<!-- Generator: Adobe Illustrator 28.0.0, SVG Export Plug-In . SVG Version: 6.00 Build 0)  -->
<svg version="1.1" id="Ebene_1" xmlns="http://www.w3.org/2000/svg" xmlns:xlink="http://www.w3.org/1999/xlink" x="0px" y="0px"
	 viewBox="0 0 64.7 66.2" style="enable-background:new 0 0 64.7 66.2;" xml:space="preserve">
<style type="text/css">
	.st0{fill:#174288;}
	.st1{fill:#E71D74;}
</style>
<path class="st0" d="M41.4,23.2c0.9,2.4,1,4.7,0.2,7c-0.3,0.9-1.3,1.4-2.2,1.1c-0.1,0-0.2-0.1-0.2-0.1c-2-1-2.3-4.8-2.5-6.8
	c0-0.1,0-0.1-0.1-0.1s-0.2-0.1-0.3-0.1s-0.1,0-0.1,0.1c-0.5,2.3-1.9,3.5-4.2,3.7c-0.3,0-0.6-0.1-0.9-0.3c-2.9-2.1-0.1-5.7,1.3-7.9
	c0.2-0.3,0.1-0.4-0.2-0.5c-2.5-0.5-4.3-1.5-5.2-3.1c-1.3-2-0.7-3.3,1.7-3.7c0.5-0.1,1.1-0.1,1.6,0.2l2.7,1.1
	c0.5,0.2,0.7,0.1,0.5-0.5c-0.9-3-1.1-5.4-0.4-7.3c0.4-1,1.4-1.5,2.4-1.1c0.1,0,0.1,0.1,0.2,0.1c1.1,0.6,2,2.2,2.7,5
	c0.3,1,0.5,1,0.8,0c0.5-1.8,1.3-3,2.4-3.7c2.8-1.8,3.8-1.1,3.1,2.2c-0.2,0.9-0.8,2-1.7,3.4c-0.7,0.9-0.5,1.2,0.6,0.8
	c1.6-0.6,3.1-0.8,4.5-0.5c1,0.2,1.6,1.1,1.4,2c0,0.2-0.1,0.4-0.2,0.5c-0.7,1.3-1.9,2.3-3.7,3.1c-0.2,0.1-0.3,0.4-0.2,0.6
	c0,0.1,0.1,0.2,0.2,0.2c1.8,0.8,5.3,3.2,3,5.5c-1.6,1.6-5.3-0.1-6.7-1.2C41.3,22.5,41.2,22.6,41.4,23.2L41.4,23.2z M38.2,20.6
	c1.3,0,2.3-1.5,2.2-3.2l0,0c0-1.7-1.1-3.1-2.4-3.1l0,0c-1.3,0-2.3,1.5-2.2,3.2l0,0C35.9,19.3,36.9,20.7,38.2,20.6L38.2,20.6z"/>
<ellipse transform="matrix(0.9997 -2.443222e-02 2.443222e-02 0.9997 -0.4162 0.9361)" class="st1" cx="38.1" cy="17.5" rx="2.3" ry="3.1"/>
<path class="st0" d="M18.3,31c-0.8,0.9-1.8,1.5-2.9,1.7c-1,0.2-2-0.4-2.2-1.4c-0.1-0.3-0.1-0.6,0-0.9c0.6-2.2,2.1-3.8,4.3-4.8
	c0.2-0.1,0.3-0.3,0.2-0.5c-0.9-2-2.8-8.1,1.1-7.9c2.3,0.1,2.7,1.7,3.5,3.5c0.3,0.7,0.6,0.7,1,0.1c0.9-1.4,1.8-1.8,2.8-1.3
	c0.8,0.4,1.1,1.4,0.7,2.2c0,0,0,0.1-0.1,0.1l-2.2,3.6c-0.2,0.3-0.1,0.5,0.2,0.7c0.4,0.3,0.9,0.3,1.3,0.6c1.5,1.2,2.2,2.6,1.9,4.3
	c-0.2,1.1-0.7,1.7-1.5,1.9s-1.8,0-2.8-0.7c-0.2-0.1-0.3-0.1-0.3,0.2c0.1,1-0.1,2.4-0.5,4c-0.2,0.8-1.1,1.4-2,1.1
	c-0.1,0-0.3-0.1-0.4-0.2c-1.4-0.8-1.8-2.7-1.2-5.7C19.4,30.3,19.1,30.2,18.3,31L18.3,31z M20.6,28.7c0.7,0.2,1.5-0.5,1.8-1.6
	c0.2-1-0.2-2-0.9-2.2c-0.7-0.2-1.5,0.5-1.8,1.6C19.4,27.5,19.8,28.5,20.6,28.7z"/>
<ellipse transform="matrix(0.2147 -0.9767 0.9767 0.2147 -9.6521 41.5725)" class="st1" cx="21" cy="26.8" rx="1.9" ry="1.4"/>
<path class="st0" d="M57.6,48.3c0.6,1.7,0.6,3.3-0.1,5c-0.1,0.3-0.4,0.5-0.7,0.5c-3,0.4-3.8-3.4-4.4-5.5c-0.2-0.5-0.3-0.5-0.5,0
	c-0.8,2.1-2.7,6.7-5.6,5.1c-2.5-1.5,1.1-8.7,2.2-10.3c0.4-0.5,0.2-0.8-0.4-0.9c-3.1-0.5-5.1-1.6-6.2-3.4c-0.2-0.3-0.2-0.6-0.1-1
	c0.7-2.5,3.5-1.3,5.1-0.8c1.2,0.4,1.3,0.2,0.4-0.7c-1.1-1-1.7-2.6-2-4.7c-0.1-0.9,0.4-1.8,1.3-2.1c1.8-0.6,3.5,1.9,4.4,3.1
	c0.5,0.7,0.8,0.6,0.9-0.3c0.1-1.7,0.8-2.9,2.1-3.7c1-0.6,2.3-0.3,2.9,0.6c0.2,0.3,0.3,0.5,0.3,0.9c0.1,1.2,0,2.3-0.3,3.2
	c-0.5,1.4-0.3,1.5,0.7,0.4c0.7-0.7,1.6-1.3,2.9-1.7c0.8-0.2,1.7,0.2,1.9,1.1c0.1,0.4,0.1,0.8-0.1,1.2c-1.2,2.2-2.9,4.1-5.2,5.7
	C57,40.2,57,40.3,57,40.4l0.1,0.1c2.8,0.6,6.3,2.8,5.7,6c-0.3,2-1.4,2.7-3.4,2.2c-0.5-0.1-1-0.6-1.6-0.8
	C57.6,47.8,57.5,47.9,57.6,48.3L57.6,48.3z M53.6,43.8c1.1-0.1,1.8-1.7,1.6-3.4l0,0c-0.2-1.8-1.3-3.1-2.4-2.9l0,0
	c-1.1,0.1-1.8,1.7-1.6,3.4l0,0C51.4,42.6,52.5,43.9,53.6,43.8z"/>
<path class="st0" d="M28,48.3c-2.1,0.7-4,0.5-5.5-0.4c-1.8-1.1-1.4-3.1,0.5-3.8s3.7-0.9,5.5-0.6c0.1,0,0.3-0.1,0.3-0.2
	c0-0.1,0-0.2-0.1-0.3c-2-1.6-3.1-3.6-3.3-5.9c-0.1-1.4,0.5-2.2,1.9-2.3c0.3,0,0.6,0.1,0.9,0.3c1.7,1.3,3,2.8,3.9,4.2
	c0.4,0.6,0.6,0.5,0.5-0.2c-0.1-3.2,0.4-5.4,1.6-6.6c0.6-0.6,1.6-0.6,2.2,0c0.1,0.1,0.2,0.3,0.3,0.4c1,2.1,1.1,4.4,0.1,7
	c-0.2,0.5,0,0.6,0.4,0.3c0.5-0.3,0.9-0.6,1.3-0.9c0.3-0.2,0.6-0.4,1-0.4c1.2,0,1.9,0.6,2,1.7c0.1,1.4-0.5,2.7-1.8,3.7
	c-0.3,0.2-0.3,0.4,0,0.7c1.2,1.2,3.1,2.6,2.8,4.5c-0.3,2.4-2.6,2.8-4.3,1.4c-0.6-0.5-0.8-0.4-0.6,0.4c0.5,2.5,0.4,4.3-0.3,5.5
	C37,57.7,35.8,58,35,57.5c-0.2-0.1-0.4-0.3-0.5-0.5c-0.9-1.3-1.3-3.4-1.3-6.1c0-1.1-0.3-1.2-0.9-0.3c-1.1,1.7-2,4.3-4.4,5.1
	c-0.3,0.1-0.6,0.1-0.9-0.1c-3.3-2,0-5,1.2-7C28.5,48.3,28.4,48.2,28,48.3L28,48.3z M35.2,47.8c0.9-0.3,1.2-1.7,0.7-3.2l0,0
	c-0.5-1.5-1.6-2.4-2.5-2.1s-1.2,1.7-0.7,3.2c0.3,1,0.3,1,0,0C33.2,47.2,34.3,48.1,35.2,47.8z"/>
<path class="st0" d="M14.7,50.7l0.4,4.7c0.1,0.7-0.2,1.3-0.7,1.8c-1.3,1.1-2.4,0.8-3.2-1c-0.6-1.3-0.8-2.5-0.6-3.6
	c0.2-1,0-1.1-0.7-0.3c-1.1,1.4-2.2,3.4-4.4,3.2c-1.3-0.1-2.2-1.2-2.2-2.4c0,0,0,0,0-0.1c0.1-1,1-2.6,2.9-4.8
	c0.2-0.2,0.2-0.4-0.1-0.5c-1.9-0.8-4.6-1-5.2-3.4c-0.3-1.1,0.4-2.2,1.5-2.5l0,0C5,41.2,6.6,42.5,9,43.2c0.3,0.1,0.4,0,0.2-0.3
	c-1.2-2.2-2.8-5-2.3-7.7c0.2-1.1,1.2-1.8,2.3-1.6c0.2,0,0.4,0.1,0.6,0.2c2.1,1.1,2.8,3.8,3.5,5.8c0.1,0.4,0.3,0.4,0.5,0.1
	c1-1.4,2-2.3,2.8-2.7c0.3-0.2,0.6-0.1,0.9,0.1c2.3,1.5-0.5,6.1-1.5,7.6c0,0.3,0,0.5,0.4,0.7c2.1,1,3.8,3.1,5.1,6
	c0.4,0.8,0,1.7-0.7,2.1c-2.1,1.2-4.6-1.3-5.7-3C14.8,50.1,14.7,50.2,14.7,50.7L14.7,50.7z M13.1,47.3c0.4-0.2,0.5-0.7,0.5-1.1
	L13.3,45c-0.1-0.6-0.7-1-1.3-0.8c-0.1,0-0.3,0.1-0.4,0.2l-1.1,0.8c-0.5,0.3-0.6,1-0.3,1.5c0,0,0,0,0,0.1l0.7,0.9
	c0.4,0.4,1,0.5,1.4,0.2L13.1,47.3z"/>
<ellipse transform="matrix(0.993 -0.1184 0.1184 0.993 -4.433 6.5844)" class="st1" cx="53.2" cy="40.6" rx="2" ry="3.2"/>
<ellipse transform="matrix(0.9444 -0.3289 0.3289 0.9444 -12.9524 13.7963)" class="st1" cx="34.3" cy="45.2" rx="1.7" ry="2.8"/>
<path class="st1" d="M13.1,47.3l-0.7,0.5c-0.4,0.3-1,0.2-1.4-0.2l-0.7-0.9c-0.4-0.5-0.3-1.1,0.2-1.5c0,0,0,0,0.1,0l1.1-0.8
	c0.5-0.3,1.1-0.2,1.5,0.3c0.1,0.1,0.1,0.3,0.2,0.4l0.2,1.2C13.7,46.7,13.5,47.1,13.1,47.3z"/>
</svg>
