<?xml version="1.0" encoding="utf-8"?>
<!-- Generator: Adobe Illustrator 28.0.0, SVG Export Plug-In . SVG Version: 6.00 Build 0)  -->
<svg version="1.1" id="Ebene_1" xmlns="http://www.w3.org/2000/svg" xmlns:xlink="http://www.w3.org/1999/xlink" x="0px" y="0px"
	 viewBox="0 0 64.7 66.2" style="enable-background:new 0 0 64.7 66.2;" xml:space="preserve">
<style type="text/css">
	.st0{fill:#0C6249;}
	.st1{fill:#F1952F;}
</style>
<path class="st0" d="M32.2,28.9l-5.1,0.5c-0.3,0-0.6-0.1-0.9-0.3c-2-1.7-3.8-3.8-5.3-6.3l-6.3-8.6c-0.2-0.3-0.3-0.7-0.3-1.1
	c0.1-0.7,0.4-1.2,0.9-1.3c1.1-0.4,2.1-0.1,2.8,0.8c1.4,1.6,2.3,3.1,3,4.6c1.6,3.6,3.4,7.1,5.5,10.4c0.1,0.1,0.2,0.2,0.3,0.1l0,0
	c0.1-0.1,0.2-0.2,0.1-0.3c-2.4-5.9-4.7-11.9-7-17.9c-0.5-1.2-0.5-2.2-0.3-3c0.3-0.8,1.2-1.2,2-0.9c0.2,0.1,0.4,0.2,0.5,0.3
	c1.4,1.3,2.1,2.7,2.3,4.2c0.6,5.5,1.7,11,3.4,16.2c0.5,1.6,0.7,1.6,0.6-0.1c-0.5-5.9-1.4-12-2.7-18.5c-0.2-1.1-0.2-2.3,0-3.6
	c0.2-1,1.1-1.6,2.1-1.5c0.2,0,0.4,0.1,0.6,0.2c2.3,1.3,2.1,6.8,1.8,8.8c-0.6,4.4-0.6,8.7,0.1,13.1c0,0.1,0.1,0.1,0.2,0.2
	c0,0,0,0,0.1,0s0.1,0,0.1-0.1c0.4-5,1.1-10.8,2.3-17.3c0.2-1.3,1-1.8,2.2-1.5l0.4,0.1c0.5,0.1,0.9,0.7,0.8,1.2L32.2,28.9L32.2,28.9z
	"/>
<path class="st0" d="M34.8,29.3c-0.1,0.2-0.3,0.4-0.6,0.3c-0.2,0-0.3-0.1-0.5-0.4c0.5-1.5,0.8-2.6,0.9-3.5C34.9,19.3,37,15,38.8,9.5
	c0.5-1.4,1.2-1.7,2.3-0.7c0.3,0.3,0.5,0.8,0.5,1.2c-0.4,2.9-1,5.7-1.8,8.3C38.6,22,36.5,25.7,34.8,29.3L34.8,29.3z"/>
<path class="st0" d="M36.5,30.8c-0.6-0.2-0.9-0.5-0.7-1c3.3-6.3,6-12.8,8.3-19.5c0.5-1.7,1.5-1.8,2.8-0.4c0.3,0.3,0.4,0.7,0.4,1.1
	C46,18.5,40.8,24.9,36.5,30.8z"/>
<path class="st0" d="M28.7,39c0.1-0.1,0.3-0.2,0.5-0.2c0.1,0,0.3,0,0.5,0.2c2.1,1.2,4.4,1.5,6.8,0.9c0.3-0.1,0.6-0.2,0.8-0.5
	c0.7-0.9,1.5-1.7,2.3-2.3c0.3-0.2,0.3-0.4,0-0.6c-0.5-0.3-0.7-0.8-0.8-1.4c-0.1-1.5-0.5-2.6-1.1-3.5c4.3-6,8.9-10.6,10.8-17.9
	c0.2-0.7,0.9-1.2,1.6-1c0.1,0,0.2,0.1,0.4,0.1s0.2,0.1,0.3,0.2c0.8,0.7,1.1,1.5,0.8,2.5c-2.1,7.2-7.5,10.9-12.3,16.1
	c-0.1,0.1-0.1,0.2-0.1,0.3c0.1,0.2,0.2,0.2,0.3,0.1c2.8-2.1,6-3.6,8.7-5.8c1-0.8,2.6-2.3,4-1.8c0.5,0.2,0.8,0.5,0.9,1.1
	c0,0.4-0.1,0.8-0.4,1.2c-2.1,2.7-7.5,4.4-10.6,5.4c-0.1,0-0.2,0.1-0.1,0.3l0,0c0.1,0.2,0.2,0.3,0.4,0.2c2.5-0.8,5.2-1.3,8.1-1.5
	c1-0.1,1.9,0.4,2.3,1.3c0.2,0.4,0,0.9-0.5,1.5c-0.2,0.2-0.4,0.3-0.7,0.4c-2.9,0.7-5,1-6.5,1.1l0,0c0,0.1,0,0.1,0,0.1l0,0
	c2.1,0,4.1,0.3,6.1,1.1c0.8,0.3,1.2,1,1.2,1.8c0,1-0.6,1.3-1.7,1.1c-2.7-0.5-5.3-1.1-7.8-1.6c-0.8-0.2-0.9-0.1-0.1,0.3
	c2.9,1.4,5.9,3.3,9.2,5.6c0.3,0.2,0.4,0.5,0.4,0.9c0,2.7-3.4,1.6-10.2-3.3c-0.2-0.2-0.5-0.2-0.7-0.2l-0.3,0.1
	c-0.1,0-0.1,0.1-0.1,0.2c0,0,0,0,0,0.1c4.1,3.7,7.1,7,9,10.2c0.4,0.6,0.2,1.3-0.4,1.7c-0.2,0.2-0.5,0.2-0.8,0.2
	c-0.7-0.1-1.5-0.6-2.2-1.4c-2-2.3-4-4.6-5.9-6.7c-0.4-0.4-0.5-0.4-0.4,0.2c1.2,4.4,2.7,8.7,4.4,12.9c0.2,0.4,0.1,0.9-0.1,1.2
	C43.8,61,43,61,42.2,59.8c-1.8-2.5-3.1-5-3.7-7.5c-0.5-1.8-0.8-1.7-0.9,0.1c-0.1,2-0.2,4.4-0.4,7.2c-0.1,1.6-0.4,2.9-1,3.8
	c-0.6,1.1-1.3,1.1-2,0c-0.9-1.4-1.3-3.6-1.1-6.6c0.2-3.5,0.4-7.1,0.5-10.6c0-0.1,0-0.1-0.1-0.1l0,0c-0.1,0-0.1,0-0.1,0.1
	c-0.7,5.8-1.3,11.1-2.8,16.9c-0.2,0.8-0.7,1.3-1.5,1.4s-1.5-0.5-1.6-1.2c0,0,0,0,0-0.1c-0.1-1.2-0.1-2.7,0.2-3.8
	c1.7-6,2.8-12.2,3.5-18.5c0-0.1,0-0.1-0.1-0.1l0,0c-0.1,0-0.2,0-0.2,0.2c-1.5,7-3.7,13.8-6.7,20.4c-0.2,0.5-0.8,0.8-1.4,0.6
	c-0.2-0.1-0.5-0.2-0.6-0.4c-0.7-0.8-1-2-0.6-3.1c2-6.2,4.2-12.2,6.9-18C28.6,40,28.7,39.5,28.7,39L28.7,39z"/>
<path class="st0" d="M20.6,23.4l4.8,6.5c0.2,0.3,0.3,0.6,0.2,1l-0.5,1.6c-0.1,0.4-0.1,0.7,0.1,1l1.7,3.3c0.1,0.3,0.4,0.5,0.6,0.7
	c0.5,0.4,0.8,0.9,0.9,1.6c-3.1,6.1-6.4,12-10.1,17.8c-0.7,1.1-1.5,1.3-2.3,0.6c-0.4-0.3-0.6-0.9-0.5-1.4c2.4-7.6,6.3-12.5,11.3-18.2
	c0.1-0.1,0.1-0.2,0-0.3l0,0c-0.1-0.1-0.2-0.1-0.3,0c-4.5,4.3-9.2,8.5-14,12.6c-0.2,0.2-0.5,0.2-0.8,0.1c-0.3-0.2-0.6-0.5-0.7-0.9
	c-0.1-0.3,0-0.7,0.1-1c2.7-4.7,6.5-8.4,11.2-11.1c0.1,0,0.1-0.1,0.1-0.2l0,0c0-0.1-0.1-0.2-0.3-0.1c-3.9,1.6-7.8,3.1-11.9,3.6
	c-0.7,0.1-1.4-0.4-1.5-1.2c0-0.3,0-0.6,0.2-0.8c1-1.7,5.7-2.7,7.2-3c2.7-0.7,2.6-1-0.1-1c-1.3,0-3.2-0.2-5.8-0.5
	c-1-0.1-1.7-0.5-1.9-1.1c-0.4-0.9,0.1-2,1-2.3c0.2-0.1,0.4-0.1,0.6-0.1c4.5-0.1,8.9,0.3,13.2,1.1c0.1,0,0.2,0,0.2-0.1l0,0
	c0-0.1,0-0.2-0.1-0.2c-4.5-0.5-8.7-1.8-12.7-3.9c-1.3-0.7-2.7-2-1.5-3.5c0.6-0.7,1.4-1,2.4-0.8c1.5,0.3,2.9,0.9,4.3,1.9h0.1l0,0
	l0.1-0.2c0.1-0.2,0.1-0.3-0.1-0.4c-2.1-1.3-3.7-3-4.8-5.3c-0.4-0.8-0.1-1.8,0.6-2.3C14.2,14.9,19.4,21.4,20.6,23.4L20.6,23.4z"/>
<path class="st1" d="M26.6,29.3h1.5c0.1,0,0.2,0,0.2,0l3.8-0.3c0.6,0.4,1.1,0.5,1.5,0.4c0.1,0.2,0.3,0.4,0.5,0.4
	c0.3,0,0.5-0.1,0.6-0.3c0.3,0.4,0.6,0.6,1,0.5c-0.1,0.5,0.1,0.8,0.7,1c0.1,0.3,0.6,0.6,1.3,0.7c0.6,0.9,1,2,1.1,3.5
	c0,0.6,0.3,1,0.8,1.4c0.2,0.2,0.2,0.4,0,0.6c-0.8,0.7-1.6,1.4-2.3,2.3c-0.2,0.3-0.5,0.4-0.8,0.5c-2.4,0.6-4.7,0.3-6.8-0.9
	c-0.2-0.1-0.4-0.2-0.5-0.2c-0.2,0-0.4,0.1-0.5,0.2c-0.4,0.1-0.5,0.1-0.3,0.2c0-0.7-0.3-1.2-0.9-1.6c-0.2-0.2-0.4-0.3-0.5-0.6
	l-1.7-3.5c-0.1-0.3-0.2-0.7-0.1-1l0.5-1.6c0.1-0.4,0-0.5,0-0.6L26.6,29.3L26.6,29.3z"/>
</svg>
