<?xml version="1.0" encoding="UTF-8"?><svg id="Ebene_2" xmlns="http://www.w3.org/2000/svg" viewBox="0 0 138.24 169.04"><defs><style>.cls-1{fill:#5f80c3;stroke-width:0px;}</style></defs><g id="Ebene_1-2"><path class="cls-1" d="m56,39.54c-1.1,1-2.3,1.8-3.5,2.6-2.5,1.6-5,3.1-7.6,4.7,0-1,.7-1.1,1.1-1.4,2.4-1.6,4.8-3.2,7.2-4.8,3.3-2.3,5.9-5.2,7.9-8.6.1-.3.3-.6.4-.9,0-.1,0-.3-.1-.7-1.8,2.2-3.6,4.3-5.8,6-3.7,2.9-7.4,5.9-11.7,7.9-.7.4-.6.8-.4,1.4h.1c-.4-.1-.7-.2-1.1-.3h-.1c.3-1.4,1.3-2.6,1-4.3,1.2.7.2,1.7.8,2.6,8.2-5.3,16-11,20.5-20.1-5.4,5.9-11.2,11.3-18.3,15.3.4-.4.9-.8,1.3-1.1,6.3-4.8,12-10.1,17.1-16.1,2.4-2.8,4.5-5.8,5.6-9.4.1-.3.3-.7.1-1.3-.9.3-1.2,1.1-1.7,1.7-4.1,5.2-8.3,10.2-13.1,14.7-2.7,2.5-5.6,5-8.7,7.1-1,.6-1.9,1.4-3.1,1.7.2-.7.8-.9,1.3-1.3,7.2-5.1,13.3-11.2,19-17.3,2.3-2.8,4.6-5.5,6.8-8.4,1.7-2.2,3.1-4.5,3.1-7.5-1-.1-1.5.6-2,1.1-8.7,9.1-17.2,18.4-25.6,27.8-1.2,1.3-2.3,2.7-3.4,4.1,0,.7,1.3,1,.9,2,.1,2.4-1.2,4.4-2.7,6.6.1-1.2.7-1.9.9-2.7.3-1,.7-1.9,1-2.9.2-.6.3-1.3-.4-1.7-.6-.3-1,.4-1.4.7-1.7,1.2-2.7,3.1-4.1,4.6-.1.1-.3.4-.2.6.8,2-.8,2.9-1.6,4.2h0c-.6.6-1.2,1.1-1.8,1.6.5-1.7,2-2.6,2.7-4.7-1.7,1-2.8,2.1-3.8,3.4-2.7,3.5-4.1,7.7-5.3,11.9-.7,2.5-1.2,5-1.6,7.5-.6,4-2.4,7.5-4.6,10.9-.6.9-1.3,1.8-1.9,2.7,1,1.4,3,1.6,3.7,3.2-1.1-.2-1.8-.9-2.7-1.5-2.3-1.5-4.9-2.5-7.6-2.8-2.9-.4-5.1.8-6.6,3.3-.6,1.1-1.1,2.1-2.2,3,1.6.8,3.2.9,4.9.7-1.2,2.7-2.8.2-4.1.5,1,6,7.6,8.9,12.6,7.8-.2,1-1.1,1.2-2,1.3-1,.1-1.4.5-.9,1.6,1.7,3.5,3.9,6.5,6.7,9.2,3.6,3.4,7.8,5.8,12.2,7.8,3.2,1.5,6.1,3.5,8.9,5.6,3.1,2.4,6.3,4.6,9.8,6.4.5.2,1,.5,1.6.5,1.3,0,1.9-.5,1.9-1.8.1-2.4-.9-4.5-1.9-6.6-.7-1.6-1.7-3-1.8-5-.1-2.2-1.3-4.2-2.4-6.2-1.8-3.1-3.9-6-6-8.9-2.1-2.8-4.8-4.8-7.3-7.1-2.9-2.7-6.5-3.8-10.5-3.9h-3.3c.3-1,1.1-.8,1.8-.9.7-.2,1.6.3,2.2-.5,1.8.7,3.4.5,5-.8,2.4-2,4.9-3.9,7.4-5.7,1.7-1.2,3.4-2.3,4.3-4.7-2.4,1.4-4.6,2.9-7.1,3.6,2.2-1.5,4.4-2.9,6.6-4.4.7-.5,1.7-1,1.5-2.2-.6-.5-.9-.1-1.3.2-.9.7-1.9,1.1-3,1.4-2.8.9-4.6,2.9-6,5.3-1,1.7-2.6,2.5-4.2,3.4-1.3.7-2.8,1.2-4.3,1.4-1.1.2-.4.8-.4,1.2-.8-.3-1.6-.6-2-1.5,3.8-.1,7-1.5,9.7-4.6-1.4-.3-2.5.7-3.8.5,2.4-.9,4.6-1.8,6.3-3.5,1.1-1,2.3-2,1.9-3.8q1.6,1.5,4,.3c1.8-.9,2-1.2,3-3.4-2.4,1.5-4.8,2-7,3.1-1.1,1.4-2.7,1.6-4.3,2.1,2.7-1.8,5.8-3,6.7-6.6,1.1,1-.1,1.9.2,2.8,1.7-.7,3.2-1.6,4.4-3.2-1.3-.1-2.1.9-3.3.6,2.1-1.4,4.6-2.2,5.4-5.1-2.2.7-5,2.4-6.2,3.7-1.4,1.5-3.3,2.1-5.2,2.7-1,.3-1.8.5-2,1.7-.1.8-.8,1.5-2,1.9.4-1,1.3-1.4,1.5-2.2.3-.9.4-.8-1-1.5,2.2-.2,4.1-.8,5.8-1.8,1.9-1.1,3.3-2.4,3.3-4.8-1,.1-1.5,1-2.9,1.1,2.3-1.8,4.5-3.3,4.4-6.4.9.6.3,1.4.8,2.1,3.9-.9,6.7-3.2,9-7.2-2.7,1.6-4.8,3.5-7.6,3.7,3-1.6,5.9-3.3,8.1-6-2.6,1.3-5.3,2.7-8.1,3.7-.5.2-.6.7-.9,1.1-.8,1.2-1.7,2.2-3.1,2.6,1.2-1.5,2.8-2.7,3.2-4.7,0-.2.1-.3.3-.2,2.1.7,3.5-1,5.2-1.8,1.8-.8,3.3-2.2,4.8-3.6,1.5-1.4,2.8-2.9,3.9-4.6.7-1.2,1.6-2.4,1.3-4,1.1.7.7,1.6.6,2.6-.8,2-2.2,3.7-3.7,5.3-1.4,1.5-2.3,3.2-2.9,4.9-.7,1.8-1.5,3.5-2.8,4.9-1.6,1.6-1.4,4.2-3.2,5.7-.1,0-.1.3,0,.4.6,1-.1,1.8-.6,2.6-1.1,1.8-2,3.9-1.5,5.8.4,1.5,0,2.7-.2,4.1,0,.4-.7.7-.3,1.4,2.2-1.1,4.2-2.2,6.6-2.3,1.9-.1,3.8-.4,5.7-.3,5.3.2,10.6,0,15.8,1,1.5.3,3,0,4.5.2,4.4.7,8.8,1.5,13.2,1.9,8.2.7,16.2,2.2,24.3,3.7,7.9,1.4,15.6,3.6,23.4,5.7.4.1,1,.2.8,1-.7.6-1.5.7-2.4.7-7.9.4-15.8.1-23.5-2.1-1.3-.4-2.6-.4-4,0-1.7.5-3.4.7-5.2.6-.9-.1-1.7.2-2.5.6-2.4,1.2-4.9,1.9-7.6,1.8-.7-.1-1.4-.2-2.1.1-3.2,1.4-6.6,1.1-9.9.7-6.5-.8-12.6-3.1-18.5-5.6-.4-.2-.8-.3-1-.7.7-.3,1.2.2,1.8.4,4.7,1.5,9.2,3.4,14.1,4.4,4,.8,7.9,1.3,12.5.5-4.4-1-8.3-1.7-12.1-2.7s-7.6-2.1-11.5-4.2c.8,0,1-.1,1.2,0,7.4,3,15.2,4.6,23.1,5.9,3,.5,6.1.3,8.9-1.3-2.3-.6-4.7-1-7.1-1.4-2.4-.4-4.9-.8-7.3-1.2-2.5-.5-4.9-.9-7.3-1.5-2.2-.6-4.6-1-6.6-2.4,3.2.7,6.3,1.6,9.5,2.2,4.8.9,9.6,1.7,14.4,2.4,1.8.3,3.6.8,5.4.9,2.4.1,4.8.4,7.2-.6-11.2-3.2-22.7-4.1-34.3-6.4.6-.2.8-.3.9-.3,5.7.4,11.2,1.6,16.8,2.4,7.1,1,14,2.7,21,4.4,7.5,1.8,15,2.7,23.1,1.9-2.2-.9-4.2-1.3-6.2-1.8-8.1-1.9-16.1-3.8-24.3-5.2-7.2-1.2-14.4-2.2-21.8-2.8-.6,0-1.3-.1-1.9-.2-2.8-.5-5.6-1.3-8.4.1-1.1.5-2.5.5-3.8.6-.9,0-1.5.3-2.1.9-1.2,1.1-2.7,1.9-4.5,2-.8.1-1.4.4-2,1.3-1.3,2.2-6.3,3-8.7,1.7,5.2-.2,6.6-.6,8.4-2.5-1.2-.3-2.4-.5-3.5-.7,3.6-.1,7.2.4,10.3-2.5-1.3-.2-2.3-.5-3.3-.6-.9-.1-1.9-.3-2.7-.9,4.6.7,9.1,1.2,13.5-.7-1.5-.3-3-.3-4.4-.5-5-.7-10-.6-15-.3-.5,0-1.1.2-1.6.3-4.3,1-7.6,3.8-10.9,6.6-2.7,2.3-5.2,4.6-8.6,6.2,2.7,2.1,5.2,4.1,7.4,6.4,1.9,2,3.9,1.5,5-1.3-.9-.2-1.8-.3-2.8-.8q4-.3,5.9-2.5c.3.3.1.6,0,.9-.2.5-.4.9-.8,1.2-.8.8-1.8,1.5-1.1,2.8-1.2,0-1.8.7-2,1.8-.7-.1-1.3-.2-1.9,0,1.6,4,5.7,6.2,9.1,4.7-1.9-1.1-4-1.7-5.4-3.3,1-.1,1.6.6,2.4,1,1.3.6,2.5,1.2,3.8,1.4.8.1,1.6.1,2.4,0,.7,0,1.1-.5,1.1-1.1,0-.5-.5-.7-1-.8-1.1-.3-2.2-.6-3.2-1-1.3-.6-2.7-1.3-4-2,2.1.2,3.9,1.3,5.9,1.8,1.4.3,2.7.9,4.2.7.5,0,1-.3,1-.8.1-.5-.4-.6-.8-.7-2.7-.9-5.4-1.8-8.1-2.7-1-.3-1.9-.7-2.3-1.8,4.4,2,9,3.2,13.6,4.4,1.1.3,2-.1,2.9-1-2.2-.7-4.3-1.3-6.3-2.3-2-.9-4.2-1.6-5.9-3.2,5.3,1.9,10.2,5.1,16.2,4.7-4.8-2.1-9.7-3.9-14.6-6.3.7-.4,1,0,1.4.1,4.2,1.6,8.5,3.3,12.7,4.9,3.1,1.2,6.2,1.4,9.2-.3.2-.1.3,0,.5.4-1.6,1.2-3.5,1.7-5.5,1.7-2.1,0-4.1.9-6.2.6-.4-.1-.7.2-1,.5-1,1-2.3,1.4-3.7,1.1-.6-.1-.9,0-1.2.5-.5.9-1.4,1.2-2.4,1.3-1.3.1-.6,1.9-1.8,2.2-.1,0-.1.1-.2.1-1.6-.1-2.9.7-4.2,1.4-.8.5-2,.3-3-.1-.5-.2-.9-.6-1.7-.3.8,1.3,1.5,2.5,2.2,3.7,1.1,1.9,1.9,3.9,2.7,5.9,2.4,5.7,4.4,11.7,9.1,16.1,1.2,1.1,2.2,2.4,3,3.8,2.1,3.9,5.3,6.8,8,10.1,6.8,8.4,13.2,17,19.2,26,.6.9,1.2,1.8,1.5,3-.6-.1-.7-.5-.9-.8-7.8-11.2-15.7-22.3-24.9-32.5-3.3-3.7-7.4-6.1-11.6-8.4-.3-.1-.5-.2-.7-.3-.7-.2-1.2-.1-1.4.8-.2,1-.2,1.9-.1,2.9.7,5.9,3.5,11.2,4.8,16.9,1,4.2,2.5,8.2,3.1,12.5q.2,1.4-.3,2.9c-.7-4.8-2-9.3-3.4-13.8-.8-2.6-1.6-5.2-3.7-7.2-2.3-5.3-4.6-10.7-7.8-15.6-2.7-4.1-5.6-7.9-9.8-10.6-1.7-1.1-3.4-2-5.3-2.7-2.2-.8-4.2-1.9-6.1-3.3-5-3.7-9.6-7.7-11.6-13.9-.4-1-1.1-1.6-2.1-2.1-2.4-1.1-4.8-2.4-6-4.9-1.1-2.2-2.1-4.3-5.2-5.1q3.5-.5,5.4-3.3c2.2-3.3,5-4.2,9.2-3.1,1.2.3,2.5,1.3,3.6.9,1.2-.4,1.5-2.1,2.3-3.2.2-.3.4-.6.6-1,1.5-2.9,3.1-5.8,3.5-9.1.4-3.4,1.3-6.7,2.3-10,1.3-4.4,3.3-8.3,6.5-11.6,1.2-1.3,2.7-2.3,3.9-3.8,3.2-4,6.4-8,9.8-11.8,7.8-8.7,15.7-17.5,24-25.8.6-.6,1.3-1.2,2-1.7,1.1-.7,1.8-.3,1.8,1.1,0,.4-.1.8-.1,1.2-.3,2.1-1.2,3.9-2.3,5.7-.3.6-.9,1.1-.9,1.9-.1,3.1-1.6,5.7-3.1,8.2-.3.5-.8,1-1,1.6-.7,2.8-2.3,5-3.8,7.4-.4.6-.5,1.3-.7,2-.6,3-2.2,5.5-4.5,7.6-.5,1.3-1.6,2-2.5,2.5Zm-21.1,45.7c1.8-1.2,3.6-2.4,5.1-3.9,3.1-3,6.5-5.6,10.4-7.6.1-.1.1-.2.3-.5-2.4.2-4.3,1.1-6.1,2.2-4.7,3-9.1,6.2-13.5,9.6,1.1,1.3,2.3,1.1,3.8.2Zm16.7,44.6c-.1-.5-.4-1.1-.2-1.6.6-1.6-.2-2.4-1.5-3.1-1.5-.9-2.8-1.9-4.7-3.1,2.2,4.9,5.3,8.7,7.1,13.1.2-.1.3-.1.5-.2-.3-1.7-.7-3.5-1.2-5.1Zm-4.3-72.8c-2.1.4-3.8,1.2-5.6,1.6-.5.1-1,.8-.7,1.5.4.8-.1,1.6.3,2.5,2.3-1.4,4.7-2.7,6-5.6Zm8.4,69c2.7,1.3,5,3,7.5,4.6-1.4-2.6-3.4-4.7-5.7-6.7-.6.8-1.1,1.4-1.8,2.1Z"/><path class="cls-1" d="m58.3,83.94c4.1,1.6,8.1,3.3,12.3,4.6,3.1.9,6.2,1.7,9.4,1.3.4-.1.8-.2,1.2-.2.3,0,.7-.7,1.2,0-2.1,1.4-4.5,1.2-6.7.8-6.7-1.1-12.7-3.8-18.6-7.2.4.2.8.4,1.2.7Z"/><path class="cls-1" d="m53.7,83.64c-1.3,2.7-4.3,3.8-7.7,2.7,3.2.1,5.7-.6,7.7-2.7Z"/><path class="cls-1" d="m12.6,82.04c.5-.1,1,0,1.3.4.4.7-.3.8-.6,1.1-.5.4-.9.9-1.6,1-.3.1-.7,0-.8-.6,1.3.1.5-1.6,1.7-1.9Z"/><path class="cls-1" d="m34.2,50.34c.9.1,1,.8.9,1.6-.4,1.8-2.2,4.1-4,5.1.8-1.1,1.6-2.2,2.4-3.3.6-1,1.1-2.1.7-3.4,0,0-.1.1,0,0Z"/><path class="cls-1" d="m43.5,45.84c.6,2.6-.4,4.1-3.3,5.1,1.9-1.1,2.9-2.9,3.3-5.1,0,0-.1,0,0,0Z"/><path class="cls-1" d="m33.1,57.74c-.4,1,0,2.4-1.5,2.7.6-.8.6-2,1.5-2.7Z"/><path class="cls-1" d="m32.3,61.94c.5,1.5.8,2.4-.6,3.7.2-1.3.3-2.3.6-3.7Z"/><path class="cls-1" d="m29.9,74.34c-.1,1.2-1,1.6-2,2.1.7-.7,1-1.7,2-2.1h0Z"/><path class="cls-1" d="m34.7,48.84c.2-1.1.8-2.1.7-3.2v.1c.7,1.7.7,2-.7,3.1h0Z"/><path class="cls-1" d="m42.3,45.44c0,1-.7,1.3-1.4,1.7.4-.6.6-1.4,1.4-1.7,0,0,.1.1,0,0Z"/><path class="cls-1" d="m34.7,48.84c.1.6-.6,1-.6,1.7l.1-.1c-.4-.4-.6.2-.8.1-.4-.3-.1-.5.1-.7.4-.4.6-1,1.2-1h0Z"/><path class="cls-1" d="m29.9,74.24c-.2-.5,0-.9.6-1.1-.2.3.1,1-.6,1.1,0,0,0,.1,0,0Z"/></g></svg>