<?xml version="1.0" encoding="utf-8"?>
<!-- Generator: Adobe Illustrator 28.0.0, SVG Export Plug-In . SVG Version: 6.00 Build 0)  -->
<svg version="1.1" id="Ebene_1" xmlns="http://www.w3.org/2000/svg" xmlns:xlink="http://www.w3.org/1999/xlink" x="0px" y="0px"
	 viewBox="0 0 205.8 146.5" style="enable-background:new 0 0 205.8 146.5;" xml:space="preserve">
<style type="text/css">
	.st0{fill:#DA9933;}
	.st1{fill:#5F80C3;}
	.st2{fill:#BD3F31;}
</style>
<g>
	<path class="st0" d="M23.2,11.9c0.3-0.1,0.6,0,0.9,0.2c6.2,4.1,13.2,5.9,20.3,7.5c6.2,1.4,12.4,2.3,18.7,2.5
		c6.2,0.3,12.1,1.7,18,3.5c2.7,0.8,5.3,1.1,7.9-0.4c0.8-0.5,1.5-0.9,1.8-1.8c0.5-1.3,1.1-2.7,1.5-4c0.7-2.1,1.9-3.7,3.7-4.9
		c1.2-0.8,2.5-1.4,3.8-2.1c1.3-0.6,1.9-2,3-3c-0.2,2.4,1.1,4.2,2.1,6c2.5,4.5,4.3,9.3,4.2,14.5c0,0.8,0.3,1,1.1,1.2
		c5.4,1.4,10.8,2.8,16.4,3.2c2.8,0.2,5.6,0.3,8.3-0.3c2.6-0.5,5.3-0.1,7.8,0.5c7.2,1.8,14.4,1.6,21.7,1.3c3.3-0.1,6.7-0.4,10-0.7
		c0.3,0,0.6-0.1,1,0.4c-1.2,0.2-2.4,0.5-3.5,0.6c-6.5,0.5-13.1,0.8-19.6,0.5c-3.6-0.2-7.3-0.6-10.8-1.4c-2.4-0.6-4.9-0.4-7.4-0.1
		c-3.9,0.5-7.8,0-11.7-0.5c-4.5-0.6-8.8-2-13.4-3.1c-0.4,1.6-0.4,3.1-0.4,4.5c0.1,4.9-0.9,9.7-2.1,14.4c-0.9,3.6-3.2,6.4-5.7,9
		c-0.8,0.9-1.8,1.6-2.6,2.4c-0.4,0.4-0.6,0.7-0.3,1.2c0.4,0.6,0.9,0.6,1.4,0.2c1.3-0.8,2.3-1.9,3.2-3.2c1-1.4,1.9-2.9,3.1-4.8
		c0,1.4-0.8,2.2-1.2,3c-0.5,1-1.1,1.9-1.8,2.8c-0.5,0.7-0.6,1.3,0.1,1.9c0.7,0.5,1.4,0.2,1.9-0.5c0.6-0.8,1.1-1.8,1.7-2.6
		c0.5-0.7,0.5-1.7,1.4-2.1l0,0c-0.3,1.8-1.2,3.5-2.3,4.8c-1.6,1.8-2.1,1.7-3.8,0c-0.5,0.4-0.9,0.8-1.5,1.2c-0.9,0.6-1.9,0.9-2.7-0.2
		c-0.3-0.4-0.5-0.7-1.1-0.4c-1.6,1-2.9,2.5-4.1,3.9c-0.6,0.8,0.2,1.7,1,2.1c1,0.5,1.6,1.3,2.2,2.1c0.5,0.7,0.4,1.5,0.1,2.3
		C95.3,74,95,74.1,94.8,74c-0.2-0.1-0.4-0.4-0.4-0.5c0.3-0.5,0.4-1.1,0.2-1.6c-0.3-0.6-0.5-1.3-1.3-1.2c-0.9,0-1.3,0.5-1.2,1.4
		c0,0.2,0,0.5-0.5,0.7c-0.4-1.3,0.3-3-1.1-4c-2.1,2.3-4.1,4.7-5.9,7.2c-1.8,2.6-3.5,5.2-4.2,8.5c-0.7,3.5-2.1,6.8-2.7,10.4
		c-0.7,4.1-1.1,8.2-1.3,12.4c-0.2,4.9-0.4,9.9-0.6,14.8c-0.2,5.7,0.8,11.3,2.2,16.8c0.2,0.8,0.4,1.5,0.6,2.3
		c-0.8,0.1-0.8-0.5-0.9-0.9c-0.5-1.6-0.7-3.4-1.6-4.7c-1.5-2.2-1.5-4.6-2.1-6.9c-0.6-2.5-0.9-5-1.2-7.6c-0.3-2.6-0.3-5.3-0.3-7.9
		c0.3-7.6,0.3-15.3,2.8-22.7c0.2-0.6,0.4-1.2,0.6-1.9c0.5,0.7,0.1,1.3-0.1,1.8c-2.1,7.2-2.4,14.6-2.5,22c-0.1,4.8,0.2,9.6,1,14.3
		c0.1,0.6,0.1,1.1,0.8,1.3c-0.3,0.8-0.2,1.6,0,2.4c0-0.8,0-1.6,0-2.4c-0.5-0.7-0.2-1.5-0.3-2.3c-0.1-8.5,0.3-16.9,1.1-25.3
		c0.7-7.5,2.1-15,5.7-21.8c0.7-1.3,1.5-2.6,2.5-3.8c0.9-1,1.8-2,1.8-3.5c0-0.7,0.3-1.4,1.1-0.5c0.3-0.3,0.7-0.6,1-1
		c2.7-3.4,6-6.2,9.3-8.9c3.4-2.8,6.4-6.1,7.6-10.6c1-3.8,2.2-7.7,2.3-11.7c0-1.1,0-2.3-0.1-3.4c-0.3-4.1,1.5-8.2-0.2-12.3
		c-1.1-2.9-2.4-5.7-3.9-8.5c-0.2-0.4-0.5-1-1.1-1.2c-0.5,0.6-0.2,1.4-0.6,2.2c-0.5-0.9,0.1-1.9-0.4-2.8c-1.3,0.7-2.7,1.3-4,2
		c-1.8,1-3.1,2.5-3.9,4.4c-0.6,1.5-1.2,2.9-1.8,4.4c-0.8,2.3-2.5,3.1-4.8,3.2c-3,0.2-5.9-0.4-8.7-1.3c-5.3-1.7-10.7-2.3-16.2-2.7
		C50.3,22,39,19.9,28.3,15.4C26.4,14.6,24.3,13.9,23.2,11.9L23.2,11.9z"/>
	<path class="st0" d="M49.1,130.4c-0.2-2.1,0.2-4,0.4-5.9c0.5-4.5,1.4-9,2.4-13.4c1-4.5,2.8-8.6,5.8-12.2c2.7-3.4,5.3-6.8,7.9-10.2
		c3.4-4.5,5.2-9.7,5.9-15.2c0.8-6.5,2.3-12.9,4.5-19.1c0.6-1.6,0.4-3.5,1.7-4.9c0.4,0.3,0.2,0.7,0.1,1.2c-2.1,5.5-3.5,11.1-4.6,16.8
		c-0.6,3.2-0.9,6.5-1.5,9.7c-0.8,4.3-2.4,8.4-5.1,12c-2.7,3.6-5.5,7.2-8.3,10.8c-3.1,4-4.8,8.6-5.7,13.5c0.5,0.1,0.6-0.3,0.7-0.5
		c2.2-5.4,5.9-9.9,9.4-14.4c1.5-1.9,3.2-3.7,4.2-5.8c1.6-3.1,3.2-6.2,4-9.7c0.2-1.1,0.3-2.2,1.2-3.3c0.3,0.6,0.2,1.1,0,1.6
		c-0.9,3-0.9,6.3-1.5,9.3c-0.2,1.1,0,2.2,1.1,3.2c1-1.8,0.1-4,1.6-5.8c-0.4,2.9-0.8,5.5-0.1,8.3c-0.8-0.9-1.2-2-2.5-2.5
		c-0.7-0.3-0.9-1.4-0.8-2.4c0.1-0.9,0-1.7,0.6-2.5c-0.6-0.3-0.6,0.2-0.7,0.4c-0.9,1.6-1.2,3.5-2.6,5c-1.4,1.4-2.4,3.2-3.6,4.8
		c-1.4,1.8-2.9,3.6-4.2,5.5c-5.3,7.3-8.5,15.5-9.4,24.5C49.7,129.5,49.7,129.9,49.1,130.4z"/>
	<path class="st0" d="M58.6,30.7c0.6,0.7,1.7,0.3,2.3,1.2c-0.6,0.8-1.4,0.5-2.2,0.4c-8.7-1.3-17.3-2.8-26-4.1
		c-5.1-0.7-10.1-1.6-14.9-3.3c-2.2-0.8-4.3-0.5-6.5,0.2c0,0.9,0.7,1,1.1,1.2c6.5,2.7,13.2,4.6,20.3,5.3c8.3,0.9,16.5,1.3,24.8,2
		c2.5,0.2,5,0.2,7.5,0.6c-4.1,0.1-8.3,0.3-12.4-0.2c-2.4-0.3-4.8-0.4-7.2-0.5c-5.1-0.3-10.2-0.7-15.2-1.4c-1.7-0.2-3.4-0.1-5.1-0.2
		c-1.4,0-2.9,0-4.8,0c1.5-0.7,2.7-0.2,4.1-0.6c-2.8-1-5.4-1.8-8-2.8c-1.6-0.6-3.3-1.3-4.9-2c-0.6-0.2-1.2-0.6-1-1.4
		c0.1-0.6,0.7-0.8,1.3-0.9c0.7-0.1,1.4-0.3,2.3-0.5c-0.9-0.9-2-1.1-2.8-1.7c-0.7-0.6-1.8-1.2-0.9-2.9c0.1,2.1,1.4,2.5,2.5,3.1
		c5.6,2.5,11.4,4.1,17.4,5c8.4,1.3,16.8,2.7,25.3,4.1C56.7,31.5,57.7,31.7,58.6,30.7L58.6,30.7z"/>
	<path class="st0" d="M24.7,20.8c-2.5-1.2-5-2.3-7.9-1.8c-1.3,0.2-2.6,0-4-0.3c1.5,0,3.1,0,4.8,0c-0.9-1-2-1.1-2.9-1.4
		c-1.9-0.7-3.7-1.5-5.4-2.5c-0.5-0.3-1-0.7-1.5-1.2c-0.4-0.4-0.6-0.9-0.4-1.5c0.2-0.7,0.9-0.6,1.4-0.6c1.5-0.1,3-0.1,4.5,0.3
		c0.6,0.2,1.2,0.3,2.1,0.1c-0.8-1.1-2.1-1.5-2.9-2.4c-0.5-0.5-1.5-1-0.4-1.9c0,0,0,0,0,0c0.1,0.9,0.6,1.4,1.3,1.9
		c0.9,0.6,1.8,1.3,2.8,1.8c6.4,3.2,12.7,6.6,19.7,8.4c2.1,0.5,4.1,1.3,6.2,1.9c0.3,0.1,0.6,0.2,0.6,0.6l0,0c-6-1.5-12-3-17.7-5.7
		c-4.6-2.2-9.4-4-14.5-4.5c-0.6-0.1-1.3-0.1-1.9,0c-0.9,0.1-1,0.6-0.5,1.3c0.5,0.6,1.2,1,1.9,1.4c2.8,1.7,6,2.6,9.1,3.7
		c1.5,0.5,3,1,4.5,1.6C24.2,19.9,24.8,20,24.7,20.8L24.7,20.8z"/>
	<path class="st0" d="M17.7,32.7c0.2,1.1,1.2,1.3,2,1.7c3.2,1.5,6.7,2,10.2,2.4c4.2,0.5,8.4,0.5,12.7,0.7c6.5,0.4,13.1,0.1,20,0.4
		c-1.1,0.5-1.9,0.3-2.7,0.4c-2.9,0.1-5.8,0.3-8.6,0.2c-5.9-0.1-11.8,0-17.7-0.6c-2.9-0.3-5.7-0.6-8.5-1.1c-2.1-0.4-4.1-1.2-6.1-2
		C18.1,34.4,17.2,34.1,17.7,32.7z"/>
	<path class="st0" d="M65.7,45.5c-3.2,2.1-6.7,3.4-10.5,4c-1.3,0.2-2.8,0-3.5-1c-0.7-1.1-1.4-0.8-2.4-0.8c-2,0.1-3.9,0-5.7-1.1
		c4.1,0.9,8,0.3,12-0.6c-0.6,0.5-1.2,0.7-1.9,0.8c-0.7,0.1-1.4,0.4-2.1,0.6c1.2,1.4,1.9,1.7,3.9,1.3c1.9-0.4,3.9-0.8,5.7-1.6
		C62.7,46.6,64.2,46,65.7,45.5z"/>
	<path class="st0" d="M27.9,39.6c-0.1,0.5-0.5,1.1,0.2,1.4c0.9,0.4,1.8,0.8,2.7,0.9c4.6,0.9,9.2,1.7,14,1.6c2.8-0.1,5.5-0.6,8.2-1.2
		c0.6-0.1,1.2-0.3,1.9-0.1c-4.3,1.7-9.1,2.2-14,1.9c-3.5-0.2-6.9-0.9-10.4-1.5c-1.1-0.2-2.2-0.5-3-1.3
		C26.7,40.5,26.6,39.8,27.9,39.6L27.9,39.6z"/>
	<path class="st0" d="M182.4,42.9c0,1.2-1.1,1.2-1.8,1.5c-3.5,1.6-7.2,2.6-11,2.8c-1.7,0.1-3.3,0.2-5,0.3c-0.5,0-1.2-0.3-1.2,0.7
		c0,0.4-0.2,0.3-0.5,0.2c-1.5-0.6-3.1-1.2-4.6-1.9C166.7,47.6,174.7,46.6,182.4,42.9L182.4,42.9z"/>
	<path class="st0" d="M24.7,20.8c0.8-0.3,1.5-0.2,2.3,0c6.5,1.7,12.9,3.9,19.4,5.7c-2,0.1-3.9-0.5-5.7-1.1c-4.8-1.5-9.5-3-14.3-4.4
		C25.8,20.9,25.3,20.9,24.7,20.8C24.7,20.8,24.7,20.8,24.7,20.8z"/>
	<path class="st0" d="M156.1,51.2c1-0.2,1.7,0.8,2.7,0.6c-0.1,1,1.2,1.4,1.1,2.4c0,0.4-0.3,0.8-0.7,0.8c-3.5,0-6.9-0.2-9.6-2.8
		c3.1,1.3,6.2,2.4,9.5,2.3c0.3-0.9-0.2-1.1-0.6-1.5C157.8,52.3,156.6,52.2,156.1,51.2C156.1,51.2,156.1,51.2,156.1,51.2z"/>
	<path class="st0" d="M139.9,52.3c5.5,1.9,10.2,5.2,16,5.3c-0.4,0.6-1.2,0.7-2,0.6c-0.9-0.2-1.7-0.4-2.5-0.6
		c-3.7-1.1-7.2-2.7-10.6-4.5C140.5,52.9,140.3,52.7,139.9,52.3z"/>
	<path class="st0" d="M113.5,53.1c-1,3.4-2,6.8-4.4,9.6c-1.1,1.2-1.4,1.3-2.9,0.7c1.7-0.2,2.5-1.3,3.3-2.5c1.1-1.7,1.8-3.7,2.6-5.6
		c0.3-0.8,0.6-1.6,1-2.4C113.2,53,113.4,53.1,113.5,53.1z"/>
	<path class="st0" d="M117.9,52.7c-0.4,3.6-1.5,7-3.1,10.2c-0.3,0.6-1.7,1.1-3,1.2c2.1-0.9,3-2.6,3.7-4.4
		C116.3,57.3,117.1,55,117.9,52.7z"/>
	<path class="st0" d="M74.6,52.8c-1.5,1.9-3.6,2.9-5.9,3.6c-0.9,0.2-1.9,0.4-2.8-0.1c-0.3-0.1-0.6-0.4-0.4-0.7
		c0.2-0.5,0.5,0,0.7,0.1c1.1,0.4,2.2,0,3.2-0.3C71.3,54.8,72.9,53.7,74.6,52.8z"/>
	<path class="st0" d="M23.2,11.8c-2.1-0.5-3.8-1.9-5.8-2.6c-1.8-0.7-3.5-1.4-5.4-1.8c0,0,0,0,0,0c0.6-0.7,1.3-0.4,2-0.2
		c3,1,6.1,2.2,8.7,4C23,11.4,23.1,11.7,23.2,11.8C23.2,11.9,23.2,11.8,23.2,11.8z"/>
	<path class="st0" d="M66.5,49c-3.8,3-7.6,3.7-10.5,1.6C60.2,52.2,63.3,50.3,66.5,49z"/>
	<path class="st0" d="M71.1,51.2c-3.8,3.2-7.6,4.1-10.1,2.5C64.9,54.6,68,52.6,71.1,51.2z"/>
	<path class="st0" d="M27.9,39.6c3-0.8,6.1-0.8,9.2-0.7C34,39.2,31,39.8,27.9,39.6C27.9,39.6,27.9,39.6,27.9,39.6z"/>
	<path class="st0" d="M127.6,56.8c1,1.9,0.8,5.7-0.5,7.2c-0.5,0.5-0.6,0.6-2.7,0.4c2.1-0.2,2.7-1.2,3-2.7
		C127.6,60,128,58.4,127.6,56.8L127.6,56.8z"/>
	<path class="st0" d="M67,32.2c-1.3,0.2-2.6,0.7-4,0.5c-0.4-0.1-0.6-0.3-0.6-0.6c0-0.4,0.4-0.5,0.7-0.5C64.4,31.7,65.6,32.3,67,32.2
		z"/>
	<path class="st0" d="M199,26.4c-0.1,0.2-0.1,0.6-0.2,0.7c-1.8,1.2-3.7,2.2-5.8,2.8C194.9,28.5,197.3,28.1,199,26.4L199,26.4z"/>
	<path class="st0" d="M94.9,32.1c-1.3-1.3-3.5-2-2.9-4.5c0.7,0.7,0.5,1.9,1.5,2.5C94.1,30.5,94.8,31.2,94.9,32.1z"/>
	<path class="st0" d="M160.9,52.3c2-0.6,3.9-0.2,5.4-1.3c-0.5,1.1-0.5,1.1-2.2,1.4C163.3,52.5,162.3,52.7,160.9,52.3z"/>
	<path class="st0" d="M161.2,42.7c2,0,3.9,0,5.9,0c0,0,0,0.1,0,0.1c-2,0-3.9,0-5.9,0C161.2,42.8,161.2,42.8,161.2,42.7z"/>
	<path class="st0" d="M184.3,36.6c0.1-0.1,0.1-0.4,0.2-0.4c1.3-0.4,2.8-0.5,4.2-1c-0.2,0.8-0.8,0.8-1.4,0.9
		C186.3,36.4,185.3,36,184.3,36.6C184.3,36.6,184.3,36.6,184.3,36.6z"/>
	<path class="st0" d="M111.1,47c-0.1-0.4,0.2-0.7,0.5-0.6c1.1,0.6,2.2,0.6,3.4,0.1c0.3-0.1,0.7,0.3,1.2,0.5
		C114.4,47.8,112.8,47.4,111.1,47L111.1,47z"/>
	<path class="st0" d="M182.4,43c0.2-0.4,0.7-0.9-0.2-1c-0.9-0.1-1.8,0-2.7-0.2c1-0.3,1.9-0.5,2.9-0.8l-0.1-0.1
		c0.1,0.3,0.4,0.5,0.6,0.7C183.8,42.5,183.4,42.9,182.4,43C182.4,42.9,182.4,43,182.4,43z"/>
	<path class="st0" d="M179.7,34.7c1.7-0.8,3.4-1.5,5.2-1.7C183.3,34.1,181.5,34.3,179.7,34.7z"/>
	<path class="st0" d="M180.3,36.6c-1.7,1.1-3.7,1-5.6,0.9C176.6,37.2,178.5,36.9,180.3,36.6L180.3,36.6z"/>
	<path class="st0" d="M102.1,38.8c-1.1-0.9-2.8-0.4-3.9-1.9c1.6,0.6,2.9,1.1,4.2,1.6C102.3,38.5,102.2,38.6,102.1,38.8z"/>
	<path class="st0" d="M78.8,46.9c-0.3-1.5,0.5-2.6,1.5-3.6C79.8,44.5,79.3,45.7,78.8,46.9z"/>
	<path class="st0" d="M186.8,32.3c1.6-0.7,3-1.2,4.6-1.8C189.6,31.9,189,32.1,186.8,32.3z"/>
	<path class="st0" d="M100.1,31.3c-0.2-1.6,0.5-2.6,1.1-3.7C101.1,28.8,100.9,30,100.1,31.3z"/>
	<path class="st0" d="M149.5,59.7c-0.5,1.9-1.8,1.5-3.1,1.3C147.5,60.8,148.8,61,149.5,59.7z"/>
	<path class="st0" d="M182.4,41.1c1.2-0.6,2.3-1.1,3.5-1.7C184.8,40.2,183.8,41.2,182.4,41.1C182.3,41,182.4,41.1,182.4,41.1z"/>
	<path class="st0" d="M98.8,17.6c-0.1,0.4-0.3,0.8-0.9,0.9c-0.4,0-0.6-0.3-0.6-0.6c0-0.6,0.4-0.8,0.9-0.9
		C98.7,16.9,98.8,17.2,98.8,17.6z"/>
	<path class="st0" d="M123.2,60.8c0.1,0.8,0.2,1.5-0.4,2.3C122.3,62.1,123.4,61.6,123.2,60.8z"/>
	<path class="st0" d="M154.2,50.2c-1.2-0.2-2.4-0.5-3.2-1.5l-0.1,0.1C152,49.1,153.3,49.2,154.2,50.2L154.2,50.2z"/>
	<path class="st0" d="M107.7,57.9c-0.2-1.2,0.8-2,1.2-3C108.9,56.1,108.6,57.1,107.7,57.9C107.6,57.9,107.7,57.9,107.7,57.9z"/>
	<path class="st0" d="M134.3,63.2c-0.3-1.2-0.5-2-0.8-3C134.8,61,134.3,62,134.3,63.2z"/>
	<path class="st0" d="M42.7,22c1.1-0.4,1.9,0.3,2.9,0.7C44.6,22.8,43.7,22.5,42.7,22C42.8,22,42.7,22,42.7,22z"/>
	<path class="st0" d="M199,26.4c0.9,0.3,1.5-0.9,2.4-0.5C200.9,27.8,199.9,26.8,199,26.4C199,26.4,199,26.4,199,26.4z"/>
	<path class="st0" d="M199.1,28.3c-0.4,0.9-1.1,1.4-2.1,1.9C197.4,29,198.3,28.7,199.1,28.3z"/>
	<path class="st0" d="M171.2,42.3c0.5,0,1.1,0,1.6,0C172.2,42.5,171.7,42.3,171.2,42.3z"/>
	<path class="st0" d="M193.1,32.5c0.4-0.9,1.3-1,2.1-1.3C194.6,31.9,194,32.5,193.1,32.5L193.1,32.5z"/>
	<path class="st0" d="M193,32.5c-0.3,1-1.3,1-2,1.3C191.6,33.1,192.2,32.5,193,32.5C193.1,32.5,193,32.5,193,32.5z"/>
	<path class="st0" d="M180.3,36.6c1.3-0.3,2.7-0.4,4,0c0,0,0,0,0,0C183,36.5,181.6,37.1,180.3,36.6
		C180.3,36.6,180.3,36.6,180.3,36.6z"/>
	<path class="st0" d="M111.1,46.9c-0.7,0.5-1.3,0.3-2.4,0.1C109.8,46.3,110.5,47.2,111.1,46.9C111.1,47,111.1,46.9,111.1,46.9z"/>
	<path class="st0" d="M102.1,32.7c0.1,0,0.1-0.1,0.2-0.1c0.4,0,0.8-0.1,1.2,0c0.3,0,0.3,0.2,0,0.2c-0.4,0-0.8,0-1.2,0
		C102.2,32.8,102.1,32.7,102.1,32.7z"/>
	<path class="st0" d="M71,51.5c0.3-1.1,1-1.2,1.6-1.7C72.7,50.9,71.8,50.9,71,51.5z"/>
	<path class="st0" d="M171.3,38.1c0.3,0,0,0-0.3,0C171.1,37.7,171.5,38,171.3,38.1z"/>
	<path class="st0" d="M150.9,48.7c-0.8,0.3-1.3-0.2-2.4-0.7C149.7,48.1,150.3,48.3,150.9,48.7C150.9,48.7,150.9,48.7,150.9,48.7z"/>
	<path class="st0" d="M119.5,64.8c0.7-0.2,1.2-0.3,1.7,0C120.7,65.2,120.2,65.1,119.5,64.8z"/>
	<path class="st0" d="M58.6,30.7c-0.6,0.4-1.1,0.4-1.9-0.3C57.5,30.5,58,30.6,58.6,30.7C58.6,30.7,58.6,30.7,58.6,30.7z"/>
	<path class="st0" d="M127.6,56.7c-0.1-0.6-0.3-1.1,0-1.8C127.8,55.6,127.8,56.2,127.6,56.7C127.6,56.8,127.6,56.7,127.6,56.7z"/>
	<path class="st0" d="M154.1,50.3c0.9-0.1,1.6,0.1,2,0.9c0,0,0,0,0,0C155.3,51.2,154.7,50.9,154.1,50.3
		C154.2,50.2,154.1,50.3,154.1,50.3z"/>
	<path class="st0" d="M189.8,37c-0.2,0.2-0.3,0.4-0.5,0.5c-0.2,0.1-0.3,0-0.2-0.2c0.1-0.2,0.3-0.3,0.5-0.4
		C189.7,36.9,189.7,37,189.8,37z"/>
</g>
<g>
	<path class="st1" d="M162.7,229.9c0,0.4,0,0.8-0.1,1.2c-2,4.9-3.8,9.8-6.2,14.5c-1.3,2.5-2.7,4.9-4.6,7c-0.2,0.2-0.5,0.5-0.6,0.7
		c-0.3,0.7,0,1.2,0.5,1.7c0.5,0.4,1,0.4,1.5,0c0.9-0.7,1.3-1.6,1.8-2.5c3.1-6.1,6.5-12.1,9.4-18.3c0.1-0.2,0.3-0.4,0.5-0.7
		c0.2,1.3-0.5,2.3-0.9,3.2c-3.2,6.3-6.1,12.8-9.9,18.8c-0.9,1.4-0.6,3.1-0.6,4.7c0,0.7,0.5,0.7,1,0.5c0.8-0.3,1.2-1.1,1.6-1.7
		c2-2.9,3.6-6.1,5.1-9.2c1-2.1,1.9-4.2,3.1-6.2c0.3,0.3,0.2,0.5,0.1,0.7c-2.3,4.7-4.1,9.7-7,14.2c-1.2,1.8-1.8,3.9-2,6.1
		c0,0.5,0.1,1,0.6,1.2c0.4,0.1,0.7-0.3,1-0.5c1.3-1.2,2-2.7,2.7-4.2c1.3-3.1,2.6-6.2,3.9-9.3c0.5-1.1,0.9-2.2,1.7-3.2
		c0.5,0.6-0.1,1-0.2,1.5c-1.4,3.5-2.8,7-4.2,10.4c-0.6,1.6-1.2,3.2-2.3,4.4c-1.1,1.3-1.3,2.7-1.1,4.7c3.9-3,5.4-7.4,8-11
		c-1.2,3.1-2.8,6-4.6,8.8c-1.9,3-2.3,6.4-2.9,10.4c1.8-1.1,2.6-2.4,3.3-3.7c1.7-3.4,3.5-6.7,4.9-10.1c0.3-0.8,0.7-1.6,1.8-2.6
		c-0.4,1-0.5,1.5-0.7,2c-1.9,4.1-3.6,8.2-5.7,12.1c-2.4,4.6-3.4,9.6-4.3,14.6c-0.3,1.3,0.1,2.5,0.4,3.8c1.3,0,0.6-2,2.1-1.9
		c-1.2,4.3-2.4,8.6-3.5,12.9c2.1-3.1,3.8-6.5,5.1-10c3.2-8.8,6.8-17.6,9-26.7c0.9-3.7,1.8-7.3,2.9-10.9c1.4-4.7,1.2-9.5,0.6-14.3
		c-0.9-6.8-2.6-13.5-5.2-19.9c-0.8-1.9-1.7-3.8-2.9-5.5c-1.6-2.5-3.9-4-7.1-3.9c-0.3,1.1,0,2.3,0,3.5c-0.1,3,0,5.9-0.5,8.8
		c-0.1,0.3-0.2,0.7-0.1,0.9c1,2.3-0.1,4.4-0.7,6.5c-1,3.9-2.2,7.9-3.7,11.6c-0.9,2.2-2.1,4.3-3.6,6.2c-1,1.3-2.3,2.4-4.1,1.6
		c-0.8-0.3-1.2,0.1-1.5,0.7c-1.9,3-3.7,6-4.3,9.5c-0.5,2.8-1.3,5.4-2.2,8.1c-3,8.7-7.2,16.9-11.5,25c-2.3,4.2-5.5,7.7-8.3,11.4
		c-2.8,3.8-6.4,6.9-9,10.9c-0.7,1.1-1.7,1.9-2.6,2.8c-3,3-5.7,6.2-8.5,9.5c-5.4,6.4-11.1,12.6-18.8,16.3c-0.3,0.1-0.5,0.4-1.1,0.2
		c0.5-0.9,1.4-1.2,2.1-1.7c3.7-2.5,7.5-4.8,10.6-8.2c8.2-9.3,15.8-19.1,22.6-29.5c1.1-1.7,1.7-3.6,3.2-5c0.2-0.2,0.5-0.7,0.1-0.8
		c-1.6-0.4-0.7-1.2-0.4-1.9c1.5-2.9,3.2-5.6,4.3-8.7c0.6-1.6,1.8-3,2.7-4.5c1.5-2.4,3-4.9,4.7-7.2c-0.9,2.6-2.4,4.9-3.8,7.3
		c-1.4,2.4-2.7,4.8-3.6,7.4c6.7-4.8,9.8-12.1,13.3-19.6c0.3,1.6-0.1,2.7-0.3,3.9c0.4,0.1,0.5-0.3,0.6-0.5c1.6-3.9,3.2-7.8,4.5-11.8
		c0.5-1.6,0.4-3.3,0.9-4.9c1.4-4.2,3.5-7.9,6.2-11.3c2.5-3.2,4.4-6.9,6.7-10.2c1.6-2.3,2.9-4.6,3.3-7.3c0.9-4.8,1.6-9.6,2-14.5
		c0.1-1.1,0-2.3-1-3l0,0c1.1-1,0.7-2.3,0.1-3c-0.7-0.9-0.6-1.7-0.8-2.6c-0.8-4.5-1.2-9-3-13.3c-1.4-3.3-2.4-6.6-2.8-10.3
		c-1.2,0.2-2.4,0.5-2.7,1.4c-0.3,1,0.5,1.9,1.7,2.7c-2.1,0.1-2.3-1.2-2.7-2.5c-4.4,1.1-7.4,3.9-9.4,7.8c-1.5,2.9-2.2,6.2-3,9.3
		c-0.7,2.5-1.8,4.8-4.2,6.2c-2.1,1.3-4.5,0.1-4.6-2.4c-0.2-2.6-0.2-5.3,0-7.9c0.1-1.4,0-2.7-0.6-4c-0.7-1.3-1.7-2.1-3.3-2.4
		c-4.9-0.8-9.4,0.4-13.7,2.3c-6.8,2.8-13,6.8-18.8,11.4c-1.2,1-2.7,1.7-3.5,2.8c-2.5,3.4-6.2,5.3-9.2,8.1c-3,2.8-6.1,5.6-8.9,8.7
		c-6.3,7-12.8,13.8-18.2,21.6c-2.8,4.1-5,8.5-7.6,12.7c-1.7,2.8-3.3,5.6-5,8.5c-0.4-0.3-0.3-0.5-0.1-0.8
		c5.1-9.7,10.1-19.5,17.2-27.9c7.8-9.1,15.7-18.1,24.7-26.1c6.1-5.5,12.3-10.7,19.2-15.1c5.5-3.4,11.3-6.3,17.8-7.4
		c2.1-0.3,4.2-0.4,6.2,0c2.8,0.4,4.5,2.2,4.9,5.1c0.2,1.2,0.1,2.4,0,3.6c-0.2,1.9-0.2,3.8,0,5.7c0.1,1.1,0.3,2.4,1.6,2.7
		c1.1,0.3,1.9-0.6,2.7-1.2c0.9-0.8,1.5-1.9,1.9-3c0.7-1.9,1.2-3.8,1.9-5.7c0.5-1.6,1-3.2,1.7-4.7c1.8-4.4,4.9-7.3,9.6-8.6
		c1.9-0.5,3.2-2.2,5.1-2.9c0.1,0.1,0.2,0.3,0.3,0.4c0.5,5,2.4,9.7,3.9,14.5c1.1,3.8,2.3,7.6,2.8,11.6c0.3,2,0.4,2.1,2.3,2.3
		c3.2,0.2,5.2,2.1,6.9,4.6c1.2,1.7,2.1,3.6,2.8,5.5c2.4,6.3,4.3,12.7,5.1,19.4c0.2,1.7,0.8,3.4,0.8,5.2c0,2-0.2,4-0.6,6
		c-0.9,5.3-2,10.5-3.3,15.7c-0.1,0.5-0.3,1-0.6,1.3c-1.1,1.1-1.4,2.6-1.6,3.9c-0.8,4.6-2.5,8.9-4.6,13c-0.2,0.4-0.5,0.8-0.6,1.3
		c-1.7,6.1-4.5,11.8-7.4,17.4c-2.8,5.6-5.1,11.5-7.7,17.3c-0.4,0.8-0.5,1.9-1.7,2.3c-0.4-0.9,0.2-1.5,0.5-2.2
		c3.9-8.4,6.4-17.2,9.1-26c0.4-1.2,0.4-2.2-0.3-3.5c-0.9-1.8-0.6-3.9-0.2-5.9c0.7-3.3,1.6-6.5,2.8-9.6c-2.1-0.2-2.2-0.3-2.1-2
		c0.1-2.2,0.9-4.2,1.3-6.3c-2.2,0-2.2,0-2.2-2.2c0-0.4,0.1-1-0.1-1.1c-2.2-1.1-1.3-3-1.2-4.6c0-0.2,0-0.3,0-0.5
		c-2.2-0.5-2.5-1.1-2.2-3.3c0.1-0.5,0.2-0.9,0.3-1.4c0.1-0.6-0.1-0.9-0.7-1c-1.1-0.2-1.7-1-1.9-2.1c-1,0-1.7,0.7-3.1,0.4
		c5-2.3,6.9-6.6,9-10.7c2-4,3.6-8.2,5.4-12.3C162,230.9,162.1,230.2,162.7,229.9L162.7,229.9z M110.3,314c0.1,0.1,0.3,0.3,0.4,0.4
		c1.1-1.3,2.2-2.6,3.4-3.9c7.4-7.7,12.6-16.8,17.3-26.2c0.5-1,1-2,0.3-3.1c-0.7,0.7-1.1,1.6-1.5,2.4c-2.2,5-5.6,9.1-10.1,12.2
		c-1.5,1-1.9,2.7-2.8,4.1c-0.1,0.2-0.2,0.4,0.2,0.6c1.3,0.5,0.5,1.3,0.2,1.9c-1.2,2.6-2.7,5-4.4,7.4
		C112.3,311.1,111.3,312.5,110.3,314z M153.9,240.7c-2.7,3.5-4.8,7.4-7.7,11.3c1.4-0.4,2.5-0.5,3.2-1.4
		C151.5,247.5,153.1,244.3,153.9,240.7z M108.9,316.6c-0.8,0.5-1.4,1.3-1.6,2.3C108.1,318.3,108.6,317.5,108.9,316.6z"/>
	<path class="st1" d="M122.6,261.5c-2.8,6.2-7,11.2-11.6,15.7c-4.2,4-8.6,7.9-13.2,11.5C84.7,299,70.7,307.8,55.6,315
		c-5.6,2.7-11.5,4.2-17.7,4.7c-1.8,0.1-3.6,0.5-5.7,0.4c2.2-1,4.3-1,6.3-1.2c9.6-0.7,18-4.7,26.1-9.3c8.5-4.8,16.8-10.1,24.9-15.5
		c5.9-3.9,11.1-8.6,16.3-13.3c3.9-3.5,7.6-7.3,11-11.4c2.6-3.2,4.3-6.9,5.8-10.7c0.6-1.5,0.5-3.1,0.1-4.5c-1.2-3.6-2.4-7.2-2.7-11.3
		c-1.4,1.1-1.9,2.7-3.1,3.5c-0.9-0.6-1.1-1.4-1.2-2.4c-0.3-2.1,0.5-4.2,0.1-6.4c-0.1-0.6,0.6-1.3,0.9-1.9c1.1-2.1,2.3-4.2,3.5-6.3
		c0,1.4-0.8,2.5-1.3,3.7c-1.3,2.8-2.3,5.6-2.5,8.7c-0.1,1.1-0.3,2.2,0.4,3.6c3.7-5.3,6.2-10.8,8-16.8c0.7,0.7,0.3,1.2,0.1,1.7
		c-0.8,2.8-1.6,5.7-3,8.3c-1.2,2.1-1.4,4.3-0.9,6.5c0.7,3.5,1.5,7,3.4,10.1c0.4,0.7,0.2,1.4,0.1,2.1c-1,9.5-5.2,17.6-10.5,25.4
		c-4.1,5.9-9.7,10.2-15.8,13.7c-6.8,3.9-13.9,7.1-20.6,11.2c-1.6,1-3.6,1.4-5.5,1.8c1.5-1,3-2,4.4-3.1c1.4-1.1,2.7-2.2,4-3.3
		c0.6,0.3,0.4,0.9,0.9,1.4c2.2-1.2,4.5-2.5,6.8-3.7c5.1-2.7,10.4-5.3,15.1-8.7c2.9-2.1,5.6-4.5,7.9-7.3c4.9-6.1,8.8-12.8,11.1-20.2
		C122.5,263.5,123,262.8,122.6,261.5z"/>
	<path class="st1" d="M107.6,235.7c0.9-1.3,1.4-2.8,2.7-3.9c0.3-0.2,0.5-0.6,0.6-1c0.5-3.7,2.9-6.3,5-9.1c-3.1,4.8-5.3,9.7-4.4,15.8
		c1-0.5,1-1.3,1.2-1.9c1.3-3.7,2.8-7.3,5.4-10.3c1.4-1.6,2.3-3.6,3.7-5.6c0,1.2-0.5,1.9-1,2.6c-1.4,2.3-2.8,4.6-4.2,7
		c-1.4,2.2-2.4,4.5-3,7c-0.1,0.6-0.4,1.2-0.7,1.8c-0.7,1.5-1.1,3-0.9,5c-1-0.9-0.8-1.8-0.7-2.5c0.1-0.8,0.1-1.4-0.4-2.2
		c-1-1.5-0.7-3.2-0.6-5.1C109.2,233.7,109.1,235.6,107.6,235.7C107.6,235.7,107.6,235.7,107.6,235.7z"/>
	<path class="st1" d="M104.2,227.8c1.1,1.5,1.5,1.6,2.4,0.3c1.1-1.4,1.9-3,2.8-4.4c1-1.6,1.9-3.2,3.6-4.3c1.4-0.9,1.9-2.7,2.8-4.1
		c0.4-0.7,0.3-1.8,1.4-2l-0.1,0c-0.5,2.7-1.9,5-3.5,7.2c-2.3,3.1-3.8,6.5-5,10.2c-0.2,0.7,0.2,2.1-1.4,2c-0.1,0-0.4,1.3-0.5,2
		c-0.1,0.6,0.2,1.1,0.9,1.2c0,0,0-0.1,0-0.1c-1.1,0.8-1.4,0-1.4-0.9c0-1.4,0.4-2.7,0.8-4c0.2-0.6,0.7-1.1,0.4-1.8
		C104.6,230.2,104.2,230.1,104.2,227.8C104.3,227.7,104.2,227.8,104.2,227.8z"/>
	<path class="st1" d="M120.9,283.6c-1-0.4-0.2-0.9,0-1.3c1.4-1.7,2.7-3.4,4.2-4.9c2.4-2.6,4.6-5.3,6.4-8.3c0.6-0.9,1.1-1.8,2-2.4
		c-2.9,5.9-7,10.9-11.1,16C122,283,121.5,283.3,120.9,283.6z"/>
	<path class="st1" d="M49.8,257.6c2.8-2.3,4.3-5.4,6.3-8.3c0.1,0.1,0.3,0.2,0.4,0.3c-1.2,2-2.4,4-3.7,6.3c2.8,0.1,4.3-2.1,6.2-3.1
		c1.9-1.1,3.4-2.7,5.1-4.2c-0.5,1.3-1.4,2.2-2.5,3c-1.9,1.5-3.8,2.8-5.8,4.2c-0.5,0.4-1.3,0.8-1.7,0.7c-1.8-0.5-2.7,0.8-4,1.4
		C50,257.7,49.9,257.7,49.8,257.6z"/>
	<path class="st1" d="M80.1,242.3c1.1,0.2,2-0.2,2.8-1c4.4-4.1,8.9-8.1,11.7-13.5c-0.4,0.9-0.8,1.7-1.2,2.6
		c-0.5,0.8-0.9,1.7-1.5,2.4c-2.6,3.5-5.6,6.5-8.9,9.4c-0.5,0.4-1,0.8-1.7,0.9C80.8,243.2,80.2,243,80.1,242.3L80.1,242.3z"/>
	<path class="st1" d="M101.9,222.3c-2.5,4.7-5.3,9.1-8.5,13.2c-1,1.3-2.3,2.6-4.4,2.4c3.5-1.8,5.4-5.1,7.5-8.1
		c1.7-2.6,3.2-5.3,5.2-7.7C101.7,222.2,101.8,222.2,101.9,222.3z"/>
	<path class="st1" d="M109.9,218.9c-0.9,2.5-2.3,4.6-4,6.7c-0.6,0.7-1.2,1.5-1.7,2.2c0,0,0.1-0.1,0.1-0.1c-3.1,2.6-5.8,5.6-9.5,7.3
		c2-1.7,4-3.5,6-5.2c3.1-2.7,5.7-5.7,7.8-9.3C108.9,220,109,219.1,109.9,218.9L109.9,218.9z"/>
	<path class="st1" d="M80.2,242.3c-1.9,1.5-3.5,3.2-5.6,4.5c-0.7,0.4-1.4,1.1-2.6,0.7c3.9-2.1,6.8-5.3,10.2-7.8
		C81.5,240.6,80.8,241.5,80.2,242.3C80.1,242.3,80.2,242.3,80.2,242.3z"/>
	<path class="st1" d="M127.6,253.9c-0.8-0.2-0.2-1.5-1.4-1.3c-0.6,0.1-0.4-0.6-0.2-0.9c0.3-0.5,0.8-1,1.1-1.5
		c0.4-0.6,0.7-0.3,1.1,0.1c0.3,0.3,1,0,0.7,0.8C128.7,252.1,128.5,253.2,127.6,253.9z"/>
	<path class="st1" d="M135.8,258.4c0.9-4.1,1.5-4.7,4.2-4.5c0.4,0.6,0,1.2-0.2,1.8c-0.1,0.3-0.4,0.7-0.6,0.3
		c-0.7-1.3-1.1-0.3-1.5,0.1C137,256.7,136.9,257.7,135.8,258.4z"/>
	<path class="st1" d="M121,284.6c0,1-0.8,1.5-1.1,2.3c-0.2,0.5-0.3,1,0.5,0.9c1-0.1,0.8,0.5,0.5,1c-0.4,0.7-0.7,1.4-1.7,2.2
		c0.4-1.2,0.5-2,0-3C118.5,286.6,119.8,285.4,121,284.6C121,284.6,121,284.6,121,284.6z"/>
	<path class="st1" d="M143.5,193.1c-0.2,0.8-0.8,1-1.4,1.2c-0.5,0.1-1,0.3-1.3-0.2c-0.2-0.3-0.2-0.8,0-1.1c0.3-0.5,1.8-0.8,2.4-0.4
		C143.4,192.7,143.4,193,143.5,193.1z"/>
	<path class="st1" d="M114.9,283.8c1.1,2.5,1.7,2.5,4.6,0.5c-0.5,1.4-2,2.5-3.3,2.2C115.1,286.2,114.7,285.5,114.9,283.8z"/>
	<path class="st1" d="M75.4,239.5c-0.5,1.9-1.9,3.1-3.1,4.5C73.1,242.2,73.8,240.6,75.4,239.5L75.4,239.5z"/>
	<path class="st1" d="M50.1,257.8c-1,1.2-2.3,2-3.8,2.6c1-1.1,2.1-2.2,3.6-2.9C49.9,257.7,50,257.7,50.1,257.8z"/>
	<path class="st1" d="M69.5,247c-0.9,1-1.9,2-3.3,2.3c1-0.9,2-1.8,3-2.7C69.2,246.8,69.4,246.9,69.5,247z"/>
	<path class="st1" d="M166.6,256.4c0.4-1.7,1.2-2.7,1.9-3.7C168.1,253.9,167.6,255,166.6,256.4z"/>
	<path class="st1" d="M148.9,222.4c0.9-0.5,1.5-1.3,2.4-1.9C150.7,221.4,150.2,222.4,148.9,222.4z"/>
	<path class="st1" d="M101.7,222.1c0.6-1.4,1.2-2.8,2.5-3.7l0,0c-0.4,1.5-1.3,2.8-2.3,3.9C101.8,222.2,101.7,222.2,101.7,222.1z"/>
	<path class="st1" d="M137.4,204.2c0.3,1.1,0.1,2-0.9,2.7C136.5,205.8,136.8,205.1,137.4,204.2z"/>
	<path class="st1" d="M133.6,217.3c0-1.1,0-2.2,0-3.3c0,0,0.1,0,0.1,0c0,1.1,0,2.2,0,3.4C133.7,217.3,133.6,217.3,133.6,217.3z"/>
	<path class="st1" d="M156.6,215.2c0,1.7,0,1.8-2.4,2.2C155.3,216.6,156.5,216.5,156.6,215.2C156.7,215.2,156.6,215.2,156.6,215.2z"
		/>
	<path class="st1" d="M140.7,223.1c-1.1-0.5-1.1-1.3-1.7-2.1C140.2,221.4,140.3,222.2,140.7,223.1z"/>
	<path class="st1" d="M42.2,262.9c0.9-0.9,1.5-1.3,2.5-1.4C44.1,262.4,43.4,262.6,42.2,262.9z"/>
	<path class="st1" d="M104.2,218.4c-0.1-0.9,0.6-1.5,1.2-2C105.1,217.1,105,218,104.2,218.4C104.2,218.4,104.2,218.4,104.2,218.4z"
		/>
	<path class="st1" d="M110,218.9c-0.2-0.9,0.5-1.4,1.1-2.3C110.9,217.7,110.6,218.4,110,218.9C109.9,218.9,110,218.9,110,218.9z"/>
	<path class="st1" d="M75.4,239.5c-0.1-1,0.7-1.5,1.2-2.2C76.6,238.2,76.2,239,75.4,239.5C75.4,239.5,75.4,239.5,75.4,239.5z"/>
	<path class="st1" d="M120.9,283.6c0.5-0.3,1-0.6,1.6-0.9c-0.3,0.8-0.6,1.6-1.5,1.9c0,0,0,0,0,0
		C120.9,284.3,120.9,283.9,120.9,283.6z"/>
	<path class="st1" d="M117.3,213.2c-0.4-0.8,0.1-1.4,0.8-2.5C117.9,211.9,117.6,212.6,117.3,213.2
		C117.2,213.2,117.3,213.2,117.3,213.2z"/>
	<path class="st1" d="M58.8,246.5c0,0.6-0.3,1-0.8,1.2C57.8,247.1,58.4,246.9,58.8,246.5z"/>
	<path class="st1" d="M162.7,229.9c-0.1-0.8,0.2-1.4,0.9-2.4C163.5,228.7,163.4,229.4,162.7,229.9
		C162.7,229.9,162.7,229.9,162.7,229.9z"/>
</g>
<g>
	<path class="st2" d="M-148.4,147.9c-2.3-2.1-3.9-4.6-4.5-7.6c-0.2-0.7-0.3-1.4-0.7-2c-1.5-2.4-3.1-4.6-3.8-7.4
		c-0.2-0.6-0.7-1.1-1-1.6c-1.5-2.5-3-5.1-3.1-8.2c0-0.8-0.6-1.3-0.9-1.9c-1.1-1.8-2-3.6-2.3-5.7c0-0.4-0.1-0.8-0.1-1.2
		c0-1.4,0.7-1.8,1.8-1.1c0.7,0.5,1.4,1.1,2,1.7c8.3,8.3,16.2,17.1,24,25.8c3.4,3.8,6.6,7.8,9.8,11.8c1.2,1.5,2.7,2.5,3.9,3.8
		c3.2,3.3,5.2,7.2,6.5,11.6c1,3.3,1.9,6.6,2.3,10c0.4,3.3,2,6.2,3.5,9.1c0.2,0.4,0.4,0.7,0.6,1c0.8,1.1,1.1,2.8,2.3,3.2
		c1.1,0.4,2.4-0.6,3.6-0.9c4.2-1.1,7-0.2,9.2,3.1c1.9,2.8,1.9,2.8,5.4,3.3c-3.1,0.8-4.1,2.9-5.2,5.1c-1.2,2.5-3.6,3.8-6,4.9
		c-1,0.5-1.7,1.1-2.1,2.1c-2,6.2-6.6,10.2-11.6,13.9c-1.9,1.4-3.9,2.5-6.1,3.3c-1.9,0.7-3.6,1.6-5.3,2.7c-4.2,2.7-7.1,6.5-9.8,10.6
		c-3.2,4.9-5.5,10.3-7.8,15.6c-2.1,2-2.9,4.6-3.7,7.2c-1.4,4.5-2.7,9-3.4,13.8c-0.5-1.5-0.5-1.5-0.3-2.9c0.6-4.3,2.1-8.3,3.1-12.5
		c1.3-5.7,4.1-11,4.8-16.9c0.1-1,0.1-1.9-0.1-2.9c-0.2-0.9-0.7-1-1.4-0.8c-0.2,0.1-0.4,0.2-0.7,0.3c-4.2,2.3-8.3,4.7-11.6,8.4
		c-9.2,10.2-17.1,21.3-24.9,32.5c-0.2,0.3-0.3,0.7-0.9,0.8c0.3-1.2,0.9-2.1,1.5-3c6-9,12.4-17.6,19.2-26c2.7-3.3,5.9-6.2,8-10.1
		c0.8-1.4,1.8-2.7,3-3.8c4.7-4.4,6.7-10.4,9.1-16.1c0.8-2,1.6-4,2.7-5.9c0.7-1.2,1.4-2.4,2.2-3.7c-0.8-0.3-1.2,0.1-1.7,0.3
		c-1,0.4-2.2,0.6-3,0.1c-1.3-0.7-2.6-1.5-4.2-1.4c-0.1,0-0.1-0.1-0.2-0.1c-1.2-0.3-0.5-2.1-1.8-2.2c-1-0.1-1.9-0.4-2.4-1.3
		c-0.3-0.5-0.6-0.6-1.2-0.5c-1.4,0.3-2.7-0.1-3.7-1.1c-0.3-0.3-0.6-0.6-1-0.5c-2.1,0.3-4.1-0.6-6.2-0.6c-2,0-3.9-0.5-5.5-1.7
		c0.2-0.4,0.3-0.5,0.5-0.4c3,1.7,6.1,1.5,9.2,0.3c4.2-1.6,8.5-3.3,12.7-4.9c0.4-0.1,0.7-0.5,1.4-0.1c-4.9,2.4-9.8,4.2-14.6,6.3
		c6,0.4,10.9-2.8,16.2-4.7c-1.7,1.6-3.9,2.3-5.9,3.2c-2,1-4.1,1.6-6.3,2.3c0.9,0.9,1.8,1.3,2.9,1c4.6-1.2,9.2-2.4,13.6-4.4
		c-0.4,1.1-1.3,1.5-2.3,1.8c-2.7,0.9-5.4,1.8-8.1,2.7c-0.4,0.1-0.9,0.2-0.8,0.7c0,0.5,0.5,0.8,1,0.8c1.5,0.2,2.8-0.4,4.2-0.7
		c2-0.5,3.8-1.6,5.9-1.8c-1.3,0.7-2.7,1.4-4,2c-1,0.4-2.1,0.7-3.2,1c-0.5,0.1-1,0.3-1,0.8c0,0.6,0.4,1.1,1.1,1.1
		c0.8,0.1,1.6,0.1,2.4,0c1.3-0.2,2.5-0.8,3.8-1.4c0.8-0.4,1.4-1.1,2.4-1c-1.4,1.6-3.5,2.2-5.4,3.3c3.4,1.5,7.5-0.7,9.1-4.7
		c-0.6-0.2-1.2-0.1-1.9,0c-0.2-1.1-0.8-1.8-2-1.8c0.7-1.3-0.3-2-1.1-2.8c-0.4-0.3-0.6-0.7-0.8-1.2c-0.1-0.3-0.3-0.6,0-0.9
		c1.9,2.2,1.9,2.2,5.9,2.5c-1,0.5-1.9,0.6-2.8,0.8c1.1,2.8,3.1,3.3,5,1.3c2.2-2.3,4.7-4.3,7.4-6.4c-3.4-1.6-5.9-3.9-8.6-6.2
		c-3.3-2.8-6.6-5.6-10.9-6.6c-0.5-0.1-1.1-0.3-1.6-0.3c-5-0.3-10-0.4-15,0.3c-1.4,0.2-2.9,0.2-4.4,0.5c4.4,1.9,8.9,1.4,13.5,0.7
		c-0.8,0.6-1.8,0.8-2.7,0.9c-1,0.1-2,0.4-3.3,0.6c3.1,2.9,6.7,2.4,10.3,2.5c-1.1,0.2-2.3,0.4-3.5,0.7c1.8,1.9,3.2,2.3,8.4,2.5
		c-2.4,1.3-7.4,0.5-8.7-1.7c-0.6-0.9-1.2-1.2-2-1.3c-1.8-0.1-3.3-0.9-4.5-2c-0.6-0.6-1.2-0.9-2.1-0.9c-1.3-0.1-2.7-0.1-3.8-0.6
		c-2.8-1.4-5.6-0.6-8.4-0.1c-0.6,0.1-1.3,0.2-1.9,0.2c-7.3,0.2-14.4,1.2-21.6,2.5c-8.2,1.4-16.2,3.3-24.3,5.2c-2,0.5-4,0.9-6.2,1.8
		c8.1,0.8,15.6-0.1,23.1-1.9c7-1.7,13.9-3.4,21-4.4c5.6-0.8,11.1-2,16.8-2.4c0.1,0,0.3,0.1,0.9,0.3c-11.6,2.3-23.1,3.2-34.3,6.4
		c2.4,1,4.8,0.7,7.2,0.6c1.8-0.1,3.6-0.6,5.4-0.9c4.8-0.7,9.6-1.5,14.4-2.4c3.2-0.6,6.3-1.5,9.5-2.2c-2,1.4-4.4,1.8-6.6,2.4
		c-2.4,0.6-4.8,1-7.3,1.5c-2.4,0.4-4.9,0.8-7.3,1.2c-2.4,0.4-4.8,0.8-7.1,1.4c2.8,1.6,5.9,1.8,8.9,1.3c7.9-1.3,15.7-2.9,23.1-5.9
		c0.2-0.1,0.4,0,1.2,0c-3.9,2.1-7.7,3.2-11.5,4.2c-3.8,1-7.7,1.7-12.1,2.7c4.6,0.8,8.5,0.3,12.5-0.5c4.9-1,9.4-2.9,14.1-4.4
		c0.6-0.2,1.1-0.7,1.8-0.4c-0.2,0.4-0.6,0.5-1,0.7c-6.1,2.5-12.2,4.8-18.7,5.6c-3.3,0.4-6.7,0.7-9.9-0.7c-0.7-0.3-1.4-0.2-2.1-0.1
		c-2.7,0.1-5.2-0.6-7.6-1.8c-0.8-0.4-1.6-0.7-2.5-0.6c-1.8,0.1-3.5-0.1-5.2-0.6c-1.4-0.4-2.7-0.4-4,0c-7.7,2.2-15.6,2.5-23.5,2.1
		c-0.9,0-1.7-0.1-2.4-0.7c-0.1-0.7,0.5-0.8,0.9-0.9c7.8-2.1,15.5-4.3,23.4-5.7c8.1-1.5,16.1-3,24.3-3.7c4.4-0.4,8.8-1.2,13.2-1.9
		c1.5-0.2,3,0.1,4.5-0.2c5.2-1,10.5-0.8,15.8-1c1.9-0.1,3.8,0.2,5.7,0.3c2.4,0.1,4.4,1.2,6.6,2.3c0.4-0.7-0.3-1-0.3-1.4
		c-0.2-1.4-0.6-2.6-0.2-4.1c0.5-1.9-0.4-4-1.5-5.8c-0.5-0.8-1.2-1.6-0.6-2.6c0.1-0.1,0.1-0.4,0-0.4c-1.8-1.5-1.6-4.1-3.2-5.7
		c-1.3-1.4-2.1-3.1-2.8-4.9c-0.6-1.7-1.5-3.4-2.9-4.9c-1.5-1.6-2.9-3.3-3.7-5.3C-149.2,149.5-149.5,148.5-148.4,147.9
		c-0.3,1.6,0.6,2.8,1.3,4c1.1,1.7,2.4,3.2,3.9,4.6c1.5,1.4,3,2.8,4.8,3.6c1.7,0.8,3.1,2.5,5.2,1.8c0.2-0.1,0.3,0,0.3,0.2
		c0.4,2,2,3.2,3.2,4.7c-1.4-0.4-2.3-1.4-3.1-2.6c-0.3-0.4-0.4-0.9-0.9-1.1c-2.8-1-5.5-2.4-8.1-3.7c2.2,2.7,5.1,4.4,8.1,6
		c-2.8-0.2-4.9-2.1-7.6-3.7c2.3,4,5.1,6.3,9,7.2c0.5-0.7-0.1-1.5,0.8-2.1c-0.1,3.1,2.1,4.6,4.4,6.4c-1.4-0.1-1.9-1-2.9-1.1
		c0,2.4,1.4,3.7,3.3,4.8c1.7,1,3.6,1.6,5.8,1.8c-1.4,0.7-1.3,0.6-1,1.5c0.2,0.8,1.1,1.2,1.5,2.2c-1.2-0.4-1.9-1.1-2-1.9
		c-0.2-1.2-1-1.4-2-1.7c-1.9-0.6-3.8-1.2-5.2-2.7c-1.2-1.3-4-3-6.2-3.7c0.8,2.9,3.3,3.7,5.4,5.1c-1.2,0.3-2-0.7-3.3-0.6
		c1.2,1.6,2.7,2.5,4.4,3.2c0.3-0.9-0.9-1.8,0.2-2.8c0.9,3.6,4,4.8,6.7,6.6c-1.6-0.5-3.2-0.7-4.3-2.1c-2.2-1.1-4.6-1.6-7-3.1
		c1,2.2,1.2,2.5,3,3.4c2.4,1.2,2.4,1.2,4-0.3c-0.4,1.8,0.8,2.8,1.9,3.8c1.7,1.7,3.9,2.6,6.3,3.5c-1.3,0.2-2.4-0.8-3.8-0.5
		c2.7,3.1,5.9,4.5,9.7,4.6c-0.4,0.9-1.2,1.2-2,1.5c0-0.4,0.7-1-0.4-1.2c-1.5-0.2-3-0.7-4.3-1.4c-1.6-0.9-3.2-1.7-4.2-3.4
		c-1.4-2.4-3.2-4.4-6-5.3c-1.1-0.3-2.1-0.7-3-1.4c-0.4-0.3-0.7-0.7-1.3-0.2c-0.2,1.2,0.8,1.7,1.5,2.2c2.2,1.5,4.4,2.9,6.6,4.4
		c-2.5-0.7-4.7-2.2-7.1-3.6c0.9,2.4,2.6,3.5,4.3,4.7c2.5,1.8,5,3.7,7.4,5.7c1.6,1.3,3.2,1.5,5,0.8c0.6,0.8,1.5,0.3,2.2,0.5
		c0.7,0.1,1.5-0.1,1.8,0.9c-1.1,0-2.2,0-3.3,0c-4,0.1-7.6,1.2-10.5,3.9c-2.5,2.3-5.2,4.3-7.3,7.1c-2.1,2.9-4.2,5.8-6,8.9
		c-1.1,2-2.3,4-2.4,6.2c-0.1,2-1.1,3.4-1.8,5c-1,2.1-2,4.2-1.9,6.6c0,1.3,0.6,1.8,1.9,1.8c0.6,0,1.1-0.3,1.6-0.5
		c3.5-1.8,6.7-4,9.8-6.4c2.8-2.1,5.7-4.1,8.9-5.6c4.4-2,8.6-4.4,12.2-7.8c2.8-2.7,5-5.7,6.7-9.2c0.5-1.1,0.1-1.5-0.9-1.6
		c-0.9-0.1-1.8-0.3-2-1.3c5,1.1,11.6-1.8,12.6-7.8c-1.3-0.3-2.9,2.2-4.1-0.5c1.7,0.2,3.3,0.1,4.9-0.7c-1.1-0.9-1.6-1.9-2.2-3
		c-1.5-2.5-3.7-3.7-6.6-3.3c-2.7,0.3-5.3,1.3-7.6,2.8c-0.9,0.6-1.6,1.3-2.7,1.5c0.7-1.6,2.7-1.8,3.7-3.2c-0.6-0.9-1.3-1.8-1.9-2.7
		c-2.2-3.4-4-6.9-4.6-10.9c-0.4-2.5-0.9-5-1.6-7.5c-1.2-4.2-2.6-8.4-5.3-11.9c-1-1.3-2.1-2.4-3.8-3.4c0.7,2.1,2.2,3,2.7,4.7
		c-0.6-0.5-1.2-1-1.8-1.6c0,0,0,0,0,0c-0.8-1.3-2.4-2.2-1.6-4.2c0.1-0.2-0.1-0.5-0.2-0.6c-1.4-1.5-2.4-3.4-4.1-4.6
		c-0.4-0.3-0.8-1-1.4-0.7c-0.7,0.4-0.6,1.1-0.4,1.7c0.3,1,0.7,1.9,1,2.9c0.2,0.8,0.8,1.5,0.9,2.7c-1.5-2.2-2.8-4.2-2.7-6.6
		c-0.4-1,0.9-1.3,0.9-2c-1.1-1.4-2.2-2.8-3.4-4.1c-8.4-9.4-16.9-18.7-25.6-27.8c-0.5-0.5-1-1.2-2-1.1c0,3,1.4,5.3,3.1,7.5
		c2.2,2.9,4.5,5.6,6.8,8.4c5.6,6.7,11.7,12.9,18.9,17.9c0.5,0.4,1.1,0.6,1.3,1.3c-1.2-0.3-2.1-1.1-3.1-1.7c-3.1-2.1-6-4.6-8.7-7.1
		c-4.8-4.5-9-9.5-13.1-14.7c-0.5-0.6-0.8-1.4-1.7-1.7c-0.2,0.6,0,1,0.1,1.3c1.1,3.6,3.2,6.6,5.6,9.4c5.1,6,10.8,11.3,17.1,16.1
		c0.4,0.3,0.9,0.7,1.3,1.1c-7.1-4-12.9-9.4-18.3-15.3c4.5,9.1,12.3,14.8,20.5,20.1c0.6-0.9-0.4-1.9,0.8-2.6c-0.3,1.7,0.7,2.9,1,4.3
		c0,0-0.1,0-0.1,0c-0.4,0.1-0.7,0.2-1.1,0.3l0.1,0c0.2-0.6,0.3-1-0.4-1.4c-4.3-2-8-5-11.7-7.9c-2.2-1.7-4-3.8-5.8-6
		c-0.1,0.4-0.1,0.6-0.1,0.7c0.1,0.3,0.3,0.6,0.4,0.9c2,3.4,4.6,6.3,7.9,8.6c2.4,1.6,4.8,3.2,7.2,4.8c0.4,0.3,1.1,0.4,1.1,1.4
		c-2.6-1.6-5.1-3.1-7.6-4.7c-1.2-0.8-2.4-1.6-3.5-2.6C-146.8,149.8-147.9,149.1-148.4,147.9z M-121,195.9c-4.4-3.4-8.8-6.6-13.5-9.6
		c-1.8-1.1-3.7-2-6.1-2.2c0.2,0.3,0.2,0.4,0.3,0.5c3.9,2,7.3,4.6,10.4,7.6c1.5,1.5,3.3,2.7,5.1,3.9
		C-123.4,197-122.2,197.2-121,195.9z M-142.8,245.7c0.2,0.1,0.3,0.1,0.5,0.2c1.8-4.4,4.9-8.2,7.1-13.1c-1.9,1.2-3.2,2.2-4.7,3.1
		c-1.3,0.7-2.1,1.5-1.5,3.1c0.2,0.5-0.1,1.1-0.2,1.6C-142,242.3-142.4,244-142.8,245.7z M-131.3,173.5c0.4-0.9-0.1-1.7,0.3-2.5
		c0.3-0.7-0.2-1.4-0.7-1.5c-1.8-0.4-3.5-1.2-5.6-1.6C-135.9,170.8-133.6,172.1-131.3,173.5z M-147.5,234.8c-2.3,2-4.3,4.1-5.7,6.7
		c2.5-1.6,4.8-3.3,7.5-4.6C-146.3,236.2-146.8,235.6-147.5,234.8z"/>
	<path class="st2" d="M-147,194.1c-5.9,3.4-11.9,6.1-18.6,7.2c-2.2,0.4-4.6,0.6-6.7-0.8c0.5-0.7,0.9,0,1.2,0c0.4,0,0.8,0.1,1.2,0.2
		c3.2,0.4,6.3-0.4,9.4-1.3c4.2-1.3,8.2-3,12.3-4.6C-147.9,194.4-147.4,194.3-147,194.1z"/>
	<path class="st2" d="M-136,197.2c-3.4,1.1-6.4,0-7.7-2.7C-141.7,196.6-139.2,197.3-136,197.2z"/>
	<path class="st2" d="M-100.8,194.8c-0.1,0.6-0.5,0.7-0.8,0.6c-0.7-0.1-1.1-0.6-1.6-1c-0.3-0.3-1-0.4-0.6-1.1
		c0.3-0.4,0.8-0.5,1.3-0.4C-101.3,193.1-102.1,194.8-100.8,194.8z"/>
	<path class="st2" d="M-124.1,161.2c-0.4,1.3,0.1,2.4,0.7,3.4c0.8,1.1,1.6,2.2,2.4,3.3c-1.8-1-3.6-3.3-4-5.1
		C-125.1,162-125,161.3-124.1,161.2C-124,161.3-124.1,161.2-124.1,161.2z"/>
	<path class="st2" d="M-133.4,156.7c0.4,2.2,1.4,4,3.3,5.1C-133.1,160.8-134,159.3-133.4,156.7
		C-133.3,156.7-133.4,156.7-133.4,156.7z"/>
	<path class="st2" d="M-121.5,171.3c-1.5-0.3-1.1-1.7-1.5-2.7C-122.1,169.3-122.1,170.4-121.5,171.3z"/>
	<path class="st2" d="M-121.6,176.5c-1.4-1.3-1.1-2.2-0.6-3.7C-122,174.2-121.8,175.1-121.6,176.5z"/>
	<path class="st2" d="M-119.9,185.2c1,0.4,1.3,1.4,2,2.1C-118.8,186.8-119.7,186.4-119.9,185.2L-119.9,185.2z"/>
	<path class="st2" d="M-124.6,159.7c-1.4-1.1-1.4-1.4-0.7-3.1c0,0,0-0.1,0-0.1C-125.4,157.6-124.8,158.6-124.6,159.7L-124.6,159.7z"
		/>
	<path class="st2" d="M-132.3,156.3c0.8,0.3,1,1.1,1.4,1.7C-131.5,157.6-132.2,157.3-132.3,156.3
		C-132.3,156.4-132.3,156.3-132.3,156.3z"/>
	<path class="st2" d="M-124.6,159.7c0.6,0,0.8,0.6,1.2,1c0.2,0.2,0.5,0.4,0.1,0.7c-0.2,0.1-0.4-0.5-0.8-0.1c0,0,0.1,0.1,0.1,0.1
		C-124,160.7-124.7,160.3-124.6,159.7C-124.6,159.7-124.6,159.7-124.6,159.7z"/>
	<path class="st2" d="M-119.8,185.1c-0.7-0.1-0.4-0.8-0.6-1.1C-119.9,184.2-119.6,184.6-119.8,185.1
		C-119.9,185.2-119.8,185.1-119.8,185.1z"/>
</g>
</svg>
