<?xml version="1.0" encoding="UTF-8"?><svg id="Ebene_2" xmlns="http://www.w3.org/2000/svg" viewBox="0 0 138.24 169.04"><defs><style>.cls-1{fill:#1ca17f;stroke-width:0px;}</style></defs><g id="Ebene_1-2"><path class="cls-1" d="m79.74,37.04c-2.3-2.1-3.9-4.6-4.5-7.6-.2-.7-.3-1.4-.7-2-1.5-2.4-3.1-4.6-3.8-7.4-.2-.6-.7-1.1-1-1.6-1.5-2.5-3-5.1-3.1-8.2,0-.8-.6-1.3-.9-1.9-1.1-1.8-2-3.6-2.3-5.7,0-.4-.1-.8-.1-1.2,0-1.4.7-1.8,1.8-1.1.7.5,1.4,1.1,2,1.7,8.3,8.3,16.2,17.1,24,25.8,3.4,3.8,6.6,7.8,9.8,11.8,1.2,1.5,2.7,2.5,3.9,3.8,3.2,3.3,5.2,7.2,6.5,11.6,1,3.3,1.9,6.6,2.3,10,.4,3.3,2,6.2,3.5,9.1.2.4.4.7.6,1,.8,1.1,1.1,2.8,2.3,3.2,1.1.4,2.4-.6,3.6-.9,4.2-1.1,7-.2,9.2,3.1q1.9,2.8,5.4,3.3c-3.1.8-4.1,2.9-5.2,5.1-1.2,2.5-3.6,3.8-6,4.9-1,.5-1.7,1.1-2.1,2.1-2,6.2-6.6,10.2-11.6,13.9-1.9,1.4-3.9,2.5-6.1,3.3-1.9.7-3.6,1.6-5.3,2.7-4.2,2.7-7.1,6.5-9.8,10.6-3.2,4.9-5.5,10.3-7.8,15.6-2.1,2-2.9,4.6-3.7,7.2-1.4,4.5-2.7,9-3.4,13.8q-.5-1.5-.3-2.9c.6-4.3,2.1-8.3,3.1-12.5,1.3-5.7,4.1-11,4.8-16.9.1-1,.1-1.9-.1-2.9-.2-.9-.7-1-1.4-.8-.2.1-.4.2-.7.3-4.2,2.3-8.3,4.7-11.6,8.4-9.2,10.2-17.1,21.3-24.9,32.5-.2.3-.3.7-.9.8.3-1.2.9-2.1,1.5-3,6-9,12.4-17.6,19.2-26,2.7-3.3,5.9-6.2,8-10.1.8-1.4,1.8-2.7,3-3.8,4.7-4.4,6.7-10.4,9.1-16.1.8-2,1.6-4,2.7-5.9.7-1.2,1.4-2.4,2.2-3.7-.8-.3-1.2.1-1.7.3-1,.4-2.2.6-3,.1-1.3-.7-2.6-1.5-4.2-1.4-.1,0-.1-.1-.2-.1-1.2-.3-.5-2.1-1.8-2.2-1-.1-1.9-.4-2.4-1.3-.3-.5-.6-.6-1.2-.5-1.4.3-2.7-.1-3.7-1.1-.3-.3-.6-.6-1-.5-2.1.3-4.1-.6-6.2-.6s-3.9-.5-5.5-1.7c.2-.4.3-.5.5-.4,3,1.7,6.1,1.5,9.2.3,4.2-1.6,8.5-3.3,12.7-4.9.4-.1.7-.5,1.4-.1-4.9,2.4-9.8,4.2-14.6,6.3,6,.4,10.9-2.8,16.2-4.7-1.7,1.6-3.9,2.3-5.9,3.2-2,1-4.1,1.6-6.3,2.3.9.9,1.8,1.3,2.9,1,4.6-1.2,9.2-2.4,13.6-4.4-.4,1.1-1.3,1.5-2.3,1.8-2.7.9-5.4,1.8-8.1,2.7-.4.1-.9.2-.8.7,0,.5.5.8,1,.8,1.5.2,2.8-.4,4.2-.7,2-.5,3.8-1.6,5.9-1.8-1.3.7-2.7,1.4-4,2-1,.4-2.1.7-3.2,1-.5.1-1,.3-1,.8,0,.6.4,1.1,1.1,1.1.8.1,1.6.1,2.4,0,1.3-.2,2.5-.8,3.8-1.4.8-.4,1.4-1.1,2.4-1-1.4,1.6-3.5,2.2-5.4,3.3,3.4,1.5,7.5-.7,9.1-4.7-.6-.2-1.2-.1-1.9,0-.2-1.1-.8-1.8-2-1.8.7-1.3-.3-2-1.1-2.8-.4-.3-.6-.7-.8-1.2-.1-.3-.3-.6,0-.9q1.9,2.2,5.9,2.5c-1,.5-1.9.6-2.8.8,1.1,2.8,3.1,3.3,5,1.3,2.2-2.3,4.7-4.3,7.4-6.4-3.4-1.6-5.9-3.9-8.6-6.2-3.3-2.8-6.6-5.6-10.9-6.6-.5-.1-1.1-.3-1.6-.3-5-.3-10-.4-15,.3-1.4.2-2.9.2-4.4.5,4.4,1.9,8.9,1.4,13.5.7-.8.6-1.8.8-2.7.9-1,.1-2,.4-3.3.6,3.1,2.9,6.7,2.4,10.3,2.5-1.1.2-2.3.4-3.5.7,1.8,1.9,3.2,2.3,8.4,2.5-2.4,1.3-7.4.5-8.7-1.7-.6-.9-1.2-1.2-2-1.3-1.8-.1-3.3-.9-4.5-2-.6-.6-1.2-.9-2.1-.9-1.3-.1-2.7-.1-3.8-.6-2.8-1.4-5.6-.6-8.4-.1-.6.1-1.3.2-1.9.2-7.4.6-14.6,1.6-21.8,2.8-8.2,1.4-16.2,3.3-24.3,5.2-2,.5-4,.9-6.2,1.8,8.1.8,15.6-.1,23.1-1.9,7-1.7,13.9-3.4,21-4.4,5.6-.8,11.1-2,16.8-2.4.1,0,.3.1.9.3-11.6,2.3-23.1,3.2-34.3,6.4,2.4,1,4.8.7,7.2.6,1.8-.1,3.6-.6,5.4-.9,4.8-.7,9.6-1.5,14.4-2.4,3.2-.6,6.3-1.5,9.5-2.2-2,1.4-4.4,1.8-6.6,2.4-2.4.6-4.8,1-7.3,1.5-2.4.4-4.9.8-7.3,1.2-2.4.4-4.8.8-7.1,1.4,2.8,1.6,5.9,1.8,8.9,1.3,7.9-1.3,15.7-2.9,23.1-5.9.2-.1.4,0,1.2,0-3.9,2.1-7.7,3.2-11.5,4.2s-7.7,1.7-12.1,2.7c4.6.8,8.5.3,12.5-.5,4.9-1,9.4-2.9,14.1-4.4.6-.2,1.1-.7,1.8-.4-.2.4-.6.5-1,.7-5.9,2.5-12,4.8-18.5,5.6-3.3.4-6.7.7-9.9-.7-.7-.3-1.4-.2-2.1-.1-2.7.1-5.2-.6-7.6-1.8-.8-.4-1.6-.7-2.5-.6-1.8.1-3.5-.1-5.2-.6-1.4-.4-2.7-.4-4,0-7.7,2.2-15.6,2.5-23.5,2.1-.9,0-1.7-.1-2.4-.7-.2-.8.4-.9.8-1,7.8-2.1,15.5-4.3,23.4-5.7,8.1-1.5,16.1-3,24.3-3.7,4.4-.4,8.8-1.2,13.2-1.9,1.5-.2,3,.1,4.5-.2,5.2-1,10.5-.8,15.8-1,1.9-.1,3.8.2,5.7.3,2.4.1,4.4,1.2,6.6,2.3.4-.7-.3-1-.3-1.4-.2-1.4-.6-2.6-.2-4.1.5-1.9-.4-4-1.5-5.8-.5-.8-1.2-1.6-.6-2.6.1-.1.1-.4,0-.4-1.8-1.5-1.6-4.1-3.2-5.7-1.3-1.4-2.1-3.1-2.8-4.9-.6-1.7-1.5-3.4-2.9-4.9-1.5-1.6-2.9-3.3-3.7-5.3-.1-1-.5-1.9.6-2.6-.3,1.6.6,2.8,1.3,4,1.1,1.7,2.4,3.2,3.9,4.6,1.5,1.4,3,2.8,4.8,3.6,1.7.8,3.1,2.5,5.2,1.8.2-.1.3,0,.3.2.4,2,2,3.2,3.2,4.7-1.4-.4-2.3-1.4-3.1-2.6-.3-.4-.4-.9-.9-1.1-2.8-1-5.5-2.4-8.1-3.7,2.2,2.7,5.1,4.4,8.1,6-2.8-.2-4.9-2.1-7.6-3.7,2.3,4,5.1,6.3,9,7.2.5-.7-.1-1.5.8-2.1-.1,3.1,2.1,4.6,4.4,6.4-1.4-.1-1.9-1-2.9-1.1,0,2.4,1.4,3.7,3.3,4.8,1.7,1,3.6,1.6,5.8,1.8-1.4.7-1.3.6-1,1.5.2.8,1.1,1.2,1.5,2.2-1.2-.4-1.9-1.1-2-1.9-.2-1.2-1-1.4-2-1.7-1.9-.6-3.8-1.2-5.2-2.7-1.2-1.3-4-3-6.2-3.7.8,2.9,3.3,3.7,5.4,5.1-1.2.3-2-.7-3.3-.6,1.2,1.6,2.7,2.5,4.4,3.2.3-.9-.9-1.8.2-2.8.9,3.6,4,4.8,6.7,6.6-1.6-.5-3.2-.7-4.3-2.1-2.2-1.1-4.6-1.6-7-3.1,1,2.2,1.2,2.5,3,3.4q2.4,1.2,4-.3c-.4,1.8.8,2.8,1.9,3.8,1.7,1.7,3.9,2.6,6.3,3.5-1.3.2-2.4-.8-3.8-.5,2.7,3.1,5.9,4.5,9.7,4.6-.4.9-1.2,1.2-2,1.5,0-.4.7-1-.4-1.2-1.5-.2-3-.7-4.3-1.4-1.6-.9-3.2-1.7-4.2-3.4-1.4-2.4-3.2-4.4-6-5.3-1.1-.3-2.1-.7-3-1.4-.4-.3-.7-.7-1.3-.2-.2,1.2.8,1.7,1.5,2.2,2.2,1.5,4.4,2.9,6.6,4.4-2.5-.7-4.7-2.2-7.1-3.6.9,2.4,2.6,3.5,4.3,4.7,2.5,1.8,5,3.7,7.4,5.7,1.6,1.3,3.2,1.5,5,.8.6.8,1.5.3,2.2.5.7.1,1.5-.1,1.8.9h-3.3c-4,.1-7.6,1.2-10.5,3.9-2.5,2.3-5.2,4.3-7.3,7.1-2.1,2.9-4.2,5.8-6,8.9-1.1,2-2.3,4-2.4,6.2-.1,2-1.1,3.4-1.8,5-1,2.1-2,4.2-1.9,6.6,0,1.3.6,1.8,1.9,1.8.6,0,1.1-.3,1.6-.5,3.5-1.8,6.7-4,9.8-6.4,2.8-2.1,5.7-4.1,8.9-5.6,4.4-2,8.6-4.4,12.2-7.8,2.8-2.7,5-5.7,6.7-9.2.5-1.1.1-1.5-.9-1.6-.9-.1-1.8-.3-2-1.3,5,1.1,11.6-1.8,12.6-7.8-1.3-.3-2.9,2.2-4.1-.5,1.7.2,3.3.1,4.9-.7-1.1-.9-1.6-1.9-2.2-3-1.5-2.5-3.7-3.7-6.6-3.3-2.7.3-5.3,1.3-7.6,2.8-.9.6-1.6,1.3-2.7,1.5.7-1.6,2.7-1.8,3.7-3.2-.6-.9-1.3-1.8-1.9-2.7-2.2-3.4-4-6.9-4.6-10.9-.4-2.5-.9-5-1.6-7.5-1.2-4.2-2.6-8.4-5.3-11.9-1-1.3-2.1-2.4-3.8-3.4.7,2.1,2.2,3,2.7,4.7-.6-.5-1.2-1-1.8-1.6h0c-.8-1.3-2.4-2.2-1.6-4.2.1-.2-.1-.5-.2-.6-1.4-1.5-2.4-3.4-4.1-4.6-.4-.3-.8-1-1.4-.7-.7.4-.6,1.1-.4,1.7.3,1,.7,1.9,1,2.9.2.8.8,1.5.9,2.7-1.5-2.2-2.8-4.2-2.7-6.6-.4-1,.9-1.3.9-2-1.1-1.4-2.2-2.8-3.4-4.1-8.4-9.4-16.9-18.7-25.6-27.8-.5-.5-1-1.2-2-1.1,0,3,1.4,5.3,3.1,7.5,2.2,2.9,4.5,5.6,6.8,8.4,5.7,6.1,11.8,12.2,19,17.3.5.4,1.1.6,1.3,1.3-1.2-.3-2.1-1.1-3.1-1.7-3.1-2.1-6-4.6-8.7-7.1-4.8-4.5-9-9.5-13.1-14.7-.5-.6-.8-1.4-1.7-1.7-.2.6,0,1,.1,1.3,1.1,3.6,3.2,6.6,5.6,9.4,5.1,6,10.8,11.3,17.1,16.1.4.3.9.7,1.3,1.1-7.1-4-12.9-9.4-18.3-15.3,4.5,9.1,12.3,14.8,20.5,20.1.6-.9-.4-1.9.8-2.6-.3,1.7.7,2.9,1,4.3h-.1c-.4.1-.7.2-1.1.3h.1c.2-.6.3-1-.4-1.4-4.3-2-8-5-11.7-7.9-2.2-1.7-4-3.8-5.8-6-.1.4-.1.6-.1.7.1.3.3.6.4.9,2,3.4,4.6,6.3,7.9,8.6,2.4,1.6,4.8,3.2,7.2,4.8.4.3,1.1.4,1.1,1.4-2.6-1.6-5.1-3.1-7.6-4.7-1.2-.8-2.4-1.6-3.5-2.6-.9-.5-2-1.2-2.5-2.5Zm27.4,48c-4.4-3.4-8.8-6.6-13.5-9.6-1.8-1.1-3.7-2-6.1-2.2.2.3.2.4.3.5,3.9,2,7.3,4.6,10.4,7.6,1.5,1.5,3.3,2.7,5.1,3.9,1.5.9,2.7,1.1,3.8-.2Zm-21.7,49.9c.2.1.3.1.5.2,1.8-4.4,4.9-8.2,7.1-13.1-1.9,1.2-3.2,2.2-4.7,3.1-1.3.7-2.1,1.5-1.5,3.1.2.5-.1,1.1-.2,1.6-.5,1.6-.9,3.4-1.2,5.1Zm11.5-72.3c.4-.9-.1-1.7.3-2.5.3-.7-.2-1.4-.7-1.5-1.8-.4-3.5-1.2-5.6-1.6,1.3,2.9,3.7,4.2,6,5.6Zm-16.2,61.3c-2.3,2-4.3,4.1-5.7,6.7,2.5-1.6,4.8-3.3,7.5-4.6-.7-.7-1.2-1.3-1.8-2.1Z"/><path class="cls-1" d="m81.14,83.24c-5.9,3.4-11.9,6.1-18.6,7.2-2.2.4-4.6.6-6.7-.8.5-.7.9,0,1.2,0,.4,0,.8.1,1.2.2,3.2.4,6.3-.4,9.4-1.3,4.2-1.3,8.2-3,12.3-4.6.4-.3.8-.5,1.2-.7Z"/><path class="cls-1" d="m92.24,86.34c-3.4,1.1-6.4,0-7.7-2.7,2,2.1,4.5,2.8,7.7,2.7Z"/><path class="cls-1" d="m127.34,83.94c-.1.6-.5.7-.8.6-.7-.1-1.1-.6-1.6-1-.3-.3-1-.4-.6-1.1.3-.4.8-.5,1.3-.4,1.2.3.4,2,1.7,1.9Z"/><path class="cls-1" d="m104.04,50.34c-.4,1.3.1,2.4.7,3.4.8,1.1,1.6,2.2,2.4,3.3-1.8-1-3.6-3.3-4-5.1-.1-.8,0-1.5.9-1.6.1.1,0,0,0,0Z"/><path class="cls-1" d="m94.74,45.84c.4,2.2,1.4,4,3.3,5.1-2.9-1-3.9-2.5-3.3-5.1.1,0,0,0,0,0Z"/><path class="cls-1" d="m106.64,60.44c-1.5-.3-1.1-1.7-1.5-2.7.9.7.9,1.9,1.5,2.7Z"/><path class="cls-1" d="m106.54,65.64c-1.4-1.3-1.1-2.2-.6-3.7.3,1.4.4,2.4.6,3.7Z"/><path class="cls-1" d="m108.34,74.34c1,.4,1.3,1.4,2,2.1-1-.5-1.9-.9-2-2.1h0Z"/><path class="cls-1" d="m103.54,48.84c-1.4-1.1-1.4-1.4-.7-3.1v-.1c-.1,1.1.5,2.1.7,3.2h0Z"/><path class="cls-1" d="m95.94,45.44c.8.3,1,1.1,1.4,1.7-.7-.4-1.4-.7-1.4-1.7-.1.1,0,0,0,0Z"/><path class="cls-1" d="m103.54,48.84c.6,0,.8.6,1.2,1,.2.2.5.4.1.7-.2.1-.4-.5-.8-.1l.1.1c0-.7-.7-1.1-.6-1.7h0Z"/><path class="cls-1" d="m108.34,74.24c-.7-.1-.4-.8-.6-1.1.6.2.8.6.6,1.1,0,.1,0,0,0,0Z"/></g></svg>