<?xml version="1.0" encoding="utf-8"?>
<!-- Generator: Adobe Illustrator 28.0.0, SVG Export Plug-In . SVG Version: 6.00 Build 0)  -->
<svg version="1.1" id="Ebene_1" xmlns="http://www.w3.org/2000/svg" xmlns:xlink="http://www.w3.org/1999/xlink" x="0px" y="0px"
	 viewBox="0 0 155.3 183.8" style="enable-background:new 0 0 155.3 183.8;" xml:space="preserve">
<style type="text/css">
	.st0{fill:#DA9933;}
	.st1{fill:#5F80C3;}
	.st2{fill:#BD3F31;}
</style>
<g>
	<path class="st0" d="M-3.2-160.1c0.3-0.1,0.6,0,0.9,0.2c6.2,4.1,13.2,5.9,20.3,7.5c6.2,1.4,12.4,2.3,18.7,2.5
		c6.2,0.3,12.1,1.7,18,3.5c2.7,0.8,5.3,1.1,7.9-0.4c0.8-0.5,1.5-0.9,1.8-1.8c0.5-1.3,1.1-2.7,1.5-4c0.7-2.1,1.9-3.7,3.7-4.9
		c1.2-0.8,2.5-1.4,3.8-2.1c1.3-0.6,1.9-2,3-3c-0.2,2.4,1.1,4.2,2.1,6c2.5,4.5,4.3,9.3,4.2,14.5c0,0.8,0.3,1,1.1,1.2
		c5.4,1.4,10.8,2.8,16.4,3.2c2.8,0.2,5.6,0.3,8.3-0.3c2.6-0.5,5.3-0.1,7.8,0.5c7.2,1.8,14.4,1.6,21.7,1.3c3.3-0.1,6.7-0.4,10-0.7
		c0.3,0,0.6-0.1,1,0.4c-1.2,0.2-2.4,0.5-3.5,0.6c-6.5,0.5-13.1,0.8-19.6,0.5c-3.6-0.2-7.3-0.6-10.8-1.4c-2.4-0.6-4.9-0.4-7.4-0.1
		c-3.9,0.5-7.8,0-11.7-0.5c-4.5-0.6-8.8-2-13.4-3.1c-0.4,1.6-0.4,3.1-0.4,4.5c0.1,4.9-0.9,9.7-2.1,14.4c-0.9,3.6-3.2,6.4-5.7,9
		c-0.8,0.9-1.8,1.6-2.6,2.4c-0.4,0.4-0.6,0.7-0.3,1.2c0.4,0.6,0.9,0.6,1.4,0.2c1.3-0.8,2.3-1.9,3.2-3.2c1-1.4,1.9-2.9,3.1-4.8
		c0,1.4-0.8,2.2-1.2,3c-0.5,1-1.1,1.9-1.8,2.8c-0.5,0.7-0.6,1.3,0.1,1.9c0.7,0.5,1.4,0.2,1.9-0.5c0.6-0.8,1.1-1.8,1.7-2.6
		c0.5-0.7,0.5-1.7,1.4-2.1l0,0c-0.3,1.8-1.2,3.5-2.3,4.8c-1.6,1.8-2.1,1.7-3.8,0c-0.5,0.4-0.9,0.8-1.5,1.2c-0.9,0.6-1.9,0.9-2.7-0.2
		c-0.3-0.4-0.5-0.7-1.1-0.4c-1.6,1-2.9,2.5-4.1,3.9c-0.6,0.8,0.2,1.7,1,2.1c1,0.5,1.6,1.3,2.2,2.1c0.5,0.7,0.4,1.5,0.1,2.3
		c-0.1,0.3-0.3,0.4-0.5,0.3c-0.2-0.1-0.4-0.4-0.4-0.5c0.3-0.5,0.4-1.1,0.2-1.6c-0.3-0.6-0.5-1.3-1.3-1.2c-0.9,0-1.3,0.5-1.2,1.4
		c0,0.2,0,0.5-0.5,0.7c-0.4-1.3,0.3-3-1.1-4c-2.1,2.3-4.1,4.7-5.9,7.2c-1.8,2.6-3.5,5.2-4.2,8.5c-0.7,3.5-2.1,6.8-2.7,10.4
		c-0.7,4.1-1.1,8.2-1.3,12.4c-0.2,4.9-0.4,9.9-0.6,14.8c-0.2,5.7,0.8,11.3,2.2,16.8c0.2,0.8,0.4,1.5,0.6,2.3
		c-0.8,0.1-0.8-0.5-0.9-0.9c-0.5-1.6-0.7-3.4-1.6-4.7c-1.5-2.2-1.5-4.6-2.1-6.9c-0.6-2.5-0.9-5-1.2-7.6c-0.3-2.6-0.3-5.3-0.3-7.9
		c0.3-7.6,0.3-15.3,2.8-22.7c0.2-0.6,0.4-1.2,0.6-1.9c0.5,0.7,0.1,1.3-0.1,1.8c-2.1,7.2-2.4,14.6-2.5,22c-0.1,4.8,0.2,9.6,1,14.3
		c0.1,0.6,0.1,1.1,0.8,1.3c-0.3,0.8-0.2,1.6,0,2.4c0-0.8,0-1.6,0-2.4c-0.5-0.7-0.2-1.5-0.3-2.3c-0.1-8.5,0.3-16.9,1.1-25.3
		c0.7-7.5,2.1-15,5.7-21.8c0.7-1.3,1.5-2.6,2.5-3.8c0.9-1,1.8-2,1.8-3.5c0-0.7,0.3-1.4,1.1-0.5c0.3-0.3,0.7-0.6,1-1
		c2.7-3.4,6-6.2,9.3-8.9c3.4-2.8,6.4-6.1,7.6-10.6c1-3.8,2.2-7.7,2.3-11.7c0-1.1,0-2.3-0.1-3.4c-0.3-4.1,1.5-8.2-0.2-12.3
		c-1.1-2.9-2.4-5.7-3.9-8.5c-0.2-0.4-0.5-1-1.1-1.2c-0.5,0.6-0.2,1.4-0.6,2.2c-0.5-0.9,0.1-1.9-0.4-2.8c-1.3,0.7-2.7,1.3-4,2
		c-1.8,1-3.1,2.5-3.9,4.4c-0.6,1.5-1.2,2.9-1.8,4.4c-0.8,2.3-2.5,3.1-4.8,3.2c-3,0.2-5.9-0.4-8.7-1.3c-5.3-1.7-10.7-2.3-16.2-2.7
		c-11.5-0.8-22.7-2.9-33.4-7.4C0.1-157.4-2.1-158-3.2-160.1L-3.2-160.1z"/>
	<path class="st0" d="M22.8-41.6c-0.2-2.1,0.2-4,0.4-5.9c0.5-4.5,1.4-9,2.4-13.4c1-4.5,2.8-8.6,5.8-12.2c2.7-3.4,5.3-6.8,7.9-10.2
		c3.4-4.5,5.2-9.7,5.9-15.2c0.8-6.5,2.3-12.9,4.5-19.1c0.6-1.6,0.4-3.5,1.7-4.9c0.4,0.3,0.2,0.7,0.1,1.2c-2.1,5.5-3.5,11.1-4.6,16.8
		c-0.6,3.2-0.9,6.5-1.5,9.7c-0.8,4.3-2.4,8.4-5.1,12c-2.7,3.6-5.5,7.2-8.3,10.8c-3.1,4-4.8,8.6-5.7,13.5c0.5,0.1,0.6-0.3,0.7-0.5
		c2.2-5.4,5.9-9.9,9.4-14.4c1.5-1.9,3.2-3.7,4.2-5.8c1.6-3.1,3.2-6.2,4-9.7c0.2-1.1,0.3-2.2,1.2-3.3c0.3,0.6,0.2,1.1,0,1.6
		c-0.9,3-0.9,6.3-1.5,9.3c-0.2,1.1,0,2.2,1.1,3.2c1-1.8,0.1-4,1.6-5.8c-0.4,2.9-0.8,5.5-0.1,8.3c-0.8-0.9-1.2-2-2.5-2.5
		c-0.7-0.3-0.9-1.4-0.8-2.4c0.1-0.9,0-1.7,0.6-2.5c-0.6-0.3-0.6,0.2-0.7,0.4c-0.9,1.6-1.2,3.5-2.6,5c-1.4,1.4-2.4,3.2-3.6,4.8
		c-1.4,1.8-2.9,3.6-4.2,5.5c-5.3,7.3-8.5,15.5-9.4,24.5C23.3-42.5,23.4-42.1,22.8-41.6z"/>
	<path class="st0" d="M32.2-141.3c0.6,0.7,1.7,0.3,2.3,1.2c-0.6,0.8-1.4,0.5-2.2,0.4c-8.7-1.3-17.3-2.8-26-4.1
		c-5.1-0.7-10.1-1.6-14.9-3.3c-2.2-0.8-4.3-0.5-6.5,0.2c0,0.9,0.7,1,1.1,1.2c6.5,2.7,13.2,4.6,20.3,5.3c8.3,0.9,16.5,1.3,24.8,2
		c2.5,0.2,5,0.2,7.5,0.6c-4.1,0.1-8.3,0.3-12.4-0.2c-2.4-0.3-4.8-0.4-7.2-0.5c-5.1-0.3-10.2-0.7-15.2-1.4C2.2-140,0.4-140-1.3-140
		c-1.4,0-2.9,0-4.8,0c1.5-0.7,2.7-0.2,4.1-0.6c-2.8-1-5.4-1.8-8-2.8c-1.6-0.6-3.3-1.3-4.9-2c-0.6-0.2-1.2-0.6-1-1.4
		c0.1-0.6,0.7-0.8,1.3-0.9c0.7-0.1,1.4-0.3,2.3-0.5c-0.9-0.9-2-1.1-2.8-1.7c-0.7-0.6-1.8-1.2-0.9-2.9c0.1,2.1,1.4,2.5,2.5,3.1
		c5.6,2.5,11.4,4.1,17.4,5c8.4,1.3,16.8,2.7,25.3,4.1C30.3-140.4,31.4-140.3,32.2-141.3L32.2-141.3z"/>
	<path class="st0" d="M-1.6-151.2c-2.5-1.2-5-2.3-7.9-1.8c-1.3,0.2-2.6,0-4-0.3c1.5,0,3.1,0,4.8,0c-0.9-1-2-1.1-2.9-1.4
		c-1.9-0.7-3.7-1.5-5.4-2.5c-0.5-0.3-1-0.7-1.5-1.2c-0.4-0.4-0.6-0.9-0.4-1.5c0.2-0.7,0.9-0.6,1.4-0.6c1.5-0.1,3-0.1,4.5,0.3
		c0.6,0.2,1.2,0.3,2.1,0.1c-0.8-1.1-2.1-1.5-2.9-2.4c-0.5-0.5-1.5-1-0.4-1.9c0,0,0,0,0,0c0.1,0.9,0.6,1.4,1.3,1.9
		c0.9,0.6,1.8,1.3,2.8,1.8c6.4,3.2,12.7,6.6,19.7,8.4c2.1,0.5,4.1,1.3,6.2,1.9c0.3,0.1,0.6,0.2,0.6,0.6l0,0c-6-1.5-12-3-17.7-5.7
		c-4.6-2.2-9.4-4-14.5-4.5c-0.6-0.1-1.3-0.1-1.9,0c-0.9,0.1-1,0.6-0.5,1.3c0.5,0.6,1.2,1,1.9,1.4c2.8,1.7,6,2.6,9.1,3.7
		c1.5,0.5,3,1,4.5,1.6C-2.2-152.1-1.5-152-1.6-151.2L-1.6-151.2z"/>
	<path class="st0" d="M-8.7-139.3c0.2,1.1,1.2,1.3,2,1.7c3.2,1.5,6.7,2,10.2,2.4c4.2,0.5,8.4,0.5,12.7,0.7c6.5,0.4,13.1,0.1,20,0.4
		c-1.1,0.5-1.9,0.3-2.7,0.4c-2.9,0.1-5.8,0.3-8.6,0.2c-5.9-0.1-11.8,0-17.7-0.6c-2.9-0.3-5.7-0.6-8.5-1.1c-2.1-0.4-4.1-1.2-6.1-2
		C-8.2-137.6-9.2-137.9-8.7-139.3z"/>
	<path class="st0" d="M39.3-126.5c-3.2,2.1-6.7,3.4-10.5,4c-1.3,0.2-2.8,0-3.5-1c-0.7-1.1-1.4-0.8-2.4-0.8c-2,0.1-3.9,0-5.7-1.1
		c4.1,0.9,8,0.3,12-0.6c-0.6,0.5-1.2,0.7-1.9,0.8c-0.7,0.1-1.4,0.4-2.1,0.6c1.2,1.4,1.9,1.7,3.9,1.3c1.9-0.4,3.9-0.8,5.7-1.6
		C36.4-125.4,37.8-125.9,39.3-126.5z"/>
	<path class="st0" d="M1.5-132.4c-0.1,0.5-0.5,1.1,0.2,1.4c0.9,0.4,1.8,0.8,2.7,0.9c4.6,0.9,9.2,1.7,14,1.6c2.8-0.1,5.5-0.6,8.2-1.2
		c0.6-0.1,1.2-0.3,1.9-0.1c-4.3,1.7-9.1,2.2-14,1.9c-3.5-0.2-6.9-0.9-10.4-1.5c-1.1-0.2-2.2-0.5-3-1.3
		C0.3-131.5,0.3-132.1,1.5-132.4L1.5-132.4z"/>
	<path class="st0" d="M156-129c0,1.2-1.1,1.2-1.8,1.5c-3.5,1.6-7.2,2.6-11,2.8c-1.7,0.1-3.3,0.2-5,0.3c-0.5,0-1.2-0.3-1.2,0.7
		c0,0.4-0.2,0.3-0.5,0.2c-1.5-0.6-3.1-1.2-4.6-1.9C140.3-124.4,148.4-125.4,156-129L156-129z"/>
	<path class="st0" d="M-1.6-151.2c0.8-0.3,1.5-0.2,2.3,0c6.5,1.7,12.9,3.9,19.4,5.7c-2,0.1-3.9-0.5-5.7-1.1c-4.8-1.5-9.5-3-14.3-4.4
		C-0.5-151.1-1.1-151.1-1.6-151.2C-1.6-151.2-1.6-151.2-1.6-151.2z"/>
	<path class="st0" d="M129.7-120.8c1-0.2,1.7,0.8,2.7,0.6c-0.1,1,1.2,1.4,1.1,2.4c0,0.4-0.3,0.8-0.7,0.8c-3.5,0-6.9-0.2-9.6-2.8
		c3.1,1.3,6.2,2.4,9.5,2.3c0.3-0.9-0.2-1.1-0.6-1.5C131.4-119.6,130.3-119.8,129.7-120.8C129.8-120.8,129.7-120.8,129.7-120.8z"/>
	<path class="st0" d="M113.5-119.6c5.5,1.9,10.2,5.2,16,5.3c-0.4,0.6-1.2,0.7-2,0.6c-0.9-0.2-1.7-0.4-2.5-0.6
		c-3.7-1.1-7.2-2.7-10.6-4.5C114.2-119.1,114-119.3,113.5-119.6z"/>
	<path class="st0" d="M87.1-118.8c-1,3.4-2,6.8-4.4,9.6c-1.1,1.2-1.4,1.3-2.9,0.7c1.7-0.2,2.5-1.3,3.3-2.5c1.1-1.7,1.8-3.7,2.6-5.6
		c0.3-0.8,0.6-1.6,1-2.4C86.9-119,87-118.9,87.1-118.8z"/>
	<path class="st0" d="M91.5-119.3c-0.4,3.6-1.5,7-3.1,10.2c-0.3,0.6-1.7,1.1-3,1.2c2.1-0.9,3-2.6,3.7-4.4
		C89.9-114.7,90.7-117,91.5-119.3z"/>
	<path class="st0" d="M48.3-119.2c-1.5,1.9-3.6,2.9-5.9,3.6c-0.9,0.2-1.9,0.4-2.8-0.1c-0.3-0.1-0.6-0.4-0.4-0.7
		c0.2-0.5,0.5,0,0.7,0.1c1.1,0.4,2.2,0,3.2-0.3C45-117.2,46.5-118.3,48.3-119.2z"/>
	<path class="st0" d="M-3.1-160.2c-2.1-0.5-3.8-1.9-5.8-2.6c-1.8-0.7-3.5-1.4-5.4-1.8c0,0,0,0,0,0c0.6-0.7,1.3-0.4,2-0.2
		c3,1,6.1,2.2,8.7,4C-3.4-160.6-3.3-160.3-3.1-160.2C-3.2-160.1-3.1-160.2-3.1-160.2z"/>
	<path class="st0" d="M40.2-122.9c-3.8,3-7.6,3.7-10.5,1.6C33.9-119.8,36.9-121.7,40.2-122.9z"/>
	<path class="st0" d="M44.8-120.8c-3.8,3.2-7.6,4.1-10.1,2.5C38.6-117.4,41.6-119.3,44.8-120.8z"/>
	<path class="st0" d="M1.6-132.3c3-0.8,6.1-0.8,9.2-0.7C7.6-132.8,4.6-132.2,1.6-132.3C1.5-132.4,1.6-132.3,1.6-132.3z"/>
	<path class="st0" d="M101.2-115.2c1,1.9,0.8,5.7-0.5,7.2c-0.5,0.5-0.6,0.6-2.7,0.4c2.1-0.2,2.7-1.2,3-2.7
		C101.3-111.9,101.7-113.6,101.2-115.2L101.2-115.2z"/>
	<path class="st0" d="M40.6-139.7c-1.3,0.2-2.6,0.7-4,0.5c-0.4-0.1-0.6-0.3-0.6-0.6c0-0.4,0.4-0.5,0.7-0.5
		C38-140.3,39.2-139.6,40.6-139.7z"/>
	<path class="st0" d="M172.6-145.5c-0.1,0.2-0.1,0.6-0.2,0.7c-1.8,1.2-3.7,2.2-5.8,2.8C168.5-143.5,170.9-143.9,172.6-145.5
		L172.6-145.5z"/>
	<path class="st0" d="M68.5-139.9c-1.3-1.3-3.5-2-2.9-4.5c0.7,0.7,0.5,1.9,1.5,2.5C67.8-141.4,68.4-140.8,68.5-139.9z"/>
	<path class="st0" d="M134.6-119.6c2-0.6,3.9-0.2,5.4-1.3c-0.5,1.1-0.5,1.1-2.2,1.4C136.9-119.4,136-119.3,134.6-119.6z"/>
	<path class="st0" d="M134.8-129.3c2,0,3.9,0,5.9,0c0,0,0,0.1,0,0.1c-2,0-3.9,0-5.9,0C134.8-129.2,134.8-129.2,134.8-129.3z"/>
	<path class="st0" d="M158-135.4c0.1-0.1,0.1-0.4,0.2-0.4c1.3-0.4,2.8-0.5,4.2-1c-0.2,0.8-0.8,0.8-1.4,0.9
		C160-135.6,158.9-136,158-135.4C158-135.4,158-135.4,158-135.4z"/>
	<path class="st0" d="M84.8-125c-0.1-0.4,0.2-0.7,0.5-0.6c1.1,0.6,2.2,0.6,3.4,0.1c0.3-0.1,0.7,0.3,1.2,0.5
		C88.1-124.2,86.4-124.6,84.8-125L84.8-125z"/>
	<path class="st0" d="M156.1-129c0.2-0.4,0.7-0.9-0.2-1c-0.9-0.1-1.8,0-2.7-0.2c1-0.3,1.9-0.5,2.9-0.8L156-131
		c0.1,0.3,0.4,0.5,0.6,0.7C157.4-129.4,157-129.1,156.1-129C156-129,156.1-129,156.1-129z"/>
	<path class="st0" d="M153.3-137.2c1.7-0.8,3.4-1.5,5.2-1.7C157-137.9,155.1-137.7,153.3-137.2z"/>
	<path class="st0" d="M153.9-135.4c-1.7,1.1-3.7,1-5.6,0.9C150.2-134.8,152.1-135.1,153.9-135.4L153.9-135.4z"/>
	<path class="st0" d="M75.7-133.2c-1.1-0.9-2.8-0.4-3.9-1.9c1.6,0.6,2.9,1.1,4.2,1.6C75.9-133.5,75.8-133.3,75.7-133.2z"/>
	<path class="st0" d="M52.4-125.1c-0.3-1.5,0.5-2.6,1.5-3.6C53.4-127.5,52.9-126.3,52.4-125.1z"/>
	<path class="st0" d="M160.4-139.7c1.6-0.7,3-1.2,4.6-1.8C163.2-140.1,162.7-139.9,160.4-139.7z"/>
	<path class="st0" d="M73.8-140.7c-0.2-1.6,0.5-2.6,1.1-3.7C74.8-143.2,74.5-142,73.8-140.7z"/>
	<path class="st0" d="M123.1-112.2c-0.5,1.9-1.8,1.5-3.1,1.3C121.1-111.1,122.5-111,123.1-112.2z"/>
	<path class="st0" d="M156-130.9c1.2-0.6,2.3-1.1,3.5-1.7C158.5-131.8,157.4-130.8,156-130.9C156-131,156-130.9,156-130.9z"/>
	<path class="st0" d="M72.5-154.4c-0.1,0.4-0.3,0.8-0.9,0.9c-0.4,0-0.6-0.3-0.6-0.6c0-0.6,0.4-0.8,0.9-0.9
		C72.3-155,72.5-154.8,72.5-154.4z"/>
	<path class="st0" d="M96.8-111.1c0.1,0.8,0.2,1.5-0.4,2.3C95.9-109.9,97.1-110.4,96.8-111.1z"/>
	<path class="st0" d="M127.8-121.7c-1.2-0.2-2.4-0.5-3.2-1.5l-0.1,0.1C125.7-122.9,127-122.8,127.8-121.7L127.8-121.7z"/>
	<path class="st0" d="M81.3-114c-0.2-1.2,0.8-2,1.2-3C82.5-115.9,82.2-114.8,81.3-114C81.3-114.1,81.3-114,81.3-114z"/>
	<path class="st0" d="M108-108.8c-0.3-1.2-0.5-2-0.8-3C108.5-111,108-110,108-108.8z"/>
	<path class="st0" d="M16.4-149.9c1.1-0.4,1.9,0.3,2.9,0.7C18.2-149.2,17.3-149.5,16.4-149.9C16.4-150,16.4-149.9,16.4-149.9z"/>
	<path class="st0" d="M172.6-145.5c0.9,0.3,1.5-0.9,2.4-0.5C174.6-144.1,173.5-145.2,172.6-145.5
		C172.6-145.5,172.6-145.5,172.6-145.5z"/>
	<path class="st0" d="M172.7-143.6c-0.4,0.9-1.1,1.4-2.1,1.9C171-143,171.9-143.2,172.7-143.6z"/>
	<path class="st0" d="M144.8-129.7c0.5,0,1.1,0,1.6,0C145.9-129.4,145.4-129.6,144.8-129.7z"/>
	<path class="st0" d="M166.7-139.5c0.4-0.9,1.3-1,2.1-1.3C168.3-140.1,167.7-139.5,166.7-139.5L166.7-139.5z"/>
	<path class="st0" d="M166.7-139.5c-0.3,1-1.3,1-2,1.3C165.2-138.9,165.8-139.4,166.7-139.5C166.7-139.5,166.7-139.5,166.7-139.5z"
		/>
	<path class="st0" d="M154-135.4c1.3-0.3,2.7-0.4,4,0c0,0,0,0,0,0C156.6-135.5,155.3-134.9,154-135.4
		C153.9-135.4,154-135.4,154-135.4z"/>
	<path class="st0" d="M84.7-125c-0.7,0.5-1.3,0.3-2.4,0.1C83.4-125.6,84.1-124.8,84.7-125C84.8-125,84.7-125,84.7-125z"/>
	<path class="st0" d="M75.7-139.3c0.1,0,0.1-0.1,0.2-0.1c0.4,0,0.8-0.1,1.2,0c0.3,0,0.3,0.2,0,0.2c-0.4,0-0.8,0-1.2,0
		C75.8-139.2,75.8-139.2,75.7-139.3z"/>
	<path class="st0" d="M44.7-120.5c0.3-1.1,1-1.2,1.6-1.7C46.3-121,45.4-121.1,44.7-120.5z"/>
	<path class="st0" d="M144.9-133.9c0.3,0,0,0-0.3,0C144.8-134.2,145.1-134,144.9-133.9z"/>
	<path class="st0" d="M124.6-123.3c-0.8,0.3-1.3-0.2-2.4-0.7C123.4-123.9,124-123.7,124.6-123.3
		C124.5-123.2,124.6-123.3,124.6-123.3z"/>
	<path class="st0" d="M93.2-107.1c0.7-0.2,1.2-0.3,1.7,0C94.3-106.7,93.9-106.8,93.2-107.1z"/>
	<path class="st0" d="M32.2-141.3c-0.6,0.4-1.1,0.4-1.9-0.3C31.1-141.4,31.6-141.3,32.2-141.3C32.2-141.3,32.2-141.3,32.2-141.3z"/>
	<path class="st0" d="M101.2-115.3c-0.1-0.6-0.3-1.1,0-1.8C101.4-116.4,101.4-115.8,101.2-115.3
		C101.2-115.2,101.2-115.3,101.2-115.3z"/>
	<path class="st0" d="M127.8-121.7c0.9-0.1,1.6,0.1,2,0.9c0,0,0,0,0,0C128.9-120.7,128.3-121.1,127.8-121.7
		C127.8-121.7,127.8-121.7,127.8-121.7z"/>
	<path class="st0" d="M163.4-135c-0.2,0.2-0.3,0.4-0.5,0.5c-0.2,0.1-0.3,0-0.2-0.2c0.1-0.2,0.3-0.3,0.5-0.4
		C163.3-135.1,163.4-135,163.4-135z"/>
</g>
<g>
	<path class="st1" d="M136.3,57.9c0,0.4,0,0.8-0.1,1.2c-2,4.9-3.8,9.8-6.2,14.5c-1.3,2.5-2.7,4.9-4.6,7c-0.2,0.2-0.5,0.5-0.6,0.7
		c-0.3,0.7,0,1.2,0.5,1.7c0.5,0.4,1,0.4,1.5,0c0.9-0.7,1.3-1.6,1.8-2.5c3.1-6.1,6.5-12.1,9.4-18.3c0.1-0.2,0.3-0.4,0.5-0.7
		c0.2,1.3-0.5,2.3-0.9,3.2c-3.2,6.3-6.1,12.8-9.9,18.8c-0.9,1.4-0.6,3.1-0.6,4.7c0,0.7,0.5,0.7,1,0.5c0.8-0.3,1.2-1.1,1.6-1.7
		c2-2.9,3.6-6.1,5.1-9.2c1-2.1,1.9-4.2,3.1-6.2c0.3,0.3,0.2,0.5,0.1,0.7c-2.3,4.7-4.1,9.7-7,14.2c-1.2,1.8-1.8,3.9-2,6.1
		c0,0.5,0.1,1,0.6,1.2c0.4,0.1,0.7-0.3,1-0.5c1.3-1.2,2-2.7,2.7-4.2c1.3-3.1,2.6-6.2,3.9-9.3c0.5-1.1,0.9-2.2,1.7-3.2
		c0.5,0.6-0.1,1-0.2,1.5c-1.4,3.5-2.8,7-4.2,10.4c-0.6,1.6-1.2,3.2-2.3,4.4c-1.1,1.3-1.3,2.7-1.1,4.7c3.9-3,5.4-7.4,8-11
		c-1.2,3.1-2.8,6-4.6,8.8c-1.9,3-2.3,6.4-2.9,10.4c1.8-1.1,2.6-2.4,3.3-3.7c1.7-3.4,3.5-6.7,4.9-10.1c0.3-0.8,0.7-1.6,1.8-2.6
		c-0.4,1-0.5,1.5-0.7,2c-1.9,4.1-3.6,8.2-5.7,12.1c-2.4,4.6-3.4,9.6-4.3,14.6c-0.3,1.3,0.1,2.5,0.4,3.8c1.3,0,0.6-2,2.1-1.9
		c-1.2,4.3-2.4,8.6-3.5,12.9c2.1-3.1,3.8-6.5,5.1-10c3.2-8.8,6.8-17.6,9-26.7c0.9-3.7,1.8-7.3,2.9-10.9c1.4-4.7,1.2-9.5,0.6-14.3
		c-0.9-6.8-2.6-13.5-5.2-19.9c-0.8-1.9-1.7-3.8-2.9-5.5c-1.6-2.5-3.9-4-7.1-3.9c-0.3,1.1,0,2.3,0,3.5c-0.1,3,0,5.9-0.5,8.8
		c-0.1,0.3-0.2,0.7-0.1,0.9c1,2.3-0.1,4.4-0.7,6.5c-1,3.9-2.2,7.9-3.7,11.6c-0.9,2.2-2.1,4.3-3.6,6.2c-1,1.3-2.3,2.4-4.1,1.6
		c-0.8-0.3-1.2,0.1-1.5,0.7c-1.9,3-3.7,6-4.3,9.5c-0.5,2.8-1.3,5.4-2.2,8.1c-3,8.7-7.2,16.9-11.5,25c-2.3,4.2-5.5,7.7-8.3,11.4
		c-2.8,3.8-6.4,6.9-9,10.9c-0.7,1.1-1.7,1.9-2.6,2.8c-3,3-5.7,6.2-8.5,9.5c-5.4,6.4-11.1,12.6-18.8,16.3c-0.3,0.1-0.5,0.4-1.1,0.2
		c0.5-0.9,1.4-1.2,2.1-1.7c3.7-2.5,7.5-4.8,10.6-8.2c8.2-9.3,15.8-19.1,22.6-29.5c1.1-1.7,1.7-3.6,3.2-5c0.2-0.2,0.5-0.7,0.1-0.8
		c-1.6-0.4-0.7-1.2-0.4-1.9c1.5-2.9,3.2-5.6,4.3-8.7c0.6-1.6,1.8-3,2.7-4.5c1.5-2.4,3-4.9,4.7-7.2c-0.9,2.6-2.4,4.9-3.8,7.3
		c-1.4,2.4-2.7,4.8-3.6,7.4c6.7-4.8,9.8-12.1,13.3-19.6c0.3,1.6-0.1,2.7-0.3,3.9c0.4,0.1,0.5-0.3,0.6-0.5c1.6-3.9,3.2-7.8,4.5-11.8
		c0.5-1.6,0.4-3.3,0.9-4.9c1.4-4.2,3.5-7.9,6.2-11.3c2.5-3.2,4.4-6.9,6.7-10.2c1.6-2.3,2.9-4.6,3.3-7.3c0.9-4.8,1.6-9.6,2-14.5
		c0.1-1.1,0-2.3-1-3l0,0c1.1-1,0.7-2.3,0.1-3c-0.7-0.9-0.6-1.7-0.8-2.6c-0.8-4.5-1.2-9-3-13.3c-1.4-3.3-2.4-6.6-2.8-10.3
		c-1.2,0.2-2.4,0.5-2.7,1.4c-0.3,1,0.5,1.9,1.7,2.7c-2.1,0.1-2.3-1.2-2.7-2.5c-4.4,1.1-7.4,3.9-9.4,7.8c-1.5,2.9-2.2,6.2-3,9.3
		c-0.7,2.5-1.8,4.8-4.2,6.2c-2.1,1.3-4.5,0.1-4.6-2.4c-0.2-2.6-0.2-5.3,0-7.9c0.1-1.4,0-2.7-0.6-4c-0.7-1.3-1.7-2.1-3.3-2.4
		c-4.9-0.8-9.4,0.4-13.7,2.3c-6.8,2.8-13,6.8-18.8,11.4c-1.2,1-2.7,1.7-3.5,2.8c-2.5,3.4-6.2,5.3-9.2,8.1c-3,2.8-6.1,5.6-8.9,8.7
		c-6.3,7-12.8,13.8-18.2,21.6c-2.8,4.1-5,8.5-7.6,12.7c-1.7,2.8-3.3,5.6-5,8.5c-0.4-0.3-0.3-0.5-0.1-0.8C15.1,88,20,78.2,27.2,69.8
		c7.8-9.1,15.7-18.1,24.7-26.1c6.1-5.5,12.3-10.7,19.2-15.1c5.5-3.4,11.3-6.3,17.8-7.4c2.1-0.3,4.2-0.4,6.2,0
		c2.8,0.4,4.5,2.2,4.9,5.1c0.2,1.2,0.1,2.4,0,3.6c-0.2,1.9-0.2,3.8,0,5.7c0.1,1.1,0.3,2.4,1.6,2.7c1.1,0.3,1.9-0.6,2.7-1.2
		c0.9-0.8,1.5-1.9,1.9-3c0.7-1.9,1.2-3.8,1.9-5.7c0.5-1.6,1-3.2,1.7-4.7c1.8-4.4,4.9-7.3,9.6-8.6c1.9-0.5,3.2-2.2,5.1-2.9
		c0.1,0.1,0.2,0.3,0.3,0.4c0.5,5,2.4,9.7,3.9,14.5c1.1,3.8,2.3,7.6,2.8,11.6c0.3,2,0.4,2.1,2.3,2.3c3.2,0.2,5.2,2.1,6.9,4.6
		c1.2,1.7,2.1,3.6,2.8,5.5c2.4,6.3,4.3,12.7,5.1,19.4c0.2,1.7,0.8,3.4,0.8,5.2c0,2-0.2,4-0.6,6c-0.9,5.3-2,10.5-3.3,15.7
		c-0.1,0.5-0.3,1-0.6,1.3c-1.1,1.1-1.4,2.6-1.6,3.9c-0.8,4.6-2.5,8.9-4.6,13c-0.2,0.4-0.5,0.8-0.6,1.3c-1.7,6.1-4.5,11.8-7.4,17.4
		c-2.8,5.6-5.1,11.5-7.7,17.3c-0.4,0.8-0.5,1.9-1.7,2.3c-0.4-0.9,0.2-1.5,0.5-2.2c3.9-8.4,6.4-17.2,9.1-26c0.4-1.2,0.4-2.2-0.3-3.5
		c-0.9-1.8-0.6-3.9-0.2-5.9c0.7-3.3,1.6-6.5,2.8-9.6c-2.1-0.2-2.2-0.3-2.1-2c0.1-2.2,0.9-4.2,1.3-6.3c-2.2,0-2.2,0-2.2-2.2
		c0-0.4,0.1-1-0.1-1.1c-2.2-1.1-1.3-3-1.2-4.6c0-0.2,0-0.3,0-0.5c-2.2-0.5-2.5-1.1-2.2-3.3c0.1-0.5,0.2-0.9,0.3-1.4
		c0.1-0.6-0.1-0.9-0.7-1c-1.1-0.2-1.7-1-1.9-2.1c-1,0-1.7,0.7-3.1,0.4c5-2.3,6.9-6.6,9-10.7c2-4,3.6-8.2,5.4-12.3
		C135.7,58.9,135.7,58.2,136.3,57.9L136.3,57.9z M84,142c0.1,0.1,0.3,0.3,0.4,0.4c1.1-1.3,2.2-2.6,3.4-3.9
		c7.4-7.7,12.6-16.8,17.3-26.2c0.5-1,1-2,0.3-3.1c-0.7,0.7-1.1,1.6-1.5,2.4c-2.2,5-5.6,9.1-10.1,12.2c-1.5,1-1.9,2.7-2.8,4.1
		c-0.1,0.2-0.2,0.4,0.2,0.6c1.3,0.5,0.5,1.3,0.2,1.9c-1.2,2.6-2.7,5-4.4,7.4C85.9,139.1,85,140.6,84,142z M127.6,68.7
		c-2.7,3.5-4.8,7.4-7.7,11.3c1.4-0.4,2.5-0.5,3.2-1.4C125.1,75.6,126.8,72.3,127.6,68.7z M82.5,144.6c-0.8,0.5-1.4,1.3-1.6,2.3
		C81.8,146.4,82.2,145.6,82.5,144.6z"/>
	<path class="st1" d="M96.3,89.6c-2.8,6.2-7,11.2-11.6,15.7c-4.2,4-8.6,7.9-13.2,11.5c-13.1,10.3-27.2,19.1-42.2,26.2
		c-5.6,2.7-11.5,4.2-17.7,4.7c-1.8,0.1-3.6,0.5-5.7,0.4c2.2-1,4.3-1,6.3-1.2c9.6-0.7,18-4.7,26.1-9.3c8.5-4.8,16.8-10.1,24.9-15.5
		c5.9-3.9,11.1-8.6,16.3-13.3c3.9-3.5,7.6-7.3,11-11.4c2.6-3.2,4.3-6.9,5.8-10.7c0.6-1.5,0.5-3.1,0.1-4.5c-1.2-3.6-2.4-7.2-2.7-11.3
		c-1.4,1.1-1.9,2.7-3.1,3.5c-0.9-0.6-1.1-1.4-1.2-2.4c-0.3-2.1,0.5-4.2,0.1-6.4c-0.1-0.6,0.6-1.3,0.9-1.9c1.1-2.1,2.3-4.2,3.5-6.3
		c0,1.4-0.8,2.5-1.3,3.7c-1.3,2.8-2.3,5.6-2.5,8.7c-0.1,1.1-0.3,2.2,0.4,3.6c3.7-5.3,6.2-10.8,8-16.8c0.7,0.7,0.3,1.2,0.1,1.7
		c-0.8,2.8-1.6,5.7-3,8.3c-1.2,2.1-1.4,4.3-0.9,6.5c0.7,3.5,1.5,7,3.4,10.1c0.4,0.7,0.2,1.4,0.1,2.1c-1,9.5-5.2,17.6-10.5,25.4
		c-4.1,5.9-9.7,10.2-15.8,13.7c-6.8,3.9-13.9,7.1-20.6,11.2c-1.6,1-3.6,1.4-5.5,1.8c1.5-1,3-2,4.4-3.1c1.4-1.1,2.7-2.2,4-3.3
		c0.6,0.3,0.4,0.9,0.9,1.4c2.2-1.2,4.5-2.5,6.8-3.7c5.1-2.7,10.4-5.3,15.1-8.7c2.9-2.1,5.6-4.5,7.9-7.3c4.9-6.1,8.8-12.8,11.1-20.2
		C96.1,91.6,96.7,90.8,96.3,89.6z"/>
	<path class="st1" d="M81.2,63.8c0.9-1.3,1.4-2.8,2.7-3.9c0.3-0.2,0.5-0.6,0.6-1c0.5-3.7,2.9-6.3,5-9.1c-3.1,4.8-5.3,9.7-4.4,15.8
		c1-0.5,1-1.3,1.2-1.9c1.3-3.7,2.8-7.3,5.4-10.3c1.4-1.6,2.3-3.6,3.7-5.6c0,1.2-0.5,1.9-1,2.6c-1.4,2.3-2.8,4.6-4.2,7
		c-1.4,2.2-2.4,4.5-3,7c-0.1,0.6-0.4,1.2-0.7,1.8c-0.7,1.5-1.1,3-0.9,5c-1-0.9-0.8-1.8-0.7-2.5c0.1-0.8,0.1-1.4-0.4-2.2
		c-1-1.5-0.7-3.2-0.6-5.1C82.8,61.8,82.7,63.7,81.2,63.8C81.2,63.7,81.2,63.8,81.2,63.8z"/>
	<path class="st1" d="M77.9,55.8c1.1,1.5,1.5,1.6,2.4,0.3c1.1-1.4,1.9-3,2.8-4.4c1-1.6,1.9-3.2,3.6-4.3c1.4-0.9,1.9-2.7,2.8-4.1
		c0.4-0.7,0.3-1.8,1.4-2l-0.1,0c-0.5,2.7-1.9,5-3.5,7.2c-2.3,3.1-3.8,6.5-5,10.2c-0.2,0.7,0.2,2.1-1.4,2c-0.1,0-0.4,1.3-0.5,2
		c-0.1,0.6,0.2,1.1,0.9,1.2c0,0,0-0.1,0-0.1c-1.1,0.8-1.4,0-1.4-0.9c0-1.4,0.4-2.7,0.8-4c0.2-0.6,0.7-1.1,0.4-1.8
		C78.2,58.3,77.9,58.1,77.9,55.8C77.9,55.7,77.9,55.8,77.9,55.8z"/>
	<path class="st1" d="M94.6,111.7c-1-0.4-0.2-0.9,0-1.3c1.4-1.7,2.7-3.4,4.2-4.9c2.4-2.6,4.6-5.3,6.4-8.3c0.6-0.9,1.1-1.8,2-2.4
		c-2.9,5.9-7,10.9-11.1,16C95.6,111,95.1,111.3,94.6,111.7z"/>
	<path class="st1" d="M23.5,85.6c2.8-2.3,4.3-5.4,6.3-8.3c0.1,0.1,0.3,0.2,0.4,0.3c-1.2,2-2.4,4-3.7,6.3c2.8,0.1,4.3-2.1,6.2-3.1
		c1.9-1.1,3.4-2.7,5.1-4.2c-0.5,1.3-1.4,2.2-2.5,3c-1.9,1.5-3.8,2.8-5.8,4.2c-0.5,0.4-1.3,0.8-1.7,0.7c-1.8-0.5-2.7,0.8-4,1.4
		C23.6,85.8,23.6,85.7,23.5,85.6z"/>
	<path class="st1" d="M53.8,70.4c1.1,0.2,2-0.2,2.8-1c4.4-4.1,8.9-8.1,11.7-13.5c-0.4,0.9-0.8,1.7-1.2,2.6c-0.5,0.8-0.9,1.7-1.5,2.4
		c-2.6,3.5-5.6,6.5-8.9,9.4c-0.5,0.4-1,0.8-1.7,0.9C54.4,71.2,53.9,71.1,53.8,70.4L53.8,70.4z"/>
	<path class="st1" d="M75.5,50.3C73,55,70.2,59.4,67,63.5c-1,1.3-2.3,2.6-4.4,2.4c3.5-1.8,5.4-5.1,7.5-8.1c1.7-2.6,3.2-5.3,5.2-7.7
		C75.4,50.2,75.4,50.3,75.5,50.3z"/>
	<path class="st1" d="M83.6,46.9c-0.9,2.5-2.3,4.6-4,6.7c-0.6,0.7-1.2,1.5-1.7,2.2c0,0,0.1-0.1,0.1-0.1c-3.1,2.6-5.8,5.6-9.5,7.3
		c2-1.7,4-3.5,6-5.2c3.1-2.7,5.7-5.7,7.8-9.3C82.5,48,82.7,47.1,83.6,46.9L83.6,46.9z"/>
	<path class="st1" d="M53.8,70.3c-1.9,1.5-3.5,3.2-5.6,4.5c-0.7,0.4-1.4,1.1-2.6,0.7c3.9-2.1,6.8-5.3,10.2-7.8
		C55.2,68.6,54.5,69.5,53.8,70.3C53.8,70.4,53.8,70.3,53.8,70.3z"/>
	<path class="st1" d="M101.3,82c-0.8-0.2-0.2-1.5-1.4-1.3c-0.6,0.1-0.4-0.6-0.2-0.9c0.3-0.5,0.8-1,1.1-1.5c0.4-0.6,0.7-0.3,1.1,0.1
		c0.3,0.3,1,0,0.7,0.8C102.3,80.1,102.1,81.2,101.3,82z"/>
	<path class="st1" d="M109.5,86.5c0.9-4.1,1.5-4.7,4.2-4.5c0.4,0.6,0,1.2-0.2,1.8c-0.1,0.3-0.4,0.7-0.6,0.3
		c-0.7-1.3-1.1-0.3-1.5,0.1C110.7,84.7,110.5,85.7,109.5,86.5z"/>
	<path class="st1" d="M94.6,112.6c0,1-0.8,1.5-1.1,2.3c-0.2,0.5-0.3,1,0.5,0.9c1-0.1,0.8,0.5,0.5,1c-0.4,0.7-0.7,1.4-1.7,2.2
		c0.4-1.2,0.5-2,0-3C92.1,114.7,93.4,113.5,94.6,112.6C94.6,112.6,94.6,112.6,94.6,112.6z"/>
	<path class="st1" d="M117.2,21.2c-0.2,0.8-0.8,1-1.4,1.2c-0.5,0.1-1,0.3-1.3-0.2c-0.2-0.3-0.2-0.8,0-1.1c0.3-0.5,1.8-0.8,2.4-0.4
		C117,20.8,117.1,21,117.2,21.2z"/>
	<path class="st1" d="M88.5,111.8c1.1,2.5,1.7,2.5,4.6,0.5c-0.5,1.4-2,2.5-3.3,2.2C88.7,114.3,88.4,113.5,88.5,111.8z"/>
	<path class="st1" d="M49,67.5c-0.5,1.9-1.9,3.1-3.1,4.5C46.7,70.3,47.4,68.6,49,67.5L49,67.5z"/>
	<path class="st1" d="M23.7,85.8c-1,1.2-2.3,2-3.8,2.6c1-1.1,2.1-2.2,3.6-2.9C23.6,85.7,23.6,85.8,23.7,85.8z"/>
	<path class="st1" d="M43.1,75.1c-0.9,1-1.9,2-3.3,2.3c1-0.9,2-1.8,3-2.7C42.9,74.9,43,75,43.1,75.1z"/>
	<path class="st1" d="M140.2,84.4c0.4-1.7,1.2-2.7,1.9-3.7C141.7,81.9,141.2,83,140.2,84.4z"/>
	<path class="st1" d="M122.5,50.4c0.9-0.5,1.5-1.3,2.4-1.9C124.3,49.5,123.8,50.4,122.5,50.4z"/>
	<path class="st1" d="M75.3,50.1c0.6-1.4,1.2-2.8,2.5-3.7l0,0c-0.4,1.5-1.3,2.8-2.3,3.9C75.4,50.3,75.4,50.2,75.3,50.1z"/>
	<path class="st1" d="M111.1,32.2c0.3,1.1,0.1,2-0.9,2.7C110.2,33.9,110.5,33.1,111.1,32.2z"/>
	<path class="st1" d="M107.2,45.4c0-1.1,0-2.2,0-3.3c0,0,0.1,0,0.1,0c0,1.1,0,2.2,0,3.4C107.3,45.3,107.2,45.3,107.2,45.4z"/>
	<path class="st1" d="M130.3,43.2c0,1.7,0,1.8-2.4,2.2C128.9,44.6,130.2,44.5,130.3,43.2C130.3,43.2,130.3,43.2,130.3,43.2z"/>
	<path class="st1" d="M114.4,51.2c-1.1-0.5-1.1-1.3-1.7-2.1C113.9,49.5,114,50.3,114.4,51.2z"/>
	<path class="st1" d="M15.9,91c0.9-0.9,1.5-1.3,2.5-1.4C17.7,90.4,17,90.6,15.9,91z"/>
	<path class="st1" d="M77.8,46.4c-0.1-0.9,0.6-1.5,1.2-2C78.8,45.2,78.7,46,77.8,46.4C77.8,46.4,77.8,46.4,77.8,46.4z"/>
	<path class="st1" d="M83.6,46.9c-0.2-0.9,0.5-1.4,1.1-2.3C84.6,45.8,84.3,46.4,83.6,46.9C83.6,46.9,83.6,46.9,83.6,46.9z"/>
	<path class="st1" d="M49,67.5c-0.1-1,0.7-1.5,1.2-2.2C50.2,66.3,49.8,67,49,67.5C49,67.5,49,67.5,49,67.5z"/>
	<path class="st1" d="M94.6,111.7c0.5-0.3,1-0.6,1.6-0.9c-0.3,0.8-0.6,1.6-1.5,1.9c0,0,0,0,0,0C94.6,112.3,94.6,112,94.6,111.7z"/>
	<path class="st1" d="M90.9,41.3c-0.4-0.8,0.1-1.4,0.8-2.5C91.5,39.9,91.3,40.6,90.9,41.3C90.8,41.2,90.9,41.3,90.9,41.3z"/>
	<path class="st1" d="M32.4,74.6c0,0.6-0.3,1-0.8,1.2C31.5,75.1,32.1,74.9,32.4,74.6z"/>
	<path class="st1" d="M136.4,57.9c-0.1-0.8,0.2-1.4,0.9-2.4C137.1,56.7,137,57.5,136.4,57.9C136.3,57.9,136.4,57.9,136.4,57.9z"/>
</g>
<g>
	<path class="st2" d="M-174.7-24.1c-2.3-2.1-3.9-4.6-4.5-7.6c-0.2-0.7-0.3-1.4-0.7-2c-1.5-2.4-3.1-4.6-3.8-7.4
		c-0.2-0.6-0.7-1.1-1-1.6c-1.5-2.5-3-5.1-3.1-8.2c0-0.8-0.6-1.3-0.9-1.9c-1.1-1.8-2-3.6-2.3-5.7c0-0.4-0.1-0.8-0.1-1.2
		c0-1.4,0.7-1.8,1.8-1.1c0.7,0.5,1.4,1.1,2,1.7c8.3,8.3,16.2,17.1,24,25.8c3.4,3.8,6.6,7.8,9.8,11.8c1.2,1.5,2.7,2.5,3.9,3.8
		c3.2,3.3,5.2,7.2,6.5,11.6c1,3.3,1.9,6.6,2.3,10c0.4,3.3,2,6.2,3.5,9.1c0.2,0.4,0.4,0.7,0.6,1c0.8,1.1,1.1,2.8,2.3,3.2
		c1.1,0.4,2.4-0.6,3.6-0.9c4.2-1.1,7-0.2,9.2,3.1c1.9,2.8,1.9,2.8,5.4,3.3c-3.1,0.8-4.1,2.9-5.2,5.1c-1.2,2.5-3.6,3.8-6,4.9
		c-1,0.5-1.7,1.1-2.1,2.1c-2,6.2-6.6,10.2-11.6,13.9c-1.9,1.4-3.9,2.5-6.1,3.3c-1.9,0.7-3.6,1.6-5.3,2.7c-4.2,2.7-7.1,6.5-9.8,10.6
		c-3.2,4.9-5.5,10.3-7.8,15.6c-2.1,2-2.9,4.6-3.7,7.2c-1.4,4.5-2.7,9-3.4,13.8c-0.5-1.5-0.5-1.5-0.3-2.9c0.6-4.3,2.1-8.3,3.1-12.5
		c1.3-5.7,4.1-11,4.8-16.9c0.1-1,0.1-1.9-0.1-2.9c-0.2-0.9-0.7-1-1.4-0.8c-0.2,0.1-0.4,0.2-0.7,0.3c-4.2,2.3-8.3,4.7-11.6,8.4
		c-9.2,10.2-17.1,21.3-24.9,32.5c-0.2,0.3-0.3,0.7-0.9,0.8c0.3-1.2,0.9-2.1,1.5-3c6-9,12.4-17.6,19.2-26c2.7-3.3,5.9-6.2,8-10.1
		c0.8-1.4,1.8-2.7,3-3.8c4.7-4.4,6.7-10.4,9.1-16.1c0.8-2,1.6-4,2.7-5.9c0.7-1.2,1.4-2.4,2.2-3.7c-0.8-0.3-1.2,0.1-1.7,0.3
		c-1,0.4-2.2,0.6-3,0.1c-1.3-0.7-2.6-1.5-4.2-1.4c-0.1,0-0.1-0.1-0.2-0.1c-1.2-0.3-0.5-2.1-1.8-2.2c-1-0.1-1.9-0.4-2.4-1.3
		c-0.3-0.5-0.6-0.6-1.2-0.5c-1.4,0.3-2.7-0.1-3.7-1.1c-0.3-0.3-0.6-0.6-1-0.5c-2.1,0.3-4.1-0.6-6.2-0.6c-2,0-3.9-0.5-5.5-1.7
		c0.2-0.4,0.3-0.5,0.5-0.4c3,1.7,6.1,1.5,9.2,0.3c4.2-1.6,8.5-3.3,12.7-4.9c0.4-0.1,0.7-0.5,1.4-0.1c-4.9,2.4-9.8,4.2-14.6,6.3
		c6,0.4,10.9-2.8,16.2-4.7c-1.7,1.6-3.9,2.3-5.9,3.2c-2,1-4.1,1.6-6.3,2.3c0.9,0.9,1.8,1.3,2.9,1c4.6-1.2,9.2-2.4,13.6-4.4
		c-0.4,1.1-1.3,1.5-2.3,1.8c-2.7,0.9-5.4,1.8-8.1,2.7c-0.4,0.1-0.9,0.2-0.8,0.7c0,0.5,0.5,0.8,1,0.8c1.5,0.2,2.8-0.4,4.2-0.7
		c2-0.5,3.8-1.6,5.9-1.8c-1.3,0.7-2.7,1.4-4,2c-1,0.4-2.1,0.7-3.2,1c-0.5,0.1-1,0.3-1,0.8c0,0.6,0.4,1.1,1.1,1.1
		c0.8,0.1,1.6,0.1,2.4,0c1.3-0.2,2.5-0.8,3.8-1.4c0.8-0.4,1.4-1.1,2.4-1c-1.4,1.6-3.5,2.2-5.4,3.3c3.4,1.5,7.5-0.7,9.1-4.7
		c-0.6-0.2-1.2-0.1-1.9,0c-0.2-1.1-0.8-1.8-2-1.8c0.7-1.3-0.3-2-1.1-2.8c-0.4-0.3-0.6-0.7-0.8-1.2c-0.1-0.3-0.3-0.6,0-0.9
		c1.9,2.2,1.9,2.2,5.9,2.5c-1,0.5-1.9,0.6-2.8,0.8c1.1,2.8,3.1,3.3,5,1.3c2.2-2.3,4.7-4.3,7.4-6.4c-3.4-1.6-5.9-3.9-8.6-6.2
		c-3.3-2.8-6.6-5.6-10.9-6.6c-0.5-0.1-1.1-0.3-1.6-0.3c-5-0.3-10-0.4-15,0.3c-1.4,0.2-2.9,0.2-4.4,0.5c4.4,1.9,8.9,1.4,13.5,0.7
		c-0.8,0.6-1.8,0.8-2.7,0.9c-1,0.1-2,0.4-3.3,0.6c3.1,2.9,6.7,2.4,10.3,2.5c-1.1,0.2-2.3,0.4-3.5,0.7c1.8,1.9,3.2,2.3,8.4,2.5
		c-2.4,1.3-7.4,0.5-8.7-1.7c-0.6-0.9-1.2-1.2-2-1.3c-1.8-0.1-3.3-0.9-4.5-2c-0.6-0.6-1.2-0.9-2.1-0.9c-1.3-0.1-2.7-0.1-3.8-0.6
		c-2.8-1.4-5.6-0.6-8.4-0.1c-0.6,0.1-1.3,0.2-1.9,0.2c-7.3,0.2-14.4,1.2-21.6,2.5c-8.2,1.4-16.2,3.3-24.3,5.2c-2,0.5-4,0.9-6.2,1.8
		c8.1,0.8,15.6-0.1,23.1-1.9c7-1.7,13.9-3.4,21-4.4c5.6-0.8,11.1-2,16.8-2.4c0.1,0,0.3,0.1,0.9,0.3c-11.6,2.3-23.1,3.2-34.3,6.4
		c2.4,1,4.8,0.7,7.2,0.6c1.8-0.1,3.6-0.6,5.4-0.9c4.8-0.7,9.6-1.5,14.4-2.4c3.2-0.6,6.3-1.5,9.5-2.2c-2,1.4-4.4,1.8-6.6,2.4
		c-2.4,0.6-4.8,1-7.3,1.5c-2.4,0.4-4.9,0.8-7.3,1.2c-2.4,0.4-4.8,0.8-7.1,1.4c2.8,1.6,5.9,1.8,8.9,1.3c7.9-1.3,15.7-2.9,23.1-5.9
		c0.2-0.1,0.4,0,1.2,0c-3.9,2.1-7.7,3.2-11.5,4.2c-3.8,1-7.7,1.7-12.1,2.7c4.6,0.8,8.5,0.3,12.5-0.5c4.9-1,9.4-2.9,14.1-4.4
		c0.6-0.2,1.1-0.7,1.8-0.4c-0.2,0.4-0.6,0.5-1,0.7c-6.1,2.5-12.2,4.8-18.7,5.6c-3.3,0.4-6.7,0.7-9.9-0.7c-0.7-0.3-1.4-0.2-2.1-0.1
		c-2.7,0.1-5.2-0.6-7.6-1.8c-0.8-0.4-1.6-0.7-2.5-0.6c-1.8,0.1-3.5-0.1-5.2-0.6c-1.4-0.4-2.7-0.4-4,0c-7.7,2.2-15.6,2.5-23.5,2.1
		c-0.9,0-1.7-0.1-2.4-0.7c-0.1-0.7,0.5-0.8,0.9-0.9c7.8-2.1,15.5-4.3,23.4-5.7c8.1-1.5,16.1-3,24.3-3.7c4.4-0.4,8.8-1.2,13.2-1.9
		c1.5-0.2,3,0.1,4.5-0.2c5.2-1,10.5-0.8,15.8-1c1.9-0.1,3.8,0.2,5.7,0.3c2.4,0.1,4.4,1.2,6.6,2.3c0.4-0.7-0.3-1-0.3-1.4
		c-0.2-1.4-0.6-2.6-0.2-4.1c0.5-1.9-0.4-4-1.5-5.8c-0.5-0.8-1.2-1.6-0.6-2.6c0.1-0.1,0.1-0.4,0-0.4c-1.8-1.5-1.6-4.1-3.2-5.7
		c-1.3-1.4-2.1-3.1-2.8-4.9c-0.6-1.7-1.5-3.4-2.9-4.9c-1.5-1.6-2.9-3.3-3.7-5.3C-175.5-22.5-175.9-23.4-174.7-24.1
		c-0.3,1.6,0.6,2.8,1.3,4c1.1,1.7,2.4,3.2,3.9,4.6c1.5,1.4,3,2.8,4.8,3.6c1.7,0.8,3.1,2.5,5.2,1.8c0.2-0.1,0.3,0,0.3,0.2
		c0.4,2,2,3.2,3.2,4.7c-1.4-0.4-2.3-1.4-3.1-2.6c-0.3-0.4-0.4-0.9-0.9-1.1c-2.8-1-5.5-2.4-8.1-3.7c2.2,2.7,5.1,4.4,8.1,6
		c-2.8-0.2-4.9-2.1-7.6-3.7c2.3,4,5.1,6.3,9,7.2c0.5-0.7-0.1-1.5,0.8-2.1c-0.1,3.1,2.1,4.6,4.4,6.4c-1.4-0.1-1.9-1-2.9-1.1
		c0,2.4,1.4,3.7,3.3,4.8c1.7,1,3.6,1.6,5.8,1.8c-1.4,0.7-1.3,0.6-1,1.5c0.2,0.8,1.1,1.2,1.5,2.2c-1.2-0.4-1.9-1.1-2-1.9
		c-0.2-1.2-1-1.4-2-1.7c-1.9-0.6-3.8-1.2-5.2-2.7c-1.2-1.3-4-3-6.2-3.7c0.8,2.9,3.3,3.7,5.4,5.1c-1.2,0.3-2-0.7-3.3-0.6
		c1.2,1.6,2.7,2.5,4.4,3.2c0.3-0.9-0.9-1.8,0.2-2.8c0.9,3.6,4,4.8,6.7,6.6c-1.6-0.5-3.2-0.7-4.3-2.1c-2.2-1.1-4.6-1.6-7-3.1
		c1,2.2,1.2,2.5,3,3.4c2.4,1.2,2.4,1.2,4-0.3c-0.4,1.8,0.8,2.8,1.9,3.8c1.7,1.7,3.9,2.6,6.3,3.5c-1.3,0.2-2.4-0.8-3.8-0.5
		c2.7,3.1,5.9,4.5,9.7,4.6c-0.4,0.9-1.2,1.2-2,1.5c0-0.4,0.7-1-0.4-1.2c-1.5-0.2-3-0.7-4.3-1.4c-1.6-0.9-3.2-1.7-4.2-3.4
		c-1.4-2.4-3.2-4.4-6-5.3c-1.1-0.3-2.1-0.7-3-1.4c-0.4-0.3-0.7-0.7-1.3-0.2c-0.2,1.2,0.8,1.7,1.5,2.2c2.2,1.5,4.4,2.9,6.6,4.4
		c-2.5-0.7-4.7-2.2-7.1-3.6c0.9,2.4,2.6,3.5,4.3,4.7c2.5,1.8,5,3.7,7.4,5.7c1.6,1.3,3.2,1.5,5,0.8c0.6,0.8,1.5,0.3,2.2,0.5
		c0.7,0.1,1.5-0.1,1.8,0.9c-1.1,0-2.2,0-3.3,0c-4,0.1-7.6,1.2-10.5,3.9c-2.5,2.3-5.2,4.3-7.3,7.1c-2.1,2.9-4.2,5.8-6,8.9
		c-1.1,2-2.3,4-2.4,6.2c-0.1,2-1.1,3.4-1.8,5c-1,2.1-2,4.2-1.9,6.6c0,1.3,0.6,1.8,1.9,1.8c0.6,0,1.1-0.3,1.6-0.5
		c3.5-1.8,6.7-4,9.8-6.4c2.8-2.1,5.7-4.1,8.9-5.6c4.4-2,8.6-4.4,12.2-7.8c2.8-2.7,5-5.7,6.7-9.2c0.5-1.1,0.1-1.5-0.9-1.6
		c-0.9-0.1-1.8-0.3-2-1.3c5,1.1,11.6-1.8,12.6-7.8c-1.3-0.3-2.9,2.2-4.1-0.5c1.7,0.2,3.3,0.1,4.9-0.7c-1.1-0.9-1.6-1.9-2.2-3
		c-1.5-2.5-3.7-3.7-6.6-3.3c-2.7,0.3-5.3,1.3-7.6,2.8c-0.9,0.6-1.6,1.3-2.7,1.5c0.7-1.6,2.7-1.8,3.7-3.2c-0.6-0.9-1.3-1.8-1.9-2.7
		c-2.2-3.4-4-6.9-4.6-10.9c-0.4-2.5-0.9-5-1.6-7.5c-1.2-4.2-2.6-8.4-5.3-11.9c-1-1.3-2.1-2.4-3.8-3.4c0.7,2.1,2.2,3,2.7,4.7
		c-0.6-0.5-1.2-1-1.8-1.6c0,0,0,0,0,0c-0.8-1.3-2.4-2.2-1.6-4.2c0.1-0.2-0.1-0.5-0.2-0.6c-1.4-1.5-2.4-3.4-4.1-4.6
		c-0.4-0.3-0.8-1-1.4-0.7c-0.7,0.4-0.6,1.1-0.4,1.7c0.3,1,0.7,1.9,1,2.9c0.2,0.8,0.8,1.5,0.9,2.7c-1.5-2.2-2.8-4.2-2.7-6.6
		c-0.4-1,0.9-1.3,0.9-2c-1.1-1.4-2.2-2.8-3.4-4.1c-8.4-9.4-16.9-18.7-25.6-27.8c-0.5-0.5-1-1.2-2-1.1c0,3,1.4,5.3,3.1,7.5
		c2.2,2.9,4.5,5.6,6.8,8.4c5.6,6.7,11.7,12.9,18.9,17.9c0.5,0.4,1.1,0.6,1.3,1.3c-1.2-0.3-2.1-1.1-3.1-1.7c-3.1-2.1-6-4.6-8.7-7.1
		c-4.8-4.5-9-9.5-13.1-14.7c-0.5-0.6-0.8-1.4-1.7-1.7c-0.2,0.6,0,1,0.1,1.3c1.1,3.6,3.2,6.6,5.6,9.4c5.1,6,10.8,11.3,17.1,16.1
		c0.4,0.3,0.9,0.7,1.3,1.1c-7.1-4-12.9-9.4-18.3-15.3c4.5,9.1,12.3,14.8,20.5,20.1c0.6-0.9-0.4-1.9,0.8-2.6c-0.3,1.7,0.7,2.9,1,4.3
		c0,0-0.1,0-0.1,0c-0.4,0.1-0.7,0.2-1.1,0.3l0.1,0c0.2-0.6,0.3-1-0.4-1.4c-4.3-2-8-5-11.7-7.9c-2.2-1.7-4-3.8-5.8-6
		c-0.1,0.4-0.1,0.6-0.1,0.7c0.1,0.3,0.3,0.6,0.4,0.9c2,3.4,4.6,6.3,7.9,8.6c2.4,1.6,4.8,3.2,7.2,4.8c0.4,0.3,1.1,0.4,1.1,1.4
		c-2.6-1.6-5.1-3.1-7.6-4.7c-1.2-0.8-2.4-1.6-3.5-2.6C-173.2-22.1-174.3-22.8-174.7-24.1z M-147.3,23.9c-4.4-3.4-8.8-6.6-13.5-9.6
		c-1.8-1.1-3.7-2-6.1-2.2c0.2,0.3,0.2,0.4,0.3,0.5c3.9,2,7.3,4.6,10.4,7.6c1.5,1.5,3.3,2.7,5.1,3.9C-149.7,25-148.5,25.2-147.3,23.9
		z M-169.1,73.8c0.2,0.1,0.3,0.1,0.5,0.2c1.8-4.4,4.9-8.2,7.1-13.1c-1.9,1.2-3.2,2.2-4.7,3.1c-1.3,0.7-2.1,1.5-1.5,3.1
		c0.2,0.5-0.1,1.1-0.2,1.6C-168.4,70.4-168.7,72.1-169.1,73.8z M-157.6,1.6c0.4-0.9-0.1-1.7,0.3-2.5c0.3-0.7-0.2-1.4-0.7-1.5
		c-1.8-0.4-3.5-1.2-5.6-1.6C-162.3-1.1-159.9,0.1-157.6,1.6z M-173.8,62.8c-2.3,2-4.3,4.1-5.7,6.7c2.5-1.6,4.8-3.3,7.5-4.6
		C-172.7,64.2-173.2,63.6-173.8,62.8z"/>
	<path class="st2" d="M-173.4,22.1c-5.9,3.4-11.9,6.1-18.6,7.2c-2.2,0.4-4.6,0.6-6.7-0.8c0.5-0.7,0.9,0,1.2,0c0.4,0,0.8,0.1,1.2,0.2
		c3.2,0.4,6.3-0.4,9.4-1.3c4.2-1.3,8.2-3,12.3-4.6C-174.2,22.5-173.8,22.3-173.4,22.1z"/>
	<path class="st2" d="M-162.3,25.2c-3.4,1.1-6.4,0-7.7-2.7C-168,24.7-165.5,25.3-162.3,25.2z"/>
	<path class="st2" d="M-127.2,22.9c-0.1,0.6-0.5,0.7-0.8,0.6c-0.7-0.1-1.1-0.6-1.6-1c-0.3-0.3-1-0.4-0.6-1.1
		c0.3-0.4,0.8-0.5,1.3-0.4C-127.7,21.2-128.4,22.9-127.2,22.9z"/>
	<path class="st2" d="M-150.5-10.8c-0.4,1.3,0.1,2.4,0.7,3.4c0.8,1.1,1.6,2.2,2.4,3.3c-1.8-1-3.6-3.3-4-5.1
		C-151.5-10-151.4-10.6-150.5-10.8C-150.4-10.7-150.5-10.8-150.5-10.8z"/>
	<path class="st2" d="M-159.8-15.3c0.4,2.2,1.4,4,3.3,5.1C-159.4-11.1-160.4-12.7-159.8-15.3C-159.7-15.2-159.8-15.3-159.8-15.3z"/>
	<path class="st2" d="M-147.8-0.7c-1.5-0.3-1.1-1.7-1.5-2.7C-148.5-2.7-148.5-1.5-147.8-0.7z"/>
	<path class="st2" d="M-148,4.5c-1.4-1.3-1.1-2.2-0.6-3.7C-148.3,2.3-148.2,3.2-148,4.5z"/>
	<path class="st2" d="M-146.2,13.2c1,0.4,1.3,1.4,2,2.1C-145.2,14.9-146.1,14.4-146.2,13.2L-146.2,13.2z"/>
	<path class="st2" d="M-150.9-12.3c-1.4-1.1-1.4-1.4-0.7-3.1c0,0,0-0.1,0-0.1C-151.8-14.4-151.2-13.3-150.9-12.3L-150.9-12.3z"/>
	<path class="st2" d="M-158.6-15.7c0.8,0.3,1,1.1,1.4,1.7C-157.8-14.4-158.6-14.7-158.6-15.7C-158.7-15.6-158.6-15.7-158.6-15.7z"/>
	<path class="st2" d="M-151-12.3c0.6,0,0.8,0.6,1.2,1c0.2,0.2,0.5,0.4,0.1,0.7c-0.2,0.1-0.4-0.5-0.8-0.1c0,0,0.1,0.1,0.1,0.1
		C-150.4-11.3-151.1-11.7-151-12.3C-150.9-12.3-151-12.3-151-12.3z"/>
	<path class="st2" d="M-146.2,13.2c-0.7-0.1-0.4-0.8-0.6-1.1C-146.2,12.3-146,12.6-146.2,13.2C-146.2,13.2-146.2,13.2-146.2,13.2z"
		/>
</g>
</svg>
