<?xml version="1.0" encoding="utf-8"?>
<!-- Generator: Adobe Illustrator 28.0.0, SVG Export Plug-In . SVG Version: 6.00 Build 0)  -->
<svg version="1.1" id="Ebene_1" xmlns="http://www.w3.org/2000/svg" xmlns:xlink="http://www.w3.org/1999/xlink" x="0px" y="0px"
	 viewBox="0 0 155.3 183.8" style="enable-background:new 0 0 155.3 183.8;" xml:space="preserve">
<style type="text/css">
	.st0{fill:#DA9933;}
	.st1{fill:#5F80C3;}
	.st2{fill:#BD3F31;}
</style>
<g>
	<path class="st0" d="M260.5-89.9c0.3-0.1,0.6,0,0.9,0.2c6.2,4.1,13.2,5.9,20.3,7.5c6.2,1.4,12.4,2.3,18.7,2.5
		c6.2,0.3,12.1,1.7,18,3.5c2.7,0.8,5.3,1.1,7.9-0.4c0.8-0.5,1.5-0.9,1.8-1.8c0.5-1.3,1.1-2.7,1.5-4c0.7-2.1,1.9-3.7,3.7-4.9
		c1.2-0.8,2.5-1.4,3.8-2.1c1.3-0.6,1.9-2,3-3c-0.2,2.4,1.1,4.2,2.1,6c2.5,4.5,4.3,9.3,4.2,14.5c0,0.8,0.3,1,1.1,1.2
		c5.4,1.4,10.8,2.8,16.4,3.2c2.8,0.2,5.6,0.3,8.3-0.3c2.6-0.5,5.3-0.1,7.8,0.5c7.2,1.8,14.4,1.6,21.7,1.3c3.3-0.1,6.7-0.4,10-0.7
		c0.3,0,0.6-0.1,1,0.4c-1.2,0.2-2.4,0.5-3.5,0.6c-6.5,0.5-13.1,0.8-19.6,0.5c-3.6-0.2-7.3-0.6-10.8-1.4c-2.4-0.6-4.9-0.4-7.4-0.1
		c-3.9,0.5-7.8,0-11.7-0.5c-4.5-0.6-8.8-2-13.4-3.1c-0.4,1.6-0.4,3.1-0.4,4.5c0.1,4.9-0.9,9.7-2.1,14.4c-0.9,3.6-3.2,6.4-5.7,9
		c-0.8,0.9-1.8,1.6-2.6,2.4c-0.4,0.4-0.6,0.7-0.3,1.2c0.4,0.6,0.9,0.6,1.4,0.2c1.3-0.8,2.3-1.9,3.2-3.2c1-1.4,1.9-2.9,3.1-4.8
		c0,1.4-0.8,2.2-1.2,3c-0.5,1-1.1,1.9-1.8,2.8c-0.5,0.7-0.6,1.3,0.1,1.9c0.7,0.5,1.4,0.2,1.9-0.5c0.6-0.8,1.1-1.8,1.7-2.6
		c0.5-0.7,0.5-1.7,1.4-2.1l0,0c-0.3,1.8-1.2,3.5-2.3,4.8c-1.6,1.8-2.1,1.7-3.8,0c-0.5,0.4-0.9,0.8-1.5,1.2c-0.9,0.6-1.9,0.9-2.7-0.2
		c-0.3-0.4-0.5-0.7-1.1-0.4c-1.6,1-2.9,2.5-4.1,3.9c-0.6,0.8,0.2,1.7,1,2.1c1,0.5,1.6,1.3,2.2,2.1c0.5,0.7,0.4,1.5,0.1,2.3
		c-0.1,0.3-0.3,0.4-0.5,0.3c-0.2-0.1-0.4-0.4-0.4-0.5c0.3-0.5,0.4-1.1,0.2-1.6c-0.3-0.6-0.5-1.3-1.3-1.2c-0.9,0-1.3,0.5-1.2,1.4
		c0,0.2,0,0.5-0.5,0.7c-0.4-1.3,0.3-3-1.1-4c-2.1,2.3-4.1,4.7-5.9,7.2c-1.8,2.6-3.5,5.2-4.2,8.5c-0.7,3.5-2.1,6.8-2.7,10.4
		c-0.7,4.1-1.1,8.2-1.3,12.4c-0.2,4.9-0.4,9.9-0.6,14.8c-0.2,5.7,0.8,11.3,2.2,16.8c0.2,0.8,0.4,1.5,0.6,2.3
		c-0.8,0.1-0.8-0.5-0.9-0.9c-0.5-1.6-0.7-3.4-1.6-4.7c-1.5-2.2-1.5-4.6-2.1-6.9c-0.6-2.5-0.9-5-1.2-7.6c-0.3-2.6-0.3-5.3-0.3-7.9
		c0.3-7.6,0.3-15.3,2.8-22.7c0.2-0.6,0.4-1.2,0.6-1.9c0.5,0.7,0.1,1.3-0.1,1.8c-2.1,7.2-2.4,14.6-2.5,22c-0.1,4.8,0.2,9.6,1,14.3
		c0.1,0.6,0.1,1.1,0.8,1.3c-0.3,0.8-0.2,1.6,0,2.4c0-0.8,0-1.6,0-2.4c-0.5-0.7-0.2-1.5-0.3-2.3c-0.1-8.5,0.3-16.9,1.1-25.3
		c0.7-7.5,2.1-15,5.7-21.8c0.7-1.3,1.5-2.6,2.5-3.8c0.9-1,1.8-2,1.8-3.5c0-0.7,0.3-1.4,1.1-0.5c0.3-0.3,0.7-0.6,1-1
		c2.7-3.4,6-6.2,9.3-8.9c3.4-2.8,6.4-6.1,7.6-10.6c1-3.8,2.2-7.7,2.3-11.7c0-1.1,0-2.3-0.1-3.4c-0.3-4.1,1.5-8.2-0.2-12.3
		c-1.1-2.9-2.4-5.7-3.9-8.5c-0.2-0.4-0.5-1-1.1-1.2c-0.5,0.6-0.2,1.4-0.6,2.2c-0.5-0.9,0.1-1.9-0.4-2.8c-1.3,0.7-2.7,1.3-4,2
		c-1.8,1-3.1,2.5-3.9,4.4c-0.6,1.5-1.2,2.9-1.8,4.4c-0.8,2.3-2.5,3.1-4.8,3.2c-3,0.2-5.9-0.4-8.7-1.3c-5.3-1.7-10.7-2.3-16.2-2.7
		c-11.5-0.8-22.7-2.9-33.4-7.4C263.8-87.2,261.6-87.9,260.5-89.9L260.5-89.9z"/>
	<path class="st0" d="M286.4,28.6c-0.2-2.1,0.2-4,0.4-5.9c0.5-4.5,1.4-9,2.4-13.4c1-4.5,2.8-8.6,5.8-12.2c2.7-3.4,5.3-6.8,7.9-10.2
		c3.4-4.5,5.2-9.7,5.9-15.2c0.8-6.5,2.3-12.9,4.5-19.1c0.6-1.6,0.4-3.5,1.7-4.9c0.4,0.3,0.2,0.7,0.1,1.2c-2.1,5.5-3.5,11.1-4.6,16.8
		c-0.6,3.2-0.9,6.5-1.5,9.7c-0.8,4.3-2.4,8.4-5.1,12c-2.7,3.6-5.5,7.2-8.3,10.8c-3.1,4-4.8,8.6-5.7,13.5c0.5,0.1,0.6-0.3,0.7-0.5
		c2.2-5.4,5.9-9.9,9.4-14.4c1.5-1.9,3.2-3.7,4.2-5.8c1.6-3.1,3.2-6.2,4-9.7c0.2-1.1,0.3-2.2,1.2-3.3c0.3,0.6,0.2,1.1,0,1.6
		c-0.9,3-0.9,6.3-1.5,9.3c-0.2,1.1,0,2.2,1.1,3.2c1-1.8,0.1-4,1.6-5.8c-0.4,2.9-0.8,5.5-0.1,8.3c-0.8-0.9-1.2-2-2.5-2.5
		c-0.7-0.3-0.9-1.4-0.8-2.4c0.1-0.9,0-1.7,0.6-2.5c-0.6-0.3-0.6,0.2-0.7,0.4c-0.9,1.6-1.2,3.5-2.6,5c-1.4,1.4-2.4,3.2-3.6,4.8
		c-1.4,1.8-2.9,3.6-4.2,5.5c-5.3,7.3-8.5,15.5-9.4,24.5C287,27.7,287.1,28.1,286.4,28.6z"/>
	<path class="st0" d="M295.9-71.1c0.6,0.7,1.7,0.3,2.3,1.2c-0.6,0.8-1.4,0.5-2.2,0.4c-8.7-1.3-17.3-2.8-26-4.1
		c-5.1-0.7-10.1-1.6-14.9-3.3c-2.2-0.8-4.3-0.5-6.5,0.2c0,0.9,0.7,1,1.1,1.2c6.5,2.7,13.2,4.6,20.3,5.3c8.3,0.9,16.5,1.3,24.8,2
		c2.5,0.2,5,0.2,7.5,0.6c-4.1,0.1-8.3,0.3-12.4-0.2c-2.4-0.3-4.8-0.4-7.2-0.5c-5.1-0.3-10.2-0.7-15.2-1.4c-1.7-0.2-3.4-0.1-5.1-0.2
		c-1.4,0-2.9,0-4.8,0c1.5-0.7,2.7-0.2,4.1-0.6c-2.8-1-5.4-1.8-8-2.8c-1.6-0.6-3.3-1.3-4.9-2c-0.6-0.2-1.2-0.6-1-1.4
		c0.1-0.6,0.7-0.8,1.3-0.9c0.7-0.1,1.4-0.3,2.3-0.5c-0.9-0.9-2-1.1-2.8-1.7c-0.7-0.6-1.8-1.2-0.9-2.9c0.1,2.1,1.4,2.5,2.5,3.1
		c5.6,2.5,11.4,4.1,17.4,5c8.4,1.3,16.8,2.7,25.3,4.1C294-70.3,295-70.1,295.9-71.1L295.9-71.1z"/>
	<path class="st0" d="M262.1-81c-2.5-1.2-5-2.3-7.9-1.8c-1.3,0.2-2.6,0-4-0.3c1.5,0,3.1,0,4.8,0c-0.9-1-2-1.1-2.9-1.4
		c-1.9-0.7-3.7-1.5-5.4-2.5c-0.5-0.3-1-0.7-1.5-1.2c-0.4-0.4-0.6-0.9-0.4-1.5c0.2-0.7,0.9-0.6,1.4-0.6c1.5-0.1,3-0.1,4.5,0.3
		c0.6,0.2,1.2,0.3,2.1,0.1c-0.8-1.1-2.1-1.5-2.9-2.4c-0.5-0.5-1.5-1-0.4-1.9c0,0,0,0,0,0c0.1,0.9,0.6,1.4,1.3,1.9
		c0.9,0.6,1.8,1.3,2.8,1.8c6.4,3.2,12.7,6.6,19.7,8.4c2.1,0.5,4.1,1.3,6.2,1.9c0.3,0.1,0.6,0.2,0.6,0.6l0,0c-6-1.5-12-3-17.7-5.7
		c-4.6-2.2-9.4-4-14.5-4.5c-0.6-0.1-1.3-0.1-1.9,0c-0.9,0.1-1,0.6-0.5,1.3c0.5,0.6,1.2,1,1.9,1.4c2.8,1.7,6,2.6,9.1,3.7
		c1.5,0.5,3,1,4.5,1.6C261.5-81.9,262.2-81.8,262.1-81L262.1-81z"/>
	<path class="st0" d="M255-69.1c0.2,1.1,1.2,1.3,2,1.7c3.2,1.5,6.7,2,10.2,2.4c4.2,0.5,8.4,0.5,12.7,0.7c6.5,0.4,13.1,0.1,20,0.4
		c-1.1,0.5-1.9,0.3-2.7,0.4c-2.9,0.1-5.8,0.3-8.6,0.2c-5.9-0.1-11.8,0-17.7-0.6c-2.9-0.3-5.7-0.6-8.5-1.1c-2.1-0.4-4.1-1.2-6.1-2
		C255.4-67.4,254.5-67.7,255-69.1z"/>
	<path class="st0" d="M303-56.3c-3.2,2.1-6.7,3.4-10.5,4c-1.3,0.2-2.8,0-3.5-1c-0.7-1.1-1.4-0.8-2.4-0.8c-2,0.1-3.9,0-5.7-1.1
		c4.1,0.9,8,0.3,12-0.6c-0.6,0.5-1.2,0.7-1.9,0.8c-0.7,0.1-1.4,0.4-2.1,0.6c1.2,1.4,1.9,1.7,3.9,1.3c1.9-0.4,3.9-0.8,5.7-1.6
		C300.1-55.2,301.5-55.8,303-56.3z"/>
	<path class="st0" d="M265.2-62.2c-0.1,0.5-0.5,1.1,0.2,1.4c0.9,0.4,1.8,0.8,2.7,0.9c4.6,0.9,9.2,1.7,14,1.6
		c2.8-0.1,5.5-0.6,8.2-1.2c0.6-0.1,1.2-0.3,1.9-0.1c-4.3,1.7-9.1,2.2-14,1.9c-3.5-0.2-6.9-0.9-10.4-1.5c-1.1-0.2-2.2-0.5-3-1.3
		C264-61.3,264-61.9,265.2-62.2L265.2-62.2z"/>
	<path class="st0" d="M419.7-58.8c0,1.2-1.1,1.2-1.8,1.5c-3.5,1.6-7.2,2.6-11,2.8c-1.7,0.1-3.3,0.2-5,0.3c-0.5,0-1.2-0.3-1.2,0.7
		c0,0.4-0.2,0.3-0.5,0.2c-1.5-0.6-3.1-1.2-4.6-1.9C404-54.2,412.1-55.2,419.7-58.8L419.7-58.8z"/>
	<path class="st0" d="M262.1-81c0.8-0.3,1.5-0.2,2.3,0c6.5,1.7,12.9,3.9,19.4,5.7c-2,0.1-3.9-0.5-5.7-1.1c-4.8-1.5-9.5-3-14.3-4.4
		C263.2-80.9,262.6-80.9,262.1-81C262.1-81,262.1-81,262.1-81z"/>
	<path class="st0" d="M393.4-50.6c1-0.2,1.7,0.8,2.7,0.6c-0.1,1,1.2,1.4,1.1,2.4c0,0.4-0.3,0.8-0.7,0.8c-3.5,0-6.9-0.2-9.6-2.8
		c3.1,1.3,6.2,2.4,9.5,2.3c0.3-0.9-0.2-1.1-0.6-1.5C395.1-49.4,393.9-49.6,393.4-50.6C393.5-50.6,393.4-50.6,393.4-50.6z"/>
	<path class="st0" d="M377.2-49.4c5.5,1.9,10.2,5.2,16,5.3c-0.4,0.6-1.2,0.7-2,0.6c-0.9-0.2-1.7-0.4-2.5-0.6
		c-3.7-1.1-7.2-2.7-10.6-4.5C377.9-48.9,377.7-49.1,377.2-49.4z"/>
	<path class="st0" d="M350.8-48.6c-1,3.4-2,6.8-4.4,9.6c-1.1,1.2-1.4,1.3-2.9,0.7c1.7-0.2,2.5-1.3,3.3-2.5c1.1-1.7,1.8-3.7,2.6-5.6
		c0.3-0.8,0.6-1.6,1-2.4C350.5-48.8,350.7-48.7,350.8-48.6z"/>
	<path class="st0" d="M355.2-49.1c-0.4,3.6-1.5,7-3.1,10.2c-0.3,0.6-1.7,1.1-3,1.2c2.1-0.9,3-2.6,3.7-4.4
		C353.6-44.5,354.4-46.8,355.2-49.1z"/>
	<path class="st0" d="M312-49c-1.5,1.9-3.6,2.9-5.9,3.6c-0.9,0.2-1.9,0.4-2.8-0.1c-0.3-0.1-0.6-0.4-0.4-0.7c0.2-0.5,0.5,0,0.7,0.1
		c1.1,0.4,2.2,0,3.2-0.3C308.7-47,310.2-48.1,312-49z"/>
	<path class="st0" d="M260.5-90c-2.1-0.5-3.8-1.9-5.8-2.6c-1.8-0.7-3.5-1.4-5.4-1.8c0,0,0,0,0,0c0.6-0.7,1.3-0.4,2-0.2
		c3,1,6.1,2.2,8.7,4C260.3-90.4,260.4-90.1,260.5-90C260.5-89.9,260.5-90,260.5-90z"/>
	<path class="st0" d="M303.9-52.8c-3.8,3-7.6,3.7-10.5,1.6C297.5-49.6,300.6-51.5,303.9-52.8z"/>
	<path class="st0" d="M308.5-50.6c-3.8,3.2-7.6,4.1-10.1,2.5C302.2-47.2,305.3-49.1,308.5-50.6z"/>
	<path class="st0" d="M265.2-62.2c3-0.8,6.1-0.8,9.2-0.7C271.3-62.6,268.3-62,265.2-62.2C265.2-62.2,265.2-62.2,265.2-62.2z"/>
	<path class="st0" d="M364.9-45c1,1.9,0.8,5.7-0.5,7.2c-0.5,0.5-0.6,0.6-2.7,0.4c2.1-0.2,2.7-1.2,3-2.7
		C365-41.8,365.4-43.4,364.9-45L364.9-45z"/>
	<path class="st0" d="M304.3-69.5c-1.3,0.2-2.6,0.7-4,0.5c-0.4-0.1-0.6-0.3-0.6-0.6c0-0.4,0.4-0.5,0.7-0.5
		C301.7-70.1,302.9-69.4,304.3-69.5z"/>
	<path class="st0" d="M436.3-75.4c-0.1,0.2-0.1,0.6-0.2,0.7c-1.8,1.2-3.7,2.2-5.8,2.8C432.2-73.3,434.6-73.7,436.3-75.4L436.3-75.4z
		"/>
	<path class="st0" d="M332.2-69.7c-1.3-1.3-3.5-2-2.9-4.5c0.7,0.7,0.5,1.9,1.5,2.5C331.5-71.2,332.1-70.6,332.2-69.7z"/>
	<path class="st0" d="M398.3-49.4c2-0.6,3.9-0.2,5.4-1.3c-0.5,1.1-0.5,1.1-2.2,1.4C400.6-49.2,399.7-49.1,398.3-49.4z"/>
	<path class="st0" d="M398.5-59.1c2,0,3.9,0,5.9,0c0,0,0,0.1,0,0.1c-2,0-3.9,0-5.9,0C398.5-59,398.5-59,398.5-59.1z"/>
	<path class="st0" d="M421.7-65.2c0.1-0.1,0.1-0.4,0.2-0.4c1.3-0.4,2.8-0.5,4.2-1c-0.2,0.8-0.8,0.8-1.4,0.9
		C423.7-65.4,422.6-65.8,421.7-65.2C421.7-65.2,421.7-65.2,421.7-65.2z"/>
	<path class="st0" d="M348.5-54.8c-0.1-0.4,0.2-0.7,0.5-0.6c1.1,0.6,2.2,0.6,3.4,0.1c0.3-0.1,0.7,0.3,1.2,0.5
		C351.8-54,350.1-54.4,348.5-54.8L348.5-54.8z"/>
	<path class="st0" d="M419.8-58.8c0.2-0.4,0.7-0.9-0.2-1c-0.9-0.1-1.8,0-2.7-0.2c1-0.3,1.9-0.5,2.9-0.8l-0.1-0.1
		c0.1,0.3,0.4,0.5,0.6,0.7C421.1-59.3,420.7-58.9,419.8-58.8C419.7-58.8,419.8-58.8,419.8-58.8z"/>
	<path class="st0" d="M417-67.1c1.7-0.8,3.4-1.5,5.2-1.7C420.6-67.7,418.8-67.5,417-67.1z"/>
	<path class="st0" d="M417.6-65.2c-1.7,1.1-3.7,1-5.6,0.9C413.9-64.6,415.8-64.9,417.6-65.2L417.6-65.2z"/>
	<path class="st0" d="M339.4-63c-1.1-0.9-2.8-0.4-3.9-1.9c1.6,0.6,2.9,1.1,4.2,1.6C339.6-63.3,339.5-63.2,339.4-63z"/>
	<path class="st0" d="M316.1-54.9c-0.3-1.5,0.5-2.6,1.5-3.6C317.1-57.3,316.6-56.1,316.1-54.9z"/>
	<path class="st0" d="M424.1-69.5c1.6-0.7,3-1.2,4.6-1.8C426.9-69.9,426.4-69.7,424.1-69.5z"/>
	<path class="st0" d="M337.5-70.5c-0.2-1.6,0.5-2.6,1.1-3.7C338.4-73,338.2-71.8,337.5-70.5z"/>
	<path class="st0" d="M386.8-42.1c-0.5,1.9-1.8,1.5-3.1,1.3C384.8-41,386.1-40.8,386.8-42.1z"/>
	<path class="st0" d="M419.7-60.7c1.2-0.6,2.3-1.1,3.5-1.7C422.2-61.6,421.1-60.6,419.7-60.7C419.7-60.8,419.7-60.7,419.7-60.7z"/>
	<path class="st0" d="M336.2-84.2c-0.1,0.4-0.3,0.8-0.9,0.9c-0.4,0-0.6-0.3-0.6-0.6c0-0.6,0.4-0.8,0.9-0.9
		C336-84.9,336.1-84.6,336.2-84.2z"/>
	<path class="st0" d="M360.5-40.9c0.1,0.8,0.2,1.5-0.4,2.3C359.6-39.7,360.8-40.2,360.5-40.9z"/>
	<path class="st0" d="M391.5-51.5c-1.2-0.2-2.4-0.5-3.2-1.5l-0.1,0.1C389.4-52.7,390.6-52.6,391.5-51.5L391.5-51.5z"/>
	<path class="st0" d="M345-43.8c-0.2-1.2,0.8-2,1.2-3C346.2-45.7,345.9-44.7,345-43.8C344.9-43.9,345-43.8,345-43.8z"/>
	<path class="st0" d="M371.6-38.6c-0.3-1.2-0.5-2-0.8-3C372.2-40.8,371.7-39.8,371.6-38.6z"/>
	<path class="st0" d="M280.1-79.7c1.1-0.4,1.9,0.3,2.9,0.7C281.9-79,281-79.3,280.1-79.7C280.1-79.8,280.1-79.7,280.1-79.7z"/>
	<path class="st0" d="M436.3-75.4c0.9,0.3,1.5-0.9,2.4-0.5C438.2-73.9,437.2-75,436.3-75.4C436.3-75.4,436.3-75.4,436.3-75.4z"/>
	<path class="st0" d="M436.4-73.5c-0.4,0.9-1.1,1.4-2.1,1.9C434.7-72.8,435.6-73,436.4-73.5z"/>
	<path class="st0" d="M408.5-59.5c0.5,0,1.1,0,1.6,0C409.6-59.2,409-59.4,408.5-59.5z"/>
	<path class="st0" d="M430.4-69.3c0.4-0.9,1.3-1,2.1-1.3C432-69.9,431.4-69.3,430.4-69.3L430.4-69.3z"/>
	<path class="st0" d="M430.4-69.3c-0.3,1-1.3,1-2,1.3C428.9-68.7,429.5-69.3,430.4-69.3C430.4-69.3,430.4-69.3,430.4-69.3z"/>
	<path class="st0" d="M417.7-65.2c1.3-0.3,2.7-0.4,4,0c0,0,0,0,0,0C420.3-65.3,419-64.7,417.7-65.2
		C417.6-65.2,417.7-65.2,417.7-65.2z"/>
	<path class="st0" d="M348.4-54.8c-0.7,0.5-1.3,0.3-2.4,0.1C347.1-55.4,347.8-54.6,348.4-54.8C348.5-54.8,348.4-54.8,348.4-54.8z"/>
	<path class="st0" d="M339.4-69.1c0.1,0,0.1-0.1,0.2-0.1c0.4,0,0.8-0.1,1.2,0c0.3,0,0.3,0.2,0,0.2c-0.4,0-0.8,0-1.2,0
		C339.5-69,339.5-69,339.4-69.1z"/>
	<path class="st0" d="M308.4-50.3c0.3-1.1,1-1.2,1.6-1.7C310-50.9,309.1-50.9,308.4-50.3z"/>
	<path class="st0" d="M408.6-63.7c0.3,0,0,0-0.3,0C408.5-64,408.8-63.8,408.6-63.7z"/>
	<path class="st0" d="M388.3-53.1c-0.8,0.3-1.3-0.2-2.4-0.7C387-53.7,387.7-53.5,388.3-53.1C388.2-53,388.3-53.1,388.3-53.1z"/>
	<path class="st0" d="M356.9-36.9c0.7-0.2,1.2-0.3,1.7,0C358-36.5,357.6-36.7,356.9-36.9z"/>
	<path class="st0" d="M295.9-71.1c-0.6,0.4-1.1,0.4-1.9-0.3C294.8-71.2,295.3-71.1,295.9-71.1C295.9-71.1,295.9-71.1,295.9-71.1z"/>
	<path class="st0" d="M364.9-45.1c-0.1-0.6-0.3-1.1,0-1.8C365.1-46.2,365.1-45.6,364.9-45.1C364.9-45,364.9-45.1,364.9-45.1z"/>
	<path class="st0" d="M391.4-51.5c0.9-0.1,1.6,0.1,2,0.9c0,0,0,0,0,0C392.6-50.6,392-50.9,391.4-51.5
		C391.5-51.5,391.4-51.5,391.4-51.5z"/>
	<path class="st0" d="M427.1-64.8c-0.2,0.2-0.3,0.4-0.5,0.5c-0.2,0.1-0.3,0-0.2-0.2c0.1-0.2,0.3-0.3,0.5-0.4
		C427-64.9,427.1-64.8,427.1-64.8z"/>
</g>
<g>
	<path class="st1" d="M400,128.1c0,0.4,0,0.8-0.1,1.2c-2,4.9-3.8,9.8-6.2,14.5c-1.3,2.5-2.7,4.9-4.6,7c-0.2,0.2-0.5,0.5-0.6,0.7
		c-0.3,0.7,0,1.2,0.5,1.7c0.5,0.4,1,0.4,1.5,0c0.9-0.7,1.3-1.6,1.8-2.5c3.1-6.1,6.5-12.1,9.4-18.3c0.1-0.2,0.3-0.4,0.5-0.7
		c0.2,1.3-0.5,2.3-0.9,3.2c-3.2,6.3-6.1,12.8-9.9,18.8c-0.9,1.4-0.6,3.1-0.6,4.7c0,0.7,0.5,0.7,1,0.5c0.8-0.3,1.2-1.1,1.6-1.7
		c2-2.9,3.6-6.1,5.1-9.2c1-2.1,1.9-4.2,3.1-6.2c0.3,0.3,0.2,0.5,0.1,0.7c-2.3,4.7-4.1,9.7-7,14.2c-1.2,1.8-1.8,3.9-2,6.1
		c0,0.5,0.1,1,0.6,1.2c0.4,0.1,0.7-0.3,1-0.5c1.3-1.2,2-2.7,2.7-4.2c1.3-3.1,2.6-6.2,3.9-9.3c0.5-1.1,0.9-2.2,1.7-3.2
		c0.5,0.6-0.1,1-0.2,1.5c-1.4,3.5-2.8,7-4.2,10.4c-0.6,1.6-1.2,3.2-2.3,4.4c-1.1,1.3-1.3,2.7-1.1,4.7c3.9-3,5.4-7.4,8-11
		c-1.2,3.1-2.8,6-4.6,8.8c-1.9,3-2.3,6.4-2.9,10.4c1.8-1.1,2.6-2.4,3.3-3.7c1.7-3.4,3.5-6.7,4.9-10.1c0.3-0.8,0.7-1.6,1.8-2.6
		c-0.4,1-0.5,1.5-0.7,2c-1.9,4.1-3.6,8.2-5.7,12.1c-2.4,4.6-3.4,9.6-4.3,14.6c-0.3,1.3,0.1,2.5,0.4,3.8c1.3,0,0.6-2,2.1-1.9
		c-1.2,4.3-2.4,8.6-3.5,12.9c2.1-3.1,3.8-6.5,5.1-10c3.2-8.8,6.8-17.6,9-26.7c0.9-3.7,1.8-7.3,2.9-10.9c1.4-4.7,1.2-9.5,0.6-14.3
		c-0.9-6.8-2.6-13.5-5.2-19.9c-0.8-1.9-1.7-3.8-2.9-5.5c-1.6-2.5-3.9-4-7.1-3.9c-0.3,1.1,0,2.3,0,3.5c-0.1,3,0,5.9-0.5,8.8
		c-0.1,0.3-0.2,0.7-0.1,0.9c1,2.3-0.1,4.4-0.7,6.5c-1,3.9-2.2,7.9-3.7,11.6c-0.9,2.2-2.1,4.3-3.6,6.2c-1,1.3-2.3,2.4-4.1,1.6
		c-0.8-0.3-1.2,0.1-1.5,0.7c-1.9,3-3.7,6-4.3,9.5c-0.5,2.8-1.3,5.4-2.2,8.1c-3,8.7-7.2,16.9-11.5,25c-2.3,4.2-5.5,7.7-8.3,11.4
		c-2.8,3.8-6.4,6.9-9,10.9c-0.7,1.1-1.7,1.9-2.6,2.8c-3,3-5.7,6.2-8.5,9.5c-5.4,6.4-11.1,12.6-18.8,16.3c-0.3,0.1-0.5,0.4-1.1,0.2
		c0.5-0.9,1.4-1.2,2.1-1.7c3.7-2.5,7.5-4.8,10.6-8.2c8.2-9.3,15.8-19.1,22.6-29.5c1.1-1.7,1.7-3.6,3.2-5c0.2-0.2,0.5-0.7,0.1-0.8
		c-1.6-0.4-0.7-1.2-0.4-1.9c1.5-2.9,3.2-5.6,4.3-8.7c0.6-1.6,1.8-3,2.7-4.5c1.5-2.4,3-4.9,4.7-7.2c-0.9,2.6-2.4,4.9-3.8,7.3
		c-1.4,2.4-2.7,4.8-3.6,7.4c6.7-4.8,9.8-12.1,13.3-19.6c0.3,1.6-0.1,2.7-0.3,3.9c0.4,0.1,0.5-0.3,0.6-0.5c1.6-3.9,3.2-7.8,4.5-11.8
		c0.5-1.6,0.4-3.3,0.9-4.9c1.4-4.2,3.5-7.9,6.2-11.3c2.5-3.2,4.4-6.9,6.7-10.2c1.6-2.3,2.9-4.6,3.3-7.3c0.9-4.8,1.6-9.6,2-14.5
		c0.1-1.1,0-2.3-1-3l0,0c1.1-1,0.7-2.3,0.1-3c-0.7-0.9-0.6-1.7-0.8-2.6c-0.8-4.5-1.2-9-3-13.3c-1.4-3.3-2.4-6.6-2.8-10.3
		c-1.2,0.2-2.4,0.5-2.7,1.4c-0.3,1,0.5,1.9,1.7,2.7c-2.1,0.1-2.3-1.2-2.7-2.5c-4.4,1.1-7.4,3.9-9.4,7.8c-1.5,2.9-2.2,6.2-3,9.3
		c-0.7,2.5-1.8,4.8-4.2,6.2c-2.1,1.3-4.5,0.1-4.6-2.4c-0.2-2.6-0.2-5.3,0-7.9c0.1-1.4,0-2.7-0.6-4c-0.7-1.3-1.7-2.1-3.3-2.4
		c-4.9-0.8-9.4,0.4-13.7,2.3c-6.8,2.8-13,6.8-18.8,11.4c-1.2,1-2.7,1.7-3.5,2.8c-2.5,3.4-6.2,5.3-9.2,8.1c-3,2.8-6.1,5.6-8.9,8.7
		c-6.3,7-12.8,13.8-18.2,21.6c-2.8,4.1-5,8.5-7.6,12.7c-1.7,2.8-3.3,5.6-5,8.5c-0.4-0.3-0.3-0.5-0.1-0.8
		c5.1-9.7,10.1-19.5,17.2-27.9c7.8-9.1,15.7-18.1,24.7-26.1c6.1-5.5,12.3-10.7,19.2-15.1c5.5-3.4,11.3-6.3,17.8-7.4
		c2.1-0.3,4.2-0.4,6.2,0c2.8,0.4,4.5,2.2,4.9,5.1c0.2,1.2,0.1,2.4,0,3.6c-0.2,1.9-0.2,3.8,0,5.7c0.1,1.1,0.3,2.4,1.6,2.7
		c1.1,0.3,1.9-0.6,2.7-1.2c0.9-0.8,1.5-1.9,1.9-3c0.7-1.9,1.2-3.8,1.9-5.7c0.5-1.6,1-3.2,1.7-4.7c1.8-4.4,4.9-7.3,9.6-8.6
		c1.9-0.5,3.2-2.2,5.1-2.9c0.1,0.1,0.2,0.3,0.3,0.4c0.5,5,2.4,9.7,3.9,14.5c1.1,3.8,2.3,7.6,2.8,11.6c0.3,2,0.4,2.1,2.3,2.3
		c3.2,0.2,5.2,2.1,6.9,4.6c1.2,1.7,2.1,3.6,2.8,5.5c2.4,6.3,4.3,12.7,5.1,19.4c0.2,1.7,0.8,3.4,0.8,5.2c0,2-0.2,4-0.6,6
		c-0.9,5.3-2,10.5-3.3,15.7c-0.1,0.5-0.3,1-0.6,1.3c-1.1,1.1-1.4,2.6-1.6,3.9c-0.8,4.6-2.5,8.9-4.6,13c-0.2,0.4-0.5,0.8-0.6,1.3
		c-1.7,6.1-4.5,11.8-7.4,17.4c-2.8,5.6-5.1,11.5-7.7,17.3c-0.4,0.8-0.5,1.9-1.7,2.3c-0.4-0.9,0.2-1.5,0.5-2.2
		c3.9-8.4,6.4-17.2,9.1-26c0.4-1.2,0.4-2.2-0.3-3.5c-0.9-1.8-0.6-3.9-0.2-5.9c0.7-3.3,1.6-6.5,2.8-9.6c-2.1-0.2-2.2-0.3-2.1-2
		c0.1-2.2,0.9-4.2,1.3-6.3c-2.2,0-2.2,0-2.2-2.2c0-0.4,0.1-1-0.1-1.1c-2.2-1.1-1.3-3-1.2-4.6c0-0.2,0-0.3,0-0.5
		c-2.2-0.5-2.5-1.1-2.2-3.3c0.1-0.5,0.2-0.9,0.3-1.4c0.1-0.6-0.1-0.9-0.7-1c-1.1-0.2-1.7-1-1.9-2.1c-1,0-1.7,0.7-3.1,0.4
		c5-2.3,6.9-6.6,9-10.7c2-4,3.6-8.2,5.4-12.3C399.4,129.1,399.4,128.4,400,128.1L400,128.1z M347.7,212.2c0.1,0.1,0.3,0.3,0.4,0.4
		c1.1-1.3,2.2-2.6,3.4-3.9c7.4-7.7,12.6-16.8,17.3-26.2c0.5-1,1-2,0.3-3.1c-0.7,0.7-1.1,1.6-1.5,2.4c-2.2,5-5.6,9.1-10.1,12.2
		c-1.5,1-1.9,2.7-2.8,4.1c-0.1,0.2-0.2,0.4,0.2,0.6c1.3,0.5,0.5,1.3,0.2,1.9c-1.2,2.6-2.7,5-4.4,7.4
		C349.6,209.3,348.7,210.8,347.7,212.2z M391.3,138.9c-2.7,3.5-4.8,7.4-7.7,11.3c1.4-0.4,2.5-0.5,3.2-1.4
		C388.8,145.7,390.5,142.5,391.3,138.9z M346.2,214.8c-0.8,0.5-1.4,1.3-1.6,2.3C345.4,216.6,345.9,215.8,346.2,214.8z"/>
	<path class="st1" d="M359.9,159.8c-2.8,6.2-7,11.2-11.6,15.7c-4.2,4-8.6,7.9-13.2,11.5C322.1,197.3,308,206,293,213.2
		c-5.6,2.7-11.5,4.2-17.7,4.7c-1.8,0.1-3.6,0.5-5.7,0.4c2.2-1,4.3-1,6.3-1.2c9.6-0.7,18-4.7,26.1-9.3c8.5-4.8,16.8-10.1,24.9-15.5
		c5.9-3.9,11.1-8.6,16.3-13.3c3.9-3.5,7.6-7.3,11-11.4c2.6-3.2,4.3-6.9,5.8-10.7c0.6-1.5,0.5-3.1,0.1-4.5c-1.2-3.6-2.4-7.2-2.7-11.3
		c-1.4,1.1-1.9,2.7-3.1,3.5c-0.9-0.6-1.1-1.4-1.2-2.4c-0.3-2.1,0.5-4.2,0.1-6.4c-0.1-0.6,0.6-1.3,0.9-1.9c1.1-2.1,2.3-4.2,3.5-6.3
		c0,1.4-0.8,2.5-1.3,3.7c-1.3,2.8-2.3,5.6-2.5,8.7c-0.1,1.1-0.3,2.2,0.4,3.6c3.7-5.3,6.2-10.8,8-16.8c0.7,0.7,0.3,1.2,0.1,1.7
		c-0.8,2.8-1.6,5.7-3,8.3c-1.2,2.1-1.4,4.3-0.9,6.5c0.7,3.5,1.5,7,3.4,10.1c0.4,0.7,0.2,1.4,0.1,2.1c-1,9.5-5.2,17.6-10.5,25.4
		c-4.1,5.9-9.7,10.2-15.8,13.7c-6.8,3.9-13.9,7.1-20.6,11.2c-1.6,1-3.6,1.4-5.5,1.8c1.5-1,3-2,4.4-3.1c1.4-1.1,2.7-2.2,4-3.3
		c0.6,0.3,0.4,0.9,0.9,1.4c2.2-1.2,4.5-2.5,6.8-3.7c5.1-2.7,10.4-5.3,15.1-8.7c2.9-2.1,5.6-4.5,7.9-7.3c4.9-6.1,8.8-12.8,11.1-20.2
		C359.8,161.8,360.4,161,359.9,159.8z"/>
	<path class="st1" d="M344.9,133.9c0.9-1.3,1.4-2.8,2.7-3.9c0.3-0.2,0.5-0.6,0.6-1c0.5-3.7,2.9-6.3,5-9.1c-3.1,4.8-5.3,9.7-4.4,15.8
		c1-0.5,1-1.3,1.2-1.9c1.3-3.7,2.8-7.3,5.4-10.3c1.4-1.6,2.3-3.6,3.7-5.6c0,1.2-0.5,1.9-1,2.6c-1.4,2.3-2.8,4.6-4.2,7
		c-1.4,2.2-2.4,4.5-3,7c-0.1,0.6-0.4,1.2-0.7,1.8c-0.7,1.5-1.1,3-0.9,5c-1-0.9-0.8-1.8-0.7-2.5c0.1-0.8,0.1-1.4-0.4-2.2
		c-1-1.5-0.7-3.2-0.6-5.1C346.5,131.9,346.4,133.8,344.9,133.9C344.9,133.9,344.9,133.9,344.9,133.9z"/>
	<path class="st1" d="M341.5,126c1.1,1.5,1.5,1.6,2.4,0.3c1.1-1.4,1.9-3,2.8-4.4c1-1.6,1.9-3.2,3.6-4.3c1.4-0.9,1.9-2.7,2.8-4.1
		c0.4-0.7,0.3-1.8,1.4-2l-0.1,0c-0.5,2.7-1.9,5-3.5,7.2c-2.3,3.1-3.8,6.5-5,10.2c-0.2,0.7,0.2,2.1-1.4,2c-0.1,0-0.4,1.3-0.5,2
		c-0.1,0.6,0.2,1.1,0.9,1.2c0,0,0-0.1,0-0.1c-1.1,0.8-1.4,0-1.4-0.9c0-1.4,0.4-2.7,0.8-4c0.2-0.6,0.7-1.1,0.4-1.8
		C341.9,128.4,341.5,128.3,341.5,126C341.6,125.9,341.5,126,341.5,126z"/>
	<path class="st1" d="M358.3,181.8c-1-0.4-0.2-0.9,0-1.3c1.4-1.7,2.7-3.4,4.2-4.9c2.4-2.6,4.6-5.3,6.4-8.3c0.6-0.9,1.1-1.8,2-2.4
		c-2.9,5.9-7,10.9-11.1,16C359.3,181.2,358.8,181.5,358.3,181.8z"/>
	<path class="st1" d="M287.2,155.8c2.8-2.3,4.3-5.4,6.3-8.3c0.1,0.1,0.3,0.2,0.4,0.3c-1.2,2-2.4,4-3.7,6.3c2.8,0.1,4.3-2.1,6.2-3.1
		c1.9-1.1,3.4-2.7,5.1-4.2c-0.5,1.3-1.4,2.2-2.5,3c-1.9,1.5-3.8,2.8-5.8,4.2c-0.5,0.4-1.3,0.8-1.7,0.7c-1.8-0.5-2.7,0.8-4,1.4
		C287.3,156,287.2,155.9,287.2,155.8z"/>
	<path class="st1" d="M317.5,140.6c1.1,0.2,2-0.2,2.8-1c4.4-4.1,8.9-8.1,11.7-13.5c-0.4,0.9-0.8,1.7-1.2,2.6
		c-0.5,0.8-0.9,1.7-1.5,2.4c-2.6,3.5-5.6,6.5-8.9,9.4c-0.5,0.4-1,0.8-1.7,0.9C318.1,141.4,317.6,141.3,317.5,140.6L317.5,140.6z"/>
	<path class="st1" d="M339.2,120.5c-2.5,4.7-5.3,9.1-8.5,13.2c-1,1.3-2.3,2.6-4.4,2.4c3.5-1.8,5.4-5.1,7.5-8.1
		c1.7-2.6,3.2-5.3,5.2-7.7C339.1,120.4,339.1,120.4,339.2,120.5z"/>
	<path class="st1" d="M347.3,117.1c-0.9,2.5-2.3,4.6-4,6.7c-0.6,0.7-1.2,1.5-1.7,2.2c0,0,0.1-0.1,0.1-0.1c-3.1,2.6-5.8,5.6-9.5,7.3
		c2-1.7,4-3.5,6-5.2c3.1-2.7,5.7-5.7,7.8-9.3C346.2,118.2,346.4,117.3,347.3,117.1L347.3,117.1z"/>
	<path class="st1" d="M317.5,140.5c-1.9,1.5-3.5,3.2-5.6,4.5c-0.7,0.4-1.4,1.1-2.6,0.7c3.9-2.1,6.8-5.3,10.2-7.8
		C318.9,138.8,318.2,139.7,317.5,140.5C317.5,140.6,317.5,140.5,317.5,140.5z"/>
	<path class="st1" d="M365,152.2c-0.8-0.2-0.2-1.5-1.4-1.3c-0.6,0.1-0.4-0.6-0.2-0.9c0.3-0.5,0.8-1,1.1-1.5c0.4-0.6,0.7-0.3,1.1,0.1
		c0.3,0.3,1,0,0.7,0.8C366,150.3,365.8,151.4,365,152.2z"/>
	<path class="st1" d="M373.2,156.6c0.9-4.1,1.5-4.7,4.2-4.5c0.4,0.6,0,1.2-0.2,1.8c-0.1,0.3-0.4,0.7-0.6,0.3
		c-0.7-1.3-1.1-0.3-1.5,0.1C374.3,154.9,374.2,155.9,373.2,156.6z"/>
	<path class="st1" d="M358.3,182.8c0,1-0.8,1.5-1.1,2.3c-0.2,0.5-0.3,1,0.5,0.9c1-0.1,0.8,0.5,0.5,1c-0.4,0.7-0.7,1.4-1.7,2.2
		c0.4-1.2,0.5-2,0-3C355.8,184.9,357.1,183.7,358.3,182.8C358.3,182.8,358.3,182.8,358.3,182.8z"/>
	<path class="st1" d="M380.8,91.4c-0.2,0.8-0.8,1-1.4,1.2c-0.5,0.1-1,0.3-1.3-0.2c-0.2-0.3-0.2-0.8,0-1.1c0.3-0.5,1.8-0.8,2.4-0.4
		C380.7,91,380.8,91.2,380.8,91.4z"/>
	<path class="st1" d="M352.2,182c1.1,2.5,1.7,2.5,4.6,0.5c-0.5,1.4-2,2.5-3.3,2.2C352.4,184.4,352.1,183.7,352.2,182z"/>
	<path class="st1" d="M312.7,137.7c-0.5,1.9-1.9,3.1-3.1,4.5C310.4,140.5,311.1,138.8,312.7,137.7L312.7,137.7z"/>
	<path class="st1" d="M287.4,156c-1,1.2-2.3,2-3.8,2.6c1-1.1,2.1-2.2,3.6-2.9C287.2,155.9,287.3,156,287.4,156z"/>
	<path class="st1" d="M306.8,145.3c-0.9,1-1.9,2-3.3,2.3c1-0.9,2-1.8,3-2.7C306.6,145,306.7,145.1,306.8,145.3z"/>
	<path class="st1" d="M403.9,154.6c0.4-1.7,1.2-2.7,1.9-3.7C405.4,152.1,404.9,153.2,403.9,154.6z"/>
	<path class="st1" d="M386.2,120.6c0.9-0.5,1.5-1.3,2.4-1.9C388,119.7,387.5,120.6,386.2,120.6z"/>
	<path class="st1" d="M339,120.3c0.6-1.4,1.2-2.8,2.5-3.7l0,0c-0.4,1.5-1.3,2.8-2.3,3.9C339.1,120.4,339.1,120.4,339,120.3z"/>
	<path class="st1" d="M374.8,102.4c0.3,1.1,0.1,2-0.9,2.7C373.8,104.1,374.2,103.3,374.8,102.4z"/>
	<path class="st1" d="M370.9,115.5c0-1.1,0-2.2,0-3.3c0,0,0.1,0,0.1,0c0,1.1,0,2.2,0,3.4C371,115.5,370.9,115.5,370.9,115.5z"/>
	<path class="st1" d="M394,113.4c0,1.7,0,1.8-2.4,2.2C392.6,114.8,393.9,114.7,394,113.4C394,113.4,394,113.4,394,113.4z"/>
	<path class="st1" d="M378.1,121.4c-1.1-0.5-1.1-1.3-1.7-2.1C377.6,119.6,377.6,120.4,378.1,121.4z"/>
	<path class="st1" d="M279.5,161.1c0.9-0.9,1.5-1.3,2.5-1.4C281.4,160.6,280.7,160.8,279.5,161.1z"/>
	<path class="st1" d="M341.5,116.6c-0.1-0.9,0.6-1.5,1.2-2C342.5,115.3,342.4,116.2,341.5,116.6
		C341.5,116.6,341.5,116.6,341.5,116.6z"/>
	<path class="st1" d="M347.3,117.1c-0.2-0.9,0.5-1.4,1.1-2.3C348.3,116,348,116.6,347.3,117.1C347.3,117.1,347.3,117.1,347.3,117.1z
		"/>
	<path class="st1" d="M312.7,137.7c-0.1-1,0.7-1.5,1.2-2.2C313.9,136.5,313.5,137.2,312.7,137.7
		C312.7,137.7,312.7,137.7,312.7,137.7z"/>
	<path class="st1" d="M358.3,181.8c0.5-0.3,1-0.6,1.6-0.9c-0.3,0.8-0.6,1.6-1.5,1.9c0,0,0,0,0,0
		C358.3,182.5,358.3,182.2,358.3,181.8z"/>
	<path class="st1" d="M354.6,111.4c-0.4-0.8,0.1-1.4,0.8-2.5C355.2,110.1,355,110.8,354.6,111.4
		C354.5,111.4,354.6,111.4,354.6,111.4z"/>
	<path class="st1" d="M296.1,144.8c0,0.6-0.3,1-0.8,1.2C295.2,145.3,295.8,145.1,296.1,144.8z"/>
	<path class="st1" d="M400.1,128.1c-0.1-0.8,0.2-1.4,0.9-2.4C400.8,126.9,400.7,127.6,400.1,128.1
		C400,128.1,400.1,128.1,400.1,128.1z"/>
</g>
<g>
	<path class="st2" d="M88.9,46.1c-2.3-2.1-3.9-4.6-4.5-7.6c-0.2-0.7-0.3-1.4-0.7-2c-1.5-2.4-3.1-4.6-3.8-7.4c-0.2-0.6-0.7-1.1-1-1.6
		c-1.5-2.5-3-5.1-3.1-8.2c0-0.8-0.6-1.3-0.9-1.9c-1.1-1.8-2-3.6-2.3-5.7c0-0.4-0.1-0.8-0.1-1.2c0-1.4,0.7-1.8,1.8-1.1
		c0.7,0.5,1.4,1.1,2,1.7c8.3,8.3,16.2,17.1,24,25.8c3.4,3.8,6.6,7.8,9.8,11.8c1.2,1.5,2.7,2.5,3.9,3.8c3.2,3.3,5.2,7.2,6.5,11.6
		c1,3.3,1.9,6.6,2.3,10c0.4,3.3,2,6.2,3.5,9.1c0.2,0.4,0.4,0.7,0.6,1c0.8,1.1,1.1,2.8,2.3,3.2c1.1,0.4,2.4-0.6,3.6-0.9
		c4.2-1.1,7-0.2,9.2,3.1c1.9,2.8,1.9,2.8,5.4,3.3c-3.1,0.8-4.1,2.9-5.2,5.1c-1.2,2.5-3.6,3.8-6,4.9c-1,0.5-1.7,1.1-2.1,2.1
		c-2,6.2-6.6,10.2-11.6,13.9c-1.9,1.4-3.9,2.5-6.1,3.3c-1.9,0.7-3.6,1.6-5.3,2.7c-4.2,2.7-7.1,6.5-9.8,10.6
		c-3.2,4.9-5.5,10.3-7.8,15.6c-2.1,2-2.9,4.6-3.7,7.2c-1.4,4.5-2.7,9-3.4,13.8c-0.5-1.5-0.5-1.5-0.3-2.9c0.6-4.3,2.1-8.3,3.1-12.5
		c1.3-5.7,4.1-11,4.8-16.9c0.1-1,0.1-1.9-0.1-2.9c-0.2-0.9-0.7-1-1.4-0.8c-0.2,0.1-0.4,0.2-0.7,0.3c-4.2,2.3-8.3,4.7-11.6,8.4
		c-9.2,10.2-17.1,21.3-24.9,32.5c-0.2,0.3-0.3,0.7-0.9,0.8c0.3-1.2,0.9-2.1,1.5-3c6-9,12.4-17.6,19.2-26c2.7-3.3,5.9-6.2,8-10.1
		c0.8-1.4,1.8-2.7,3-3.8c4.7-4.4,6.7-10.4,9.1-16.1c0.8-2,1.6-4,2.7-5.9c0.7-1.2,1.4-2.4,2.2-3.7c-0.8-0.3-1.2,0.1-1.7,0.3
		c-1,0.4-2.2,0.6-3,0.1c-1.3-0.7-2.6-1.5-4.2-1.4c-0.1,0-0.1-0.1-0.2-0.1c-1.2-0.3-0.5-2.1-1.8-2.2c-1-0.1-1.9-0.4-2.4-1.3
		c-0.3-0.5-0.6-0.6-1.2-0.5c-1.4,0.3-2.7-0.1-3.7-1.1c-0.3-0.3-0.6-0.6-1-0.5c-2.1,0.3-4.1-0.6-6.2-0.6c-2,0-3.9-0.5-5.5-1.7
		c0.2-0.4,0.3-0.5,0.5-0.4c3,1.7,6.1,1.5,9.2,0.3c4.2-1.6,8.5-3.3,12.7-4.9c0.4-0.1,0.7-0.5,1.4-0.1c-4.9,2.4-9.8,4.2-14.6,6.3
		c6,0.4,10.9-2.8,16.2-4.7c-1.7,1.6-3.9,2.3-5.9,3.2c-2,1-4.1,1.6-6.3,2.3c0.9,0.9,1.8,1.3,2.9,1c4.6-1.2,9.2-2.4,13.6-4.4
		c-0.4,1.1-1.3,1.5-2.3,1.8c-2.7,0.9-5.4,1.8-8.1,2.7c-0.4,0.1-0.9,0.2-0.8,0.7c0,0.5,0.5,0.8,1,0.8c1.5,0.2,2.8-0.4,4.2-0.7
		c2-0.5,3.8-1.6,5.9-1.8c-1.3,0.7-2.7,1.4-4,2c-1,0.4-2.1,0.7-3.2,1c-0.5,0.1-1,0.3-1,0.8c0,0.6,0.4,1.1,1.1,1.1
		c0.8,0.1,1.6,0.1,2.4,0c1.3-0.2,2.5-0.8,3.8-1.4c0.8-0.4,1.4-1.1,2.4-1c-1.4,1.6-3.5,2.2-5.4,3.3c3.4,1.5,7.5-0.7,9.1-4.7
		c-0.6-0.2-1.2-0.1-1.9,0c-0.2-1.1-0.8-1.8-2-1.8c0.7-1.3-0.3-2-1.1-2.8c-0.4-0.3-0.6-0.7-0.8-1.2c-0.1-0.3-0.3-0.6,0-0.9
		c1.9,2.2,1.9,2.2,5.9,2.5c-1,0.5-1.9,0.6-2.8,0.8c1.1,2.8,3.1,3.3,5,1.3c2.2-2.3,4.7-4.3,7.4-6.4c-3.4-1.6-5.9-3.9-8.6-6.2
		c-3.3-2.8-6.6-5.6-10.9-6.6c-0.5-0.1-1.1-0.3-1.6-0.3c-5-0.3-10-0.4-15,0.3c-1.4,0.2-2.9,0.2-4.4,0.5c4.4,1.9,8.9,1.4,13.5,0.7
		c-0.8,0.6-1.8,0.8-2.7,0.9c-1,0.1-2,0.4-3.3,0.6c3.1,2.9,6.7,2.4,10.3,2.5c-1.1,0.2-2.3,0.4-3.5,0.7c1.8,1.9,3.2,2.3,8.4,2.5
		c-2.4,1.3-7.4,0.5-8.7-1.7c-0.6-0.9-1.2-1.2-2-1.3c-1.8-0.1-3.3-0.9-4.5-2c-0.6-0.6-1.2-0.9-2.1-0.9c-1.3-0.1-2.7-0.1-3.8-0.6
		c-2.8-1.4-5.6-0.6-8.4-0.1c-0.6,0.1-1.3,0.2-1.9,0.2C57.1,85,49.9,86,42.7,87.2c-8.2,1.4-16.2,3.3-24.3,5.2c-2,0.5-4,0.9-6.2,1.8
		c8.1,0.8,15.6-0.1,23.1-1.9c7-1.7,13.9-3.4,21-4.4c5.6-0.8,11.1-2,16.8-2.4c0.1,0,0.3,0.1,0.9,0.3c-11.6,2.3-23.1,3.2-34.3,6.4
		c2.4,1,4.8,0.7,7.2,0.6c1.8-0.1,3.6-0.6,5.4-0.9c4.8-0.7,9.6-1.5,14.4-2.4c3.2-0.6,6.3-1.5,9.5-2.2c-2,1.4-4.4,1.8-6.6,2.4
		c-2.4,0.6-4.8,1-7.3,1.5c-2.4,0.4-4.9,0.8-7.3,1.2c-2.4,0.4-4.8,0.8-7.1,1.4c2.8,1.6,5.9,1.8,8.9,1.3c7.9-1.3,15.7-2.9,23.1-5.9
		c0.2-0.1,0.4,0,1.2,0c-3.9,2.1-7.7,3.2-11.5,4.2c-3.8,1-7.7,1.7-12.1,2.7c4.6,0.8,8.5,0.3,12.5-0.5c4.9-1,9.4-2.9,14.1-4.4
		c0.6-0.2,1.1-0.7,1.8-0.4c-0.2,0.4-0.6,0.5-1,0.7C79,94,72.9,96.3,66.4,97.1c-3.3,0.4-6.7,0.7-9.9-0.7c-0.7-0.3-1.4-0.2-2.1-0.1
		c-2.7,0.1-5.2-0.6-7.6-1.8c-0.8-0.4-1.6-0.7-2.5-0.6c-1.8,0.1-3.5-0.1-5.2-0.6c-1.4-0.4-2.7-0.4-4,0c-7.7,2.2-15.6,2.5-23.5,2.1
		c-0.9,0-1.7-0.1-2.4-0.7C9,93.9,9.6,93.8,10,93.7c7.8-2.1,15.5-4.3,23.4-5.7c8.1-1.5,16.1-3,24.3-3.7c4.4-0.4,8.8-1.2,13.2-1.9
		c1.5-0.2,3,0.1,4.5-0.2c5.2-1,10.5-0.8,15.8-1c1.9-0.1,3.8,0.2,5.7,0.3c2.4,0.1,4.4,1.2,6.6,2.3c0.4-0.7-0.3-1-0.3-1.4
		c-0.2-1.4-0.6-2.6-0.2-4.1c0.5-1.9-0.4-4-1.5-5.8c-0.5-0.8-1.2-1.6-0.6-2.6c0.1-0.1,0.1-0.4,0-0.4c-1.8-1.5-1.6-4.1-3.2-5.7
		c-1.3-1.4-2.1-3.1-2.8-4.9c-0.6-1.7-1.5-3.4-2.9-4.9c-1.5-1.6-2.9-3.3-3.7-5.3C88.2,47.7,87.8,46.8,88.9,46.1
		c-0.3,1.6,0.6,2.8,1.3,4c1.1,1.7,2.4,3.2,3.9,4.6c1.5,1.4,3,2.8,4.8,3.6c1.7,0.8,3.1,2.5,5.2,1.8c0.2-0.1,0.3,0,0.3,0.2
		c0.4,2,2,3.2,3.2,4.7c-1.4-0.4-2.3-1.4-3.1-2.6c-0.3-0.4-0.4-0.9-0.9-1.1c-2.8-1-5.5-2.4-8.1-3.7c2.2,2.7,5.1,4.4,8.1,6
		c-2.8-0.2-4.9-2.1-7.6-3.7c2.3,4,5.1,6.3,9,7.2c0.5-0.7-0.1-1.5,0.8-2.1c-0.1,3.1,2.1,4.6,4.4,6.4c-1.4-0.1-1.9-1-2.9-1.1
		c0,2.4,1.4,3.7,3.3,4.8c1.7,1,3.6,1.6,5.8,1.8c-1.4,0.7-1.3,0.6-1,1.5c0.2,0.8,1.1,1.2,1.5,2.2c-1.2-0.4-1.9-1.1-2-1.9
		c-0.2-1.2-1-1.4-2-1.7c-1.9-0.6-3.8-1.2-5.2-2.7c-1.2-1.3-4-3-6.2-3.7c0.8,2.9,3.3,3.7,5.4,5.1c-1.2,0.3-2-0.7-3.3-0.6
		c1.2,1.6,2.7,2.5,4.4,3.2c0.3-0.9-0.9-1.8,0.2-2.8c0.9,3.6,4,4.8,6.7,6.6c-1.6-0.5-3.2-0.7-4.3-2.1c-2.2-1.1-4.6-1.6-7-3.1
		c1,2.2,1.2,2.5,3,3.4c2.4,1.2,2.4,1.2,4-0.3c-0.4,1.8,0.8,2.8,1.9,3.8c1.7,1.7,3.9,2.6,6.3,3.5c-1.3,0.2-2.4-0.8-3.8-0.5
		c2.7,3.1,5.9,4.5,9.7,4.6c-0.4,0.9-1.2,1.2-2,1.5c0-0.4,0.7-1-0.4-1.2c-1.5-0.2-3-0.7-4.3-1.4c-1.6-0.9-3.2-1.7-4.2-3.4
		c-1.4-2.4-3.2-4.4-6-5.3c-1.1-0.3-2.1-0.7-3-1.4c-0.4-0.3-0.7-0.7-1.3-0.2c-0.2,1.2,0.8,1.7,1.5,2.2c2.2,1.5,4.4,2.9,6.6,4.4
		c-2.5-0.7-4.7-2.2-7.1-3.6c0.9,2.4,2.6,3.5,4.3,4.7c2.5,1.8,5,3.7,7.4,5.7c1.6,1.3,3.2,1.5,5,0.8c0.6,0.8,1.5,0.3,2.2,0.5
		c0.7,0.1,1.5-0.1,1.8,0.9c-1.1,0-2.2,0-3.3,0c-4,0.1-7.6,1.2-10.5,3.9c-2.5,2.3-5.2,4.3-7.3,7.1c-2.1,2.9-4.2,5.8-6,8.9
		c-1.1,2-2.3,4-2.4,6.2c-0.1,2-1.1,3.4-1.8,5c-1,2.1-2,4.2-1.9,6.6c0,1.3,0.6,1.8,1.9,1.8c0.6,0,1.1-0.3,1.6-0.5
		c3.5-1.8,6.7-4,9.8-6.4c2.8-2.1,5.7-4.1,8.9-5.6c4.4-2,8.6-4.4,12.2-7.8c2.8-2.7,5-5.7,6.7-9.2c0.5-1.1,0.1-1.5-0.9-1.6
		c-0.9-0.1-1.8-0.3-2-1.3c5,1.1,11.6-1.8,12.6-7.8c-1.3-0.3-2.9,2.2-4.1-0.5c1.7,0.2,3.3,0.1,4.9-0.7c-1.1-0.9-1.6-1.9-2.2-3
		c-1.5-2.5-3.7-3.7-6.6-3.3c-2.7,0.3-5.3,1.3-7.6,2.8c-0.9,0.6-1.6,1.3-2.7,1.5c0.7-1.6,2.7-1.8,3.7-3.2c-0.6-0.9-1.3-1.8-1.9-2.7
		c-2.2-3.4-4-6.9-4.6-10.9c-0.4-2.5-0.9-5-1.6-7.5c-1.2-4.2-2.6-8.4-5.3-11.9c-1-1.3-2.1-2.4-3.8-3.4c0.7,2.1,2.2,3,2.7,4.7
		c-0.6-0.5-1.2-1-1.8-1.6c0,0,0,0,0,0c-0.8-1.3-2.4-2.2-1.6-4.2c0.1-0.2-0.1-0.5-0.2-0.6c-1.4-1.5-2.4-3.4-4.1-4.6
		c-0.4-0.3-0.8-1-1.4-0.7c-0.7,0.4-0.6,1.1-0.4,1.7c0.3,1,0.7,1.9,1,2.9c0.2,0.8,0.8,1.5,0.9,2.7c-1.5-2.2-2.8-4.2-2.7-6.6
		c-0.4-1,0.9-1.3,0.9-2c-1.1-1.4-2.2-2.8-3.4-4.1c-8.4-9.4-16.9-18.7-25.6-27.8c-0.5-0.5-1-1.2-2-1.1c0,3,1.4,5.3,3.1,7.5
		c2.2,2.9,4.5,5.6,6.8,8.4C88.9,32.8,95,38.9,102.2,44c0.5,0.4,1.1,0.6,1.3,1.3c-1.2-0.3-2.1-1.1-3.1-1.7c-3.1-2.1-6-4.6-8.7-7.1
		c-4.8-4.5-9-9.5-13.1-14.7c-0.5-0.6-0.8-1.4-1.7-1.7c-0.2,0.6,0,1,0.1,1.3c1.1,3.6,3.2,6.6,5.6,9.4c5.1,6,10.8,11.3,17.1,16.1
		c0.4,0.3,0.9,0.7,1.3,1.1c-7.1-4-12.9-9.4-18.3-15.3c4.5,9.1,12.3,14.8,20.5,20.1c0.6-0.9-0.4-1.9,0.8-2.6c-0.3,1.7,0.7,2.9,1,4.3
		c0,0-0.1,0-0.1,0c-0.4,0.1-0.7,0.2-1.1,0.3l0.1,0c0.2-0.6,0.3-1-0.4-1.4c-4.3-2-8-5-11.7-7.9c-2.2-1.7-4-3.8-5.8-6
		c-0.1,0.4-0.1,0.6-0.1,0.7c0.1,0.3,0.3,0.6,0.4,0.9c2,3.4,4.6,6.3,7.9,8.6c2.4,1.6,4.8,3.2,7.2,4.8c0.4,0.3,1.1,0.4,1.1,1.4
		c-2.6-1.6-5.1-3.1-7.6-4.7c-1.2-0.8-2.4-1.6-3.5-2.6C90.5,48.1,89.4,47.4,88.9,46.1z M116.3,94.1c-4.4-3.4-8.8-6.6-13.5-9.6
		c-1.8-1.1-3.7-2-6.1-2.2c0.2,0.3,0.2,0.4,0.3,0.5c3.9,2,7.3,4.6,10.4,7.6c1.5,1.5,3.3,2.7,5.1,3.9C114,95.2,115.2,95.4,116.3,94.1z
		 M94.6,144c0.2,0.1,0.3,0.1,0.5,0.2c1.8-4.4,4.9-8.2,7.1-13.1c-1.9,1.2-3.2,2.2-4.7,3.1c-1.3,0.7-2.1,1.5-1.5,3.1
		c0.2,0.5-0.1,1.1-0.2,1.6C95.3,140.5,94.9,142.3,94.6,144z M106.1,71.7c0.4-0.9-0.1-1.7,0.3-2.5c0.3-0.7-0.2-1.4-0.7-1.5
		c-1.8-0.4-3.5-1.2-5.6-1.6C101.4,69,103.8,70.3,106.1,71.7z M89.9,133c-2.3,2-4.3,4.1-5.7,6.7c2.5-1.6,4.8-3.3,7.5-4.6
		C91,134.4,90.5,133.8,89.9,133z"/>
	<path class="st2" d="M90.3,92.3c-5.9,3.4-11.9,6.1-18.6,7.2c-2.2,0.4-4.6,0.6-6.7-0.8c0.5-0.7,0.9,0,1.2,0c0.4,0,0.8,0.1,1.2,0.2
		c3.2,0.4,6.3-0.4,9.4-1.3c4.2-1.3,8.2-3,12.3-4.6C89.5,92.7,89.9,92.5,90.3,92.3z"/>
	<path class="st2" d="M101.4,95.4c-3.4,1.1-6.4,0-7.7-2.7C95.7,94.8,98.2,95.5,101.4,95.4z"/>
	<path class="st2" d="M136.5,93c-0.1,0.6-0.5,0.7-0.8,0.6c-0.7-0.1-1.1-0.6-1.6-1c-0.3-0.3-1-0.4-0.6-1.1c0.3-0.4,0.8-0.5,1.3-0.4
		C136,91.4,135.2,93.1,136.5,93z"/>
	<path class="st2" d="M113.2,59.4c-0.4,1.3,0.1,2.4,0.7,3.4c0.8,1.1,1.6,2.2,2.4,3.3c-1.8-1-3.6-3.3-4-5.1
		C112.2,60.2,112.3,59.5,113.2,59.4C113.3,59.5,113.2,59.4,113.2,59.4z"/>
	<path class="st2" d="M103.9,54.9c0.4,2.2,1.4,4,3.3,5.1C104.3,59,103.3,57.5,103.9,54.9C104,54.9,103.9,54.9,103.9,54.9z"/>
	<path class="st2" d="M115.8,69.5c-1.5-0.3-1.1-1.7-1.5-2.7C115.2,67.5,115.2,68.7,115.8,69.5z"/>
	<path class="st2" d="M115.7,74.7c-1.4-1.3-1.1-2.2-0.6-3.7C115.4,72.4,115.5,73.4,115.7,74.7z"/>
	<path class="st2" d="M117.5,83.4c1,0.4,1.3,1.4,2,2.1C118.5,85,117.6,84.6,117.5,83.4L117.5,83.4z"/>
	<path class="st2" d="M112.7,57.9c-1.4-1.1-1.4-1.4-0.7-3.1c0,0,0-0.1,0-0.1C111.9,55.8,112.5,56.8,112.7,57.9L112.7,57.9z"/>
	<path class="st2" d="M105.1,54.5c0.8,0.3,1,1.1,1.4,1.7C105.8,55.8,105.1,55.5,105.1,54.5C105,54.6,105.1,54.5,105.1,54.5z"/>
	<path class="st2" d="M112.7,57.9c0.6,0,0.8,0.6,1.2,1c0.2,0.2,0.5,0.4,0.1,0.7c-0.2,0.1-0.4-0.5-0.8-0.1c0,0,0.1,0.1,0.1,0.1
		C113.3,58.9,112.6,58.5,112.7,57.9C112.7,57.9,112.7,57.9,112.7,57.9z"/>
	<path class="st2" d="M117.5,83.3c-0.7-0.1-0.4-0.8-0.6-1.1C117.5,82.4,117.7,82.8,117.5,83.3C117.5,83.4,117.5,83.3,117.5,83.3z"/>
</g>
</svg>
