<?xml version="1.0" encoding="utf-8"?>
<!-- Generator: Adobe Illustrator 28.0.0, SVG Export Plug-In . SVG Version: 6.00 Build 0)  -->
<svg version="1.1" id="Ebene_1" xmlns="http://www.w3.org/2000/svg" xmlns:xlink="http://www.w3.org/1999/xlink" x="0px" y="0px"
	 viewBox="0 0 155.3 183.8" style="enable-background:new 0 0 155.3 183.8;" xml:space="preserve">
<style type="text/css">
	.st0{opacity:0.6;}
	.st1{fill:#FFFFFF;}
</style>
<g class="st0">
	<path class="st1" d="M88.9,46.1c-2.3-2.1-3.9-4.6-4.5-7.6c-0.2-0.7-0.3-1.4-0.7-2c-1.5-2.4-3.1-4.6-3.8-7.4c-0.2-0.6-0.7-1.1-1-1.6
		c-1.5-2.5-3-5.1-3.1-8.2c0-0.8-0.6-1.3-0.9-1.9c-1.1-1.8-2-3.6-2.3-5.7c0-0.4-0.1-0.8-0.1-1.2c0-1.4,0.7-1.8,1.8-1.1
		c0.7,0.5,1.4,1.1,2,1.7c8.3,8.3,16.2,17.1,24,25.8c3.4,3.8,6.6,7.8,9.8,11.8c1.2,1.5,2.7,2.5,3.9,3.8c3.2,3.3,5.2,7.2,6.5,11.6
		c1,3.3,1.9,6.6,2.3,10c0.4,3.3,2,6.2,3.5,9.1c0.2,0.4,0.4,0.7,0.6,1c0.8,1.1,1.1,2.8,2.3,3.2c1.1,0.4,2.4-0.6,3.6-0.9
		c4.2-1.1,7-0.2,9.2,3.1c1.9,2.8,1.9,2.8,5.4,3.3c-3.1,0.8-4.1,2.9-5.2,5.1c-1.2,2.5-3.6,3.8-6,4.9c-1,0.5-1.7,1.1-2.1,2.1
		c-2,6.2-6.6,10.2-11.6,13.9c-1.9,1.4-3.9,2.5-6.1,3.3c-1.9,0.7-3.6,1.6-5.3,2.7c-4.2,2.7-7.1,6.5-9.8,10.6
		c-3.2,4.9-5.5,10.3-7.8,15.6c-2.1,2-2.9,4.6-3.7,7.2c-1.4,4.5-2.7,9-3.4,13.8c-0.5-1.5-0.5-1.5-0.3-2.9c0.6-4.3,2.1-8.3,3.1-12.5
		c1.3-5.7,4.1-11,4.8-16.9c0.1-1,0.1-1.9-0.1-2.9c-0.2-0.9-0.7-1-1.4-0.8c-0.2,0.1-0.4,0.2-0.7,0.3c-4.2,2.3-8.3,4.7-11.6,8.4
		C71,155,63.1,166.1,55.3,177.3c-0.2,0.3-0.3,0.7-0.9,0.8c0.3-1.2,0.9-2.1,1.5-3c6-9,12.4-17.6,19.2-26c2.7-3.3,5.9-6.2,8-10.1
		c0.8-1.4,1.8-2.7,3-3.8c4.7-4.4,6.7-10.4,9.1-16.1c0.8-2,1.6-4,2.7-5.9c0.7-1.2,1.4-2.4,2.2-3.7c-0.8-0.3-1.2,0.1-1.7,0.3
		c-1,0.4-2.2,0.6-3,0.1c-1.3-0.7-2.6-1.5-4.2-1.4c-0.1,0-0.1-0.1-0.2-0.1c-1.2-0.3-0.5-2.1-1.8-2.2c-1-0.1-1.9-0.4-2.4-1.3
		c-0.3-0.5-0.6-0.6-1.2-0.5c-1.4,0.3-2.7-0.1-3.7-1.1c-0.3-0.3-0.6-0.6-1-0.5c-2.1,0.3-4.1-0.6-6.2-0.6c-2,0-3.9-0.5-5.5-1.7
		c0.2-0.4,0.3-0.5,0.5-0.4c3,1.7,6.1,1.5,9.2,0.3c4.2-1.6,8.5-3.3,12.7-4.9c0.4-0.1,0.7-0.5,1.4-0.1c-4.9,2.4-9.8,4.2-14.6,6.3
		c6,0.4,10.9-2.8,16.2-4.7c-1.7,1.6-3.9,2.3-5.9,3.2c-2,1-4.1,1.6-6.3,2.3c0.9,0.9,1.8,1.3,2.9,1c4.6-1.2,9.2-2.4,13.6-4.4
		c-0.4,1.1-1.3,1.5-2.3,1.8c-2.7,0.9-5.4,1.8-8.1,2.7c-0.4,0.1-0.9,0.2-0.8,0.7c0,0.5,0.5,0.8,1,0.8c1.5,0.2,2.8-0.4,4.2-0.7
		c2-0.5,3.8-1.6,5.9-1.8c-1.3,0.7-2.7,1.4-4,2c-1,0.4-2.1,0.7-3.2,1c-0.5,0.1-1,0.3-1,0.8c0,0.6,0.4,1.1,1.1,1.1
		c0.8,0.1,1.6,0.1,2.4,0c1.3-0.2,2.5-0.8,3.8-1.4c0.8-0.4,1.4-1.1,2.4-1c-1.4,1.6-3.5,2.2-5.4,3.3c3.4,1.5,7.5-0.7,9.1-4.7
		c-0.6-0.2-1.2-0.1-1.9,0c-0.2-1.1-0.8-1.8-2-1.8c0.7-1.3-0.3-2-1.1-2.8c-0.4-0.3-0.6-0.7-0.8-1.2c-0.1-0.3-0.3-0.6,0-0.9
		c1.9,2.2,1.9,2.2,5.9,2.5c-1,0.5-1.9,0.6-2.8,0.8c1.1,2.8,3.1,3.3,5,1.3c2.2-2.3,4.7-4.3,7.4-6.4c-3.4-1.6-5.9-3.9-8.6-6.2
		c-3.3-2.8-6.6-5.6-10.9-6.6c-0.5-0.1-1.1-0.3-1.6-0.3c-5-0.3-10-0.4-15,0.3c-1.4,0.2-2.9,0.2-4.4,0.5c4.4,1.9,8.9,1.4,13.5,0.7
		c-0.8,0.6-1.8,0.8-2.7,0.9c-1,0.1-2,0.4-3.3,0.6c3.1,2.9,6.7,2.4,10.3,2.5c-1.1,0.2-2.3,0.4-3.5,0.7c1.8,1.9,3.2,2.3,8.4,2.5
		c-2.4,1.3-7.4,0.5-8.7-1.7c-0.6-0.9-1.2-1.2-2-1.3c-1.8-0.1-3.3-0.9-4.5-2c-0.6-0.6-1.2-0.9-2.1-0.9c-1.3-0.1-2.7-0.1-3.8-0.6
		c-2.8-1.4-5.6-0.6-8.4-0.1c-0.6,0.1-1.3,0.2-1.9,0.2C57.1,85,49.9,86,42.7,87.2c-8.2,1.4-16.2,3.3-24.3,5.2c-2,0.5-4,0.9-6.2,1.8
		c8.1,0.8,15.6-0.1,23.1-1.9c7-1.7,13.9-3.4,21-4.4c5.6-0.8,11.1-2,16.8-2.4c0.1,0,0.3,0.1,0.9,0.3c-11.6,2.3-23.1,3.2-34.3,6.4
		c2.4,1,4.8,0.7,7.2,0.6c1.8-0.1,3.6-0.6,5.4-0.9c4.8-0.7,9.6-1.5,14.4-2.4c3.2-0.6,6.3-1.5,9.5-2.2c-2,1.4-4.4,1.8-6.6,2.4
		c-2.4,0.6-4.8,1-7.3,1.5c-2.4,0.4-4.9,0.8-7.3,1.2c-2.4,0.4-4.8,0.8-7.1,1.4c2.8,1.6,5.9,1.8,8.9,1.3c7.9-1.3,15.7-2.9,23.1-5.9
		c0.2-0.1,0.4,0,1.2,0c-3.9,2.1-7.7,3.2-11.5,4.2s-7.7,1.7-12.1,2.7c4.6,0.8,8.5,0.3,12.5-0.5c4.9-1,9.4-2.9,14.1-4.4
		c0.6-0.2,1.1-0.7,1.8-0.4c-0.2,0.4-0.6,0.5-1,0.7c-5.9,2.5-12,4.8-18.5,5.6c-3.3,0.4-6.7,0.7-9.9-0.7c-0.7-0.3-1.4-0.2-2.1-0.1
		c-2.7,0.1-5.2-0.6-7.6-1.8c-0.8-0.4-1.6-0.7-2.5-0.6c-1.8,0.1-3.5-0.1-5.2-0.6c-1.4-0.4-2.7-0.4-4,0c-7.7,2.2-15.6,2.5-23.5,2.1
		c-0.9,0-1.7-0.1-2.4-0.7c-0.2-0.8,0.4-0.9,0.8-1c7.8-2.1,15.5-4.3,23.4-5.7c8.1-1.5,16.1-3,24.3-3.7c4.4-0.4,8.8-1.2,13.2-1.9
		c1.5-0.2,3,0.1,4.5-0.2c5.2-1,10.5-0.8,15.8-1c1.9-0.1,3.8,0.2,5.7,0.3c2.4,0.1,4.4,1.2,6.6,2.3c0.4-0.7-0.3-1-0.3-1.4
		c-0.2-1.4-0.6-2.6-0.2-4.1c0.5-1.9-0.4-4-1.5-5.8c-0.5-0.8-1.2-1.6-0.6-2.6c0.1-0.1,0.1-0.4,0-0.4c-1.8-1.5-1.6-4.1-3.2-5.7
		c-1.3-1.4-2.1-3.1-2.8-4.9c-0.6-1.7-1.5-3.4-2.9-4.9c-1.5-1.6-2.9-3.3-3.7-5.3C88.2,47.7,87.8,46.8,88.9,46.1
		c-0.3,1.6,0.6,2.8,1.3,4c1.1,1.7,2.4,3.2,3.9,4.6c1.5,1.4,3,2.8,4.8,3.6c1.7,0.8,3.1,2.5,5.2,1.8c0.2-0.1,0.3,0,0.3,0.2
		c0.4,2,2,3.2,3.2,4.7c-1.4-0.4-2.3-1.4-3.1-2.6c-0.3-0.4-0.4-0.9-0.9-1.1c-2.8-1-5.5-2.4-8.1-3.7c2.2,2.7,5.1,4.4,8.1,6
		c-2.8-0.2-4.9-2.1-7.6-3.7c2.3,4,5.1,6.3,9,7.2c0.5-0.7-0.1-1.5,0.8-2.1c-0.1,3.1,2.1,4.6,4.4,6.4c-1.4-0.1-1.9-1-2.9-1.1
		c0,2.4,1.4,3.7,3.3,4.8c1.7,1,3.6,1.6,5.8,1.8c-1.4,0.7-1.3,0.6-1,1.5c0.2,0.8,1.1,1.2,1.5,2.2c-1.2-0.4-1.9-1.1-2-1.9
		c-0.2-1.2-1-1.4-2-1.7c-1.9-0.6-3.8-1.2-5.2-2.7c-1.2-1.3-4-3-6.2-3.7c0.8,2.9,3.3,3.7,5.4,5.1c-1.2,0.3-2-0.7-3.3-0.6
		c1.2,1.6,2.7,2.5,4.4,3.2c0.3-0.9-0.9-1.8,0.2-2.8c0.9,3.6,4,4.8,6.7,6.6c-1.6-0.5-3.2-0.7-4.3-2.1c-2.2-1.1-4.6-1.6-7-3.1
		c1,2.2,1.2,2.5,3,3.4c2.4,1.2,2.4,1.2,4-0.3c-0.4,1.8,0.8,2.8,1.9,3.8c1.7,1.7,3.9,2.6,6.3,3.5c-1.3,0.2-2.4-0.8-3.8-0.5
		c2.7,3.1,5.9,4.5,9.7,4.6c-0.4,0.9-1.2,1.2-2,1.5c0-0.4,0.7-1-0.4-1.2c-1.5-0.2-3-0.7-4.3-1.4c-1.6-0.9-3.2-1.7-4.2-3.4
		c-1.4-2.4-3.2-4.4-6-5.3c-1.1-0.3-2.1-0.7-3-1.4c-0.4-0.3-0.7-0.7-1.3-0.2c-0.2,1.2,0.8,1.7,1.5,2.2c2.2,1.5,4.4,2.9,6.6,4.4
		c-2.5-0.7-4.7-2.2-7.1-3.6c0.9,2.4,2.6,3.5,4.3,4.7c2.5,1.8,5,3.7,7.4,5.7c1.6,1.3,3.2,1.5,5,0.8c0.6,0.8,1.5,0.3,2.2,0.5
		c0.7,0.1,1.5-0.1,1.8,0.9c-1.1,0-2.2,0-3.3,0c-4,0.1-7.6,1.2-10.5,3.9c-2.5,2.3-5.2,4.3-7.3,7.1c-2.1,2.9-4.2,5.8-6,8.9
		c-1.1,2-2.3,4-2.4,6.2c-0.1,2-1.1,3.4-1.8,5c-1,2.1-2,4.2-1.9,6.6c0,1.3,0.6,1.8,1.9,1.8c0.6,0,1.1-0.3,1.6-0.5
		c3.5-1.8,6.7-4,9.8-6.4c2.8-2.1,5.7-4.1,8.9-5.6c4.4-2,8.6-4.4,12.2-7.8c2.8-2.7,5-5.7,6.7-9.2c0.5-1.1,0.1-1.5-0.9-1.6
		c-0.9-0.1-1.8-0.3-2-1.3c5,1.1,11.6-1.8,12.6-7.8c-1.3-0.3-2.9,2.2-4.1-0.5c1.7,0.2,3.3,0.1,4.9-0.7c-1.1-0.9-1.6-1.9-2.2-3
		c-1.5-2.5-3.7-3.7-6.6-3.3c-2.7,0.3-5.3,1.3-7.6,2.8c-0.9,0.6-1.6,1.3-2.7,1.5c0.7-1.6,2.7-1.8,3.7-3.2c-0.6-0.9-1.3-1.8-1.9-2.7
		c-2.2-3.4-4-6.9-4.6-10.9c-0.4-2.5-0.9-5-1.6-7.5c-1.2-4.2-2.6-8.4-5.3-11.9c-1-1.3-2.1-2.4-3.8-3.4c0.7,2.1,2.2,3,2.7,4.7
		c-0.6-0.5-1.2-1-1.8-1.6l0,0c-0.8-1.3-2.4-2.2-1.6-4.2c0.1-0.2-0.1-0.5-0.2-0.6c-1.4-1.5-2.4-3.4-4.1-4.6c-0.4-0.3-0.8-1-1.4-0.7
		c-0.7,0.4-0.6,1.1-0.4,1.7c0.3,1,0.7,1.9,1,2.9c0.2,0.8,0.8,1.5,0.9,2.7c-1.5-2.2-2.8-4.2-2.7-6.6c-0.4-1,0.9-1.3,0.9-2
		c-1.1-1.4-2.2-2.8-3.4-4.1C92.5,30.3,84,21,75.3,11.9c-0.5-0.5-1-1.2-2-1.1c0,3,1.4,5.3,3.1,7.5c2.2,2.9,4.5,5.6,6.8,8.4
		c5.7,6.1,11.8,12.2,19,17.3c0.5,0.4,1.1,0.6,1.3,1.3c-1.2-0.3-2.1-1.1-3.1-1.7c-3.1-2.1-6-4.6-8.7-7.1c-4.8-4.5-9-9.5-13.1-14.7
		c-0.5-0.6-0.8-1.4-1.7-1.7c-0.2,0.6,0,1,0.1,1.3c1.1,3.6,3.2,6.6,5.6,9.4c5.1,6,10.8,11.3,17.1,16.1c0.4,0.3,0.9,0.7,1.3,1.1
		c-7.1-4-12.9-9.4-18.3-15.3c4.5,9.1,12.3,14.8,20.5,20.1c0.6-0.9-0.4-1.9,0.8-2.6c-0.3,1.7,0.7,2.9,1,4.3h-0.1
		c-0.4,0.1-0.7,0.2-1.1,0.3h0.1c0.2-0.6,0.3-1-0.4-1.4c-4.3-2-8-5-11.7-7.9c-2.2-1.7-4-3.8-5.8-6c-0.1,0.4-0.1,0.6-0.1,0.7
		c0.1,0.3,0.3,0.6,0.4,0.9c2,3.4,4.6,6.3,7.9,8.6c2.4,1.6,4.8,3.2,7.2,4.8c0.4,0.3,1.1,0.4,1.1,1.4c-2.6-1.6-5.1-3.1-7.6-4.7
		c-1.2-0.8-2.4-1.6-3.5-2.6C90.5,48.1,89.4,47.4,88.9,46.1z M116.3,94.1c-4.4-3.4-8.8-6.6-13.5-9.6c-1.8-1.1-3.7-2-6.1-2.2
		c0.2,0.3,0.2,0.4,0.3,0.5c3.9,2,7.3,4.6,10.4,7.6c1.5,1.5,3.3,2.7,5.1,3.9C114,95.2,115.2,95.4,116.3,94.1z M94.6,144
		c0.2,0.1,0.3,0.1,0.5,0.2c1.8-4.4,4.9-8.2,7.1-13.1c-1.9,1.2-3.2,2.2-4.7,3.1c-1.3,0.7-2.1,1.5-1.5,3.1c0.2,0.5-0.1,1.1-0.2,1.6
		C95.3,140.5,94.9,142.3,94.6,144z M106.1,71.7c0.4-0.9-0.1-1.7,0.3-2.5c0.3-0.7-0.2-1.4-0.7-1.5c-1.8-0.4-3.5-1.2-5.6-1.6
		C101.4,69,103.8,70.3,106.1,71.7z M89.9,133c-2.3,2-4.3,4.1-5.7,6.7c2.5-1.6,4.8-3.3,7.5-4.6C91,134.4,90.5,133.8,89.9,133z"/>
	<path class="st1" d="M90.3,92.3c-5.9,3.4-11.9,6.1-18.6,7.2c-2.2,0.4-4.6,0.6-6.7-0.8c0.5-0.7,0.9,0,1.2,0c0.4,0,0.8,0.1,1.2,0.2
		c3.2,0.4,6.3-0.4,9.4-1.3c4.2-1.3,8.2-3,12.3-4.6C89.5,92.7,89.9,92.5,90.3,92.3z"/>
	<path class="st1" d="M101.4,95.4c-3.4,1.1-6.4,0-7.7-2.7C95.7,94.8,98.2,95.5,101.4,95.4z"/>
	<path class="st1" d="M136.5,93c-0.1,0.6-0.5,0.7-0.8,0.6c-0.7-0.1-1.1-0.6-1.6-1c-0.3-0.3-1-0.4-0.6-1.1c0.3-0.4,0.8-0.5,1.3-0.4
		C136,91.4,135.2,93.1,136.5,93z"/>
	<path class="st1" d="M113.2,59.4c-0.4,1.3,0.1,2.4,0.7,3.4c0.8,1.1,1.6,2.2,2.4,3.3c-1.8-1-3.6-3.3-4-5.1
		C112.2,60.2,112.3,59.5,113.2,59.4C113.3,59.5,113.2,59.4,113.2,59.4z"/>
	<path class="st1" d="M103.9,54.9c0.4,2.2,1.4,4,3.3,5.1C104.3,59,103.3,57.5,103.9,54.9C104,54.9,103.9,54.9,103.9,54.9z"/>
	<path class="st1" d="M115.8,69.5c-1.5-0.3-1.1-1.7-1.5-2.7C115.2,67.5,115.2,68.7,115.8,69.5z"/>
	<path class="st1" d="M115.7,74.7c-1.4-1.3-1.1-2.2-0.6-3.7C115.4,72.4,115.5,73.4,115.7,74.7z"/>
	<path class="st1" d="M117.5,83.4c1,0.4,1.3,1.4,2,2.1C118.5,85,117.6,84.6,117.5,83.4L117.5,83.4z"/>
	<path class="st1" d="M112.7,57.9c-1.4-1.1-1.4-1.4-0.7-3.1v-0.1C111.9,55.8,112.5,56.8,112.7,57.9L112.7,57.9z"/>
	<path class="st1" d="M105.1,54.5c0.8,0.3,1,1.1,1.4,1.7C105.8,55.8,105.1,55.5,105.1,54.5C105,54.6,105.1,54.5,105.1,54.5z"/>
	<path class="st1" d="M112.7,57.9c0.6,0,0.8,0.6,1.2,1c0.2,0.2,0.5,0.4,0.1,0.7c-0.2,0.1-0.4-0.5-0.8-0.1l0.1,0.1
		C113.3,58.9,112.6,58.5,112.7,57.9L112.7,57.9z"/>
	<path class="st1" d="M117.5,83.3c-0.7-0.1-0.4-0.8-0.6-1.1C117.5,82.4,117.7,82.8,117.5,83.3C117.5,83.4,117.5,83.3,117.5,83.3z"/>
</g>
</svg>
