<?xml version="1.0" encoding="UTF-8"?><svg id="Ebene_2" xmlns="http://www.w3.org/2000/svg" viewBox="0 0 275.59 278.19"><defs><style>.cls-1{fill:#f19530;stroke-width:0px;}</style></defs><g id="Ebene_1-2"><g id="Capture-Form_3"><path class="cls-1" d="m240.53,225.49c-1.61,1.67-3.25,3.31-4.75,5.07-.45.53-.75,1.56-.07,1.72,10.88-10.47,22.11-21.58,26.75-35.95-6.1,10.55-13.48,20.36-21.92,29.15Z"/><path class="cls-1" d="m49.49,229.33c.82,1.54,2.18,2.79,3.79,3.48-.81-1.57-2.15-2.87-3.74-3.64l-.05.16Z"/><path class="cls-1" d="m47.42,227c-8.29-8.79-15.34-18.75-20.89-29.49-2.09-4.05-3.96-8.2-5.84-12.35.04,3.26,1.5,6.31,2.97,9.21,6.12,12.1,13.18,24.15,23.76,32.63h0Z"/><path class="cls-1" d="m19.4,82.58c-.75-.03-1.31.96-.9,1.59.59-.33.96-1.01.92-1.68l-.02.09Z"/><path class="cls-1" d="m63.47,28.12c-.45.21-.06,1,.44.97.5-.04.84-.51,1.09-.94-.46-.08-.91-.17-1.37-.25l-.16.23Z"/><path class="cls-1" d="m66.18,26.35c-.57-.08-.46,1.02.11,1.07s1-.49,1.32-.97c-.4-.08-.8-.15-1.21-.23l-.23.13Z"/><path class="cls-1" d="m100.07,12.94c1.18.17,2.42-.19,3.32-.95-1.17-.24-2.44.15-3.28,1l-.05-.05Z"/><path class="cls-1" d="m100.06,12.96c-1.99-.28-4.1.34-5.62,1.65,1.97-.09,3.92-.66,5.62-1.65Z"/><path class="cls-1" d="m151.68,9.3c.1-.49-.58-.74-1.08-.77-11.61-.86-23.3-.75-34.89.34-3.32.31-6.87.81-9.32,3.07,1.37,1.13,3.29-.24,4.91-.97,1.24-.56,2.62-.71,3.98-.84,12.09-1.18,24.27-1.45,36.4-.82Z"/><path class="cls-1" d="m74.3,32.57c-5.07,1.87-9.6,4.98-13.83,8.34-11.52,9.14-21.38,20.35-28.96,32.95,1.76-.53,2.89-2.19,3.92-3.71,10.12-15.07,23.46-27.97,38.87-37.58Z"/><path class="cls-1" d="m20.47,95.97c-5.02,13.7-7.72,28.24-7.97,42.82-.05,2.82.02,5.76,1.32,8.26-.62-20.62,3.48-41.37,11.89-60.21-2.6,2.41-4.02,5.8-5.24,9.12Z"/><path class="cls-1" d="m195.29,247.24c-24.84-.53-49.2,6.74-74.01,8.11-6.2.34-12.42.31-18.62-.09,10.69,3.14,22.12,1.65,33.16.14,19.82-2.72,39.65-5.44,59.47-8.16Z"/><path class="cls-1" d="m19.17,87.88c26.91-17.86,54.21-36.06,75.11-60.69,2.34-2.76,4.66-5.65,7.77-7.51,2.68-1.6,5.79-2.33,8.85-2.92,46.68-9.02,97.72,10.56,126.39,48.5,9.77,12.93,17,27.61,23.13,42.61-9.2-33.43-32.35-62.78-62.71-79.52s-67.54-20.65-100.72-10.59C63.81,27.81,35.07,51.71,19.11,82.49c19.12-28.52,45.35-54.83,78.87-62.25-13.82,17.3-30.28,32.48-48.64,44.86-10.48,7.07-21.74,13.37-30.18,22.79Z"/><path class="cls-1" d="m271.91,119.63c1.58,12.99,1.8,26.1,2.03,39.18l.11,6.71c2.62-15.21,1.88-30.99-2.14-45.89Z"/><path class="cls-1" d="m3.04,176.01c1.94,16.84,10.06,32.37,19.67,46.34.51.74,1.28,1.58,2.14,1.32-9.59-14.68-16.97-30.8-21.81-47.66Z"/><path class="cls-1" d="m243.08,50.51c4.36,4.25,8.76,8.56,11.98,13.73,3.76,6.05,5.73,13.02,7.66,19.89.74,2.62,1.47,5.25,2.21,7.87.48-19.59-11.54-38.46-28.6-48.09,2.25,2.2,4.51,4.4,6.76,6.6Z"/><path class="cls-1" d="m44.43,243.54c-5.81-6.43-11.63-12.86-17.44-19.3,7.85,20.04,28.1,32.3,48.05,40.37,14.72,5.96,30.09,10.48,45.84,12.46,26.18,3.3,53.49-.68,76.85-12.95,8.75-4.59,16.86-10.28,24.95-15.95,7.99-5.6,16.01-11.23,22.96-18.07,20.12-19.81,29.74-49.73,24.95-77.55.47,17.65-2.04,35.59-9.28,51.69-7.24,16.1-19.48,30.26-35.35,38,3.43-2.43,5.75-6.38,6.18-10.56-5.12,10.31-15.5,17.81-26.89,19.45,25.8-15.77,46.07-40.41,56.58-68.76,10.51-28.36,11.19-60.25,1.9-89.03-7.05-17.62-16.55-34.26-28.16-49.28C213.15,21.92,183.77,6.91,152.68,1.89c-31.1-5.02-63.76,0-91.83,14.29C36.24,28.69,14.57,49.33,6.68,75.78c-2.78,9.33-3.79,19.08-4.73,28.77-1.36,14.09-2.6,28.27-1.57,42.39,3.86,53.14,42.87,101.98,93.84,117.49,11.1,3.38,22.61,5.29,34.17,6.16,13.92,1.05,28.11.57,41.52-3.31,15.78-4.56,30.1-13.69,46.2-16.93-26.25,19.34-59.78,28.52-92.22,25.25-32.44-3.27-63.46-18.97-85.32-43.16,8.32,11.68,19.4,21.38,32.07,28.1-10.69-.53-19.04-9.05-26.22-16.99m64.22,15.25c-7.23-1.11-14.14-3.77-20.67-7.07-20.59-10.39-37.62-27.06-50.41-46.25-12.79-19.19-21.5-40.85-27.83-63.02-1.43-5-2.75-10.09-2.99-15.29-.37-8.11,1.9-16.07,4.16-23.87,1.09-3.78,2.19-7.57,3.46-11.3C25.39,59.59,50.14,32.1,81.22,17.75c20.3-9.38,43.1-13.25,65.38-11.23,36.41,3.3,71.06,22.79,92.78,52.2,21.72,29.41,30.16,68.26,22.6,104.03-7.69,36.39-31.93,69.05-64.78,86.5-6.11,3.24-12.53,6-19.28,7.47-6.55,1.42-13.29,1.61-19.99,1.8-10.39.29-20.77.58-31.16.87-6.04.17-12.12.33-18.1-.58m57.69,1.73c-14.46,2.82-29.29,3.71-43.98,2.63,5.46,1.05,10.92,2.1,16.38,3.14-34.7.32-69.46-13.22-94.35-37.4-24.89-24.18-39.47-58.81-38.72-93.51,6.95,26.8,16.97,53.15,33.02,75.7,16.06,22.55,38.6,41.16,65.15,49.03,4.52,1.34,9.26,2.38,13.94,1.77,16.09-2.1,32.38-2.56,48.56-1.37M4.82,99.17c.57-23.05,12.05-45.03,28.58-61.1C49.94,22,71.2,11.44,93.26,4.7c2.32-.71,5.5-1.04,6.56,1.15C54.66,16.85,17.95,54.59,4.82,99.17Z"/></g></g></svg>