<?xml version="1.0" encoding="UTF-8"?><svg id="Ebene_2" xmlns="http://www.w3.org/2000/svg" xmlns:xlink="http://www.w3.org/1999/xlink" viewBox="0 0 517.33 226.36"><defs><style>.cls-1{clip-path:url(#clippath);}.cls-2{fill:none;}.cls-2,.cls-3,.cls-4,.cls-5{stroke-width:0px;}.cls-6{clip-path:url(#clippath-1);}.cls-7{clip-path:url(#clippath-4);}.cls-8{clip-path:url(#clippath-3);}.cls-9{clip-path:url(#clippath-2);}.cls-10{clip-path:url(#clippath-7);}.cls-11{clip-path:url(#clippath-8);}.cls-12{clip-path:url(#clippath-6);}.cls-13{clip-path:url(#clippath-5);}.cls-14{clip-path:url(#clippath-9);}.cls-15{clip-path:url(#clippath-13);}.cls-16{clip-path:url(#clippath-12);}.cls-17{clip-path:url(#clippath-10);}.cls-18{clip-path:url(#clippath-11);}.cls-4{fill:#f18d13;}.cls-5{fill:#010101;}</style><clipPath id="clippath"><path class="cls-2" d="m136.28,226.36h227.73v-68.73h-227.73v68.73Zm0-226.36v65.01l7.64,6.07,16.84.59,162.72,1.17,36.03,22.52,4.7-12.14V0h-227.92Z"/></clipPath><clipPath id="clippath-1"><path class="cls-2" d="m136.28,226.36h227.73v-68.73h-227.73v68.73Zm0-226.36v65.01l7.64,6.07,16.84.59,162.72,1.17,36.03,22.52,4.7-12.14V0h-227.92Z"/></clipPath><clipPath id="clippath-2"><path class="cls-2" d="m136.28,226.36h227.73v-68.73h-227.73v68.73Zm0-226.36v65.01l7.64,6.07,16.84.59,162.72,1.17,36.03,22.52,4.7-12.14V0h-227.92Z"/></clipPath><clipPath id="clippath-3"><path class="cls-2" d="m136.28,226.36h227.73v-68.73h-227.73v68.73Zm0-226.36v65.01l7.64,6.07,16.84.59,162.72,1.17,36.03,22.52,4.7-12.14V0h-227.92Z"/></clipPath><clipPath id="clippath-4"><path class="cls-2" d="m136.28,226.36h227.73v-68.73h-227.73v68.73Zm0-226.36v65.01l7.64,6.07,16.84.59,162.72,1.17,36.03,22.52,4.7-12.14V0h-227.92Z"/></clipPath><clipPath id="clippath-5"><path class="cls-2" d="m136.28,226.36h227.73v-68.73h-227.73v68.73Zm0-226.36v65.01l7.64,6.07,16.84.59,162.72,1.17,36.03,22.52,4.7-12.14V0h-227.92Z"/></clipPath><clipPath id="clippath-6"><path class="cls-2" d="m136.28,226.36h227.73v-68.73h-227.73v68.73Zm0-226.36v65.01l7.64,6.07,16.84.59,162.72,1.17,36.03,22.52,4.7-12.14V0h-227.92Z"/></clipPath><clipPath id="clippath-7"><path class="cls-2" d="m136.28,226.36h227.73v-68.73h-227.73v68.73Zm0-226.36v65.01l7.64,6.07,16.84.59,162.72,1.17,36.03,22.52,4.7-12.14V0h-227.92Z"/></clipPath><clipPath id="clippath-8"><path class="cls-2" d="m136.28,226.36h227.73v-68.73h-227.73v68.73Zm0-226.36v65.01l7.64,6.07,16.84.59,162.72,1.17,36.03,22.52,4.7-12.14V0h-227.92Z"/></clipPath><clipPath id="clippath-9"><path class="cls-2" d="m136.28,226.36h227.73v-68.73h-227.73v68.73Zm0-226.36v65.01l7.64,6.07,16.84.59,162.72,1.17,36.03,22.52,4.7-12.14V0h-227.92Z"/></clipPath><clipPath id="clippath-10"><path class="cls-2" d="m136.28,226.36h227.73v-68.73h-227.73v68.73Zm0-226.36v65.01l7.64,6.07,16.84.59,162.72,1.17,36.03,22.52,4.7-12.14V0h-227.92Z"/></clipPath><clipPath id="clippath-11"><path class="cls-2" d="m136.28,226.36h227.73v-68.73h-227.73v68.73Zm0-226.36v65.01l7.64,6.07,16.84.59,162.72,1.17,36.03,22.52,4.7-12.14V0h-227.92Z"/></clipPath><clipPath id="clippath-12"><path class="cls-2" d="m136.28,226.36h227.73v-68.73h-227.73v68.73Zm0-226.36v65.01l7.64,6.07,16.84.59,162.72,1.17,36.03,22.52,4.7-12.14V0h-227.92Z"/></clipPath><clipPath id="clippath-13"><path class="cls-2" d="m136.28,226.36h227.73v-68.73h-227.73v68.73Zm0-226.36v65.01l7.64,6.07,16.84.59,162.72,1.17,36.03,22.52,4.7-12.14V0h-227.92Z"/></clipPath></defs><g id="Ebene_1-2"><g class="cls-1"><path class="cls-4" d="m238.5,209.32c1.17,0,2.15,0,3.13.2.98,0,1.96,0,2.94.2,9.01.2,17.62-.39,25.85-1.96,1.37-.2,1.37-.39,0-.39-6.07-.39-12.14-.39-17.82-.2-5.68.2-11.36.59-17.23,1.37-4.5.59-8.62-.2-12.92-1.57-9.4-3.13-18.21-7.64-26.43-13.71-26.04-19.78-40.53-50.32-48.56-81.46-.39-1.57-.59-1.57-.39,0,.2,2.55.2,5.09.39,7.44,2.35,26.24,14.69,50.52,34.66,67.75,18.41,15.86,42.1,24.48,66.18,25.06,2.15,0,2.35,0,0-.39-3.52-.98-6.66-1.57-9.79-2.35q-.39,0,0,0M192.09,25.46s-.2,0-.39.2c-17.04,12.14-29.37,27.8-37.01,47.19-.78,1.96-1.57,4.31-2.35,7.24-1.57,5.29-3.13,10.38-4.11,15.86-.78,4.7-.59,9.01.39,13.32,3.13,13.12,7.64,25.65,13.32,37.4,10.97,22.91,27.8,43.27,50.91,54.43,2.74,1.37,5.48,2.35,8.03,3.13,4.9,1.57,9.79,2.15,14.49,2.15,5.68,0,15.86-.39,30.74-.78,2.55,0,5.29-.2,8.03-.39,6.27-.39,12.53-2.15,18.6-5.09,26.24-12.73,45.43-36.62,53.06-64.81,2.35-9.01,3.52-18.21,3.13-28-.59-16.64-4.7-32.11-12.53-46.6-12.73-23.3-34.85-40.53-60.31-48.17-27.61-8.22-57.57-4.11-82.04,11.36q-.2.2,0,.2h.39c.2,0,.39.2.39.39v.2c0,.2-.39.39-.59.39-.39.2-.78,0-.78-.39,0-.2,0-.39-.39-.2l-.98.98Zm-45.43,53.85c6.66-20.56,18.21-37.6,34.85-51.5,11.36-9.4,24.28-16.06,38.57-19.78q.2,0,0-.2c-1.37-1.76-3.92-.98-5.48-.39-15.66,4.9-30.35,11.94-42.49,22.52-14.49,12.53-24.67,30.15-25.85,49.54q0,.39.39-.2c0,.39,0,.2,0,0m163.89,120.23c-3.72.78-7.44,1.96-11.16,3.52-4.5,1.96-9.4,3.92-14.69,6.27-9.99,4.31-20.17,6.07-31.13,6.27-12.92,0-26.04-1.57-38.38-5.48-26.24-8.42-48.17-27.8-60.9-52.09-7.44-14.29-11.36-29.37-11.75-45.23,0-4.11,0-8.42.39-13.12.59-8.42,1.37-16.84,2.35-25.46,1.57-12.92,6.66-24.48,15.08-34.66,10.38-12.53,24.08-21.73,39.55-27.8,15.86-6.27,32.5-9.01,49.54-8.03,28,1.37,54.43,13.12,74.99,32.11,1.57,1.37,2.94,2.94,4.11,4.7,7.44,9.99,13.51,20.56,18.21,31.92,1.17,2.94,2.15,5.68,2.94,8.22,3.52,12.92,4.7,26.04,3.33,39.16-1.96,20.76-9.59,39.16-22.52,55.61-7.64,9.59-16.64,17.62-26.83,24.08-.39.2-.39.39,0,.2,7.83-1.57,13.9-5.87,18.6-12.73.39-.78.78-1.37,1.17-2.15q.2-.39.2,0c-.2,2.55-1.57,5.09-3.52,7.05q-.39.39.2.2c3.92-1.96,7.44-4.5,10.77-7.64,14.29-12.92,20.95-31.33,22.32-50.32.2-2.94.39-5.87.39-9.01,0-.59,0-1.37-.2-1.96,0-.2,0-.39.2,0,0,.2.2.39.2.39,1.17,7.24,1.17,14.69-.2,21.93-2.74,16.06-9.99,29.37-21.54,39.95-1.96,1.76-4.11,3.52-6.66,5.48-7.05,5.29-14.1,10.18-21.15,14.69-21.73,13.9-47.97,18.21-73.43,13.51-9.99-1.76-19.97-4.7-29.57-8.62-15.47-6.07-31.13-15.47-37.99-31.33-.2-.59-.2-.78.39-.2,4.9,5.48,9.99,10.97,15.08,16.64,4.7,5.29,10.57,10.57,17.82,11.36q.39,0,0-.2c-8.42-4.7-15.86-10.77-21.93-18.41-.78-1.17-1.76-2.15-2.55-3.13h.2c9.4,10.38,20.56,18.41,33.09,24.28,17.04,8.03,34.85,11.16,53.46,9.4s36.22-8.42,51.3-19.19q.59-.2.2-.2"/></g><g class="cls-6"><path class="cls-4" d="m228.9,12.53c-.78.39-2.35,1.17-3.13.78-.39-.2-.39-.39,0-.78,1.37-.98,3.13-1.57,5.29-1.96,8.81-.98,18.41-1.17,28.59-.39.39,0,.78.2.98.59v.2h0c-9.99-.39-19.58-.2-29.18.78-.78,0-1.57.39-2.55.78"/></g><g class="cls-9"><path class="cls-4" d="m220.48,13.9c-1.17.59-2.55.98-3.92,1.17q-.39,0-.2-.39c1.17-.78,2.55-1.17,3.92-1.17.2,0,.39,0,.59-.2.59-.59,1.37-.78,2.15-.59q.2,0,0,.2c-.78.39-1.37.78-2.15.59,0,.2-.2.39-.39.39"/></g><g class="cls-8"><path class="cls-4" d="m218.52,19.97c.2-.2.2-.39-.2-.2-25.85,5.87-45.82,26.24-60.31,47.58-.2.2-.2.39-.39.59v.39c0,.39-.2.78-.59,1.17h-.2v-.2c0-.39,0-.59.39-.78.2-.2.39-.39.39-.59,9.79-18.21,23.5-32.11,41.51-42.1,20.95-11.75,45.62-15.08,69.32-10.38,37.6,7.44,67.16,35.83,77.74,72.45h-.2c-3.13-8.03-6.85-15.66-11.36-23.3-7.44-12.53-17.04-22.91-28.78-31.13-21.93-15.08-48.76-21.54-75.19-17.04-1.96.39-3.92.78-5.87,1.37-3.13.98-5.48,3.33-7.83,6.07-5.48,6.46-11.55,12.53-18.21,18.41-12.73,10.97-26.63,20.36-40.73,29.76-.39.39-.59.2-.2-.2,3.52-3.92,8.22-7.64,12.34-10.38,4.9-3.13,9.4-6.27,13.51-9.01,13.12-9.01,24.67-19.97,34.85-32.5"/></g><g class="cls-7"><path class="cls-4" d="m192.09,25.46h.98c.2,0,.2.2,0,.39l-.59.39h-.39v-.78"/></g><g class="cls-13"><path class="cls-4" d="m200.12,29.18h.2q.2,0,0,.2c-11.94,7.44-21.73,16.84-29.37,28.2-1.17,1.57-1.96,3.13-3.52,3.92-.2.2-.39,0-.2-.2,6.66-10.77,15.27-20.56,25.46-27.8,2.35-1.76,4.9-3.33,7.44-4.31"/></g><g class="cls-12"><path class="cls-4" d="m327.39,37.99c13.32,7.83,21.93,21.34,22.13,36.81q0,.98-.39,0c-1.17-4.31-2.74-10.18-3.92-13.32-1.96-5.48-4.9-10.38-9.01-14.49-2.94-2.94-5.87-5.87-9.01-9.01v-.2l.2.2h0"/></g><g class="cls-10"><path class="cls-5" d="m162.52,71.67c-6.66,15.08-9.59,30.55-9.2,46.41q0,.59-.39,0c-.39-1.17-.78-2.35-.78-3.72-.2-12.14,1.96-24.28,6.27-36.22.98-2.15,2.15-4.9,4.11-6.46,0-.2.2-.2,0,0"/></g><g class="cls-11"><path class="cls-5" d="m355.39,98.49c2.74,11.36,3.13,22.71,1.37,34.27h0c0-6.66-.2-13.32-.39-19.78-.2-5.48-.59-10.18-.98-14.49v-.98q0-.39.2,0c-.39.2-.2.59-.2.98"/></g><g class="cls-14"><path class="cls-4" d="m152.73,165.26c-4.11-7.64-6.85-15.66-8.03-23.89h.2c3.92,13.12,9.4,25.46,17.04,37.01.2.2,0,.39-.2.39h-.59c-.2,0-.59-.39-.78-.59-2.35-3.92-4.9-8.03-7.64-12.92"/></g><g class="cls-17"><path class="cls-4" d="m161.93,157.63c-1.37-2.74-3.13-5.48-3.33-8.62q0-.78.39,0c1.37,3.33,2.94,6.27,4.31,9.2,4.31,8.42,9.79,15.86,16.06,22.71v.2h-.2c-7.44-6.46-12.34-14.1-17.23-23.5"/></g><g class="cls-18"><path class="cls-4" d="m347.56,157.23c-2.15,6.85-6.46,13.12-11.75,18.99-3.13,3.52-6.27,6.46-9.01,9.01-.2.2-.39.2-.39-.2v-.39c0-.2.2-.59.39-.78,1.57-1.57,3.13-3.33,4.7-4.9,5.87-6.66,11.36-13.9,16.06-21.73h0"/></g><g class="cls-16"><path class="cls-4" d="m181.12,182.69c.2-.2.98.39,1.76.98.78.78,1.37,1.57,1.17,1.76-.2.2-.98-.39-1.76-.98-.78-.78-1.37-1.57-1.17-1.76"/></g><g class="cls-15"><path class="cls-4" d="m223.61,203.05c9.99.59,19.58-.2,29.76-1.76,7.24-1.17,13.9-2.15,20.17-3.13,6.85-.98,13.71-1.57,20.95-1.57q.2,0,.2.2h-.2c-15.66,2.15-30.94,4.31-45.82,6.27-3.72.59-7.24.98-10.77,1.17-4.9.39-9.59,0-14.1-.98q-1.37-.2-.2-.2"/></g><polygon class="cls-3" points="0 70.3 16.06 70.3 16.06 114.74 31.92 92.81 50.71 92.81 33.09 116.31 50.71 151.16 32.31 151.16 21.15 127.67 16.06 134.72 16.06 151.16 0 151.16 0 70.3"/><path class="cls-3" d="m93.79,143.92c-2.94,5.09-8.03,8.62-15.47,8.62-12.34,0-20.36-9.4-20.36-21.93v-37.79h16.06v33.29c0,6.66,3.72,10.97,9.79,10.97s9.59-3.92,9.99-10.18v-34.07h16.06v58.35h-16.06v-7.24Z"/><rect class="cls-3" x="123.36" y="70.3" width="16.06" height="81.06"/><polygon class="cls-3" points="157.23 151.16 157.23 106.32 148.42 106.32 148.42 92.81 158.21 92.81 158.21 79.89 173.29 76.56 173.29 92.81 183.08 92.81 183.08 106.32 173.29 106.32 173.29 151.16 157.23 151.16"/><path class="cls-3" d="m226.94,143.92c-2.94,5.09-8.03,8.62-15.47,8.62-12.34,0-20.36-9.4-20.36-21.93v-37.79h16.06v33.29c0,6.66,3.72,10.97,9.79,10.97s9.59-3.92,9.99-10.18v-34.07h16.06v58.35h-16.06v-7.24Z"/><path class="cls-3" d="m272.37,99.08c2.74-4.31,7.24-7.44,13.9-7.44,1.37,0,3.33.2,4.5.39v17.04c-2.15-.98-5.09-1.76-8.62-1.76-5.68,0-9.59,3.92-9.79,10.18v33.87h-16.06v-58.55h16.06v6.27h0Z"/><path class="cls-3" d="m350.11,111.02v34.07c0,1.76.98,2.94,2.74,3.52-1.17,2.35-2.94,3.33-5.09,3.33-3.52,0-5.09-2.15-5.09-6.66v-34.07c0-8.81-3.92-13.32-11.55-13.32-4.31,0-8.22,1.76-11.94,5.09-3.72,3.33-6.46,7.83-7.83,13.32v28.78c0,1.76.98,2.94,2.74,3.52-1.17,2.35-2.94,3.33-4.9,3.33-3.52,0-5.09-2.15-5.09-6.66v-47.19c0-1.76-.98-2.94-2.74-3.72,1.17-2.35,2.74-3.33,4.9-3.33,3.52,0,5.29,2.15,5.29,6.66v8.03c1.96-4.31,4.9-7.83,8.62-10.57s8.22-4.31,13.32-4.31,9.2,1.76,12.34,4.9c2.74,3.72,4.31,8.62,4.31,15.27"/><path class="cls-3" d="m380.07,139.81c3.52,3.92,8.42,5.87,14.88,5.87s11.55-1.96,15.66-5.87c.98.59,1.37,1.37,1.37,2.74,0,2.35-1.76,4.5-5.29,6.46-3.52,2.15-7.83,3.13-12.73,3.13-7.83,0-14.29-2.55-19.39-7.64-5.09-5.09-7.64-12.14-7.64-21.34s2.74-16.84,8.42-22.91c5.48-6.07,11.75-9.2,18.8-9.2,5.48,0,9.99,1.96,13.51,5.87,3.52,3.92,5.09,8.22,5.09,13.32,0,3.52-.98,6.07-2.94,7.83s-5.09,2.74-9.59,2.74l-25.06.78v.2c-.39,8.22,1.37,14.1,4.9,18.01m19.58-24.08c3.33-.2,4.9-2.15,4.9-5.87s-1.17-6.66-3.33-9.2c-2.15-2.55-5.09-3.72-8.42-3.72-4.7,0-8.62,1.76-11.94,5.48-3.33,3.72-5.29,8.62-5.87,14.88l24.67-1.57Z"/><path class="cls-3" d="m467.2,102.6c0,1.57-.59,2.94-1.76,3.92s-2.55,1.37-4.11,1.37-2.74-.39-3.72-.98c.39-.78.78-1.96.78-3.52s-.98-3.13-2.94-4.5c-1.96-1.37-4.9-2.15-9.01-2.15s-7.05.98-9.4,2.55c-2.35,1.76-3.52,3.72-3.52,6.07s1.17,4.31,3.52,6.07,5.29,3.52,8.62,4.9c3.33,1.57,6.66,3.13,10.18,4.7,3.33,1.76,6.27,3.72,8.62,6.27,2.35,2.55,3.52,5.29,3.52,8.42,0,4.31-2.15,8.03-6.27,11.36-4.11,3.33-9.4,4.9-15.86,4.9s-11.75-1.17-15.66-3.72c-3.92-2.55-6.07-5.87-6.07-9.79,0-2.35.59-4.11,1.76-5.48,1.17-1.17,2.55-1.96,4.11-1.96s2.74.39,3.72,1.37c-.98,1.57-1.57,3.33-1.57,4.9,0,2.74,1.17,4.9,3.33,6.66,2.35,1.57,5.68,2.55,9.99,2.55s8.03-.98,10.57-2.94c2.74-1.96,3.92-4.31,3.92-7.05s-1.17-5.09-3.52-7.05c-2.35-1.96-5.09-3.52-8.42-4.9-3.33-1.37-6.66-2.74-9.99-4.31-3.33-1.37-6.07-3.33-8.42-5.48-2.35-2.35-3.52-4.9-3.52-7.83,0-4.7,1.96-8.42,5.68-11.36,3.92-2.94,8.62-4.5,14.29-4.5s10.57.98,14.88,3.13c4.11,2.15,6.27,4.9,6.27,8.42"/><path class="cls-3" d="m493.83,98.69v38.57c0,2.94.59,5.09,1.76,6.27s3.13,1.96,5.87,1.96c5.09,0,9.79-2.15,14.29-6.27.98.78,1.57,1.76,1.57,2.94,0,2.55-1.57,4.7-4.9,6.85s-7.44,3.13-12.53,3.13c-9.01,0-13.71-5.09-13.71-15.08v-38.38c-6.66-.2-9.79-1.57-9.79-4.31,0-1.17.39-2.15,1.17-2.74,2.55.39,4.7.59,6.46.59h2.15v-10.97c0-1.76-.98-2.94-2.74-3.72,1.17-2.15,2.74-3.33,4.9-3.33,3.52,0,5.29,2.15,5.29,6.66v11.36h20.17c.39.59.39,1.17.39,1.96,0,3.13-6.27,4.5-18.8,4.5,0,0-1.57,0-1.57,0Z"/></g></svg>