<?xml version="1.0" encoding="utf-8"?>
<!-- Generator: Adobe Illustrator 27.8.1, SVG Export Plug-In . SVG Version: 6.00 Build 0)  -->
<svg version="1.1" id="Layer_1" xmlns="http://www.w3.org/2000/svg" xmlns:xlink="http://www.w3.org/1999/xlink" x="0px" y="0px"
	 viewBox="0 0 272 50" style="enable-background:new 0 0 272 50;" xml:space="preserve">
<style type="text/css">
	.st0{fill:#F28C0F;}
	.st1{fill:#307CBF;}
	.st2{fill:#FFFFFF;}
</style>
<g>
	<path class="st0" d="M5.3,61.9h8.2v22.8l8.1-11.3h9.6l-9,12l9,17.8h-9.5l-5.6-12l-2.6,3.6v8.4H5.3V61.9z"/>
	<path class="st0" d="M53.1,99.6c-1.5,2.6-4.1,4.4-7.9,4.4c-6.3,0-10.4-4.8-10.4-11.2V73.4H43v17c0,3.4,1.9,5.6,5,5.6
		c3,0,4.9-2,5.1-5.2V73.4h8.2v29.8h-8.2C53.1,103.2,53.1,99.6,53.1,99.6z"/>
	<path class="st0" d="M76.4,103.3h-8.2V61.9h8.2V103.3z"/>
	<path class="st0" d="M85.6,103.3V80.4H81v-7h5v-6.5l7.7-1.7v8.3h5v7h-5v22.9L85.6,103.3L85.6,103.3z"/>
	<path class="st0" d="M121.1,99.6c-1.5,2.6-4.1,4.4-7.9,4.4c-6.3,0-10.4-4.8-10.4-11.2V73.4h8.2v17c0,3.4,1.9,5.6,5,5.6
		c3,0,4.9-2,5.1-5.2V73.4h8.2v29.8h-8.2V99.6z"/>
	<path class="st0" d="M144.4,76.7c1.4-2.2,3.7-3.8,7.1-3.8c0.7,0,1.7,0.1,2.3,0.2v8.7c-1.1-0.5-2.6-0.9-4.4-0.9c-2.9,0-4.9,2-5,5.2
		v17.3h-8.2v-30h8.2L144.4,76.7L144.4,76.7z"/>
	<path class="st0" d="M184.1,83.7v17.4c0,0.9,0.5,1.5,1.4,1.8c-0.6,1.2-1.5,1.7-2.6,1.7c-1.8,0-2.6-1.1-2.6-3.4V83.8
		c0-4.5-2-6.8-5.9-6.8c-2.2,0-4.2,0.9-6.1,2.6c-1.9,1.7-3.3,4-4,6.8v14.7c0,0.9,0.5,1.5,1.4,1.8c-0.6,1.2-1.5,1.7-2.5,1.7
		c-1.8,0-2.6-1.1-2.6-3.4V77.1c0-0.9-0.5-1.5-1.4-1.9c0.6-1.2,1.4-1.7,2.5-1.7c1.8,0,2.7,1.1,2.7,3.4V81c1-2.2,2.5-4,4.4-5.4
		c1.9-1.4,4.2-2.2,6.8-2.2s4.7,0.8,6.3,2.5C183.3,77.8,184.1,80.3,184.1,83.7z"/>
	<path class="st0" d="M199.4,98.4c1.8,2,4.3,3,7.6,3c3.2,0,5.9-1,8-3c0.5,0.3,0.7,0.7,0.7,1.4c0,1.2-0.9,2.3-2.7,3.3
		c-1.8,1.1-4,1.6-6.5,1.6c-4,0-7.3-1.3-9.9-3.9c-2.6-2.6-3.9-6.2-3.9-10.9s1.4-8.6,4.3-11.7c2.8-3.1,6-4.7,9.6-4.7
		c2.8,0,5.1,1,6.9,3c1.8,2,2.6,4.2,2.6,6.8c0,1.8-0.5,3.1-1.5,4s-2.6,1.4-4.9,1.4l-12.8,0.4v0.1C196.7,93.4,197.5,96.4,199.4,98.4z
		 M209.3,86.1c1.7-0.1,2.5-1.1,2.5-3c0-1.9-0.6-3.4-1.7-4.7c-1.1-1.3-2.6-1.9-4.3-1.9c-2.4,0-4.4,0.9-6.1,2.8
		c-1.7,1.9-2.7,4.4-3,7.6L209.3,86.1z"/>
	<path class="st0" d="M243.9,79.4c0,0.8-0.3,1.5-0.9,2c-0.6,0.5-1.3,0.7-2.1,0.7s-1.4-0.2-1.9-0.5c0.2-0.4,0.4-1,0.4-1.8
		c0-0.8-0.5-1.6-1.5-2.3c-1-0.7-2.5-1.1-4.6-1.1s-3.6,0.4-4.8,1.3s-1.8,1.9-1.8,3.1c0,1.2,0.6,2.2,1.8,3.1c1.2,0.9,2.7,1.8,4.4,2.5
		c1.7,0.8,3.4,1.6,5.2,2.4c1.7,0.9,3.2,1.9,4.4,3.2c1.2,1.3,1.8,2.7,1.8,4.3c0,2.2-1.1,4.1-3.2,5.8c-2.1,1.7-4.8,2.5-8.2,2.5
		c-3.3,0-6-0.6-8-1.9c-2-1.3-3.1-3-3.1-5c0-1.2,0.3-2.1,0.9-2.8c0.6-0.6,1.3-1,2.1-1s1.4,0.2,1.9,0.7c-0.5,0.8-0.8,1.7-0.8,2.5
		c0,1.4,0.6,2.5,1.7,3.4c1.2,0.8,2.9,1.3,5.1,1.3c2.3,0,4.1-0.5,5.4-1.5c1.4-1,2-2.2,2-3.6c0-1.4-0.6-2.6-1.8-3.6s-2.6-1.8-4.3-2.5
		c-1.7-0.7-3.4-1.4-5.1-2.2c-1.7-0.7-3.1-1.7-4.3-2.8c-1.2-1.2-1.8-2.5-1.8-4c0-2.4,1-4.3,2.9-5.8c2-1.5,4.4-2.3,7.3-2.3
		c2.9,0,5.4,0.5,7.6,1.6C242.8,76.2,243.9,77.6,243.9,79.4z"/>
	<path class="st0" d="M257.4,77.4v19.7c0,1.5,0.3,2.6,0.9,3.2c0.6,0.6,1.6,1,3,1c2.6,0,5-1.1,7.3-3.2c0.5,0.4,0.8,0.9,0.8,1.5
		c0,1.3-0.8,2.4-2.5,3.5s-3.8,1.6-6.4,1.6c-4.6,0-7-2.6-7-7.7V77.4c-3.4-0.1-5-0.8-5-2.2c0-0.6,0.2-1.1,0.6-1.4
		c1.3,0.2,2.4,0.3,3.3,0.3h1.1v-5.6c0-0.9-0.5-1.5-1.4-1.9c0.6-1.1,1.4-1.7,2.5-1.7c1.8,0,2.7,1.1,2.7,3.4v5.8h10.3
		c0.2,0.3,0.2,0.6,0.2,1c0,1.6-3.2,2.3-9.6,2.3C258.2,77.4,257.4,77.4,257.4,77.4z"/>
</g>
<g>
	<path class="st1" d="M3.6-49.4h8.2v22.8l8.1-11.3h9.6l-9,12l9,17.8H20l-5.6-12l-2.6,3.6v8.4H3.6V-49.4z"/>
	<path class="st1" d="M51.4-11.7c-1.5,2.6-4.1,4.4-7.9,4.4c-6.3,0-10.4-4.8-10.4-11.2v-19.4h8.2v17c0,3.4,1.9,5.6,5,5.6
		c3,0,4.9-2,5.1-5.2v-17.4h8.2v29.8h-8.2C51.4-8.1,51.4-11.7,51.4-11.7z"/>
	<path class="st1" d="M74.7-8h-8.2v-41.4h8.2V-8z"/>
	<path class="st1" d="M83.9-8v-22.9h-4.6v-7h5v-6.5l7.7-1.7v8.3h5v7h-5v22.9h-8.1V-8z"/>
	<path class="st1" d="M119.4-11.7c-1.5,2.6-4.1,4.4-7.9,4.4c-6.3,0-10.4-4.8-10.4-11.2v-19.4h8.2v17c0,3.4,1.9,5.6,5,5.6
		c3,0,4.9-2,5.1-5.2v-17.4h8.2v29.8h-8.2V-11.7z"/>
	<path class="st1" d="M142.7-34.6c1.4-2.2,3.7-3.8,7.1-3.8c0.7,0,1.7,0.1,2.3,0.2v8.7c-1.1-0.5-2.6-0.9-4.4-0.9c-2.9,0-4.9,2-5,5.2
		v17.3h-8.2v-30h8.2L142.7-34.6L142.7-34.6z"/>
	<path class="st1" d="M182.4-27.6v17.4c0,0.9,0.5,1.5,1.4,1.8c-0.6,1.2-1.5,1.7-2.6,1.7c-1.8,0-2.6-1.1-2.6-3.4v-17.4
		c0-4.5-2-6.8-5.9-6.8c-2.2,0-4.2,0.9-6.1,2.6c-1.9,1.7-3.3,4-4,6.8v14.7c0,0.9,0.5,1.5,1.4,1.8c-0.6,1.2-1.5,1.7-2.5,1.7
		c-1.8,0-2.6-1.1-2.6-3.4v-24.1c0-0.9-0.5-1.5-1.4-1.9c0.6-1.2,1.4-1.7,2.5-1.7c1.8,0,2.7,1.1,2.7,3.4v4.1c1-2.2,2.5-4,4.4-5.4
		c1.9-1.4,4.2-2.2,6.8-2.2s4.7,0.8,6.3,2.5C181.6-33.5,182.4-31,182.4-27.6z"/>
	<path class="st1" d="M197.7-12.9c1.8,2,4.3,3,7.6,3c3.2,0,5.9-1,8-3c0.5,0.3,0.7,0.7,0.7,1.4c0,1.2-0.9,2.3-2.7,3.3
		c-1.8,1.1-4,1.6-6.5,1.6c-4,0-7.3-1.3-9.9-3.9c-2.6-2.6-3.9-6.2-3.9-10.9s1.4-8.6,4.3-11.7c2.8-3.1,6-4.7,9.6-4.7
		c2.8,0,5.1,1,6.9,3c1.8,2,2.6,4.2,2.6,6.8c0,1.8-0.5,3.1-1.5,4s-2.6,1.4-4.9,1.4l-12.8,0.4v0.1C195-17.9,195.8-14.9,197.7-12.9z
		 M207.6-25.2c1.7-0.1,2.5-1.1,2.5-3s-0.6-3.4-1.7-4.7c-1.1-1.3-2.6-1.9-4.3-1.9c-2.4,0-4.4,0.9-6.1,2.8c-1.7,1.9-2.7,4.4-3,7.6
		L207.6-25.2z"/>
	<path class="st1" d="M242.2-31.9c0,0.8-0.3,1.5-0.9,2c-0.6,0.5-1.3,0.7-2.1,0.7s-1.4-0.2-1.9-0.5c0.2-0.4,0.4-1,0.4-1.8
		s-0.5-1.6-1.5-2.3s-2.5-1.1-4.6-1.1s-3.6,0.4-4.8,1.3c-1.2,0.9-1.8,1.9-1.8,3.1s0.6,2.2,1.8,3.1s2.7,1.8,4.4,2.5
		c1.7,0.8,3.4,1.6,5.2,2.4c1.7,0.9,3.2,1.9,4.4,3.2s1.8,2.7,1.8,4.3c0,2.2-1.1,4.1-3.2,5.8c-2.1,1.7-4.8,2.5-8.2,2.5
		c-3.3,0-6-0.6-8-1.9c-2-1.3-3.1-3-3.1-5c0-1.2,0.3-2.1,0.9-2.8c0.6-0.6,1.3-1,2.1-1s1.4,0.2,1.9,0.7c-0.5,0.8-0.8,1.7-0.8,2.5
		c0,1.4,0.6,2.5,1.7,3.4c1.2,0.8,2.9,1.3,5.1,1.3c2.3,0,4.1-0.5,5.4-1.5c1.4-1,2-2.2,2-3.6c0-1.4-0.6-2.6-1.8-3.6s-2.6-1.8-4.3-2.5
		s-3.4-1.4-5.1-2.2c-1.7-0.7-3.1-1.7-4.3-2.8c-1.2-1.2-1.8-2.5-1.8-4c0-2.4,1-4.3,2.9-5.8c2-1.5,4.4-2.3,7.3-2.3
		c2.9,0,5.4,0.5,7.6,1.6C241.1-35.1,242.2-33.7,242.2-31.9z"/>
	<path class="st1" d="M255.7-33.9v19.7c0,1.5,0.3,2.6,0.9,3.2c0.6,0.6,1.6,1,3,1c2.6,0,5-1.1,7.3-3.2c0.5,0.4,0.8,0.9,0.8,1.5
		c0,1.3-0.8,2.4-2.5,3.5s-3.8,1.6-6.4,1.6c-4.6,0-7-2.6-7-7.7v-19.6c-3.4-0.1-5-0.8-5-2.2c0-0.6,0.2-1.1,0.6-1.4
		c1.3,0.2,2.4,0.3,3.3,0.3h1.1v-5.6c0-0.9-0.5-1.5-1.4-1.9c0.6-1.1,1.4-1.7,2.5-1.7c1.8,0,2.7,1.1,2.7,3.4v5.8h10.3
		c0.2,0.3,0.2,0.6,0.2,1c0,1.6-3.2,2.3-9.6,2.3C256.5-33.9,255.7-33.9,255.7-33.9z"/>
</g>
<g>
	<path d="M3.6-100.3h8.2v22.8l8.1-11.3h9.6l-9,12l9,17.8H20l-5.6-12l-2.6,3.6v8.4H3.6V-100.3z"/>
	<path d="M51.4-62.6c-1.5,2.6-4.1,4.4-7.9,4.4c-6.3,0-10.4-4.8-10.4-11.2v-19.4h8.2v17c0,3.4,1.9,5.6,5,5.6c3,0,4.9-2,5.1-5.2v-17.4
		h8.2V-59h-8.2C51.4-59,51.4-62.6,51.4-62.6z"/>
	<path d="M74.7-58.9h-8.2v-41.4h8.2V-58.9z"/>
	<path d="M83.9-58.9v-22.9h-4.6v-7h5v-6.5L92-97v8.3h5v7h-5v22.9h-8.1V-58.9z"/>
	<path d="M119.4-62.6c-1.5,2.6-4.1,4.4-7.9,4.4c-6.3,0-10.4-4.8-10.4-11.2v-19.4h8.2v17c0,3.4,1.9,5.6,5,5.6c3,0,4.9-2,5.1-5.2
		v-17.4h8.2V-59h-8.2V-62.6z"/>
	<path d="M142.7-85.5c1.4-2.2,3.7-3.8,7.1-3.8c0.7,0,1.7,0.1,2.3,0.2v8.7c-1.1-0.5-2.6-0.9-4.4-0.9c-2.9,0-4.9,2-5,5.2v17.3h-8.2
		v-30h8.2L142.7-85.5L142.7-85.5z"/>
	<path d="M182.4-78.5v17.4c0,0.9,0.5,1.5,1.4,1.8c-0.6,1.2-1.5,1.7-2.6,1.7c-1.8,0-2.6-1.1-2.6-3.4v-17.4c0-4.5-2-6.8-5.9-6.8
		c-2.2,0-4.2,0.9-6.1,2.6c-1.9,1.7-3.3,4-4,6.8v14.7c0,0.9,0.5,1.5,1.4,1.8c-0.6,1.2-1.5,1.7-2.5,1.7c-1.8,0-2.6-1.1-2.6-3.4v-24.1
		c0-0.9-0.5-1.5-1.4-1.9c0.6-1.2,1.4-1.7,2.5-1.7c1.8,0,2.7,1.1,2.7,3.4v4.1c1-2.2,2.5-4,4.4-5.4s4.2-2.2,6.8-2.2s4.7,0.8,6.3,2.5
		C181.6-84.4,182.4-81.9,182.4-78.5z"/>
	<path d="M197.7-63.8c1.8,2,4.3,3,7.6,3c3.2,0,5.9-1,8-3c0.5,0.3,0.7,0.7,0.7,1.4c0,1.2-0.9,2.3-2.7,3.3c-1.8,1.1-4,1.6-6.5,1.6
		c-4,0-7.3-1.3-9.9-3.9c-2.6-2.6-3.9-6.2-3.9-10.9c0-4.7,1.4-8.6,4.3-11.7c2.8-3.1,6-4.7,9.6-4.7c2.8,0,5.1,1,6.9,3
		c1.8,2,2.6,4.2,2.6,6.8c0,1.8-0.5,3.1-1.5,4s-2.6,1.4-4.9,1.4l-12.8,0.4v0.1C195-68.8,195.8-65.8,197.7-63.8z M207.6-76.1
		c1.7-0.1,2.5-1.1,2.5-3s-0.6-3.4-1.7-4.7c-1.1-1.3-2.6-1.9-4.3-1.9c-2.4,0-4.4,0.9-6.1,2.8c-1.7,1.9-2.7,4.4-3,7.6L207.6-76.1z"/>
	<path d="M242.2-82.8c0,0.8-0.3,1.5-0.9,2c-0.6,0.5-1.3,0.7-2.1,0.7s-1.4-0.2-1.9-0.5c0.2-0.4,0.4-1,0.4-1.8c0-0.8-0.5-1.6-1.5-2.3
		c-1-0.7-2.5-1.1-4.6-1.1s-3.6,0.4-4.8,1.3s-1.8,1.9-1.8,3.1c0,1.2,0.6,2.2,1.8,3.1c1.2,0.9,2.7,1.8,4.4,2.5
		c1.7,0.8,3.4,1.6,5.2,2.4c1.7,0.9,3.2,1.9,4.4,3.2c1.2,1.3,1.8,2.7,1.8,4.3c0,2.2-1.1,4.1-3.2,5.8c-2.1,1.7-4.8,2.5-8.2,2.5
		c-3.3,0-6-0.6-8-1.9c-2-1.3-3.1-3-3.1-5c0-1.2,0.3-2.1,0.9-2.8c0.6-0.6,1.3-1,2.1-1s1.4,0.2,1.9,0.7c-0.5,0.8-0.8,1.7-0.8,2.5
		c0,1.4,0.6,2.5,1.7,3.4c1.2,0.8,2.9,1.3,5.1,1.3c2.3,0,4.1-0.5,5.4-1.5c1.4-1,2-2.2,2-3.6s-0.6-2.6-1.8-3.6s-2.6-1.8-4.3-2.5
		c-1.7-0.7-3.4-1.4-5.1-2.2c-1.7-0.7-3.1-1.7-4.3-2.8c-1.2-1.2-1.8-2.5-1.8-4c0-2.4,1-4.3,2.9-5.8c2-1.5,4.4-2.3,7.3-2.3
		c2.9,0,5.4,0.5,7.6,1.6C241.1-86,242.2-84.6,242.2-82.8z"/>
	<path d="M255.7-84.8v19.7c0,1.5,0.3,2.6,0.9,3.2c0.6,0.6,1.6,1,3,1c2.6,0,5-1.1,7.3-3.2c0.5,0.4,0.8,0.9,0.8,1.5
		c0,1.3-0.8,2.4-2.5,3.5s-3.8,1.6-6.4,1.6c-4.6,0-7-2.6-7-7.7v-19.6c-3.4-0.1-5-0.8-5-2.2c0-0.6,0.2-1.1,0.6-1.4
		c1.3,0.2,2.4,0.3,3.3,0.3h1.1v-5.6c0-0.9-0.5-1.5-1.4-1.9c0.6-1.1,1.4-1.7,2.5-1.7c1.8,0,2.7,1.1,2.7,3.4v5.8h10.3
		c0.2,0.3,0.2,0.6,0.2,1c0,1.6-3.2,2.3-9.6,2.3C256.5-84.8,255.7-84.8,255.7-84.8z"/>
</g>
<g>
	<path class="st2" d="M5.3,3.1h8.2v22.8l8.1-11.3h9.6l-9,12l9,17.8h-9.5l-5.6-12L13.5,36v8.4H5.3V3.1z"/>
	<path class="st2" d="M53.1,40.8c-1.5,2.6-4.1,4.4-7.9,4.4c-6.3,0-10.4-4.8-10.4-11.2V14.6H43v17c0,3.4,1.9,5.6,5,5.6
		c3,0,4.9-2,5.1-5.2V14.6h8.2v29.8h-8.2C53.1,44.4,53.1,40.8,53.1,40.8z"/>
	<path class="st2" d="M76.4,44.5h-8.2V3.1h8.2V44.5z"/>
	<path class="st2" d="M85.6,44.5V21.6H81v-7h5V8.1l7.7-1.7v8.3h5v7h-5v22.9h-8.1V44.5z"/>
	<path class="st2" d="M121.1,40.8c-1.5,2.6-4.1,4.4-7.9,4.4c-6.3,0-10.4-4.8-10.4-11.2V14.6h8.2v17c0,3.4,1.9,5.6,5,5.6
		c3,0,4.9-2,5.1-5.2V14.6h8.2v29.8h-8.2V40.8z"/>
	<path class="st2" d="M144.4,17.9c1.4-2.2,3.7-3.8,7.1-3.8c0.7,0,1.7,0.1,2.3,0.2V23c-1.1-0.5-2.6-0.9-4.4-0.9c-2.9,0-4.9,2-5,5.2
		v17.3h-8.2v-30h8.2L144.4,17.9L144.4,17.9z"/>
	<path class="st2" d="M184.1,24.9v17.4c0,0.9,0.5,1.5,1.4,1.8c-0.6,1.2-1.5,1.7-2.6,1.7c-1.8,0-2.6-1.1-2.6-3.4V25
		c0-4.5-2-6.8-5.9-6.8c-2.2,0-4.2,0.9-6.1,2.6c-1.9,1.7-3.3,4-4,6.8v14.7c0,0.9,0.5,1.5,1.4,1.8c-0.6,1.2-1.5,1.7-2.5,1.7
		c-1.8,0-2.6-1.1-2.6-3.4V18.3c0-0.9-0.5-1.5-1.4-1.9c0.6-1.2,1.4-1.7,2.5-1.7c1.8,0,2.7,1.1,2.7,3.4v4.1c1-2.2,2.5-4,4.4-5.4
		s4.2-2.2,6.8-2.2s4.7,0.8,6.3,2.5C183.3,19,184.1,21.5,184.1,24.9z"/>
	<path class="st2" d="M199.4,39.6c1.8,2,4.3,3,7.6,3c3.2,0,5.9-1,8-3c0.5,0.3,0.7,0.7,0.7,1.4c0,1.2-0.9,2.3-2.7,3.3
		c-1.8,1.1-4,1.6-6.5,1.6c-4,0-7.3-1.3-9.9-3.9c-2.6-2.6-3.9-6.2-3.9-10.9s1.4-8.6,4.3-11.7c2.8-3.1,6-4.7,9.6-4.7
		c2.8,0,5.1,1,6.9,3c1.8,2,2.6,4.2,2.6,6.8c0,1.8-0.5,3.1-1.5,4s-2.6,1.4-4.9,1.4l-12.8,0.4v0.1C196.7,34.6,197.5,37.6,199.4,39.6z
		 M209.3,27.3c1.7-0.1,2.5-1.1,2.5-3s-0.6-3.4-1.7-4.7c-1.1-1.3-2.6-1.9-4.3-1.9c-2.4,0-4.4,0.9-6.1,2.8c-1.7,1.9-2.7,4.4-3,7.6
		L209.3,27.3z"/>
	<path class="st2" d="M243.9,20.6c0,0.8-0.3,1.5-0.9,2c-0.6,0.5-1.3,0.7-2.1,0.7s-1.4-0.2-1.9-0.5c0.2-0.4,0.4-1,0.4-1.8
		s-0.5-1.6-1.5-2.3c-1-0.7-2.5-1.1-4.6-1.1s-3.6,0.4-4.8,1.3s-1.8,1.9-1.8,3.1s0.6,2.2,1.8,3.1s2.7,1.8,4.4,2.5
		c1.7,0.8,3.4,1.6,5.2,2.4c1.7,0.9,3.2,1.9,4.4,3.2c1.2,1.3,1.8,2.7,1.8,4.3c0,2.2-1.1,4.1-3.2,5.8c-2.1,1.7-4.8,2.5-8.2,2.5
		c-3.3,0-6-0.6-8-1.9c-2-1.3-3.1-3-3.1-5c0-1.2,0.3-2.1,0.9-2.8c0.6-0.6,1.3-1,2.1-1s1.4,0.2,1.9,0.7c-0.5,0.8-0.8,1.7-0.8,2.5
		c0,1.4,0.6,2.5,1.7,3.4c1.2,0.8,2.9,1.3,5.1,1.3c2.3,0,4.1-0.5,5.4-1.5c1.4-1,2-2.2,2-3.6c0-1.4-0.6-2.6-1.8-3.6s-2.6-1.8-4.3-2.5
		c-1.7-0.7-3.4-1.4-5.1-2.2c-1.7-0.7-3.1-1.7-4.3-2.8c-1.2-1.2-1.8-2.5-1.8-4c0-2.4,1-4.3,2.9-5.8c2-1.5,4.4-2.3,7.3-2.3
		c2.9,0,5.4,0.5,7.6,1.6C242.8,17.4,243.9,18.8,243.9,20.6z"/>
	<path class="st2" d="M257.4,18.6v19.7c0,1.5,0.3,2.6,0.9,3.2c0.6,0.6,1.6,1,3,1c2.6,0,5-1.1,7.3-3.2c0.5,0.4,0.8,0.9,0.8,1.5
		c0,1.3-0.8,2.4-2.5,3.5s-3.8,1.6-6.4,1.6c-4.6,0-7-2.6-7-7.7V18.6c-3.4-0.1-5-0.8-5-2.2c0-0.6,0.2-1.1,0.6-1.4
		c1.3,0.2,2.4,0.3,3.3,0.3h1.1V9.7c0-0.9-0.5-1.5-1.4-1.9c0.6-1.1,1.4-1.7,2.5-1.7c1.8,0,2.7,1.1,2.7,3.4v5.8h10.3
		c0.2,0.3,0.2,0.6,0.2,1c0,1.6-3.2,2.3-9.6,2.3C258.2,18.6,257.4,18.6,257.4,18.6z"/>
</g>
</svg>
