<?xml version="1.0" encoding="utf-8"?>
<!-- Generator: Adobe Illustrator 28.0.0, SVG Export Plug-In . SVG Version: 6.00 Build 0)  -->
<svg version="1.1" id="Layer_1" xmlns="http://www.w3.org/2000/svg" xmlns:xlink="http://www.w3.org/1999/xlink" x="0px" y="0px"
	 viewBox="0 0 272 50" style="enable-background:new 0 0 272 50;" xml:space="preserve">
<style type="text/css">
	.st0{fill:#FFFFFF;}
</style>
<g>
	<path class="st0" d="M5.7,4.4h8.2v22.8L22,15.9h9.6l-9,12l9,17.8h-9.5l-5.6-12l-2.6,3.6v8.4H5.7V4.4z"/>
	<path class="st0" d="M53.5,42.1c-1.5,2.6-4.1,4.4-7.9,4.4c-6.3,0-10.4-4.8-10.4-11.2V15.9h8.2v17c0,3.4,1.9,5.6,5,5.6
		c3,0,4.9-2,5.1-5.2V15.9h8.2v29.8h-8.2V42.1z"/>
	<path class="st0" d="M76.8,45.8h-8.2V4.4h8.2V45.8z"/>
	<path class="st0" d="M86,45.8V22.9h-4.6v-7h5V9.4l7.7-1.7v8.3h5v7h-5v22.9H86z"/>
	<path class="st0" d="M121.5,42.1c-1.5,2.6-4.1,4.4-7.9,4.4c-6.3,0-10.4-4.8-10.4-11.2V15.9h8.2v17c0,3.4,1.9,5.6,5,5.6
		c3,0,4.9-2,5.1-5.2V15.9h8.2v29.8h-8.2V42.1z"/>
	<path class="st0" d="M144.8,19.2c1.4-2.2,3.7-3.8,7.1-3.8c0.7,0,1.7,0.1,2.3,0.2v8.7c-1.1-0.5-2.6-0.9-4.4-0.9c-2.9,0-4.9,2-5,5.2
		v17.3h-8.2V15.9h8.2V19.2z"/>
	<path class="st0" d="M184.5,26.2v17.4c0,0.9,0.5,1.5,1.4,1.8c-0.6,1.2-1.5,1.7-2.6,1.7c-1.8,0-2.6-1.1-2.6-3.4V26.3
		c0-4.5-2-6.8-5.9-6.8c-2.2,0-4.2,0.9-6.1,2.6c-1.9,1.7-3.3,4-4,6.8v14.7c0,0.9,0.5,1.5,1.4,1.8c-0.6,1.2-1.5,1.7-2.5,1.7
		c-1.8,0-2.6-1.1-2.6-3.4V19.6c0-0.9-0.5-1.5-1.4-1.9c0.6-1.2,1.4-1.7,2.5-1.7c1.8,0,2.7,1.1,2.7,3.4v4.1c1-2.2,2.5-4,4.4-5.4
		c1.9-1.4,4.2-2.2,6.8-2.2c2.6,0,4.7,0.8,6.3,2.5C183.7,20.3,184.5,22.8,184.5,26.2z"/>
	<path class="st0" d="M199.8,40.9c1.8,2,4.3,3,7.6,3c3.2,0,5.9-1,8-3c0.5,0.3,0.7,0.7,0.7,1.4c0,1.2-0.9,2.3-2.7,3.3
		c-1.8,1.1-4,1.6-6.5,1.6c-4,0-7.3-1.3-9.9-3.9c-2.6-2.6-3.9-6.2-3.9-10.9c0-4.7,1.4-8.6,4.3-11.7c2.8-3.1,6-4.7,9.6-4.7
		c2.8,0,5.1,1,6.9,3c1.8,2,2.6,4.2,2.6,6.8c0,1.8-0.5,3.1-1.5,4c-1,0.9-2.6,1.4-4.9,1.4l-12.8,0.4v0.1
		C197.1,35.9,197.9,38.9,199.8,40.9z M209.7,28.6c1.7-0.1,2.5-1.1,2.5-3c0-1.9-0.6-3.4-1.7-4.7c-1.1-1.3-2.6-1.9-4.3-1.9
		c-2.4,0-4.4,0.9-6.1,2.8c-1.7,1.9-2.7,4.4-3,7.6L209.7,28.6z"/>
	<path class="st0" d="M244.3,21.9c0,0.8-0.3,1.5-0.9,2c-0.6,0.5-1.3,0.7-2.1,0.7c-0.8,0-1.4-0.2-1.9-0.5c0.2-0.4,0.4-1,0.4-1.8
		c0-0.8-0.5-1.6-1.5-2.3c-1-0.7-2.5-1.1-4.6-1.1s-3.6,0.4-4.8,1.3c-1.2,0.9-1.8,1.9-1.8,3.1c0,1.2,0.6,2.2,1.8,3.1
		c1.2,0.9,2.7,1.8,4.4,2.5c1.7,0.8,3.4,1.6,5.2,2.4c1.7,0.9,3.2,1.9,4.4,3.2s1.8,2.7,1.8,4.3c0,2.2-1.1,4.1-3.2,5.8
		c-2.1,1.7-4.8,2.5-8.2,2.5c-3.3,0-6-0.6-8-1.9c-2-1.3-3.1-3-3.1-5c0-1.2,0.3-2.1,0.9-2.8c0.6-0.6,1.3-1,2.1-1
		c0.8,0,1.4,0.2,1.9,0.7c-0.5,0.8-0.8,1.7-0.8,2.5c0,1.4,0.6,2.5,1.7,3.4c1.2,0.8,2.9,1.3,5.1,1.3c2.3,0,4.1-0.5,5.4-1.5
		c1.4-1,2-2.2,2-3.6c0-1.4-0.6-2.6-1.8-3.6c-1.2-1-2.6-1.8-4.3-2.5c-1.7-0.7-3.4-1.4-5.1-2.2c-1.7-0.7-3.1-1.7-4.3-2.8
		c-1.2-1.2-1.8-2.5-1.8-4c0-2.4,1-4.3,2.9-5.8c2-1.5,4.4-2.3,7.3-2.3c2.9,0,5.4,0.5,7.6,1.6C243.2,18.7,244.3,20.1,244.3,21.9z"/>
	<path class="st0" d="M257.8,19.9v19.7c0,1.5,0.3,2.6,0.9,3.2c0.6,0.6,1.6,1,3,1c2.6,0,5-1.1,7.3-3.2c0.5,0.4,0.8,0.9,0.8,1.5
		c0,1.3-0.8,2.4-2.5,3.5c-1.7,1.1-3.8,1.6-6.4,1.6c-4.6,0-7-2.6-7-7.7V19.9c-3.4-0.1-5-0.8-5-2.2c0-0.6,0.2-1.1,0.6-1.4
		c1.3,0.2,2.4,0.3,3.3,0.3h1.1V11c0-0.9-0.5-1.5-1.4-1.9c0.6-1.1,1.4-1.7,2.5-1.7c1.8,0,2.7,1.1,2.7,3.4v5.8h10.3
		c0.2,0.3,0.2,0.6,0.2,1c0,1.6-3.2,2.3-9.6,2.3H257.8z"/>
</g>
</svg>
