<?xml version="1.0" encoding="UTF-8"?><svg id="Ebene_2" xmlns="http://www.w3.org/2000/svg" viewBox="0 0 264.1 42.8"><defs><style>.cls-1{stroke-width:0px;}</style></defs><g id="Layer_1"><path class="cls-1" d="m0,0h8.2v22.8l8.1-11.3h9.6l-9,12,9,17.8h-9.5l-5.6-12-2.6,3.6v8.4H0V0Z"/><path class="cls-1" d="m47.8,37.7c-1.5,2.6-4.1,4.4-7.9,4.4-6.3,0-10.4-4.8-10.4-11.2V11.5h8.2v17c0,3.4,1.9,5.6,5,5.6s4.9-2,5.1-5.2V11.5h8.2v29.8h-8.2s0-3.6,0-3.6Z"/><path class="cls-1" d="m71.1,41.4h-8.2V0h8.2v41.4Z"/><path class="cls-1" d="m80.3,41.4v-22.9h-4.6v-7h5v-6.5l7.7-1.7v8.3h5v7h-5v22.9h-8.1v-.1Z"/><path class="cls-1" d="m115.8,37.7c-1.5,2.6-4.1,4.4-7.9,4.4-6.3,0-10.4-4.8-10.4-11.2V11.5h8.2v17c0,3.4,1.9,5.6,5,5.6s4.9-2,5.1-5.2V11.5h8.2v29.8h-8.2v-3.6Z"/><path class="cls-1" d="m139.1,14.8c1.4-2.2,3.7-3.8,7.1-3.8.7,0,1.7.1,2.3.2v8.7c-1.1-.5-2.6-.9-4.4-.9-2.9,0-4.9,2-5,5.2v17.3h-8.2V11.5h8.2v3.3h0Z"/><path class="cls-1" d="m178.8,21.8v17.4c0,.9.5,1.5,1.4,1.8-.6,1.2-1.5,1.7-2.6,1.7-1.8,0-2.6-1.1-2.6-3.4v-17.4c0-4.5-2-6.8-5.9-6.8-2.2,0-4.2.9-6.1,2.6-1.9,1.7-3.3,4-4,6.8v14.7c0,.9.5,1.5,1.4,1.8-.6,1.2-1.5,1.7-2.5,1.7-1.8,0-2.6-1.1-2.6-3.4V15.2c0-.9-.5-1.5-1.4-1.9.6-1.2,1.4-1.7,2.5-1.7,1.8,0,2.7,1.1,2.7,3.4v4.1c1-2.2,2.5-4,4.4-5.4s4.2-2.2,6.8-2.2,4.7.8,6.3,2.5c1.4,1.9,2.2,4.4,2.2,7.8Z"/><path class="cls-1" d="m194.1,36.5c1.8,2,4.3,3,7.6,3s5.9-1,8-3c.5.3.7.7.7,1.4,0,1.2-.9,2.3-2.7,3.3-1.8,1.1-4,1.6-6.5,1.6-4,0-7.3-1.3-9.9-3.9-2.6-2.6-3.9-6.2-3.9-10.9s1.4-8.6,4.3-11.7c2.8-3.1,6-4.7,9.6-4.7,2.8,0,5.1,1,6.9,3,1.8,2,2.6,4.2,2.6,6.8,0,1.8-.5,3.1-1.5,4s-2.6,1.4-4.9,1.4l-12.8.4v.1c-.2,4.2.6,7.2,2.5,9.2Zm9.9-12.3c1.7-.1,2.5-1.1,2.5-3s-.6-3.4-1.7-4.7c-1.1-1.3-2.6-1.9-4.3-1.9-2.4,0-4.4.9-6.1,2.8-1.7,1.9-2.7,4.4-3,7.6l12.6-.8Z"/><path class="cls-1" d="m238.6,17.5c0,.8-.3,1.5-.9,2-.6.5-1.3.7-2.1.7s-1.4-.2-1.9-.5c.2-.4.4-1,.4-1.8s-.5-1.6-1.5-2.3c-1-.7-2.5-1.1-4.6-1.1s-3.6.4-4.8,1.3-1.8,1.9-1.8,3.1.6,2.2,1.8,3.1,2.7,1.8,4.4,2.5c1.7.8,3.4,1.6,5.2,2.4,1.7.9,3.2,1.9,4.4,3.2s1.8,2.7,1.8,4.3c0,2.2-1.1,4.1-3.2,5.8-2.1,1.7-4.8,2.5-8.2,2.5s-6-.6-8-1.9c-2-1.3-3.1-3-3.1-5,0-1.2.3-2.1.9-2.8.6-.6,1.3-1,2.1-1s1.4.2,1.9.7c-.5.8-.8,1.7-.8,2.5,0,1.4.6,2.5,1.7,3.4,1.2.8,2.9,1.3,5.1,1.3s4.1-.5,5.4-1.5c1.4-1,2-2.2,2-3.6s-.6-2.6-1.8-3.6-2.6-1.8-4.3-2.5-3.4-1.4-5.1-2.2c-1.7-.7-3.1-1.7-4.3-2.8-1.2-1.2-1.8-2.5-1.8-4,0-2.4,1-4.3,2.9-5.8,2-1.5,4.4-2.3,7.3-2.3s5.4.5,7.6,1.6c2.2,1.1,3.3,2.5,3.3,4.3Z"/><path class="cls-1" d="m252.1,15.5v19.7c0,1.5.3,2.6.9,3.2.6.6,1.6,1,3,1,2.6,0,5-1.1,7.3-3.2.5.4.8.9.8,1.5,0,1.3-.8,2.4-2.5,3.5s-3.8,1.6-6.4,1.6c-4.6,0-7-2.6-7-7.7V15.5c-3.4-.1-5-.8-5-2.2,0-.6.2-1.1.6-1.4,1.3.2,2.4.3,3.3.3h1.1v-5.6c0-.9-.5-1.5-1.4-1.9.6-1.1,1.4-1.7,2.5-1.7,1.8,0,2.7,1.1,2.7,3.4v5.8h10.3c.2.3.2.6.2,1,0,1.6-3.2,2.3-9.6,2.3,0,0-.8,0-.8,0Z"/></g></svg>