<?xml version="1.0" encoding="utf-8"?>
<!-- Generator: Adobe Illustrator 28.0.0, SVG Export Plug-In . SVG Version: 6.00 Build 0)  -->
<svg version="1.1" id="Layer_1" xmlns="http://www.w3.org/2000/svg" xmlns:xlink="http://www.w3.org/1999/xlink" x="0px" y="0px"
	 viewBox="0 0 340.2 141.7" style="enable-background:new 0 0 340.2 141.7;" xml:space="preserve">
<style type="text/css">
	.st0{clip-path:url(#SVGID_00000137839806973467324590000011064303307825060002_);}
	.st1{clip-path:url(#SVGID_00000120526876322016590960000010017023939414762918_);}
	.st2{clip-path:url(#SVGID_00000013892328141240245050000018077084140817267120_);}
	.st3{clip-path:url(#SVGID_00000139973030575125695170000016232813927044304031_);}
	.st4{clip-path:url(#SVGID_00000123425668002211586970000003797641951177048234_);}
	.st5{clip-path:url(#SVGID_00000027606691100770664030000003570639133455582891_);}
	.st6{clip-path:url(#SVGID_00000137122354895940742680000011539524668583409322_);}
	.st7{clip-path:url(#SVGID_00000122695544595809267780000001931416849403147662_);}
	.st8{clip-path:url(#SVGID_00000065760165366822909350000006332638615260093056_);}
	.st9{clip-path:url(#SVGID_00000136392864836506467560000016507827742035265687_);}
	.st10{clip-path:url(#SVGID_00000055671177146568774240000001951910162027848347_);}
	.st11{clip-path:url(#SVGID_00000045612847716174787750000016426942300862283143_);}
	.st12{clip-path:url(#SVGID_00000080925321146009459840000003482314322741764508_);}
	.st13{clip-path:url(#SVGID_00000127758671299866973330000017548282559551470777_);}
</style>
<g>
	<g>
		<g>
			<defs>
				<path id="SVGID_1_" d="M107.7,134.3H224V99.2H107.7V134.3z M107.7,18.7v33.2l3.9,3.1l8.6,0.3l83.1,0.6l18.4,11.5l2.4-6.2V18.7
					H107.7z"/>
			</defs>
			<clipPath id="SVGID_00000179604484398335652640000004887011464414113412_">
				<use xlink:href="#SVGID_1_"  style="overflow:visible;"/>
			</clipPath>
			<path style="clip-path:url(#SVGID_00000179604484398335652640000004887011464414113412_);" d="M159.9,125.6c0.6,0,1.1,0,1.6,0.1
				c0.5,0,1,0,1.5,0.1c4.6,0.1,9-0.2,13.2-1c0.7-0.1,0.7-0.2,0-0.2c-3.1-0.2-6.2-0.2-9.1-0.1c-2.9,0.1-5.8,0.3-8.8,0.7
				c-2.3,0.3-4.4-0.1-6.6-0.8c-4.8-1.6-9.3-3.9-13.5-7c-13.3-10.1-20.7-25.7-24.8-41.6c-0.2-0.8-0.3-0.8-0.2,0
				c0.1,1.3,0.1,2.6,0.2,3.8c1.2,13.4,7.5,25.8,17.7,34.6c9.4,8.1,21.5,12.5,33.8,12.8c1.1,0,1.2,0,0-0.2
				C163.1,126.3,161.5,126,159.9,125.6C159.7,125.6,159.7,125.6,159.9,125.6 M136.2,31.7c0,0-0.1,0-0.2,0.1
				c-8.7,6.2-15,14.2-18.9,24.1c-0.4,1-0.8,2.2-1.2,3.7c-0.8,2.7-1.6,5.3-2.1,8.1c-0.4,2.4-0.3,4.6,0.2,6.8
				c1.6,6.7,3.9,13.1,6.8,19.1c5.6,11.7,14.2,22.1,26,27.8c1.4,0.7,2.8,1.2,4.1,1.6c2.5,0.8,5,1.1,7.4,1.1c2.9,0,8.1-0.2,15.7-0.4
				c1.3,0,2.7-0.1,4.1-0.2c3.2-0.2,6.4-1.1,9.5-2.6c13.4-6.5,23.2-18.7,27.1-33.1c1.2-4.6,1.8-9.3,1.6-14.3
				c-0.3-8.5-2.4-16.4-6.4-23.8c-6.5-11.9-17.8-20.7-30.8-24.6c-14.1-4.2-29.4-2.1-41.9,5.8c-0.1,0.1-0.1,0.1,0,0.1h0.2
				c0.1,0,0.2,0.1,0.2,0.2v0.1c0,0.1-0.2,0.2-0.3,0.2c-0.2,0.1-0.4,0-0.4-0.2c0-0.1,0-0.2-0.2-0.1L136.2,31.7z M113,59.2
				c3.4-10.5,9.3-19.2,17.8-26.3c5.8-4.8,12.4-8.2,19.7-10.1c0.1,0,0.1,0,0-0.1c-0.7-0.9-2-0.5-2.8-0.2c-8,2.5-15.5,6.1-21.7,11.5
				c-7.4,6.4-12.6,15.4-13.2,25.3C112.8,59.5,112.8,59.5,113,59.2C113,59.4,113,59.3,113,59.2 M196.7,120.6c-1.9,0.4-3.8,1-5.7,1.8
				c-2.3,1-4.8,2-7.5,3.2c-5.1,2.2-10.3,3.1-15.9,3.2c-6.6,0-13.3-0.8-19.6-2.8c-13.4-4.3-24.6-14.2-31.1-26.6
				c-3.8-7.3-5.8-15-6-23.1c0-2.1,0-4.3,0.2-6.7c0.3-4.3,0.7-8.6,1.2-13c0.8-6.6,3.4-12.5,7.7-17.7c5.3-6.4,12.3-11.1,20.2-14.2
				c8.1-3.2,16.6-4.6,25.3-4.1c14.3,0.7,27.8,6.7,38.3,16.4c0.8,0.7,1.5,1.5,2.1,2.4c3.8,5.1,6.9,10.5,9.3,16.3
				c0.6,1.5,1.1,2.9,1.5,4.2c1.8,6.6,2.4,13.3,1.7,20c-1,10.6-4.9,20-11.5,28.4c-3.9,4.9-8.5,9-13.7,12.3c-0.2,0.1-0.2,0.2,0,0.1
				c4-0.8,7.1-3,9.5-6.5c0.2-0.4,0.4-0.7,0.6-1.1c0.1-0.2,0.1-0.2,0.1,0c-0.1,1.3-0.8,2.6-1.8,3.6c-0.2,0.2-0.2,0.2,0.1,0.1
				c2-1,3.8-2.3,5.5-3.9c7.3-6.6,10.7-16,11.4-25.7c0.1-1.5,0.2-3,0.2-4.6c0-0.3,0-0.7-0.1-1c0-0.1,0-0.2,0.1,0
				c0,0.1,0.1,0.2,0.1,0.2c0.6,3.7,0.6,7.5-0.1,11.2c-1.4,8.2-5.1,15-11,20.4c-1,0.9-2.1,1.8-3.4,2.8c-3.6,2.7-7.2,5.2-10.8,7.5
				c-11.1,7.1-24.5,9.3-37.5,6.9c-5.1-0.9-10.2-2.4-15.1-4.4c-7.9-3.1-15.9-7.9-19.4-16c-0.1-0.3-0.1-0.4,0.2-0.1
				c2.5,2.8,5.1,5.6,7.7,8.5c2.4,2.7,5.4,5.4,9.1,5.8c0.2,0,0.2,0,0-0.1c-4.3-2.4-8.1-5.5-11.2-9.4c-0.4-0.6-0.9-1.1-1.3-1.6l0,0
				c0,0,0,0,0.1,0c4.8,5.3,10.5,9.4,16.9,12.4c8.7,4.1,17.8,5.7,27.3,4.8s18.5-4.3,26.2-9.8C196.9,120.6,196.9,120.6,196.7,120.6"/>
		</g>
	</g>
	<g>
		<g>
			<defs>
				<path id="SVGID_00000091735055322320878350000007063003730795982263_" d="M107.7,134.3H224V99.2H107.7V134.3z M107.7,18.7v33.2
					l3.9,3.1l8.6,0.3l83.1,0.6l18.4,11.5l2.4-6.2V18.7H107.7z"/>
			</defs>
			<clipPath id="SVGID_00000029023379125555195000000003776330482257086895_">
				<use xlink:href="#SVGID_00000091735055322320878350000007063003730795982263_"  style="overflow:visible;"/>
			</clipPath>
			<path style="clip-path:url(#SVGID_00000029023379125555195000000003776330482257086895_);" d="M155,25.1
				c-0.4,0.2-1.2,0.6-1.6,0.4c-0.2-0.1-0.2-0.2,0-0.4c0.7-0.5,1.6-0.8,2.7-1c4.5-0.5,9.4-0.6,14.6-0.2c0.2,0,0.4,0.1,0.5,0.3
				c0,0,0,0,0,0.1l0,0c-5.1-0.2-10-0.1-14.9,0.4C155.9,24.7,155.5,24.9,155,25.1"/>
		</g>
	</g>
	<g>
		<g>
			<defs>
				<path id="SVGID_00000082363743741408530330000005212513322240095617_" d="M107.7,134.3H224V99.2H107.7V134.3z M107.7,18.7v33.2
					l3.9,3.1l8.6,0.3l83.1,0.6l18.4,11.5l2.4-6.2V18.7H107.7z"/>
			</defs>
			<clipPath id="SVGID_00000033333473174577281840000017286159117122670013_">
				<use xlink:href="#SVGID_00000082363743741408530330000005212513322240095617_"  style="overflow:visible;"/>
			</clipPath>
			<path style="clip-path:url(#SVGID_00000033333473174577281840000017286159117122670013_);" d="M150.7,25.8
				c-0.6,0.3-1.3,0.5-2,0.6c-0.2,0-0.2,0-0.1-0.2c0.6-0.4,1.3-0.6,2-0.6c0.1,0,0.2,0,0.3-0.1c0.3-0.3,0.7-0.4,1.1-0.3
				c0.1,0,0.1,0,0,0.1c-0.4,0.2-0.7,0.4-1.1,0.3C150.9,25.7,150.8,25.8,150.7,25.8"/>
		</g>
	</g>
	<g>
		<g>
			<defs>
				<path id="SVGID_00000030487793711210205760000007775167603249745323_" d="M107.7,134.3H224V99.2H107.7V134.3z M107.7,18.7v33.2
					l3.9,3.1l8.6,0.3l83.1,0.6l18.4,11.5l2.4-6.2V18.7H107.7z"/>
			</defs>
			<clipPath id="SVGID_00000088837082074415523240000007819042589489096860_">
				<use xlink:href="#SVGID_00000030487793711210205760000007775167603249745323_"  style="overflow:visible;"/>
			</clipPath>
			<path style="clip-path:url(#SVGID_00000088837082074415523240000007819042589489096860_);" d="M149.7,28.9
				c0.1-0.1,0.1-0.2-0.1-0.1c-13.2,3-23.4,13.4-30.8,24.3c-0.1,0.1-0.1,0.2-0.2,0.3c0,0.1,0,0.1,0,0.2c0,0.2-0.1,0.4-0.3,0.6h-0.1
				c0,0,0,0,0-0.1c0-0.2,0-0.3,0.2-0.4c0.1-0.1,0.2-0.2,0.2-0.3c5-9.3,12-16.4,21.2-21.5c10.7-6,23.3-7.7,35.4-5.3
				c19.2,3.8,34.3,18.3,39.7,37l0,0h-0.1l0,0c-1.6-4.1-3.5-8-5.8-11.9c-3.8-6.4-8.7-11.7-14.7-15.9c-11.2-7.7-24.9-11-38.4-8.7
				c-1,0.2-2,0.4-3,0.7c-1.6,0.5-2.8,1.7-4,3.1c-2.8,3.3-5.9,6.4-9.3,9.4c-6.5,5.6-13.6,10.4-20.8,15.2c-0.2,0.2-0.3,0.1-0.1-0.1
				c1.8-2,4.2-3.9,6.3-5.3c2.5-1.6,4.8-3.2,6.9-4.6C138.6,40.9,144.5,35.3,149.7,28.9"/>
		</g>
	</g>
	<g>
		<g>
			<defs>
				<path id="SVGID_00000034809938883908829090000017803851585440994745_" d="M107.7,134.3H224V99.2H107.7V134.3z M107.7,18.7v33.2
					l3.9,3.1l8.6,0.3l83.1,0.6l18.4,11.5l2.4-6.2V18.7H107.7z"/>
			</defs>
			<clipPath id="SVGID_00000016767788379508943170000006430132791543588234_">
				<use xlink:href="#SVGID_00000034809938883908829090000017803851585440994745_"  style="overflow:visible;"/>
			</clipPath>
			<path style="clip-path:url(#SVGID_00000016767788379508943170000006430132791543588234_);" d="M136.2,31.7c0.2,0,0.4,0,0.5,0
				s0.1,0.1,0,0.2l-0.3,0.2c-0.1,0-0.1,0-0.2,0C136.2,32,136.2,31.9,136.2,31.7"/>
		</g>
	</g>
	<g>
		<g>
			<defs>
				<path id="SVGID_00000060011194683872577750000018271200821108165781_" d="M107.7,134.3H224V99.2H107.7V134.3z M107.7,18.7v33.2
					l3.9,3.1l8.6,0.3l83.1,0.6l18.4,11.5l2.4-6.2V18.7H107.7z"/>
			</defs>
			<clipPath id="SVGID_00000006701275859514019490000011795335150174022794_">
				<use xlink:href="#SVGID_00000060011194683872577750000018271200821108165781_"  style="overflow:visible;"/>
			</clipPath>
			<path style="clip-path:url(#SVGID_00000006701275859514019490000011795335150174022794_);" d="M140.3,33.6h0.1c0.1,0,0.1,0,0,0.1
				c-6.1,3.8-11.1,8.6-15,14.4c-0.6,0.8-1,1.6-1.8,2c-0.1,0.1-0.2,0-0.1-0.1c3.4-5.5,7.8-10.5,13-14.2
				C137.7,34.9,139,34.1,140.3,33.6"/>
		</g>
	</g>
	<g>
		<g>
			<defs>
				<path id="SVGID_00000011012583686243966120000010614147086822743729_" d="M107.7,134.3H224V99.2H107.7V134.3z M107.7,18.7v33.2
					l3.9,3.1l8.6,0.3l83.1,0.6l18.4,11.5l2.4-6.2V18.7H107.7z"/>
			</defs>
			<clipPath id="SVGID_00000181809042025588127890000016440325850802287769_">
				<use xlink:href="#SVGID_00000011012583686243966120000010614147086822743729_"  style="overflow:visible;"/>
			</clipPath>
			<path style="clip-path:url(#SVGID_00000181809042025588127890000016440325850802287769_);" d="M205.3,38.1
				c6.8,4,11.2,10.9,11.3,18.8c0,0.5,0,0.5-0.2,0c-0.6-2.2-1.4-5.2-2-6.8c-1-2.8-2.5-5.3-4.6-7.4c-1.5-1.5-3-3-4.6-4.6
				c0,0,0,0,0-0.1L205.3,38.1L205.3,38.1"/>
		</g>
	</g>
	<g>
		<g>
			<defs>
				<path id="SVGID_00000039130841894215024650000010998109885210453905_" d="M107.7,134.3H224V99.2H107.7V134.3z M107.7,18.7v33.2
					l3.9,3.1l8.6,0.3l83.1,0.6l18.4,11.5l2.4-6.2V18.7H107.7z"/>
			</defs>
			<clipPath id="SVGID_00000115514193826098375960000015179470826105644985_">
				<use xlink:href="#SVGID_00000039130841894215024650000010998109885210453905_"  style="overflow:visible;"/>
			</clipPath>
			<path style="clip-path:url(#SVGID_00000115514193826098375960000015179470826105644985_);" d="M121.1,55.3
				c-3.4,7.7-4.9,15.6-4.7,23.7c0,0.3,0,0.3-0.2,0c-0.2-0.6-0.4-1.2-0.4-1.9c-0.1-6.2,1-12.4,3.2-18.5
				C119.5,57.5,120.1,56.1,121.1,55.3C121.1,55.2,121.2,55.2,121.1,55.3"/>
		</g>
	</g>
	<g>
		<g>
			<defs>
				<path id="SVGID_00000047051237216934419240000004903380431150439085_" d="M107.7,134.3H224V99.2H107.7V134.3z M107.7,18.7v33.2
					l3.9,3.1l8.6,0.3l83.1,0.6l18.4,11.5l2.4-6.2V18.7H107.7z"/>
			</defs>
			<clipPath id="SVGID_00000144310679098486859200000017272312752261471921_">
				<use xlink:href="#SVGID_00000047051237216934419240000004903380431150439085_"  style="overflow:visible;"/>
			</clipPath>
			<path style="clip-path:url(#SVGID_00000144310679098486859200000017272312752261471921_);" d="M219.6,69
				c1.4,5.8,1.6,11.6,0.7,17.5l0,0l0,0c0-3.4-0.1-6.8-0.2-10.1C220,73.6,219.8,71.2,219.6,69c0-0.1,0-0.3,0-0.5s0-0.2,0.1,0
				C219.5,68.6,219.6,68.8,219.6,69"/>
		</g>
	</g>
	<g>
		<g>
			<defs>
				<path id="SVGID_00000057123142102846214400000004667769291165792655_" d="M107.7,134.3H224V99.2H107.7V134.3z M107.7,18.7v33.2
					l3.9,3.1l8.6,0.3l83.1,0.6l18.4,11.5l2.4-6.2V18.7H107.7z"/>
			</defs>
			<clipPath id="SVGID_00000066474054720655002560000006942753923712405415_">
				<use xlink:href="#SVGID_00000057123142102846214400000004667769291165792655_"  style="overflow:visible;"/>
			</clipPath>
			<path style="clip-path:url(#SVGID_00000066474054720655002560000006942753923712405415_);" d="M116.1,103.1
				c-2.1-3.9-3.5-8-4.1-12.2l0,0h0.1l0,0c2,6.7,4.8,13,8.7,18.9c0.1,0.1,0,0.2-0.1,0.2s-0.2,0-0.3,0c-0.1,0-0.3-0.2-0.4-0.3
				C118.8,107.7,117.5,105.6,116.1,103.1"/>
		</g>
	</g>
	<g>
		<g>
			<defs>
				<path id="SVGID_00000085234188522579719310000007097689376022398871_" d="M107.7,134.3H224V99.2H107.7V134.3z M107.7,18.7v33.2
					l3.9,3.1l8.6,0.3l83.1,0.6l18.4,11.5l2.4-6.2V18.7H107.7z"/>
			</defs>
			<clipPath id="SVGID_00000003803712175338194770000013277527948799660951_">
				<use xlink:href="#SVGID_00000085234188522579719310000007097689376022398871_"  style="overflow:visible;"/>
			</clipPath>
			<path style="clip-path:url(#SVGID_00000003803712175338194770000013277527948799660951_);" d="M120.8,99.2
				c-0.7-1.4-1.6-2.8-1.7-4.4c0-0.4,0-0.4,0.2,0c0.7,1.7,1.5,3.2,2.2,4.7c2.2,4.3,5,8.1,8.2,11.6c0,0,0,0,0,0.1c0,0,0,0-0.1,0
				C125.8,107.9,123.3,104,120.8,99.2"/>
		</g>
	</g>
	<g>
		<g>
			<defs>
				<path id="SVGID_00000158011491245345883210000009804561708035494279_" d="M107.7,134.3H224V99.2H107.7V134.3z M107.7,18.7v33.2
					l3.9,3.1l8.6,0.3l83.1,0.6l18.4,11.5l2.4-6.2V18.7H107.7z"/>
			</defs>
			<clipPath id="SVGID_00000000910747018928842360000009654680145506058168_">
				<use xlink:href="#SVGID_00000158011491245345883210000009804561708035494279_"  style="overflow:visible;"/>
			</clipPath>
			<path style="clip-path:url(#SVGID_00000000910747018928842360000009654680145506058168_);" d="M215.6,99c-1.1,3.5-3.3,6.7-6,9.7
				c-1.6,1.8-3.2,3.3-4.6,4.6c-0.1,0.1-0.2,0.1-0.2-0.1c0-0.1,0-0.2,0-0.2c0-0.1,0.1-0.3,0.2-0.4c0.8-0.8,1.6-1.7,2.4-2.5
				C210.4,106.7,213.2,103,215.6,99L215.6,99L215.6,99L215.6,99"/>
		</g>
	</g>
	<g>
		<g>
			<defs>
				<path id="SVGID_00000073679748912256527080000016568453435905094078_" d="M107.7,134.3H224V99.2H107.7V134.3z M107.7,18.7v33.2
					l3.9,3.1l8.6,0.3l83.1,0.6l18.4,11.5l2.4-6.2V18.7H107.7z"/>
			</defs>
			<clipPath id="SVGID_00000161608201759183778740000000956304817904527006_">
				<use xlink:href="#SVGID_00000073679748912256527080000016568453435905094078_"  style="overflow:visible;"/>
			</clipPath>
			<path style="clip-path:url(#SVGID_00000161608201759183778740000000956304817904527006_);" d="M130.6,112
				c0.1-0.1,0.5,0.2,0.9,0.5c0.4,0.4,0.7,0.8,0.6,0.9c-0.1,0.1-0.5-0.2-0.9-0.5C130.8,112.5,130.5,112.1,130.6,112"/>
		</g>
	</g>
	<g>
		<g>
			<defs>
				<path id="SVGID_00000113315420582129517340000002103000987589888907_" d="M107.7,134.3H224V99.2H107.7V134.3z M107.7,18.7v33.2
					l3.9,3.1l8.6,0.3l83.1,0.6l18.4,11.5l2.4-6.2V18.7H107.7z"/>
			</defs>
			<clipPath id="SVGID_00000164473545104430790430000005983715083747394725_">
				<use xlink:href="#SVGID_00000113315420582129517340000002103000987589888907_"  style="overflow:visible;"/>
			</clipPath>
			<path style="clip-path:url(#SVGID_00000164473545104430790430000005983715083747394725_);" d="M152.3,122.4
				c5.1,0.3,10-0.1,15.2-0.9c3.7-0.6,7.1-1.1,10.3-1.6c3.5-0.5,7-0.8,10.7-0.8c0.1,0,0.1,0,0.1,0.1c0,0,0,0-0.1,0
				c-8,1.1-15.8,2.2-23.4,3.2c-1.9,0.3-3.7,0.5-5.5,0.6c-2.5,0.2-4.9,0-7.2-0.5C151.7,122.4,151.7,122.4,152.3,122.4"/>
		</g>
	</g>
</g>
<polygon points="38.1,54.6 46.3,54.6 46.3,77.3 54.4,66.1 64,66.1 55,78.1 64,95.9 54.6,95.9 48.9,83.9 46.3,87.5 46.3,95.9 
	38.1,95.9 "/>
<g>
	<path d="M86,92.2c-1.5,2.6-4.1,4.4-7.9,4.4c-6.3,0-10.4-4.8-10.4-11.2V66.1h8.2v17c0,3.4,1.9,5.6,5,5.6c3,0,4.9-2,5.1-5.2V66.1h8.2
		v29.8H86V92.2z"/>
	<rect x="101.1" y="54.6" width="8.2" height="41.4"/>
	<polygon points="118.4,95.9 118.4,73 113.9,73 113.9,66.1 118.9,66.1 118.9,59.5 126.6,57.8 126.6,66.1 131.6,66.1 131.6,73 
		126.6,73 126.6,95.9 	"/>
	<path d="M154,92.2c-1.5,2.6-4.1,4.4-7.9,4.4c-6.3,0-10.4-4.8-10.4-11.2V66.1h8.2v17c0,3.4,1.9,5.6,5,5.6c3,0,4.9-2,5.1-5.2V66.1
		h8.2v29.8H154V92.2z"/>
	<path d="M177.2,69.3c1.4-2.2,3.7-3.8,7.1-3.8c0.7,0,1.7,0.1,2.3,0.2v8.7c-1.1-0.5-2.6-0.9-4.4-0.9c-2.9,0-4.9,2-5,5.2V96H169V66.1
		h8.2V69.3L177.2,69.3z"/>
	<path d="M216.9,75.4v17.4c0,0.9,0.5,1.5,1.4,1.8c-0.6,1.2-1.5,1.7-2.6,1.7c-1.8,0-2.6-1.1-2.6-3.4V75.5c0-4.5-2-6.8-5.9-6.8
		c-2.2,0-4.2,0.9-6.1,2.6c-1.9,1.7-3.3,4-4,6.8v14.7c0,0.9,0.5,1.5,1.4,1.8c-0.6,1.2-1.5,1.7-2.5,1.7c-1.8,0-2.6-1.1-2.6-3.4V68.8
		c0-0.9-0.5-1.5-1.4-1.9c0.6-1.2,1.4-1.7,2.5-1.7c1.8,0,2.7,1.1,2.7,3.4v4.1c1-2.2,2.5-4,4.4-5.4s4.2-2.2,6.8-2.2s4.7,0.9,6.3,2.5
		C216.1,69.5,216.9,72,216.9,75.4"/>
	<path d="M232.2,90.1c1.8,2,4.3,3,7.6,3c3.2,0,5.9-1,8-3c0.5,0.3,0.7,0.7,0.7,1.4c0,1.2-0.9,2.3-2.7,3.3c-1.8,1.1-4,1.6-6.5,1.6
		c-4,0-7.3-1.3-9.9-3.9c-2.6-2.6-3.9-6.2-3.9-10.9c0-4.7,1.4-8.6,4.3-11.7c2.8-3.1,6-4.7,9.6-4.7c2.8,0,5.1,1,6.9,3
		c1.8,2,2.6,4.2,2.6,6.8c0,1.8-0.5,3.1-1.5,4s-2.6,1.4-4.9,1.4l-12.8,0.4v0.1C229.5,85.1,230.4,88.1,232.2,90.1 M242.2,77.8
		c1.7-0.1,2.5-1.1,2.5-3s-0.6-3.4-1.7-4.7c-1.1-1.3-2.6-1.9-4.3-1.9c-2.4,0-4.4,0.9-6.1,2.8c-1.7,1.9-2.7,4.4-3,7.6L242.2,77.8z"/>
	<path d="M276.7,71.1c0,0.8-0.3,1.5-0.9,2s-1.3,0.7-2.1,0.7s-1.4-0.2-1.9-0.5c0.2-0.4,0.4-1,0.4-1.8s-0.5-1.6-1.5-2.3
		c-1-0.7-2.5-1.1-4.6-1.1c-2,0-3.6,0.5-4.8,1.3c-1.2,0.9-1.8,1.9-1.8,3.1s0.6,2.2,1.8,3.1s2.7,1.8,4.4,2.5c1.7,0.8,3.4,1.6,5.2,2.4
		c1.7,0.9,3.2,1.9,4.4,3.2c1.2,1.3,1.8,2.7,1.8,4.3c0,2.2-1.1,4.1-3.2,5.8c-2.1,1.7-4.8,2.5-8.1,2.5c-3.3,0-6-0.6-8-1.9
		s-3.1-3-3.1-5c0-1.2,0.3-2.1,0.9-2.8c0.6-0.6,1.3-1,2.1-1s1.4,0.2,1.9,0.7c-0.5,0.8-0.8,1.7-0.8,2.5c0,1.4,0.6,2.5,1.7,3.4
		c1.2,0.8,2.9,1.3,5.1,1.3c2.3,0,4.1-0.5,5.4-1.5c1.4-1,2-2.2,2-3.6s-0.6-2.6-1.8-3.6c-1.2-1-2.6-1.8-4.3-2.5
		c-1.7-0.7-3.4-1.4-5.1-2.2c-1.7-0.7-3.1-1.7-4.3-2.8c-1.2-1.2-1.8-2.5-1.8-4c0-2.4,1-4.3,2.9-5.8c2-1.5,4.4-2.3,7.3-2.3
		s5.4,0.5,7.6,1.6C275.6,67.9,276.7,69.3,276.7,71.1"/>
	<path d="M290.3,69.1v19.7c0,1.5,0.3,2.6,0.9,3.2s1.6,1,3,1c2.6,0,5-1.1,7.3-3.2c0.5,0.4,0.8,0.9,0.8,1.5c0,1.3-0.8,2.4-2.5,3.5
		s-3.8,1.6-6.4,1.6c-4.6,0-7-2.6-7-7.7V69.1c-3.4-0.1-5-0.8-5-2.2c0-0.6,0.2-1.1,0.6-1.4c1.3,0.2,2.4,0.3,3.3,0.3h1.1v-5.6
		c0-0.9-0.5-1.5-1.4-1.9c0.6-1.1,1.4-1.7,2.5-1.7c1.8,0,2.7,1.1,2.7,3.4v5.8h10.3c0.2,0.3,0.2,0.6,0.2,1c0,1.6-3.2,2.3-9.6,2.3
		C291.1,69.1,290.3,69.1,290.3,69.1z"/>
</g>
</svg>
