<?xml version="1.0" encoding="utf-8"?>
<!-- Generator: Adobe Illustrator 27.8.1, SVG Export Plug-In . SVG Version: 6.00 Build 0)  -->
<svg version="1.1" id="Ebene_1" xmlns="http://www.w3.org/2000/svg" xmlns:xlink="http://www.w3.org/1999/xlink" x="0px" y="0px"
	 viewBox="0 0 841.9 595.3" style="enable-background:new 0 0 841.9 595.3;" xml:space="preserve">
<style type="text/css">
	.st0{clip-path:url(#SVGID_00000151546086081374417880000004465438641505684144_);fill:#F18D13;}
	.st1{clip-path:url(#SVGID_00000008143448394912643640000003241023358707942802_);fill:#F18D13;}
	.st2{clip-path:url(#SVGID_00000137830957282190657070000008975275506852442546_);fill:#F18D13;}
	.st3{clip-path:url(#SVGID_00000088822187706853676490000000575276210223451807_);fill:#F18D13;}
	.st4{clip-path:url(#SVGID_00000062875836293729691740000013039783749200784052_);fill:#F18D13;}
	.st5{clip-path:url(#SVGID_00000119104802558954361930000005239439077545971346_);fill:#F18D13;}
	.st6{clip-path:url(#SVGID_00000160181887936501145240000001559006888142195870_);fill:#F18D13;}
	.st7{clip-path:url(#SVGID_00000060726989277201146160000011558153543182104483_);fill:#020203;}
	.st8{clip-path:url(#SVGID_00000156556617846894702880000016211087371498094261_);fill:#020203;}
	.st9{clip-path:url(#SVGID_00000087400662609360496760000004973149259299497642_);fill:#F18D13;}
	.st10{clip-path:url(#SVGID_00000036952549573816052970000015781651777380184497_);fill:#F18D13;}
	.st11{clip-path:url(#SVGID_00000016796920496246200860000015393115853639156377_);fill:#F18D13;}
	.st12{clip-path:url(#SVGID_00000164483591477297964580000016523085253278165396_);fill:#F18D13;}
	.st13{clip-path:url(#SVGID_00000175302396164184809810000006771363668577593732_);fill:#F18D13;}
	.st14{fill:#010202;}
</style>
<g>
	<g>
		<g>
			<g>
				<defs>
					<path id="SVGID_1_" d="M307.3,405.9H535v-68.7H307.3V405.9z M307.3,179.6v65l7.6,6.1l16.8,0.6l162.7,1.2l36,22.5l4.7-12.1
						v-83.2H307.3z"/>
				</defs>
				<clipPath id="SVGID_00000176012297107987987760000015013026662591290269_">
					<use xlink:href="#SVGID_1_"  style="overflow:visible;"/>
				</clipPath>
				<path style="clip-path:url(#SVGID_00000176012297107987987760000015013026662591290269_);fill:#F18D13;" d="M409.5,388.9
					c1.2,0,2.2,0,3.1,0.2c1,0,2,0,2.9,0.2c9,0.2,17.6-0.4,25.8-2c1.4-0.2,1.4-0.4,0-0.4c-6.1-0.4-12.1-0.4-17.8-0.2
					c-5.7,0.2-11.4,0.6-17.2,1.4c-4.5,0.6-8.6-0.2-12.9-1.6c-9.4-3.1-18.2-7.6-26.4-13.7c-26-19.8-40.5-50.3-48.6-81.5
					c-0.4-1.6-0.6-1.6-0.4,0c0.2,2.5,0.2,5.1,0.4,7.4c2.3,26.2,14.7,50.5,34.7,67.7c18.4,15.9,42.1,24.5,66.2,25.1
					c2.2,0,2.3,0,0-0.4C415.8,390.3,412.7,389.7,409.5,388.9C409.1,388.9,409.1,388.9,409.5,388.9 M363.1,205c0,0-0.2,0-0.4,0.2
					c-17,12.1-29.4,27.8-37,47.2c-0.8,2-1.6,4.3-2.3,7.2c-1.6,5.3-3.1,10.4-4.1,15.9c-0.8,4.7-0.6,9,0.4,13.3
					c3.1,13.1,7.6,25.7,13.3,37.4c11,22.9,27.8,43.3,50.9,54.4c2.7,1.4,5.5,2.3,8,3.1c4.9,1.6,9.8,2.2,14.5,2.2
					c5.7,0,15.9-0.4,30.7-0.8c2.5,0,5.3-0.2,8-0.4c6.3-0.4,12.5-2.2,18.6-5.1c26.2-12.7,45.4-36.6,53.1-64.8c2.3-9,3.5-18.2,3.1-28
					c-0.6-16.6-4.7-32.1-12.5-46.6c-12.7-23.3-34.9-40.5-60.3-48.2c-27.6-8.2-57.6-4.1-82,11.4c-0.2,0.2-0.2,0.2,0,0.2h0.4
					c0.2,0,0.4,0.2,0.4,0.4v0.2c0,0.2-0.4,0.4-0.6,0.4c-0.4,0.2-0.8,0-0.8-0.4c0-0.2,0-0.4-0.4-0.2L363.1,205z M317.7,258.9
					c6.7-20.6,18.2-37.6,34.9-51.5c11.4-9.4,24.3-16.1,38.6-19.8c0.2,0,0.2,0,0-0.2c-1.4-1.8-3.9-1-5.5-0.4
					c-15.7,4.9-30.4,11.9-42.5,22.5c-14.5,12.5-24.7,30.2-25.8,49.5C317.3,259.5,317.3,259.5,317.7,258.9
					C317.7,259.3,317.7,259.1,317.7,258.9 M481.6,379.1c-3.7,0.8-7.4,2-11.2,3.5c-4.5,2-9.4,3.9-14.7,6.3c-10,4.3-20.2,6.1-31.1,6.3
					c-12.9,0-26-1.6-38.4-5.5c-26.2-8.4-48.2-27.8-60.9-52.1c-7.4-14.3-11.4-29.4-11.7-45.2c0-4.1,0-8.4,0.4-13.1
					c0.6-8.4,1.4-16.8,2.3-25.5c1.6-12.9,6.7-24.5,15.1-34.7c10.4-12.5,24.1-21.7,39.6-27.8c15.9-6.3,32.5-9,49.5-8
					c28,1.4,54.4,13.1,75,32.1c1.6,1.4,2.9,2.9,4.1,4.7c7.4,10,13.5,20.6,18.2,31.9c1.2,2.9,2.2,5.7,2.9,8.2
					c3.5,12.9,4.7,26,3.3,39.2c-2,20.8-9.6,39.2-22.5,55.6c-7.6,9.6-16.6,17.6-26.8,24.1c-0.4,0.2-0.4,0.4,0,0.2
					c7.8-1.6,13.9-5.9,18.6-12.7c0.4-0.8,0.8-1.4,1.2-2.2c0.2-0.4,0.2-0.4,0.2,0c-0.2,2.5-1.6,5.1-3.5,7c-0.4,0.4-0.4,0.4,0.2,0.2
					c3.9-2,7.4-4.5,10.8-7.6c14.3-12.9,21-31.3,22.3-50.3c0.2-2.9,0.4-5.9,0.4-9c0-0.6,0-1.4-0.2-2c0-0.2,0-0.4,0.2,0
					c0,0.2,0.2,0.4,0.2,0.4c1.2,7.2,1.2,14.7-0.2,21.9c-2.7,16.1-10,29.4-21.5,39.9c-2,1.8-4.1,3.5-6.7,5.5
					c-7,5.3-14.1,10.2-21.1,14.7c-21.7,13.9-48,18.2-73.4,13.5c-10-1.8-20-4.7-29.6-8.6c-15.5-6.1-31.1-15.5-38-31.3
					c-0.2-0.6-0.2-0.8,0.4-0.2c4.9,5.5,10,11,15.1,16.6c4.7,5.3,10.6,10.6,17.8,11.4c0.4,0,0.4,0,0-0.2
					c-8.4-4.7-15.9-10.8-21.9-18.4c-0.8-1.2-1.8-2.2-2.5-3.1l0,0c0,0,0,0,0.2,0c9.4,10.4,20.6,18.4,33.1,24.3
					c17,8,34.9,11.2,53.5,9.4c18.6-1.8,36.2-8.4,51.3-19.2C482,379.1,482,379.1,481.6,379.1"/>
			</g>
		</g>
	</g>
	<g>
		<g>
			<g>
				<defs>
					<path id="SVGID_00000112590542206463620640000008181477640997762464_" d="M307.3,405.9H535v-68.7H307.3V405.9z M307.3,179.6v65
						l7.6,6.1l16.8,0.6l162.7,1.2l36,22.5l4.7-12.1v-83.2H307.3z"/>
				</defs>
				<clipPath id="SVGID_00000120530111658168278910000006541357422560968875_">
					<use xlink:href="#SVGID_00000112590542206463620640000008181477640997762464_"  style="overflow:visible;"/>
				</clipPath>
				<path style="clip-path:url(#SVGID_00000120530111658168278910000006541357422560968875_);fill:#F18D13;" d="M399.9,192.1
					c-0.8,0.4-2.3,1.2-3.1,0.8c-0.4-0.2-0.4-0.4,0-0.8c1.4-1,3.1-1.6,5.3-2c8.8-1,18.4-1.2,28.6-0.4c0.4,0,0.8,0.2,1,0.6
					c0,0,0,0,0,0.2l0,0c-10-0.4-19.6-0.2-29.2,0.8C401.7,191.3,400.9,191.7,399.9,192.1"/>
			</g>
		</g>
	</g>
	<g>
		<g>
			<g>
				<defs>
					<path id="SVGID_00000072999925466660921630000016815616346339742644_" d="M307.3,405.9H535v-68.7H307.3V405.9z M307.3,179.6v65
						l7.6,6.1l16.8,0.6l162.7,1.2l36,22.5l4.7-12.1v-83.2H307.3z"/>
				</defs>
				<clipPath id="SVGID_00000067926573259206959390000015978576392636365988_">
					<use xlink:href="#SVGID_00000072999925466660921630000016815616346339742644_"  style="overflow:visible;"/>
				</clipPath>
				<path style="clip-path:url(#SVGID_00000067926573259206959390000015978576392636365988_);fill:#F18D13;" d="M391.5,193.5
					c-1.2,0.6-2.5,1-3.9,1.2c-0.4,0-0.4,0-0.2-0.4c1.2-0.8,2.5-1.2,3.9-1.2c0.2,0,0.4,0,0.6-0.2c0.6-0.6,1.4-0.8,2.2-0.6
					c0.2,0,0.2,0,0,0.2c-0.8,0.4-1.4,0.8-2.2,0.6C391.9,193.3,391.7,193.5,391.5,193.5"/>
			</g>
		</g>
	</g>
	<g>
		<g>
			<g>
				<defs>
					<path id="SVGID_00000102525382770845413340000012895876547782769551_" d="M307.3,405.9H535v-68.7H307.3V405.9z M307.3,179.6v65
						l7.6,6.1l16.8,0.6l162.7,1.2l36,22.5l4.7-12.1v-83.2H307.3z"/>
				</defs>
				<clipPath id="SVGID_00000125568805448116885260000009872865325578719899_">
					<use xlink:href="#SVGID_00000102525382770845413340000012895876547782769551_"  style="overflow:visible;"/>
				</clipPath>
				<path style="clip-path:url(#SVGID_00000125568805448116885260000009872865325578719899_);fill:#F18D13;" d="M389.6,199.5
					c0.2-0.2,0.2-0.4-0.2-0.2c-25.8,5.9-45.8,26.2-60.3,47.6c-0.2,0.2-0.2,0.4-0.4,0.6c0,0.2,0,0.2,0,0.4c0,0.4-0.2,0.8-0.6,1.2
					h-0.2c0,0,0,0,0-0.2c0-0.4,0-0.6,0.4-0.8c0.2-0.2,0.4-0.4,0.4-0.6c9.8-18.2,23.5-32.1,41.5-42.1c21-11.7,45.6-15.1,69.3-10.4
					c37.6,7.4,67.2,35.8,77.7,72.4l0,0H517l0,0c-3.1-8-6.9-15.7-11.4-23.3c-7.4-12.5-17-22.9-28.8-31.1
					c-21.9-15.1-48.8-21.5-75.2-17c-2,0.4-3.9,0.8-5.9,1.4c-3.1,1-5.5,3.3-7.8,6.1c-5.5,6.5-11.6,12.5-18.2,18.4
					c-12.7,11-26.6,20.4-40.7,29.8c-0.4,0.4-0.6,0.2-0.2-0.2c3.5-3.9,8.2-7.6,12.3-10.4c4.9-3.1,9.4-6.3,13.5-9
					C367.8,223,379.4,212.1,389.6,199.5"/>
			</g>
		</g>
	</g>
	<g>
		<g>
			<g>
				<defs>
					<path id="SVGID_00000140697152940846940700000016444428077700836256_" d="M307.3,405.9H535v-68.7H307.3V405.9z M307.3,179.6v65
						l7.6,6.1l16.8,0.6l162.7,1.2l36,22.5l4.7-12.1v-83.2H307.3z"/>
				</defs>
				<clipPath id="SVGID_00000039131937682369359410000001419865113173986438_">
					<use xlink:href="#SVGID_00000140697152940846940700000016444428077700836256_"  style="overflow:visible;"/>
				</clipPath>
				<path style="clip-path:url(#SVGID_00000039131937682369359410000001419865113173986438_);fill:#F18D13;" d="M363.1,205
					c0.4,0,0.8,0,1,0c0.2,0,0.2,0.2,0,0.4l-0.6,0.4c-0.2,0-0.2,0-0.4,0C363.1,205.6,363.1,205.4,363.1,205"/>
			</g>
		</g>
	</g>
	<g>
		<g>
			<g>
				<defs>
					<path id="SVGID_00000121248278663533090390000009411741342743320719_" d="M307.3,405.9H535v-68.7H307.3V405.9z M307.3,179.6v65
						l7.6,6.1l16.8,0.6l162.7,1.2l36,22.5l4.7-12.1v-83.2H307.3z"/>
				</defs>
				<clipPath id="SVGID_00000020387037993792290010000017911771129378667434_">
					<use xlink:href="#SVGID_00000121248278663533090390000009411741342743320719_"  style="overflow:visible;"/>
				</clipPath>
				<path style="clip-path:url(#SVGID_00000020387037993792290010000017911771129378667434_);fill:#F18D13;" d="M371.1,208.7h0.2
					c0.2,0,0.2,0,0,0.2c-11.9,7.4-21.7,16.8-29.4,28.2c-1.2,1.6-2,3.1-3.5,3.9c-0.2,0.2-0.4,0-0.2-0.2c6.7-10.8,15.3-20.6,25.5-27.8
					C366.1,211.3,368.6,209.7,371.1,208.7"/>
			</g>
		</g>
	</g>
	<g>
		<g>
			<g>
				<defs>
					<path id="SVGID_00000156583574933102555870000003577126953031531401_" d="M307.3,405.9H535v-68.7H307.3V405.9z M307.3,179.6v65
						l7.6,6.1l16.8,0.6l162.7,1.2l36,22.5l4.7-12.1v-83.2H307.3z"/>
				</defs>
				<clipPath id="SVGID_00000071558932014571142410000013564172529953021087_">
					<use xlink:href="#SVGID_00000156583574933102555870000003577126953031531401_"  style="overflow:visible;"/>
				</clipPath>
				<path style="clip-path:url(#SVGID_00000071558932014571142410000013564172529953021087_);fill:#F18D13;" d="M498.4,217.6
					c13.3,7.8,21.9,21.3,22.1,36.8c0,1,0,1-0.4,0c-1.2-4.3-2.7-10.2-3.9-13.3c-2-5.5-4.9-10.4-9-14.5c-2.9-2.9-5.9-5.9-9-9
					c0,0,0,0,0-0.2L498.4,217.6L498.4,217.6"/>
			</g>
		</g>
	</g>
	<g>
		<g>
			<g>
				<defs>
					<path id="SVGID_00000098904156990898759510000016050540598060025528_" d="M307.3,405.9H535v-68.7H307.3V405.9z M307.3,179.6v65
						l7.6,6.1l16.8,0.6l162.7,1.2l36,22.5l4.7-12.1v-83.2H307.3z"/>
				</defs>
				<clipPath id="SVGID_00000026878942770705130260000002037391415965546892_">
					<use xlink:href="#SVGID_00000098904156990898759510000016050540598060025528_"  style="overflow:visible;"/>
				</clipPath>
				<path style="clip-path:url(#SVGID_00000026878942770705130260000002037391415965546892_);fill:#020203;" d="M333.5,251.2
					c-6.7,15.1-9.6,30.5-9.2,46.4c0,0.6,0,0.6-0.4,0c-0.4-1.2-0.8-2.3-0.8-3.7c-0.2-12.1,2-24.3,6.3-36.2
					C330.4,255.5,331.6,252.8,333.5,251.2C333.5,251,333.7,251,333.5,251.2"/>
			</g>
		</g>
	</g>
	<g>
		<g>
			<g>
				<defs>
					<path id="SVGID_00000182492986221342296370000006874498122996446642_" d="M307.3,405.9H535v-68.7H307.3V405.9z M307.3,179.6v65
						l7.6,6.1l16.8,0.6l162.7,1.2l36,22.5l4.7-12.1v-83.2H307.3z"/>
				</defs>
				<clipPath id="SVGID_00000079463155921646133310000011064573986914833591_">
					<use xlink:href="#SVGID_00000182492986221342296370000006874498122996446642_"  style="overflow:visible;"/>
				</clipPath>
				<path style="clip-path:url(#SVGID_00000079463155921646133310000011064573986914833591_);fill:#020203;" d="M526.4,278.1
					c2.7,11.4,3.1,22.7,1.4,34.3l0,0l0,0c0-6.7-0.2-13.3-0.4-19.8C527.2,287.1,526.8,282.4,526.4,278.1c0-0.2,0-0.6,0-1
					c0-0.4,0-0.4,0.2,0C526.2,277.3,526.4,277.7,526.4,278.1"/>
			</g>
		</g>
	</g>
	<g>
		<g>
			<g>
				<defs>
					<path id="SVGID_00000176729788900649969500000002424920573929096105_" d="M307.3,405.9H535v-68.7H307.3V405.9z M307.3,179.6v65
						l7.6,6.1l16.8,0.6l162.7,1.2l36,22.5l4.7-12.1v-83.2H307.3z"/>
				</defs>
				<clipPath id="SVGID_00000182508326347220264070000002654173154554626211_">
					<use xlink:href="#SVGID_00000176729788900649969500000002424920573929096105_"  style="overflow:visible;"/>
				</clipPath>
				<path style="clip-path:url(#SVGID_00000182508326347220264070000002654173154554626211_);fill:#F18D13;" d="M323.8,344.8
					c-4.1-7.6-6.9-15.7-8-23.9l0,0h0.2l0,0c3.9,13.1,9.4,25.5,17,37c0.2,0.2,0,0.4-0.2,0.4s-0.4,0-0.6,0c-0.2,0-0.6-0.4-0.8-0.6
					C329,353.8,326.5,349.7,323.8,344.8"/>
			</g>
		</g>
	</g>
	<g>
		<g>
			<g>
				<defs>
					<path id="SVGID_00000102513269659900975180000017180711848168116636_" d="M307.3,405.9H535v-68.7H307.3V405.9z M307.3,179.6v65
						l7.6,6.1l16.8,0.6l162.7,1.2l36,22.5l4.7-12.1v-83.2H307.3z"/>
				</defs>
				<clipPath id="SVGID_00000035493651858850029890000016554987941400011666_">
					<use xlink:href="#SVGID_00000102513269659900975180000017180711848168116636_"  style="overflow:visible;"/>
				</clipPath>
				<path style="clip-path:url(#SVGID_00000035493651858850029890000016554987941400011666_);fill:#F18D13;" d="M333,337.2
					c-1.4-2.7-3.1-5.5-3.3-8.6c0-0.8,0-0.8,0.4,0c1.4,3.3,2.9,6.3,4.3,9.2c4.3,8.4,9.8,15.9,16.1,22.7c0,0,0,0,0,0.2c0,0,0,0-0.2,0
					C342.8,354.2,337.9,346.6,333,337.2"/>
			</g>
		</g>
	</g>
	<g>
		<g>
			<g>
				<defs>
					<path id="SVGID_00000119116534135723553360000006966235588769436802_" d="M307.3,405.9H535v-68.7H307.3V405.9z M307.3,179.6v65
						l7.6,6.1l16.8,0.6l162.7,1.2l36,22.5l4.7-12.1v-83.2H307.3z"/>
				</defs>
				<clipPath id="SVGID_00000039103126759139655910000012245858580679247777_">
					<use xlink:href="#SVGID_00000119116534135723553360000006966235588769436802_"  style="overflow:visible;"/>
				</clipPath>
				<path style="clip-path:url(#SVGID_00000039103126759139655910000012245858580679247777_);fill:#F18D13;" d="M518.6,336.8
					c-2.2,6.9-6.5,13.1-11.7,19c-3.1,3.5-6.3,6.5-9,9c-0.2,0.2-0.4,0.2-0.4-0.2c0-0.2,0-0.4,0-0.4c0-0.2,0.2-0.6,0.4-0.8
					c1.6-1.6,3.1-3.3,4.7-4.9C508.4,351.9,513.9,344.6,518.6,336.8L518.6,336.8L518.6,336.8L518.6,336.8"/>
			</g>
		</g>
	</g>
	<g>
		<g>
			<g>
				<defs>
					<path id="SVGID_00000075883931079262997590000005302807609977129864_" d="M307.3,405.9H535v-68.7H307.3V405.9z M307.3,179.6v65
						l7.6,6.1l16.8,0.6l162.7,1.2l36,22.5l4.7-12.1v-83.2H307.3z"/>
				</defs>
				<clipPath id="SVGID_00000020358338196069830290000015747147083039028882_">
					<use xlink:href="#SVGID_00000075883931079262997590000005302807609977129864_"  style="overflow:visible;"/>
				</clipPath>
				<path style="clip-path:url(#SVGID_00000020358338196069830290000015747147083039028882_);fill:#F18D13;" d="M352.2,362.3
					c0.2-0.2,1,0.4,1.8,1c0.8,0.8,1.4,1.6,1.2,1.8c-0.2,0.2-1-0.4-1.8-1C352.5,363.2,352,362.5,352.2,362.3"/>
			</g>
		</g>
	</g>
	<g>
		<g>
			<g>
				<defs>
					<path id="SVGID_00000002379225095803185620000007279419875927258526_" d="M307.3,405.9H535v-68.7H307.3V405.9z M307.3,179.6v65
						l7.6,6.1l16.8,0.6l162.7,1.2l36,22.5l4.7-12.1v-83.2H307.3z"/>
				</defs>
				<clipPath id="SVGID_00000119807474803678170110000016781074901576094870_">
					<use xlink:href="#SVGID_00000002379225095803185620000007279419875927258526_"  style="overflow:visible;"/>
				</clipPath>
				<path style="clip-path:url(#SVGID_00000119807474803678170110000016781074901576094870_);fill:#F18D13;" d="M394.6,382.6
					c10,0.6,19.6-0.2,29.8-1.8c7.2-1.2,13.9-2.2,20.2-3.1c6.9-1,13.7-1.6,21-1.6c0.2,0,0.2,0,0.2,0.2c0,0,0,0-0.2,0
					c-15.7,2.2-30.9,4.3-45.8,6.3c-3.7,0.6-7.2,1-10.8,1.2c-4.9,0.4-9.6,0-14.1-1C393.5,382.6,393.5,382.6,394.6,382.6"/>
			</g>
		</g>
	</g>
</g>
<polygon class="st14" points="171,249.9 187.1,249.9 187.1,294.3 202.9,272.4 221.7,272.4 204.1,295.9 221.7,330.7 203.3,330.7 
	192.2,307.2 187.1,314.3 187.1,330.7 171,330.7 "/>
<g>
	<path class="st14" d="M264.8,323.5c-2.9,5.1-8,8.6-15.5,8.6c-12.3,0-20.4-9.4-20.4-21.9v-37.8H245v33.3c0,6.7,3.7,11,9.8,11
		c5.9,0,9.6-3.9,10-10.2v-34.1h16.1v58.4h-16.1V323.5z"/>
	<rect x="294.4" y="249.9" class="st14" width="16.1" height="81.1"/>
	<polygon class="st14" points="328.3,330.7 328.3,285.9 319.5,285.9 319.5,272.4 329.2,272.4 329.2,259.5 344.3,256.1 344.3,272.4 
		354.1,272.4 354.1,285.9 344.3,285.9 344.3,330.7 	"/>
	<path class="st14" d="M398,323.5c-2.9,5.1-8,8.6-15.5,8.6c-12.3,0-20.4-9.4-20.4-21.9v-37.8h16.1v33.3c0,6.7,3.7,11,9.8,11
		c5.9,0,9.6-3.9,10-10.2v-34.1H414v58.4H398V323.5z"/>
	<path class="st14" d="M443.4,278.7c2.7-4.3,7.2-7.4,13.9-7.4c1.4,0,3.3,0.2,4.5,0.4v17c-2.2-1-5.1-1.8-8.6-1.8
		c-5.7,0-9.6,3.9-9.8,10.2v33.9h-16.1v-58.5h16.1V278.7L443.4,278.7z"/>
	<path class="st14" d="M521.1,290.6v34.1c0,1.8,1,2.9,2.7,3.5c-1.2,2.3-2.9,3.3-5.1,3.3c-3.5,0-5.1-2.2-5.1-6.7v-34.1
		c0-8.8-3.9-13.3-11.6-13.3c-4.3,0-8.2,1.8-11.9,5.1c-3.7,3.3-6.5,7.8-7.8,13.3v28.8c0,1.8,1,2.9,2.7,3.5c-1.2,2.3-2.9,3.3-4.9,3.3
		c-3.5,0-5.1-2.2-5.1-6.7v-47.2c0-1.8-1-2.9-2.7-3.7c1.2-2.3,2.7-3.3,4.9-3.3c3.5,0,5.3,2.2,5.3,6.7v8c2-4.3,4.9-7.8,8.6-10.6
		s8.2-4.3,13.3-4.3c5.1,0,9.2,1.8,12.3,4.9C519.6,279,521.1,283.9,521.1,290.6"/>
	<path class="st14" d="M551.1,319.4c3.5,3.9,8.4,5.9,14.9,5.9c6.3,0,11.6-2,15.7-5.9c1,0.6,1.4,1.4,1.4,2.7c0,2.3-1.8,4.5-5.3,6.5
		c-3.5,2.2-7.8,3.1-12.7,3.1c-7.8,0-14.3-2.5-19.4-7.6c-5.1-5.1-7.6-12.1-7.6-21.3s2.7-16.8,8.4-22.9c5.5-6.1,11.7-9.2,18.8-9.2
		c5.5,0,10,2,13.5,5.9c3.5,3.9,5.1,8.2,5.1,13.3c0,3.5-1,6.1-2.9,7.8c-2,1.8-5.1,2.7-9.6,2.7l-25.1,0.8v0.2
		C545.8,309.6,547.6,315.5,551.1,319.4 M570.7,295.3c3.3-0.2,4.9-2.2,4.9-5.9c0-3.7-1.2-6.7-3.3-9.2c-2.2-2.5-5.1-3.7-8.4-3.7
		c-4.7,0-8.6,1.8-11.9,5.5c-3.3,3.7-5.3,8.6-5.9,14.9L570.7,295.3z"/>
	<path class="st14" d="M638.2,282.2c0,1.6-0.6,2.9-1.8,3.9c-1.2,1-2.5,1.4-4.1,1.4c-1.6,0-2.7-0.4-3.7-1c0.4-0.8,0.8-2,0.8-3.5
		c0-1.6-1-3.1-2.9-4.5c-2-1.4-4.9-2.2-9-2.2c-3.9,0-7,1-9.4,2.5c-2.3,1.8-3.5,3.7-3.5,6.1c0,2.3,1.2,4.3,3.5,6.1
		c2.3,1.8,5.3,3.5,8.6,4.9c3.3,1.6,6.7,3.1,10.2,4.7c3.3,1.8,6.3,3.7,8.6,6.3c2.3,2.5,3.5,5.3,3.5,8.4c0,4.3-2.2,8-6.3,11.4
		s-9.4,4.9-15.9,4.9c-6.5,0-11.7-1.2-15.7-3.7s-6.1-5.9-6.1-9.8c0-2.3,0.6-4.1,1.8-5.5c1.2-1.2,2.5-2,4.1-2c1.6,0,2.7,0.4,3.7,1.4
		c-1,1.6-1.6,3.3-1.6,4.9c0,2.7,1.2,4.9,3.3,6.7c2.3,1.6,5.7,2.5,10,2.5c4.5,0,8-1,10.6-2.9c2.7-2,3.9-4.3,3.9-7s-1.2-5.1-3.5-7
		c-2.3-2-5.1-3.5-8.4-4.9c-3.3-1.4-6.7-2.7-10-4.3c-3.3-1.4-6.1-3.3-8.4-5.5c-2.3-2.3-3.5-4.9-3.5-7.8c0-4.7,2-8.4,5.7-11.4
		c3.9-2.9,8.6-4.5,14.3-4.5s10.6,1,14.9,3.1C636.1,275.9,638.2,278.7,638.2,282.2"/>
	<path class="st14" d="M664.9,278.3v38.6c0,2.9,0.6,5.1,1.8,6.3c1.2,1.2,3.1,2,5.9,2c5.1,0,9.8-2.2,14.3-6.3c1,0.8,1.6,1.8,1.6,2.9
		c0,2.5-1.6,4.7-4.9,6.9c-3.3,2.2-7.4,3.1-12.5,3.1c-9,0-13.7-5.1-13.7-15.1v-38.4c-6.7-0.2-9.8-1.6-9.8-4.3c0-1.2,0.4-2.2,1.2-2.7
		c2.5,0.4,4.7,0.6,6.5,0.6h2.2v-11c0-1.8-1-2.9-2.7-3.7c1.2-2.2,2.7-3.3,4.9-3.3c3.5,0,5.3,2.2,5.3,6.7v11.4h20.2
		c0.4,0.6,0.4,1.2,0.4,2c0,3.1-6.3,4.5-18.8,4.5C666.4,278.3,664.9,278.3,664.9,278.3z"/>
</g>
</svg>
