<?xml version="1.0" encoding="utf-8"?>
<!-- Generator: Adobe Illustrator 28.0.0, SVG Export Plug-In . SVG Version: 6.00 Build 0)  -->
<svg version="1.1" id="Layer_1" xmlns="http://www.w3.org/2000/svg" xmlns:xlink="http://www.w3.org/1999/xlink" x="0px" y="0px"
	 viewBox="0 0 496 501" style="enable-background:new 0 0 496 501;" xml:space="preserve">
<style type="text/css">
	.st0{fill:#FFFFFF;}
</style>
<path class="st0" d="M386.7,451c-8.7,1.9-17.3,4.6-25.8,8.2c-10.4,4.3-21.7,9.1-33.9,14.3c-23,9.8-46.6,14.1-71.4,14.3
	c-29.9,0.2-60.1-3.7-88.2-12.6C107,455.9,56.7,411.4,27.2,355.3C10,322.5,1,287.8,0.2,251.3C0,242,0.3,231.9,1,221.1
	c1.3-19.4,3.1-38.9,5.6-58.4c3.8-29.9,15.4-56.4,34.6-79.6C65,54.3,96.8,33,132.3,19.1C168.9,4.8,207-1.4,246.4,0.6
	c64.2,3.3,125.2,30.1,172.5,74c3.4,3.1,6.6,6.7,9.5,10.8c16.9,23,30.9,47.4,42.1,73.2c2.9,6.6,5.1,12.9,6.7,18.8
	c8.1,29.8,10.7,59.8,7.7,89.9c-4.7,47.7-22,90.3-51.8,128c-17.5,22.1-38.1,40.6-61.9,55.5c-1,0.6-0.9,0.8,0.2,0.6
	c17.9-3.6,32.2-13.3,43-29.2c1.1-1.6,2-3.2,2.8-5c0.4-0.8,0.5-0.7,0.4,0.1c-0.6,5.9-3.6,11.9-8.1,16.2c-0.9,0.9-0.8,1,0.3,0.4
	c8.8-4.6,17-10.4,24.7-17.4c32.7-29.7,48.4-72.2,51.5-115.9c0.5-6.8,0.7-13.7,0.8-20.9c0-1.5-0.1-3-0.4-4.6c-0.1-0.6,0-0.7,0.3-0.1
	c0.2,0.3,0.3,0.7,0.4,1c2.8,16.8,2.7,33.7-0.3,50.6c-6.4,36.8-23,67.5-49.7,92.1c-4.3,4-9.3,8.1-15.2,12.5
	c-16.2,12.1-32.4,23.4-48.8,33.9c-50,32.2-110.3,41.7-168.9,31.3c-23-4.1-45.8-11-67.9-19.8c-35.5-14.1-71.8-35.4-87.3-72.1
	c-0.6-1.5-0.4-1.7,0.7-0.4c11.4,12.6,22.9,25.3,34.5,38.1c10.9,12,24.3,24.1,41.1,26.1c0.9,0.1,1-0.1,0.2-0.5
	c-19.5-10.6-36.3-24.7-50.3-42.3c-2-2.5-3.9-4.9-5.7-7.1c0,0,0,0,0,0l0.2-0.2c0.1-0.1,0.2-0.1,0.3,0c21.8,23.8,47.2,42.4,76,55.9
	c39.3,18.4,80.3,25.6,123,21.6c42.6-4,83.4-19.5,118-44.2C387.8,450.9,387.7,450.8,386.7,451z M10.1,174.6
	c15.1-47.2,41.8-86.6,80.2-118.5c26.2-21.7,55.7-36.8,88.7-45.3c0.3-0.1,0.3-0.2,0.2-0.4c-3-4-9-2.1-12.8-0.9
	c-36.1,11.1-69.7,27.7-97.7,52c-33.5,29-56.9,69.4-59.5,114.1c0,0.7,0.1,0.7,0.5,0.1C9.8,175.5,10,175.1,10.1,174.6z M114.5,50.7
	c-0.2,0.1-0.5,0.2-0.7,0.4c-39.6,27.7-68,63.8-85.2,108.4c-1.7,4.5-3.6,10.1-5.6,16.8c-3.5,12-7.2,23.9-9.3,36.3
	c-1.8,10.6-1.5,20.8,0.9,30.6c7.4,30.2,17.6,59,30.6,86.2c25.1,52.7,64,99.6,117.3,125.4c6.5,3.2,12.7,5.6,18.6,7.4
	c11.2,3.4,22.3,4.9,33.4,4.8c12.9-0.2,36.5-0.8,70.8-1.8c5.9-0.2,12-0.5,18.4-1c14.6-1.1,29-5,43-11.7
	c60.3-29.1,104.5-84.4,121.9-148.9c5.5-20.5,7.9-42,7.2-64.5c-1.2-38.1-10.8-73.8-29-107.1c-29.1-53.6-80-93.3-138.5-110.8
	c-63.5-19-132.6-9.3-188.5,26.1c-0.6,0.4-0.5,0.5,0.2,0.5l0.9,0c0.4,0,0.8,0.3,0.8,0.8c0,0.1,0,0.3-0.1,0.4c-0.2,0.5-0.7,0.8-1.4,1
	c-1.1,0.3-1.6-0.1-1.6-1.1c0-0.6-0.2-0.7-0.7-0.4L114.5,50.7z M221.1,473.4c2.6,0.1,5,0.2,7.2,0.3c2.2,0.1,4.3,0.2,6.6,0.3
	c20.5,0.4,40.4-1.1,59.6-4.6c3-0.5,3-0.9-0.1-1c-14-0.7-27.7-0.8-41-0.4c-12.9,0.3-26.1,1.4-39.6,3.1c-10.4,1.3-19.7-0.6-29.6-3.8
	c-21.8-7-42.1-17.6-60.8-31.7C63.3,390,30.2,319.9,11.6,248.2c-0.9-3.4-1.2-3.4-1.1,0.2c0.3,5.7,0.3,11.5,0.8,17.2
	c5.2,60.2,33.7,116.2,79.5,155.7c42.2,36.4,97,56.1,152.1,57.6c5.1,0.1,5.2-0.2,0.1-1.1c-7.3-1.3-14.6-2.7-21.9-4.1
	C220.2,473.5,220.2,473.4,221.1,473.4z"/>
<path class="st0" d="M199.3,20.8c-1.7,1-5.2,2.6-7,1.7c-1-0.5-1-1-0.1-1.6c3.3-2.3,7.4-3.8,12.3-4.3c20.4-2.3,42.3-2.6,65.7-1.1
	c1,0.1,1.8,0.5,2.4,1.4c0.1,0.1,0,0.2-0.1,0.3c0,0-0.1,0-0.1,0c-22.9-1.1-45.2-0.6-66.9,1.6C203.3,19.1,201.2,19.8,199.3,20.8z"/>
<path class="st0" d="M179.9,24c-2.8,1.5-5.8,2.4-8.9,2.8c-1,0.1-1.1-0.2-0.3-0.8c2.5-2,5.7-2.8,8.9-2.5c0.5,0,0.9-0.1,1.2-0.4
	c1.4-1.2,3.1-1.6,5.1-1.3c0.5,0.1,0.5,0.2,0.1,0.5c-1.6,1.1-3.3,1.6-5.1,1.5C180.5,23.8,180.2,23.9,179.9,24z"/>
<path class="st0" d="M175.4,37.8c0.4-0.5,0.3-0.7-0.3-0.5C115.8,50.7,69.6,97.6,36.2,146.7c-0.3,0.4-0.5,0.9-0.8,1.3
	c-0.1,0.3-0.2,0.6-0.2,1c0.1,1.1-0.4,2-1.4,2.7c-0.2,0.1-0.5,0.1-0.6-0.1c0-0.1-0.1-0.2-0.1-0.3c0-0.7,0.2-1.3,0.7-1.9
	c0.4-0.5,0.7-1,1-1.5c22.3-41.7,54.2-74,95.5-97C178.7,24,235.1,16.2,289.6,27c86.6,17.2,154.7,82.4,179,166.8c0,0.1,0,0.2-0.1,0.2
	l-0.3,0.1c0,0-0.1,0-0.1,0c-7.2-18.4-15.9-36.2-26-53.4c-17.1-29-39.2-52.8-66.3-71.5C325.5,34.6,263.5,19.7,203,30
	c-4.7,0.8-9.2,1.9-13.6,3.3c-7.2,2.3-12.6,7.7-17.8,14c-12.4,14.9-26.4,29-41.9,42.3c-29.4,25.2-61.4,47-93.9,68.3
	c-1.1,0.7-1.3,0.6-0.4-0.4c8-8.9,18.9-17.5,28.4-23.7c11.4-7.3,21.7-14.2,31-20.7C125,92.1,151.9,66.9,175.4,37.8z"/>
<path class="st0" d="M114.5,50.7c0.8-0.2,1.6-0.2,2.3,0.1c0.5,0.2,0.5,0.5,0.1,0.8l-1.2,0.9c-0.3,0.2-0.5,0.2-0.7-0.1
	C114.6,51.9,114.5,51.3,114.5,50.7z"/>
<path class="st0" d="M132.8,59c0.2-0.1,0.4-0.1,0.6-0.1c0.4,0,0.5,0.2,0.1,0.4c-27.3,17.2-49.9,38.9-67.7,65
	c-2.6,3.8-4.7,7.2-8.3,8.8c-0.6,0.3-0.8,0.1-0.4-0.5c15.2-24.9,35.1-47.1,58.7-64C121.1,64.8,126.8,61.6,132.8,59z"/>
<path class="st0" d="M425.7,79.4c30.4,18.1,50.6,49.2,51,84.8c0,2.2-0.2,2.2-0.8,0.1c-2.7-10-6.4-23.2-9-30.7
	c-4.4-12.7-11.4-23.8-20.9-33.4c-6.6-6.6-13.5-13.4-20.8-20.5c-0.1-0.1-0.1-0.2,0-0.3c0,0,0,0,0.1-0.1
	C425.5,79.3,425.6,79.3,425.7,79.4z"/>
<path class="st0" d="M46.5,156.8C31.4,191.4,24.4,227,25.3,263.5c0,1.4-0.2,1.5-0.8,0.2c-1.1-2.7-1.7-5.5-1.8-8.6
	c-0.3-28,4.5-55.7,14.5-83.1c2-5.4,4.7-11.7,9-15.3C46.6,156.4,46.7,156.4,46.5,156.8z"/>
<path class="st0" d="M490.1,218.7c6.4,26.1,7.4,52.4,3,78.8c0,0.1-0.1,0.2-0.2,0.2h0c-0.1,0-0.2-0.1-0.2-0.2
	c-0.1-15.2-0.5-30.4-1-45.7c-0.5-12.6-1.3-23.5-2.4-32.7c-0.1-1-0.1-2,0-2.9c0.1-0.7,0.2-0.7,0.3,0
	C489.8,217,489.9,217.8,490.1,218.7z"/>
<path class="st0" d="M23.9,372.1c-9.5-17.6-15.6-36-18.4-55.1c0-0.1,0-0.1,0.1-0.1l0.3,0c0.1,0,0.1,0,0.1,0.1
	c8.8,30.3,21.8,58.7,39,85.1c0.3,0.5,0.2,0.7-0.4,0.7c-0.4,0-0.8-0.1-1.2-0.2c-0.6-0.2-1.2-0.7-1.6-1.2
	C35.9,393,30,383.3,23.9,372.1z"/>
<path class="st0" d="M45,354.4c-3.2-6.1-7-12.8-7.6-19.7c-0.1-1.8,0.1-1.9,0.9-0.2c3.3,7.6,6.7,14.6,10.1,21.2
	c10,19.2,22.3,36.7,37.1,52.4c0.1,0.1,0.1,0.2,0,0.3l0,0c-0.1,0.1-0.2,0.1-0.3,0C67.7,393.8,56.5,376.4,45,354.4z"/>
<path class="st0" d="M472.1,353.6c-4.9,15.6-15,30.2-27.2,43.5c-7.3,8-14.2,14.9-20.6,20.7c-0.5,0.5-0.9,0.4-1-0.3
	c-0.1-0.4-0.1-0.8,0-1.1c0.1-0.6,0.3-1.2,0.7-1.6c3.6-3.8,7.2-7.6,10.7-11.4c14.1-15,26.5-31.5,37-49.7c0.1-0.1,0.2-0.2,0.3-0.2
	c0,0,0.1,0,0.1,0.1C472.2,353.5,472.2,353.5,472.1,353.6z"/>
<ellipse transform="matrix(0.6896 -0.7242 0.7242 0.6896 -272.2008 196.0679)" class="st0" cx="92.6" cy="415.6" rx="1" ry="4.6"/>
<path class="st0" d="M187.1,459.2c22.9,1.2,45.1-0.5,68.3-4.1c16.6-2.6,32-4.9,46.2-7c15.6-2.3,31.7-3.5,48.1-3.6
	c0.3,0,0.4,0.1,0.3,0.4c-0.1,0.1-0.2,0.2-0.3,0.2c-36.1,4.9-71.3,9.8-105.4,14.5c-8.4,1.2-16.7,2.1-24.9,2.7
	c-11.4,0.9-22.2,0.1-32.5-2.3C184.1,459.3,184.2,459.1,187.1,459.2z"/>
</svg>
