<?xml version="1.0" encoding="UTF-8" standalone="no"?>
<!DOCTYPE svg PUBLIC "-//W3C//DTD SVG 1.1//EN" "http://www.w3.org/Graphics/SVG/1.1/DTD/svg11.dtd">
<svg xmlns="http://www.w3.org/2000/svg" version="1.1" viewBox="0.00 0.00 496.00 501.00">
<path fill="#000000" d="
  M 386.74 450.97
  Q 373.65 453.85 360.91 459.13
  Q 345.36 465.57 326.98 473.41
  C 304.03 483.19 280.37 487.55 255.58 487.69
  C 225.72 487.87 195.45 483.99 167.33 475.07
  C 107.04 455.94 56.70 411.44 27.23 355.33
  Q 1.35 306.06 0.23 251.26
  Q -0.06 237.33 0.99 221.07
  Q 2.87 191.93 6.64 162.65
  Q 12.40 117.86 41.20 83.07
  C 65.00 54.33 96.77 33.05 132.34 19.12
  Q 187.25 -2.38 246.43 0.63
  C 310.61 3.89 371.62 30.76 418.91 74.58
  Q 423.97 79.27 428.45 85.38
  Q 453.78 119.93 470.60 158.55
  Q 474.94 168.52 477.33 177.34
  Q 489.48 222.07 485.00 267.25
  Q 477.90 338.75 433.16 395.24
  Q 406.96 428.33 371.22 450.73
  Q 369.68 451.70 371.46 451.34
  Q 398.34 445.95 414.43 422.15
  Q 416.03 419.79 417.22 417.18
  Q 417.76 416.00 417.62 417.29
  C 416.99 423.17 414.05 429.23 409.51 433.48
  Q 408.14 434.76 409.80 433.88
  Q 422.97 426.96 434.51 416.51
  C 467.25 386.86 482.96 344.30 485.97 300.65
  Q 486.67 290.49 486.74 279.79
  Q 486.75 277.58 486.35 275.21
  Q 486.19 274.28 486.66 275.10
  Q 486.94 275.59 487.03 276.13
  Q 491.17 301.40 486.75 326.74
  Q 477.11 381.95 437.06 418.83
  Q 430.62 424.77 421.90 431.29
  Q 397.67 449.41 373.14 465.21
  C 323.12 497.42 262.81 506.87 204.24 496.52
  C 181.22 492.45 158.46 485.48 136.39 476.69
  C 100.93 462.57 64.63 441.31 49.07 404.62
  Q 48.10 402.33 49.76 404.18
  Q 66.79 423.12 84.26 442.30
  C 95.19 454.30 108.60 466.42 125.36 468.42
  Q 126.77 468.59 125.52 467.90
  Q 96.28 451.98 75.17 425.57
  Q 72.17 421.82 69.43 418.44
  Q 69.42 418.42 69.44 418.40
  L 69.63 418.24
  Q 69.79 418.10 69.93 418.26
  Q 102.69 453.93 145.96 474.12
  Q 204.96 501.66 269.00 495.70
  C 311.61 491.74 352.39 476.21 386.98 451.51
  Q 388.16 450.66 386.74 450.97
  Z
  M 10.13 174.57
  Q 32.73 103.84 90.31 56.11
  Q 129.54 23.60 179.05 10.84
  Q 179.47 10.73 179.21 10.39
  C 176.22 6.39 170.22 8.31 166.41 9.48
  C 130.36 20.56 96.72 37.16 68.71 61.44
  C 35.21 90.47 11.80 130.86 9.23 175.55
  Q 9.17 176.53 9.69 175.69
  Q 9.87 175.39 10.13 174.57
  Z
  M 114.48 50.68
  Q 114.13 50.80 113.76 51.06
  Q 54.38 92.55 28.57 159.42
  Q 25.98 166.14 22.99 176.23
  C 19.45 188.20 15.75 200.16 13.68 212.50
  Q 11.00 228.45 14.59 243.07
  Q 25.71 288.42 45.19 329.28
  C 70.32 382.01 109.22 428.92 162.48 454.63
  Q 172.28 459.36 181.11 461.99
  Q 197.93 467.02 214.49 466.74
  Q 233.88 466.41 285.29 464.95
  Q 294.14 464.70 303.74 464.00
  Q 325.70 462.41 346.69 452.27
  C 406.96 423.14 451.22 367.87 468.58 303.37
  Q 476.87 272.60 475.82 238.84
  Q 474.06 181.76 446.81 131.69
  C 417.66 78.14 366.80 38.38 308.26 20.85
  C 244.73 1.82 175.62 11.59 119.79 46.99
  Q 118.94 47.52 119.94 47.51
  L 120.83 47.49
  A 0.82 0.81 -77.1 0 1 121.57 48.68
  Q 121.20 49.40 120.21 49.70
  Q 118.63 50.16 118.61 48.63
  Q 118.59 47.79 117.91 48.27
  L 114.48 50.68
  Z
  M 221.11 473.40
  Q 225.05 473.49 228.36 473.71
  Q 231.60 473.93 234.92 474.00
  Q 265.73 474.58 294.56 469.39
  Q 299.07 468.58 294.49 468.36
  Q 273.49 467.37 253.46 467.91
  Q 234.10 468.43 213.82 471.06
  C 203.46 472.40 194.14 470.46 184.22 467.29
  Q 151.47 456.79 123.43 435.57
  C 63.29 390.05 30.19 319.85 11.58 248.23
  Q 10.25 243.11 10.50 248.40
  C 10.76 254.10 10.81 259.89 11.30 265.65
  C 16.48 325.83 45.03 381.89 90.80 421.34
  C 133.05 457.76 187.78 477.44 242.92 478.91
  Q 250.62 479.12 243.03 477.79
  Q 232.06 475.88 221.08 473.64
  Q 219.78 473.37 221.11 473.40
  Z"
/>
<path fill="#000000" d="
  M 199.34 20.80
  C 197.61 21.75 194.09 23.39 192.37 22.54
  Q 190.92 21.82 192.25 20.90
  Q 197.25 17.39 204.56 16.58
  Q 235.10 13.20 270.26 15.46
  Q 271.83 15.56 272.67 16.89
  A 0.24 0.23 -14.8 0 1 272.46 17.25
  Q 238.09 15.56 205.60 18.88
  Q 202.18 19.24 199.34 20.80
  Z"
/>
<path fill="#000000" d="
  M 179.90 24.02
  Q 175.73 26.28 170.98 26.77
  Q 169.47 26.92 170.67 26.00
  C 173.21 24.05 176.33 23.23 179.56 23.50
  Q 180.24 23.56 180.78 23.12
  Q 182.95 21.34 185.88 21.80
  Q 186.56 21.91 185.99 22.30
  Q 183.62 23.97 180.89 23.80
  A 1.92 1.84 -56.3 0 0 179.90 24.02
  Z"
/>
<path fill="#000000" d="
  M 175.45 37.75
  Q 176.05 37.00 175.11 37.21
  C 115.83 50.69 69.62 97.59 36.19 146.71
  Q 35.77 147.33 35.43 148.04
  Q 35.21 148.49 35.26 148.99
  Q 35.41 150.70 33.85 151.66
  A 0.47 0.47 0.0 0 1 33.13 151.25
  Q 33.14 150.18 33.82 149.37
  Q 34.39 148.69 34.84 147.86
  Q 68.34 85.36 130.35 50.89
  C 178.70 24.02 235.08 16.18 289.59 27.03
  C 376.16 44.26 444.30 109.41 468.54 193.82
  Q 468.59 194.00 468.42 194.06
  L 468.16 194.15
  Q 468.11 194.17 468.08 194.11
  Q 457.28 166.46 442.09 140.71
  Q 416.39 97.18 375.79 69.23
  C 325.50 34.60 263.48 19.69 203.00 29.99
  Q 196.00 31.18 189.43 33.32
  C 182.23 35.66 176.87 40.99 171.58 47.34
  Q 152.94 69.71 129.69 89.60
  C 100.25 114.79 68.30 136.62 35.74 157.86
  Q 34.03 158.98 35.39 157.46
  C 43.38 148.54 54.31 139.92 63.83 133.78
  Q 80.90 122.78 94.81 113.10
  Q 140.17 81.54 175.45 37.75
  Z"
/>
<path fill="#000000" d="
  M 114.48 50.68
  Q 115.70 50.35 116.77 50.78
  Q 117.52 51.07 116.87 51.55
  L 115.64 52.44
  Q 115.20 52.76 114.90 52.32
  Q 114.45 51.67 114.48 50.68
  Z"
/>
<path fill="#000000" d="
  M 132.83 59.01
  Q 133.12 58.88 133.44 58.92
  Q 134.11 58.99 133.54 59.35
  Q 92.62 85.16 65.80 124.31
  C 63.22 128.07 61.10 131.52 57.46 133.10
  Q 56.52 133.51 57.06 132.64
  C 72.23 107.77 92.15 85.57 115.72 68.65
  Q 123.74 62.89 132.83 59.01
  Z"
/>
<path fill="#000000" d="
  M 425.72 79.39
  C 456.11 97.48 476.34 128.62 476.75 164.15
  Q 476.79 167.42 475.94 164.26
  C 473.26 154.29 469.59 141.05 466.98 133.58
  Q 460.31 114.54 446.07 100.22
  Q 436.23 90.32 425.27 79.73
  A 0.21 0.21 0.0 0 1 425.34 79.38
  Q 425.55 79.29 425.72 79.39
  Z"
/>
<path fill="#000000" d="
  M 46.53 156.80
  Q 23.91 208.76 25.30 263.49
  Q 25.36 265.65 24.51 263.66
  Q 22.80 259.64 22.75 255.08
  Q 22.26 213.10 37.27 171.94
  C 39.23 166.58 41.97 160.27 46.31 156.63
  Q 46.78 156.24 46.53 156.80
  Z"
/>
<path fill="#000000" d="
  M 490.15 218.69
  Q 499.73 257.91 493.16 297.49
  Q 493.13 297.67 492.95 297.66
  L 492.94 297.66
  Q 492.75 297.64 492.75 297.45
  Q 492.58 274.71 491.74 251.71
  Q 491.04 232.78 489.32 219.02
  Q 489.14 217.55 489.34 216.07
  Q 489.48 214.95 489.64 216.07
  Q 489.84 217.43 490.15 218.69
  Z"
/>
<path fill="#000000" d="
  M 23.92 372.07
  Q 9.67 345.67 5.53 316.97
  Q 5.52 316.89 5.62 316.88
  L 5.89 316.84
  Q 6.00 316.83 6.02 316.92
  Q 19.17 362.40 44.98 402.01
  Q 45.43 402.71 44.60 402.67
  Q 43.99 402.65 43.40 402.42
  A 3.44 3.37 81.9 0 1 41.82 401.21
  Q 33.01 388.92 23.92 372.07
  Z"
/>
<path fill="#000000" d="
  M 45.05 354.39
  C 41.88 348.30 38.01 341.62 37.46 334.72
  Q 37.24 331.99 38.33 334.50
  Q 43.29 345.86 48.40 355.71
  Q 63.34 384.51 85.54 408.10
  Q 85.67 408.24 85.53 408.39
  L 85.53 408.39
  Q 85.39 408.54 85.24 408.41
  C 67.73 393.82 56.49 376.39 45.05 354.39
  Z"
/>
<path fill="#000000" d="
  M 472.14 353.58
  C 467.26 369.16 457.11 383.76 444.89 397.04
  Q 433.90 408.97 424.29 417.73
  Q 423.48 418.47 423.29 417.39
  Q 423.20 416.82 423.26 416.25
  Q 423.35 415.32 423.99 414.63
  Q 429.41 408.86 434.72 403.23
  Q 455.90 380.80 471.75 353.51
  Q 471.85 353.34 472.04 353.34
  Q 472.11 353.33 472.13 353.40
  Q 472.17 353.49 472.14 353.58
  Z"
/>
<ellipse fill="#000000" cx="0.00" cy="0.00" transform="translate(92.63,415.58) rotate(43.6)" rx="4.64" ry="0.96"/>
<path fill="#000000" d="
  M 187.14 459.23
  C 210.06 460.48 232.19 458.76 255.47 455.16
  Q 280.38 451.31 301.69 448.15
  Q 325.14 444.68 349.81 444.51
  Q 350.27 444.51 350.08 444.93
  Q 349.99 445.12 349.78 445.15
  Q 295.58 452.53 244.38 459.64
  Q 231.78 461.39 219.51 462.35
  Q 202.45 463.69 187.03 460.02
  Q 182.66 458.99 187.14 459.23
  Z"
/>
</svg>
