<?xml version="1.0" encoding="utf-8"?>
<!-- Generator: Adobe Illustrator 28.0.0, SVG Export Plug-In . SVG Version: 6.00 Build 0)  -->
<svg version="1.1" id="Ebene_1" xmlns="http://www.w3.org/2000/svg" xmlns:xlink="http://www.w3.org/1999/xlink" x="0px" y="0px"
	 viewBox="0 0 1152 257.5" style="enable-background:new 0 0 1152 257.5;" xml:space="preserve">
<style type="text/css">
	.st0{fill:#FFFFFF;}
</style>
<g>
	<g>
		<path class="st0" d="M1126.5,185.8c0,12.8-5.2,24.4-13.6,32.8c-8.4,8.4-20,13.6-32.8,13.6h-55.8h-55.7c-12.8,0-24.4-5.2-32.8-13.6
			c-8.4-8.4-13.6-20-13.6-32.8v-55.8V74.3c0-12.8,5.2-24.4,13.6-32.8c8.4-8.4,20-13.6,32.8-13.6h55.7h55.8
			c12.8,0,24.4,5.2,32.8,13.6c8.4,8.4,13.6,20,13.6,32.8v55.8V185.8z"/>
		<g>
			<g>
				<rect x="959.1" y="108.3" width="28.3" height="87.1"/>
				<path d="M973.2,64.7c-9.1,0-15.1,6.5-14.9,15.2c-0.2,8.3,5.8,15,14.7,15c9.3,0,15.3-6.7,15.3-15
					C988.1,71.3,982.3,64.7,973.2,64.7z"/>
			</g>
			<path d="M1057.7,106.2c-12.3,0-20.8,5.8-25.5,11.1v-9.1h-28.3v87.1h28.3v-48.6c0-2.6,0.4-5.4,1.1-7.1c1.9-5.2,6.5-10.6,14.3-10.6
				c10.2,0,14.3,8,14.3,19.7v46.5h28.3v-50.1C1090.2,118.5,1076.3,106.2,1057.7,106.2z"/>
		</g>
	</g>
	<path class="st0" d="M807,41.5c-8.4-8.4-20-13.6-32.8-13.6h-55.8h-55.8c-12.8,0-24.4,5.2-32.8,13.6c-8.4,8.4-13.6,20-13.6,32.8
		v55.8v55.8c0,12.8,5.2,24.4,13.6,32.8c8.4,8.4,20,13.6,32.8,13.6h55.8h55.8c12.8,0,24.4-5.2,32.8-13.6c8.4-8.4,13.6-20,13.6-32.8
		v-55.8V74.3C820.7,61.5,815.4,49.9,807,41.5z"/>
	<g>
		<path class="st0" d="M521,185.8c0,12.8-5.2,24.4-13.6,32.8c-8.4,8.4-20,13.6-32.8,13.6h-55.8H363c-12.8,0-24.4-5.2-32.8-13.6
			c-8.4-8.4-13.6-20-13.6-32.8v-55.8V74.3c0-12.8,5.2-24.4,13.6-32.8c8.4-8.4,20-13.6,32.8-13.6h55.8h55.8
			c12.8,0,24.4,5.2,32.8,13.6c8.4,8.4,13.6,20,13.6,32.8v55.8V185.8z"/>
		<path d="M434.6,232.3v-74.8h25.2l3.8-29.3h-29v-18.6c0-8.5,2.3-14.2,14.5-14.2l15.4,0V69.3c-2.7-0.4-11.9-1.1-22.5-1.1
			c-22.3,0-37.5,13.6-37.5,38.6v21.5h-25.1v29.3h25.1v74.8H434.6z"/>
	</g>
	<g>
		<path class="st0" d="M226.8,185.8c0,12.8-5.2,24.4-13.6,32.8c-8.4,8.4-20,13.6-32.8,13.6h-55.8H68.9c-12.8,0-24.4-5.2-32.8-13.6
			c-8.4-8.4-13.6-20-13.6-32.8v-55.8V74.3c0-12.8,5.2-24.4,13.6-32.8c8.4-8.4,20-13.6,32.8-13.6h55.8h55.8
			c12.8,0,24.4,5.2,32.8,13.6c8.4,8.4,13.6,20,13.6,32.8v55.8V185.8z"/>
		<g>
			<g id="g10_00000103228092844079803700000012200856719130739643_" transform="matrix(1.3333333,0,0,-1.3333333,0,671.78667)">
				<g id="g12_00000143598768130736048400000007198460486490035892_" transform="scale(0.1)">
					<path id="path14_00000119102508022159018140000000842896965699032733_" d="M934.7,4625.4c-152.8,0-171.9-0.6-231.9-3.4
						c-59.9-2.7-100.8-12.2-136.5-26.1c-37-14.4-68.4-33.6-99.6-64.9c-31.3-31.3-50.5-62.6-64.9-99.6
						c-13.9-35.8-23.4-76.7-26.1-136.5c-2.7-60-3.4-79.1-3.4-231.9c0-152.8,0.7-171.9,3.4-231.9c2.7-59.9,12.2-100.8,26.1-136.5
						c14.4-37,33.6-68.3,64.9-99.6c31.3-31.3,62.6-50.5,99.6-64.9c35.8-13.9,76.7-23.4,136.5-26.2c60-2.7,79.2-3.4,231.9-3.4
						c152.8,0,171.9,0.7,231.9,3.4c59.9,2.7,100.8,12.2,136.5,26.2c37,14.4,68.3,33.6,99.6,64.9c31.3,31.3,50.5,62.6,64.9,99.6
						c13.9,35.8,23.4,76.7,26.1,136.5c2.7,60,3.4,79.1,3.4,231.9c0,152.8-0.6,171.9-3.4,231.9c-2.7,59.9-12.2,100.8-26.1,136.5
						c-14.4,37-33.6,68.4-64.9,99.6c-31.3,31.3-62.6,50.5-99.6,64.9c-35.8,13.9-76.7,23.4-136.5,26.1
						C1106.6,4624.8,1087.5,4625.4,934.7,4625.4z M934.7,4524.1c150.2,0,168-0.6,227.3-3.3c54.9-2.5,84.6-11.7,104.5-19.4
						c26.3-10.2,45-22.4,64.7-42.1c19.7-19.7,31.8-38.4,42.1-64.7c7.7-19.8,16.9-49.6,19.4-104.4c2.7-59.3,3.3-77.1,3.3-227.3
						s-0.6-168-3.3-227.3c-2.5-54.9-11.7-84.6-19.4-104.5c-10.2-26.2-22.4-45-42.1-64.7c-19.7-19.7-38.4-31.9-64.7-42.1
						c-19.8-7.7-49.6-16.9-104.5-19.4c-59.3-2.7-77.1-3.3-227.3-3.3c-150.2,0-168,0.6-227.3,3.3c-54.9,2.5-84.6,11.7-104.5,19.4
						c-26.2,10.2-45,22.4-64.7,42.1c-19.7,19.7-31.9,38.4-42.1,64.7c-7.7,19.8-16.9,49.6-19.4,104.5c-2.7,59.3-3.3,77.1-3.3,227.3
						s0.6,168,3.3,227.3c2.5,54.8,11.7,84.6,19.4,104.4c10.2,26.2,22.4,45,42.1,64.7c19.7,19.7,38.4,31.9,64.7,42.1
						c19.8,7.7,49.6,16.9,104.5,19.4C766.7,4523.5,784.5,4524.1,934.7,4524.1"/>
					<path id="path16_00000139277951410023561770000007417804711321000584_" d="M934.7,3875.4c-103.5,0-187.5,84-187.5,187.5
						c0,103.5,83.9,187.5,187.5,187.5c103.6,0,187.5-83.9,187.5-187.5C1122.2,3959.4,1038.2,3875.4,934.7,3875.4z M934.7,4351.8
						c-159.5,0-288.8-129.3-288.8-288.8c0-159.5,129.3-288.8,288.8-288.8s288.8,129.3,288.8,288.8
						C1223.5,4222.4,1094.2,4351.8,934.7,4351.8"/>
					<path id="path18_00000016050488091676870290000003688500610775891895_" d="M1302.4,4363.2c0-37.3-30.2-67.5-67.5-67.5
						c-37.3,0-67.5,30.2-67.5,67.5c0,37.3,30.2,67.5,67.5,67.5C1272.2,4430.7,1302.4,4400.4,1302.4,4363.2"/>
				</g>
			</g>
		</g>
	</g>
</g>
<polyline points="731.4,126.7 779.5,190.3 741.8,190.3 712.3,151.7 678.5,190.3 659.8,190.3 703.6,140.3 657.4,79.9 696,79.9 
	722.7,115.2 753.6,79.9 772.3,79.9 "/>
<polyline class="st0" points="757.5,179.4 690.5,90.8 679.4,90.8 747.1,179.4 757.5,179.4 "/>
</svg>
